<svg version="1.1" xmlns="http://www.w3.org/2000/svg" xmlns:xlink="http://www.w3.org/1999/xlink" width="1280" height="666"><defs><clipPath id="dnLIVTxXPZzF"><path fill="none" stroke="none" d=" M 0 0 L 1280 0 L 1280 666 L 0 666 L 0 0 Z"/></clipPath></defs><g transform="scale(1,1)" clip-path="url(#dnLIVTxXPZzF)"><g><rect fill="rgb(255,255,255)" stroke="none" x="0" y="0" width="1280" height="666" fill-opacity="1"/><path fill="none" stroke="rgb(192,192,192)" paint-order="fill stroke markers" d=" M 40.5 0.5 L 40.5 666.5 M 40.5 0.5 L 40.5 666.5 M 90.5 0.5 L 90.5 666.5 M 140.5 0.5 L 140.5 666.5 M 190.5 0.5 L 190.5 666.5 M 240.5 0.5 L 240.5 666.5 M 290.5 0.5 L 290.5 666.5 M 340.5 0.5 L 340.5 666.5 M 390.5 0.5 L 390.5 666.5 M 440.5 0.5 L 440.5 666.5 M 490.5 0.5 L 490.5 666.5 M 540.5 0.5 L 540.5 666.5 M 590.5 0.5 L 590.5 666.5 M 690.5 0.5 L 690.5 666.5 M 740.5 0.5 L 740.5 666.5 M 790.5 0.5 L 790.5 666.5 M 840.5 0.5 L 840.5 666.5 M 890.5 0.5 L 890.5 666.5 M 940.5 0.5 L 940.5 666.5 M 990.5 0.5 L 990.5 666.5 M 1040.5 0.5 L 1040.5 666.5 M 1090.5 0.5 L 1090.5 666.5 M 1140.5 0.5 L 1140.5 666.5 M 1190.5 0.5 L 1190.5 666.5 M 1239.5 0.5 L 1239.5 666.5" stroke-opacity="1" stroke-linecap="round" stroke-linejoin="round" stroke-miterlimit="10"/><path fill="none" stroke="rgb(192,192,192)" paint-order="fill stroke markers" d=" M 0.5 0.5 L 0.5 666.5 M 10.5 0.5 L 10.5 666.5 M 20.5 0.5 L 20.5 666.5 M 30.5 0.5 L 30.5 666.5 M 50.5 0.5 L 50.5 666.5 M 60.5 0.5 L 60.5 666.5 M 70.5 0.5 L 70.5 666.5 M 80.5 0.5 L 80.5 666.5 M 100.5 0.5 L 100.5 666.5 M 110.5 0.5 L 110.5 666.5 M 120.5 0.5 L 120.5 666.5 M 130.5 0.5 L 130.5 666.5 M 150.5 0.5 L 150.5 666.5 M 160.5 0.5 L 160.5 666.5 M 170.5 0.5 L 170.5 666.5 M 180.5 0.5 L 180.5 666.5 M 200.5 0.5 L 200.5 666.5 M 210.5 0.5 L 210.5 666.5 M 220.5 0.5 L 220.5 666.5 M 230.5 0.5 L 230.5 666.5 M 250.5 0.5 L 250.5 666.5 M 260.5 0.5 L 260.5 666.5 M 270.5 0.5 L 270.5 666.5 M 280.5 0.5 L 280.5 666.5 M 300.5 0.5 L 300.5 666.5 M 310.5 0.5 L 310.5 666.5 M 320.5 0.5 L 320.5 666.5 M 330.5 0.5 L 330.5 666.5 M 350.5 0.5 L 350.5 666.5 M 360.5 0.5 L 360.5 666.5 M 370.5 0.5 L 370.5 666.5 M 380.5 0.5 L 380.5 666.5 M 400.5 0.5 L 400.5 666.5 M 410.5 0.5 L 410.5 666.5 M 420.5 0.5 L 420.5 666.5 M 430.5 0.5 L 430.5 666.5 M 450.5 0.5 L 450.5 666.5 M 460.5 0.5 L 460.5 666.5 M 470.5 0.5 L 470.5 666.5 M 480.5 0.5 L 480.5 666.5 M 500.5 0.5 L 500.5 666.5 M 510.5 0.5 L 510.5 666.5 M 520.5 0.5 L 520.5 666.5 M 530.5 0.5 L 530.5 666.5 M 550.5 0.5 L 550.5 666.5 M 560.5 0.5 L 560.5 666.5 M 570.5 0.5 L 570.5 666.5 M 580.5 0.5 L 580.5 666.5 M 600.5 0.5 L 600.5 666.5 M 610.5 0.5 L 610.5 666.5 M 620.5 0.5 L 620.5 666.5 M 630.5 0.5 L 630.5 666.5 M 650.5 0.5 L 650.5 666.5 M 660.5 0.5 L 660.5 666.5 M 670.5 0.5 L 670.5 666.5 M 680.5 0.5 L 680.5 666.5 M 700.5 0.5 L 700.5 666.5 M 710.5 0.5 L 710.5 666.5 M 720.5 0.5 L 720.5 666.5 M 730.5 0.5 L 730.5 666.5 M 750.5 0.5 L 750.5 666.5 M 760.5 0.5 L 760.5 666.5 M 770.5 0.5 L 770.5 666.5 M 780.5 0.5 L 780.5 666.5 M 800.5 0.5 L 800.5 666.5 M 810.5 0.5 L 810.5 666.5 M 820.5 0.5 L 820.5 666.5 M 830.5 0.5 L 830.5 666.5 M 850.5 0.5 L 850.5 666.5 M 860.5 0.5 L 860.5 666.5 M 870.5 0.5 L 870.5 666.5 M 880.5 0.5 L 880.5 666.5 M 900.5 0.5 L 900.5 666.5 M 910.5 0.5 L 910.5 666.5 M 920.5 0.5 L 920.5 666.5 M 930.5 0.5 L 930.5 666.5 M 950.5 0.5 L 950.5 666.5 M 959.5 0.5 L 959.5 666.5 M 969.5 0.5 L 969.5 666.5 M 979.5 0.5 L 979.5 666.5 M 999.5 0.5 L 999.5 666.5 M 1009.5 0.5 L 1009.5 666.5 M 1019.5 0.5 L 1019.5 666.5 M 1029.5 0.5 L 1029.5 666.5 M 1049.5 0.5 L 1049.5 666.5 M 1059.5 0.5 L 1059.5 666.5 M 1069.5 0.5 L 1069.5 666.5 M 1079.5 0.5 L 1079.5 666.5 M 1099.5 0.5 L 1099.5 666.5 M 1109.5 0.5 L 1109.5 666.5 M 1119.5 0.5 L 1119.5 666.5 M 1129.5 0.5 L 1129.5 666.5 M 1149.5 0.5 L 1149.5 666.5 M 1159.5 0.5 L 1159.5 666.5 M 1169.5 0.5 L 1169.5 666.5 M 1179.5 0.5 L 1179.5 666.5 M 1199.5 0.5 L 1199.5 666.5 M 1209.5 0.5 L 1209.5 666.5 M 1219.5 0.5 L 1219.5 666.5 M 1229.5 0.5 L 1229.5 666.5 M 1249.5 0.5 L 1249.5 666.5 M 1259.5 0.5 L 1259.5 666.5 M 1269.5 0.5 L 1269.5 666.5 M 1279.5 0.5 L 1279.5 666.5" stroke-opacity="0.23529411764705882" stroke-linecap="round" stroke-linejoin="round" stroke-miterlimit="10"/><path fill="none" stroke="rgb(192,192,192)" paint-order="fill stroke markers" d=" M 0.5 33.5 L 1280.5 33.5 M 0.5 33.5 L 1280.5 33.5 M 0.5 83.5 L 1280.5 83.5 M 0.5 133.5 L 1280.5 133.5 M 0.5 183.5 L 1280.5 183.5 M 0.5 233.5 L 1280.5 233.5 M 0.5 283.5 L 1280.5 283.5 M 0.5 383.5 L 1280.5 383.5 M 0.5 433.5 L 1280.5 433.5 M 0.5 483.5 L 1280.5 483.5 M 0.5 533.5 L 1280.5 533.5 M 0.5 583.5 L 1280.5 583.5 M 0.5 632.5 L 1280.5 632.5" stroke-opacity="1" stroke-linecap="round" stroke-linejoin="round" stroke-miterlimit="10"/><path fill="none" stroke="rgb(192,192,192)" paint-order="fill stroke markers" d=" M 0.5 3.5 L 1280.5 3.5 M 0.5 3.5 L 1280.5 3.5 M 0.5 13.5 L 1280.5 13.5 M 0.5 23.5 L 1280.5 23.5 M 0.5 43.5 L 1280.5 43.5 M 0.5 53.5 L 1280.5 53.5 M 0.5 63.5 L 1280.5 63.5 M 0.5 73.5 L 1280.5 73.5 M 0.5 93.5 L 1280.5 93.5 M 0.5 103.5 L 1280.5 103.5 M 0.5 113.5 L 1280.5 113.5 M 0.5 123.5 L 1280.5 123.5 M 0.5 143.5 L 1280.5 143.5 M 0.5 153.5 L 1280.5 153.5 M 0.5 163.5 L 1280.5 163.5 M 0.5 173.5 L 1280.5 173.5 M 0.5 193.5 L 1280.5 193.5 M 0.5 203.5 L 1280.5 203.5 M 0.5 213.5 L 1280.5 213.5 M 0.5 223.5 L 1280.5 223.5 M 0.5 243.5 L 1280.5 243.5 M 0.5 253.5 L 1280.5 253.5 M 0.5 263.5 L 1280.5 263.5 M 0.5 273.5 L 1280.5 273.5 M 0.5 293.5 L 1280.5 293.5 M 0.5 303.5 L 1280.5 303.5 M 0.5 313.5 L 1280.5 313.5 M 0.5 323.5 L 1280.5 323.5 M 0.5 343.5 L 1280.5 343.5 M 0.5 353.5 L 1280.5 353.5 M 0.5 363.5 L 1280.5 363.5 M 0.5 373.5 L 1280.5 373.5 M 0.5 393.5 L 1280.5 393.5 M 0.5 403.5 L 1280.5 403.5 M 0.5 413.5 L 1280.5 413.5 M 0.5 423.5 L 1280.5 423.5 M 0.5 443.5 L 1280.5 443.5 M 0.5 453.5 L 1280.5 453.5 M 0.5 463.5 L 1280.5 463.5 M 0.5 473.5 L 1280.5 473.5 M 0.5 492.5 L 1280.5 492.5 M 0.5 502.5 L 1280.5 502.5 M 0.5 513.5 L 1280.5 513.5 M 0.5 522.5 L 1280.5 522.5 M 0.5 542.5 L 1280.5 542.5 M 0.5 552.5 L 1280.5 552.5 M 0.5 562.5 L 1280.5 562.5 M 0.5 572.5 L 1280.5 572.5 M 0.5 592.5 L 1280.5 592.5 M 0.5 602.5 L 1280.5 602.5 M 0.5 612.5 L 1280.5 612.5 M 0.5 622.5 L 1280.5 622.5 M 0.5 642.5 L 1280.5 642.5 M 0.5 652.5 L 1280.5 652.5 M 0.5 662.5 L 1280.5 662.5" stroke-opacity="0.23529411764705882" stroke-linecap="round" stroke-linejoin="round" stroke-miterlimit="10"/><path fill="none" stroke="rgb(0,0,0)" paint-order="fill stroke markers" d=" M 640.5 2.5 L 640.5 666.5" stroke-opacity="1" stroke-miterlimit="10"/><path fill="none" stroke="rgb(0,0,0)" paint-order="fill stroke markers" d=" M 640.5 1.5 L 636.5 5.5" stroke-opacity="1" stroke-miterlimit="10"/><path fill="none" stroke="rgb(0,0,0)" paint-order="fill stroke markers" d=" M 640.5 1.5 L 644.5 5.5" stroke-opacity="1" stroke-miterlimit="10"/><path fill="none" stroke="rgb(0,0,0)" paint-order="fill stroke markers" d=" M 0.5 333.5 L 1278.5 333.5" stroke-opacity="1" stroke-miterlimit="10"/><path fill="none" stroke="rgb(0,0,0)" paint-order="fill stroke markers" d=" M 1279.5 333.5 L 1275.5 329.5" stroke-opacity="1" stroke-miterlimit="10"/><path fill="none" stroke="rgb(0,0,0)" paint-order="fill stroke markers" d=" M 1279.5 333.5 L 1275.5 337.5" stroke-opacity="1" stroke-miterlimit="10"/><text fill="rgb(0,0,0)" stroke="none" font-family="geogebra-sans-serif, sans-serif" font-size="12px" font-style="normal" font-weight="normal" text-decoration="normal" x="32" y="349" text-anchor="start" dominant-baseline="alphabetic" fill-opacity="1">–12</text><text fill="none" stroke="rgb(255,255,255)" font-family="geogebra-sans-serif, sans-serif" font-size="12px" font-style="normal" font-weight="normal" text-decoration="normal" x="32" y="349" text-anchor="start" dominant-baseline="alphabetic" stroke-opacity="1" stroke-linejoin="bevel" stroke-miterlimit="10" stroke-width="3">–12</text><text fill="rgb(0,0,0)" stroke="none" font-family="geogebra-sans-serif, sans-serif" font-size="12px" font-style="normal" font-weight="normal" text-decoration="normal" x="32" y="349" text-anchor="start" dominant-baseline="alphabetic" fill-opacity="1">–12</text><text fill="rgb(0,0,0)" stroke="none" font-family="geogebra-sans-serif, sans-serif" font-size="12px" font-style="normal" font-weight="normal" text-decoration="normal" x="82" y="349" text-anchor="start" dominant-baseline="alphabetic" fill-opacity="1">–11</text><text fill="none" stroke="rgb(255,255,255)" font-family="geogebra-sans-serif, sans-serif" font-size="12px" font-style="normal" font-weight="normal" text-decoration="normal" x="82" y="349" text-anchor="start" dominant-baseline="alphabetic" stroke-opacity="1" stroke-linejoin="bevel" stroke-miterlimit="10" stroke-width="3">–11</text><text fill="rgb(0,0,0)" stroke="none" font-family="geogebra-sans-serif, sans-serif" font-size="12px" font-style="normal" font-weight="normal" text-decoration="normal" x="82" y="349" text-anchor="start" dominant-baseline="alphabetic" fill-opacity="1">–11</text><text fill="rgb(0,0,0)" stroke="none" font-family="geogebra-sans-serif, sans-serif" font-size="12px" font-style="normal" font-weight="normal" text-decoration="normal" x="132" y="349" text-anchor="start" dominant-baseline="alphabetic" fill-opacity="1">–10</text><text fill="none" stroke="rgb(255,255,255)" font-family="geogebra-sans-serif, sans-serif" font-size="12px" font-style="normal" font-weight="normal" text-decoration="normal" x="132" y="349" text-anchor="start" dominant-baseline="alphabetic" stroke-opacity="1" stroke-linejoin="bevel" stroke-miterlimit="10" stroke-width="3">–10</text><text fill="rgb(0,0,0)" stroke="none" font-family="geogebra-sans-serif, sans-serif" font-size="12px" font-style="normal" font-weight="normal" text-decoration="normal" x="132" y="349" text-anchor="start" dominant-baseline="alphabetic" fill-opacity="1">–10</text><text fill="rgb(0,0,0)" stroke="none" font-family="geogebra-sans-serif, sans-serif" font-size="12px" font-style="normal" font-weight="normal" text-decoration="normal" x="185" y="349" text-anchor="start" dominant-baseline="alphabetic" fill-opacity="1">–9</text><text fill="none" stroke="rgb(255,255,255)" font-family="geogebra-sans-serif, sans-serif" font-size="12px" font-style="normal" font-weight="normal" text-decoration="normal" x="185" y="349" text-anchor="start" dominant-baseline="alphabetic" stroke-opacity="1" stroke-linejoin="bevel" stroke-miterlimit="10" stroke-width="3">–9</text><text fill="rgb(0,0,0)" stroke="none" font-family="geogebra-sans-serif, sans-serif" font-size="12px" font-style="normal" font-weight="normal" text-decoration="normal" x="185" y="349" text-anchor="start" dominant-baseline="alphabetic" fill-opacity="1">–9</text><text fill="rgb(0,0,0)" stroke="none" font-family="geogebra-sans-serif, sans-serif" font-size="12px" font-style="normal" font-weight="normal" text-decoration="normal" x="235" y="349" text-anchor="start" dominant-baseline="alphabetic" fill-opacity="1">–8</text><text fill="none" stroke="rgb(255,255,255)" font-family="geogebra-sans-serif, sans-serif" font-size="12px" font-style="normal" font-weight="normal" text-decoration="normal" x="235" y="349" text-anchor="start" dominant-baseline="alphabetic" stroke-opacity="1" stroke-linejoin="bevel" stroke-miterlimit="10" stroke-width="3">–8</text><text fill="rgb(0,0,0)" stroke="none" font-family="geogebra-sans-serif, sans-serif" font-size="12px" font-style="normal" font-weight="normal" text-decoration="normal" x="235" y="349" text-anchor="start" dominant-baseline="alphabetic" fill-opacity="1">–8</text><text fill="rgb(0,0,0)" stroke="none" font-family="geogebra-sans-serif, sans-serif" font-size="12px" font-style="normal" font-weight="normal" text-decoration="normal" x="285" y="349" text-anchor="start" dominant-baseline="alphabetic" fill-opacity="1">–7</text><text fill="none" stroke="rgb(255,255,255)" font-family="geogebra-sans-serif, sans-serif" font-size="12px" font-style="normal" font-weight="normal" text-decoration="normal" x="285" y="349" text-anchor="start" dominant-baseline="alphabetic" stroke-opacity="1" stroke-linejoin="bevel" stroke-miterlimit="10" stroke-width="3">–7</text><text fill="rgb(0,0,0)" stroke="none" font-family="geogebra-sans-serif, sans-serif" font-size="12px" font-style="normal" font-weight="normal" text-decoration="normal" x="285" y="349" text-anchor="start" dominant-baseline="alphabetic" fill-opacity="1">–7</text><text fill="rgb(0,0,0)" stroke="none" font-family="geogebra-sans-serif, sans-serif" font-size="12px" font-style="normal" font-weight="normal" text-decoration="normal" x="335" y="349" text-anchor="start" dominant-baseline="alphabetic" fill-opacity="1">–6</text><text fill="none" stroke="rgb(255,255,255)" font-family="geogebra-sans-serif, sans-serif" font-size="12px" font-style="normal" font-weight="normal" text-decoration="normal" x="335" y="349" text-anchor="start" dominant-baseline="alphabetic" stroke-opacity="1" stroke-linejoin="bevel" stroke-miterlimit="10" stroke-width="3">–6</text><text fill="rgb(0,0,0)" stroke="none" font-family="geogebra-sans-serif, sans-serif" font-size="12px" font-style="normal" font-weight="normal" text-decoration="normal" x="335" y="349" text-anchor="start" dominant-baseline="alphabetic" fill-opacity="1">–6</text><text fill="rgb(0,0,0)" stroke="none" font-family="geogebra-sans-serif, sans-serif" font-size="12px" font-style="normal" font-weight="normal" text-decoration="normal" x="385" y="349" text-anchor="start" dominant-baseline="alphabetic" fill-opacity="1">–5</text><text fill="none" stroke="rgb(255,255,255)" font-family="geogebra-sans-serif, sans-serif" font-size="12px" font-style="normal" font-weight="normal" text-decoration="normal" x="385" y="349" text-anchor="start" dominant-baseline="alphabetic" stroke-opacity="1" stroke-linejoin="bevel" stroke-miterlimit="10" stroke-width="3">–5</text><text fill="rgb(0,0,0)" stroke="none" font-family="geogebra-sans-serif, sans-serif" font-size="12px" font-style="normal" font-weight="normal" text-decoration="normal" x="385" y="349" text-anchor="start" dominant-baseline="alphabetic" fill-opacity="1">–5</text><text fill="rgb(0,0,0)" stroke="none" font-family="geogebra-sans-serif, sans-serif" font-size="12px" font-style="normal" font-weight="normal" text-decoration="normal" x="435" y="349" text-anchor="start" dominant-baseline="alphabetic" fill-opacity="1">–4</text><text fill="none" stroke="rgb(255,255,255)" font-family="geogebra-sans-serif, sans-serif" font-size="12px" font-style="normal" font-weight="normal" text-decoration="normal" x="435" y="349" text-anchor="start" dominant-baseline="alphabetic" stroke-opacity="1" stroke-linejoin="bevel" stroke-miterlimit="10" stroke-width="3">–4</text><text fill="rgb(0,0,0)" stroke="none" font-family="geogebra-sans-serif, sans-serif" font-size="12px" font-style="normal" font-weight="normal" text-decoration="normal" x="435" y="349" text-anchor="start" dominant-baseline="alphabetic" fill-opacity="1">–4</text><text fill="rgb(0,0,0)" stroke="none" font-family="geogebra-sans-serif, sans-serif" font-size="12px" font-style="normal" font-weight="normal" text-decoration="normal" x="485" y="349" text-anchor="start" dominant-baseline="alphabetic" fill-opacity="1">–3</text><text fill="none" stroke="rgb(255,255,255)" font-family="geogebra-sans-serif, sans-serif" font-size="12px" font-style="normal" font-weight="normal" text-decoration="normal" x="485" y="349" text-anchor="start" dominant-baseline="alphabetic" stroke-opacity="1" stroke-linejoin="bevel" stroke-miterlimit="10" stroke-width="3">–3</text><text fill="rgb(0,0,0)" stroke="none" font-family="geogebra-sans-serif, sans-serif" font-size="12px" font-style="normal" font-weight="normal" text-decoration="normal" x="485" y="349" text-anchor="start" dominant-baseline="alphabetic" fill-opacity="1">–3</text><text fill="rgb(0,0,0)" stroke="none" font-family="geogebra-sans-serif, sans-serif" font-size="12px" font-style="normal" font-weight="normal" text-decoration="normal" x="535" y="349" text-anchor="start" dominant-baseline="alphabetic" fill-opacity="1">–2</text><text fill="none" stroke="rgb(255,255,255)" font-family="geogebra-sans-serif, sans-serif" font-size="12px" font-style="normal" font-weight="normal" text-decoration="normal" x="535" y="349" text-anchor="start" dominant-baseline="alphabetic" stroke-opacity="1" stroke-linejoin="bevel" stroke-miterlimit="10" stroke-width="3">–2</text><text fill="rgb(0,0,0)" stroke="none" font-family="geogebra-sans-serif, sans-serif" font-size="12px" font-style="normal" font-weight="normal" text-decoration="normal" x="535" y="349" text-anchor="start" dominant-baseline="alphabetic" fill-opacity="1">–2</text><text fill="rgb(0,0,0)" stroke="none" font-family="geogebra-sans-serif, sans-serif" font-size="12px" font-style="normal" font-weight="normal" text-decoration="normal" x="585" y="349" text-anchor="start" dominant-baseline="alphabetic" fill-opacity="1">–1</text><text fill="none" stroke="rgb(255,255,255)" font-family="geogebra-sans-serif, sans-serif" font-size="12px" font-style="normal" font-weight="normal" text-decoration="normal" x="585" y="349" text-anchor="start" dominant-baseline="alphabetic" stroke-opacity="1" stroke-linejoin="bevel" stroke-miterlimit="10" stroke-width="3">–1</text><text fill="rgb(0,0,0)" stroke="none" font-family="geogebra-sans-serif, sans-serif" font-size="12px" font-style="normal" font-weight="normal" text-decoration="normal" x="585" y="349" text-anchor="start" dominant-baseline="alphabetic" fill-opacity="1">–1</text><text fill="rgb(0,0,0)" stroke="none" font-family="geogebra-sans-serif, sans-serif" font-size="12px" font-style="normal" font-weight="normal" text-decoration="normal" x="688" y="349" text-anchor="start" dominant-baseline="alphabetic" fill-opacity="1">1</text><text fill="none" stroke="rgb(255,255,255)" font-family="geogebra-sans-serif, sans-serif" font-size="12px" font-style="normal" font-weight="normal" text-decoration="normal" x="688" y="349" text-anchor="start" dominant-baseline="alphabetic" stroke-opacity="1" stroke-linejoin="bevel" stroke-miterlimit="10" stroke-width="3">1</text><text fill="rgb(0,0,0)" stroke="none" font-family="geogebra-sans-serif, sans-serif" font-size="12px" font-style="normal" font-weight="normal" text-decoration="normal" x="688" y="349" text-anchor="start" dominant-baseline="alphabetic" fill-opacity="1">1</text><text fill="rgb(0,0,0)" stroke="none" font-family="geogebra-sans-serif, sans-serif" font-size="12px" font-style="normal" font-weight="normal" text-decoration="normal" x="738" y="349" text-anchor="start" dominant-baseline="alphabetic" fill-opacity="1">2</text><text fill="none" stroke="rgb(255,255,255)" font-family="geogebra-sans-serif, sans-serif" font-size="12px" font-style="normal" font-weight="normal" text-decoration="normal" x="738" y="349" text-anchor="start" dominant-baseline="alphabetic" stroke-opacity="1" stroke-linejoin="bevel" stroke-miterlimit="10" stroke-width="3">2</text><text fill="rgb(0,0,0)" stroke="none" font-family="geogebra-sans-serif, sans-serif" font-size="12px" font-style="normal" font-weight="normal" text-decoration="normal" x="738" y="349" text-anchor="start" dominant-baseline="alphabetic" fill-opacity="1">2</text><text fill="rgb(0,0,0)" stroke="none" font-family="geogebra-sans-serif, sans-serif" font-size="12px" font-style="normal" font-weight="normal" text-decoration="normal" x="788" y="349" text-anchor="start" dominant-baseline="alphabetic" fill-opacity="1">3</text><text fill="none" stroke="rgb(255,255,255)" font-family="geogebra-sans-serif, sans-serif" font-size="12px" font-style="normal" font-weight="normal" text-decoration="normal" x="788" y="349" text-anchor="start" dominant-baseline="alphabetic" stroke-opacity="1" stroke-linejoin="bevel" stroke-miterlimit="10" stroke-width="3">3</text><text fill="rgb(0,0,0)" stroke="none" font-family="geogebra-sans-serif, sans-serif" font-size="12px" font-style="normal" font-weight="normal" text-decoration="normal" x="788" y="349" text-anchor="start" dominant-baseline="alphabetic" fill-opacity="1">3</text><text fill="rgb(0,0,0)" stroke="none" font-family="geogebra-sans-serif, sans-serif" font-size="12px" font-style="normal" font-weight="normal" text-decoration="normal" x="838" y="349" text-anchor="start" dominant-baseline="alphabetic" fill-opacity="1">4</text><text fill="none" stroke="rgb(255,255,255)" font-family="geogebra-sans-serif, sans-serif" font-size="12px" font-style="normal" font-weight="normal" text-decoration="normal" x="838" y="349" text-anchor="start" dominant-baseline="alphabetic" stroke-opacity="1" stroke-linejoin="bevel" stroke-miterlimit="10" stroke-width="3">4</text><text fill="rgb(0,0,0)" stroke="none" font-family="geogebra-sans-serif, sans-serif" font-size="12px" font-style="normal" font-weight="normal" text-decoration="normal" x="838" y="349" text-anchor="start" dominant-baseline="alphabetic" fill-opacity="1">4</text><text fill="rgb(0,0,0)" stroke="none" font-family="geogebra-sans-serif, sans-serif" font-size="12px" font-style="normal" font-weight="normal" text-decoration="normal" x="888" y="349" text-anchor="start" dominant-baseline="alphabetic" fill-opacity="1">5</text><text fill="none" stroke="rgb(255,255,255)" font-family="geogebra-sans-serif, sans-serif" font-size="12px" font-style="normal" font-weight="normal" text-decoration="normal" x="888" y="349" text-anchor="start" dominant-baseline="alphabetic" stroke-opacity="1" stroke-linejoin="bevel" stroke-miterlimit="10" stroke-width="3">5</text><text fill="rgb(0,0,0)" stroke="none" font-family="geogebra-sans-serif, sans-serif" font-size="12px" font-style="normal" font-weight="normal" text-decoration="normal" x="888" y="349" text-anchor="start" dominant-baseline="alphabetic" fill-opacity="1">5</text><text fill="rgb(0,0,0)" stroke="none" font-family="geogebra-sans-serif, sans-serif" font-size="12px" font-style="normal" font-weight="normal" text-decoration="normal" x="938" y="349" text-anchor="start" dominant-baseline="alphabetic" fill-opacity="1">6</text><text fill="none" stroke="rgb(255,255,255)" font-family="geogebra-sans-serif, sans-serif" font-size="12px" font-style="normal" font-weight="normal" text-decoration="normal" x="938" y="349" text-anchor="start" dominant-baseline="alphabetic" stroke-opacity="1" stroke-linejoin="bevel" stroke-miterlimit="10" stroke-width="3">6</text><text fill="rgb(0,0,0)" stroke="none" font-family="geogebra-sans-serif, sans-serif" font-size="12px" font-style="normal" font-weight="normal" text-decoration="normal" x="938" y="349" text-anchor="start" dominant-baseline="alphabetic" fill-opacity="1">6</text><text fill="rgb(0,0,0)" stroke="none" font-family="geogebra-sans-serif, sans-serif" font-size="12px" font-style="normal" font-weight="normal" text-decoration="normal" x="988" y="349" text-anchor="start" dominant-baseline="alphabetic" fill-opacity="1">7</text><text fill="none" stroke="rgb(255,255,255)" font-family="geogebra-sans-serif, sans-serif" font-size="12px" font-style="normal" font-weight="normal" text-decoration="normal" x="988" y="349" text-anchor="start" dominant-baseline="alphabetic" stroke-opacity="1" stroke-linejoin="bevel" stroke-miterlimit="10" stroke-width="3">7</text><text fill="rgb(0,0,0)" stroke="none" font-family="geogebra-sans-serif, sans-serif" font-size="12px" font-style="normal" font-weight="normal" text-decoration="normal" x="988" y="349" text-anchor="start" dominant-baseline="alphabetic" fill-opacity="1">7</text><text fill="rgb(0,0,0)" stroke="none" font-family="geogebra-sans-serif, sans-serif" font-size="12px" font-style="normal" font-weight="normal" text-decoration="normal" x="1038" y="349" text-anchor="start" dominant-baseline="alphabetic" fill-opacity="1">8</text><text fill="none" stroke="rgb(255,255,255)" font-family="geogebra-sans-serif, sans-serif" font-size="12px" font-style="normal" font-weight="normal" text-decoration="normal" x="1038" y="349" text-anchor="start" dominant-baseline="alphabetic" stroke-opacity="1" stroke-linejoin="bevel" stroke-miterlimit="10" stroke-width="3">8</text><text fill="rgb(0,0,0)" stroke="none" font-family="geogebra-sans-serif, sans-serif" font-size="12px" font-style="normal" font-weight="normal" text-decoration="normal" x="1038" y="349" text-anchor="start" dominant-baseline="alphabetic" fill-opacity="1">8</text><text fill="rgb(0,0,0)" stroke="none" font-family="geogebra-sans-serif, sans-serif" font-size="12px" font-style="normal" font-weight="normal" text-decoration="normal" x="1088" y="349" text-anchor="start" dominant-baseline="alphabetic" fill-opacity="1">9</text><text fill="none" stroke="rgb(255,255,255)" font-family="geogebra-sans-serif, sans-serif" font-size="12px" font-style="normal" font-weight="normal" text-decoration="normal" x="1088" y="349" text-anchor="start" dominant-baseline="alphabetic" stroke-opacity="1" stroke-linejoin="bevel" stroke-miterlimit="10" stroke-width="3">9</text><text fill="rgb(0,0,0)" stroke="none" font-family="geogebra-sans-serif, sans-serif" font-size="12px" font-style="normal" font-weight="normal" text-decoration="normal" x="1088" y="349" text-anchor="start" dominant-baseline="alphabetic" fill-opacity="1">9</text><text fill="rgb(0,0,0)" stroke="none" font-family="geogebra-sans-serif, sans-serif" font-size="12px" font-style="normal" font-weight="normal" text-decoration="normal" x="1135" y="349" text-anchor="start" dominant-baseline="alphabetic" fill-opacity="1">10</text><text fill="none" stroke="rgb(255,255,255)" font-family="geogebra-sans-serif, sans-serif" font-size="12px" font-style="normal" font-weight="normal" text-decoration="normal" x="1135" y="349" text-anchor="start" dominant-baseline="alphabetic" stroke-opacity="1" stroke-linejoin="bevel" stroke-miterlimit="10" stroke-width="3">10</text><text fill="rgb(0,0,0)" stroke="none" font-family="geogebra-sans-serif, sans-serif" font-size="12px" font-style="normal" font-weight="normal" text-decoration="normal" x="1135" y="349" text-anchor="start" dominant-baseline="alphabetic" fill-opacity="1">10</text><text fill="rgb(0,0,0)" stroke="none" font-family="geogebra-sans-serif, sans-serif" font-size="12px" font-style="normal" font-weight="normal" text-decoration="normal" x="1185" y="349" text-anchor="start" dominant-baseline="alphabetic" fill-opacity="1">11</text><text fill="none" stroke="rgb(255,255,255)" font-family="geogebra-sans-serif, sans-serif" font-size="12px" font-style="normal" font-weight="normal" text-decoration="normal" x="1185" y="349" text-anchor="start" dominant-baseline="alphabetic" stroke-opacity="1" stroke-linejoin="bevel" stroke-miterlimit="10" stroke-width="3">11</text><text fill="rgb(0,0,0)" stroke="none" font-family="geogebra-sans-serif, sans-serif" font-size="12px" font-style="normal" font-weight="normal" text-decoration="normal" x="1185" y="349" text-anchor="start" dominant-baseline="alphabetic" fill-opacity="1">11</text><text fill="rgb(0,0,0)" stroke="none" font-family="geogebra-sans-serif, sans-serif" font-size="12px" font-style="normal" font-weight="normal" text-decoration="normal" x="1235" y="349" text-anchor="start" dominant-baseline="alphabetic" fill-opacity="1">12</text><text fill="none" stroke="rgb(255,255,255)" font-family="geogebra-sans-serif, sans-serif" font-size="12px" font-style="normal" font-weight="normal" text-decoration="normal" x="1235" y="349" text-anchor="start" dominant-baseline="alphabetic" stroke-opacity="1" stroke-linejoin="bevel" stroke-miterlimit="10" stroke-width="3">12</text><text fill="rgb(0,0,0)" stroke="none" font-family="geogebra-sans-serif, sans-serif" font-size="12px" font-style="normal" font-weight="normal" text-decoration="normal" x="1235" y="349" text-anchor="start" dominant-baseline="alphabetic" fill-opacity="1">12</text><text fill="rgb(0,0,0)" stroke="none" font-family="geogebra-sans-serif, sans-serif" font-size="12px" font-style="normal" font-weight="normal" text-decoration="normal" x="619" y="637" text-anchor="start" dominant-baseline="alphabetic" fill-opacity="1">–6</text><text fill="none" stroke="rgb(255,255,255)" font-family="geogebra-sans-serif, sans-serif" font-size="12px" font-style="normal" font-weight="normal" text-decoration="normal" x="619" y="637" text-anchor="start" dominant-baseline="alphabetic" stroke-opacity="1" stroke-linejoin="bevel" stroke-miterlimit="10" stroke-width="3">–6</text><text fill="rgb(0,0,0)" stroke="none" font-family="geogebra-sans-serif, sans-serif" font-size="12px" font-style="normal" font-weight="normal" text-decoration="normal" x="619" y="637" text-anchor="start" dominant-baseline="alphabetic" fill-opacity="1">–6</text><text fill="rgb(0,0,0)" stroke="none" font-family="geogebra-sans-serif, sans-serif" font-size="12px" font-style="normal" font-weight="normal" text-decoration="normal" x="619" y="587" text-anchor="start" dominant-baseline="alphabetic" fill-opacity="1">–5</text><text fill="none" stroke="rgb(255,255,255)" font-family="geogebra-sans-serif, sans-serif" font-size="12px" font-style="normal" font-weight="normal" text-decoration="normal" x="619" y="587" text-anchor="start" dominant-baseline="alphabetic" stroke-opacity="1" stroke-linejoin="bevel" stroke-miterlimit="10" stroke-width="3">–5</text><text fill="rgb(0,0,0)" stroke="none" font-family="geogebra-sans-serif, sans-serif" font-size="12px" font-style="normal" font-weight="normal" text-decoration="normal" x="619" y="587" text-anchor="start" dominant-baseline="alphabetic" fill-opacity="1">–5</text><text fill="rgb(0,0,0)" stroke="none" font-family="geogebra-sans-serif, sans-serif" font-size="12px" font-style="normal" font-weight="normal" text-decoration="normal" x="619" y="537" text-anchor="start" dominant-baseline="alphabetic" fill-opacity="1">–4</text><text fill="none" stroke="rgb(255,255,255)" font-family="geogebra-sans-serif, sans-serif" font-size="12px" font-style="normal" font-weight="normal" text-decoration="normal" x="619" y="537" text-anchor="start" dominant-baseline="alphabetic" stroke-opacity="1" stroke-linejoin="bevel" stroke-miterlimit="10" stroke-width="3">–4</text><text fill="rgb(0,0,0)" stroke="none" font-family="geogebra-sans-serif, sans-serif" font-size="12px" font-style="normal" font-weight="normal" text-decoration="normal" x="619" y="537" text-anchor="start" dominant-baseline="alphabetic" fill-opacity="1">–4</text><text fill="rgb(0,0,0)" stroke="none" font-family="geogebra-sans-serif, sans-serif" font-size="12px" font-style="normal" font-weight="normal" text-decoration="normal" x="619" y="487" text-anchor="start" dominant-baseline="alphabetic" fill-opacity="1">–3</text><text fill="none" stroke="rgb(255,255,255)" font-family="geogebra-sans-serif, sans-serif" font-size="12px" font-style="normal" font-weight="normal" text-decoration="normal" x="619" y="487" text-anchor="start" dominant-baseline="alphabetic" stroke-opacity="1" stroke-linejoin="bevel" stroke-miterlimit="10" stroke-width="3">–3</text><text fill="rgb(0,0,0)" stroke="none" font-family="geogebra-sans-serif, sans-serif" font-size="12px" font-style="normal" font-weight="normal" text-decoration="normal" x="619" y="487" text-anchor="start" dominant-baseline="alphabetic" fill-opacity="1">–3</text><text fill="rgb(0,0,0)" stroke="none" font-family="geogebra-sans-serif, sans-serif" font-size="12px" font-style="normal" font-weight="normal" text-decoration="normal" x="619" y="437" text-anchor="start" dominant-baseline="alphabetic" fill-opacity="1">–2</text><text fill="none" stroke="rgb(255,255,255)" font-family="geogebra-sans-serif, sans-serif" font-size="12px" font-style="normal" font-weight="normal" text-decoration="normal" x="619" y="437" text-anchor="start" dominant-baseline="alphabetic" stroke-opacity="1" stroke-linejoin="bevel" stroke-miterlimit="10" stroke-width="3">–2</text><text fill="rgb(0,0,0)" stroke="none" font-family="geogebra-sans-serif, sans-serif" font-size="12px" font-style="normal" font-weight="normal" text-decoration="normal" x="619" y="437" text-anchor="start" dominant-baseline="alphabetic" fill-opacity="1">–2</text><text fill="rgb(0,0,0)" stroke="none" font-family="geogebra-sans-serif, sans-serif" font-size="12px" font-style="normal" font-weight="normal" text-decoration="normal" x="619" y="387" text-anchor="start" dominant-baseline="alphabetic" fill-opacity="1">–1</text><text fill="none" stroke="rgb(255,255,255)" font-family="geogebra-sans-serif, sans-serif" font-size="12px" font-style="normal" font-weight="normal" text-decoration="normal" x="619" y="387" text-anchor="start" dominant-baseline="alphabetic" stroke-opacity="1" stroke-linejoin="bevel" stroke-miterlimit="10" stroke-width="3">–1</text><text fill="rgb(0,0,0)" stroke="none" font-family="geogebra-sans-serif, sans-serif" font-size="12px" font-style="normal" font-weight="normal" text-decoration="normal" x="619" y="387" text-anchor="start" dominant-baseline="alphabetic" fill-opacity="1">–1</text><text fill="rgb(0,0,0)" stroke="none" font-family="geogebra-sans-serif, sans-serif" font-size="12px" font-style="normal" font-weight="normal" text-decoration="normal" x="626" y="287" text-anchor="start" dominant-baseline="alphabetic" fill-opacity="1">1</text><text fill="none" stroke="rgb(255,255,255)" font-family="geogebra-sans-serif, sans-serif" font-size="12px" font-style="normal" font-weight="normal" text-decoration="normal" x="626" y="287" text-anchor="start" dominant-baseline="alphabetic" stroke-opacity="1" stroke-linejoin="bevel" stroke-miterlimit="10" stroke-width="3">1</text><text fill="rgb(0,0,0)" stroke="none" font-family="geogebra-sans-serif, sans-serif" font-size="12px" font-style="normal" font-weight="normal" text-decoration="normal" x="626" y="287" text-anchor="start" dominant-baseline="alphabetic" fill-opacity="1">1</text><text fill="rgb(0,0,0)" stroke="none" font-family="geogebra-sans-serif, sans-serif" font-size="12px" font-style="normal" font-weight="normal" text-decoration="normal" x="626" y="237" text-anchor="start" dominant-baseline="alphabetic" fill-opacity="1">2</text><text fill="none" stroke="rgb(255,255,255)" font-family="geogebra-sans-serif, sans-serif" font-size="12px" font-style="normal" font-weight="normal" text-decoration="normal" x="626" y="237" text-anchor="start" dominant-baseline="alphabetic" stroke-opacity="1" stroke-linejoin="bevel" stroke-miterlimit="10" stroke-width="3">2</text><text fill="rgb(0,0,0)" stroke="none" font-family="geogebra-sans-serif, sans-serif" font-size="12px" font-style="normal" font-weight="normal" text-decoration="normal" x="626" y="237" text-anchor="start" dominant-baseline="alphabetic" fill-opacity="1">2</text><text fill="rgb(0,0,0)" stroke="none" font-family="geogebra-sans-serif, sans-serif" font-size="12px" font-style="normal" font-weight="normal" text-decoration="normal" x="626" y="187" text-anchor="start" dominant-baseline="alphabetic" fill-opacity="1">3</text><text fill="none" stroke="rgb(255,255,255)" font-family="geogebra-sans-serif, sans-serif" font-size="12px" font-style="normal" font-weight="normal" text-decoration="normal" x="626" y="187" text-anchor="start" dominant-baseline="alphabetic" stroke-opacity="1" stroke-linejoin="bevel" stroke-miterlimit="10" stroke-width="3">3</text><text fill="rgb(0,0,0)" stroke="none" font-family="geogebra-sans-serif, sans-serif" font-size="12px" font-style="normal" font-weight="normal" text-decoration="normal" x="626" y="187" text-anchor="start" dominant-baseline="alphabetic" fill-opacity="1">3</text><text fill="rgb(0,0,0)" stroke="none" font-family="geogebra-sans-serif, sans-serif" font-size="12px" font-style="normal" font-weight="normal" text-decoration="normal" x="626" y="137" text-anchor="start" dominant-baseline="alphabetic" fill-opacity="1">4</text><text fill="none" stroke="rgb(255,255,255)" font-family="geogebra-sans-serif, sans-serif" font-size="12px" font-style="normal" font-weight="normal" text-decoration="normal" x="626" y="137" text-anchor="start" dominant-baseline="alphabetic" stroke-opacity="1" stroke-linejoin="bevel" stroke-miterlimit="10" stroke-width="3">4</text><text fill="rgb(0,0,0)" stroke="none" font-family="geogebra-sans-serif, sans-serif" font-size="12px" font-style="normal" font-weight="normal" text-decoration="normal" x="626" y="137" text-anchor="start" dominant-baseline="alphabetic" fill-opacity="1">4</text><text fill="rgb(0,0,0)" stroke="none" font-family="geogebra-sans-serif, sans-serif" font-size="12px" font-style="normal" font-weight="normal" text-decoration="normal" x="626" y="87" text-anchor="start" dominant-baseline="alphabetic" fill-opacity="1">5</text><text fill="none" stroke="rgb(255,255,255)" font-family="geogebra-sans-serif, sans-serif" font-size="12px" font-style="normal" font-weight="normal" text-decoration="normal" x="626" y="87" text-anchor="start" dominant-baseline="alphabetic" stroke-opacity="1" stroke-linejoin="bevel" stroke-miterlimit="10" stroke-width="3">5</text><text fill="rgb(0,0,0)" stroke="none" font-family="geogebra-sans-serif, sans-serif" font-size="12px" font-style="normal" font-weight="normal" text-decoration="normal" x="626" y="87" text-anchor="start" dominant-baseline="alphabetic" fill-opacity="1">5</text><text fill="rgb(0,0,0)" stroke="none" font-family="geogebra-sans-serif, sans-serif" font-size="12px" font-style="normal" font-weight="normal" text-decoration="normal" x="626" y="37" text-anchor="start" dominant-baseline="alphabetic" fill-opacity="1">6</text><text fill="none" stroke="rgb(255,255,255)" font-family="geogebra-sans-serif, sans-serif" font-size="12px" font-style="normal" font-weight="normal" text-decoration="normal" x="626" y="37" text-anchor="start" dominant-baseline="alphabetic" stroke-opacity="1" stroke-linejoin="bevel" stroke-miterlimit="10" stroke-width="3">6</text><text fill="rgb(0,0,0)" stroke="none" font-family="geogebra-sans-serif, sans-serif" font-size="12px" font-style="normal" font-weight="normal" text-decoration="normal" x="626" y="37" text-anchor="start" dominant-baseline="alphabetic" fill-opacity="1">6</text><text fill="rgb(0,0,0)" stroke="none" font-family="geogebra-sans-serif, sans-serif" font-size="12px" font-style="normal" font-weight="normal" text-decoration="normal" x="626" y="349" text-anchor="start" dominant-baseline="alphabetic" fill-opacity="1">0</text><text fill="none" stroke="rgb(255,255,255)" font-family="geogebra-sans-serif, sans-serif" font-size="12px" font-style="normal" font-weight="normal" text-decoration="normal" x="626" y="349" text-anchor="start" dominant-baseline="alphabetic" stroke-opacity="1" stroke-linejoin="bevel" stroke-miterlimit="10" stroke-width="3">0</text><text fill="rgb(0,0,0)" stroke="none" font-family="geogebra-sans-serif, sans-serif" font-size="12px" font-style="normal" font-weight="normal" text-decoration="normal" x="626" y="349" text-anchor="start" dominant-baseline="alphabetic" fill-opacity="1">0</text><path fill="none" stroke="rgb(0,100,0)" paint-order="fill stroke markers" d=" M 590 411.5398163397448 L 590.0001 411.5398163397448 M 590 411.5398163397448 L 590.625 403.6258638435039 L 591.25 400.33605207465394 L 592.5 395.6617948751688 L 595 388.98847574993175 L 600 379.3647609000806 M 600 379.3647609000806 L 605 371.7698748305377 L 610 365.1750554396642 L 615 359.17993877991495 L 620 353.57584230337443 L 625 348.23463270076985 L 630 343.06789603951654 L 635 338.008371058078 L 640 333 M 640 333 L 645 327.991628941922 L 650 322.93210396048346 L 655 317.76536729923015 L 660 312.42415769662557 L 665 306.82006122008505 L 670 300.8249445603358 L 675 294.2301251694623 L 680 286.6352390999194 M 680 286.6352390999194 L 685 277.01152425006825 L 687.5 270.3382051248312 L 688.75 265.66394792534606 L 689.375 262.3741361564961 L 690 254.4601836602552 M 690 254.4601836602552 L 690.0001 254.4601836602552" stroke-opacity="0.6980392156862745" stroke-linecap="round" stroke-linejoin="round" stroke-miterlimit="10" stroke-width="2.5"/><path fill="none" stroke="rgb(204,0,0)" paint-order="fill stroke markers" d=" M 590 175.9203673205104 L 590.0001 175.9203673205104 M 590 175.9203673205104 L 590.625 183.83431981675128 L 591.25 187.12413158560125 L 592.5 191.7983887850864 L 595 198.47170791032346 L 600 208.09542276017459 M 600 208.09542276017459 L 605 215.69030882971754 L 610 222.28512822059096 L 615 228.28024488034026 L 620 233.88434135688078 L 625 239.2255509594853 L 630 244.39228762073867 L 635 249.4518126021772 L 640 254.4601836602552 M 640 254.4601836602552 L 645 259.46855471833317 L 650 264.52807969977175 L 655 269.69481636102506 L 660 275.0360259636296 L 665 280.64012244017016 L 670 286.63523909991943 L 675 293.2300584907928 L 680 300.82494456033584 M 680 300.82494456033584 L 685 310.4486594101869 L 687.5 317.121978535424 L 688.75 321.79623573490915 L 689.375 325.0860475037591 L 690 333 M 690 333 L 690.0001 333" stroke-opacity="0.6980392156862745" stroke-linecap="round" stroke-linejoin="round" stroke-miterlimit="10" stroke-width="2.5"/><path fill="none" stroke="rgb(0,0,255)" paint-order="fill stroke markers" d=" M 0 407.6414846481677 L 5 407.6109148305045 L 9.999999999999886 407.57986279127226 L 15 407.54831705413295 L 20 407.51626577647176 L 25 407.4836967346998 L 29.999999999999886 407.45059730884503 L 34.999999999999886 407.41695446639153 L 40 407.38275474532276 L 45 407.34798423632407 L 50 407.3126285640949 L 54.999999999999886 407.27667286771833 L 60 407.2401017800328 L 65 407.2028994059456 L 70 407.16504929962525 L 75 407.1265344405044 L 80 407.0873372080199 L 85 407.0474393550134 L 90 407.0068219797076 L 95 406.96546549616943 L 99.99999999999989 406.92334960316487 L 105 406.8804532513009 L 110 406.8367546083455 L 115 406.792231022607 L 120 406.74685898424417 L 124.99999999999989 406.7006140843711 L 130 406.6534709718089 L 135 406.6054033073245 L 139.99999999999994 406.5563837151867 L 144.99999999999994 406.50638373185336 L 149.99999999999994 406.45537375159097 L 155 406.4033229688113 L 160 406.35019931689266 L 164.99999999999994 406.29596940323313 L 170 406.2405984402648 L 175 406.1840501721332 L 180 406.126286796722 L 184.99999999999994 406.0672688826767 L 189.99999999999994 406.00695528105007 L 195 405.945303031161 L 200 405.8822672602206 L 205 405.8178010762416 L 209.99999999999994 405.75185545370425 L 214.99999999999994 405.6843791114016 L 220 405.61531838183794 L 225 405.54461707149363 L 230 405.47221631120664 L 235.00000000000006 405.39805439585007 L 239.99999999999994 405.32206661240673 L 244.99999999999994 405.2441850554549 L 250 405.1643384289829 L 254.99999999999994 405.08245183334384 L 260 404.99844653604197 L 265 404.9122397249111 L 270 404.8237442420964 L 275 404.73286829708775 L 279.99999999999994 404.6395151568688 L 285 404.5435828110389 L 289.99999999999994 404.4449636095366 L 295 404.343543870334 L 300 404.23920345418105 L 305 404.13181530315325 L 310 404.0212449393881 L 315 403.9073499199816 L 320 403.78997924354775 L 324.99999999999994 403.6689727034153 L 330 403.54416018183383 L 334.99999999999994 403.41536087888466 L 340 403.28238246901344 L 345 403.1450201772261 L 350 403.00305576598066 L 355 402.8562564226661 L 360 402.704373536243 L 365 402.5471413501209 L 369.99999999999994 402.3842754766206 L 375 402.215471256384 L 380 402.040401943809 L 385 401.85871669694757 L 390 401.6700383472508 L 395 401.4739609210128 L 400 401.2700468802565 L 405 401.05782404603417 L 410 400.83678216155374 L 415 400.6063690460477 L 419.99999999999994 400.36598628271315 L 425 400.1149843751517 L 430 399.85265729629975 L 435 399.5782363415618 L 440 399.2908831834016 L 444.99999999999994 398.9896820075931 L 450 398.6736305911904 L 455 398.34163015845957 L 460 397.9924738228238 L 465 397.62483338948925 L 470 397.2372442538789 L 475 396.8280880841854 L 480 396.39557292099624 L 485 395.9377102616182 L 489.99999999999994 395.45228861991274 L 495 394.93684296260056 L 500 394.38861931870963 L 505 393.8045337391978 L 510 393.1811246488339 L 515 392.51449748412654 L 520 391.80026035475674 L 525 391.03344931267026 L 530 390.208441683401 L 535 389.3188558446899 L 540 388.3574358897045 L 545 387.31591988789364 L 550 386.184891120128 L 555 384.95361297680455 L 560 383.6098505725667 L 565 382.13968616236644 L 570 380.52734204060374 L 575 378.75503502766804 L 580 376.80290252990966 L 585 374.6490633337216 L 590 372.2699081698724 L 595 369.64075508932535 L 600 366.7370471111776 L 605 363.53629821946043 L 610 360.0209750135292 L 615 356.1823804500403 L 620 352.02531885561825 L 625 347.57283972389337 L 630 342.869777992494 L 635 337.9834326245581 L 640 333 L 645 328.0165673754419 L 650 323.130222007506 L 655 318.42716027610663 L 660 313.97468114438175 L 665 309.8176195499597 L 670 305.9790249864708 L 675 302.46370178053957 L 680 299.2629528888224 L 685 296.35924491067465 L 690 293.7300918301276 L 695 291.3509366662784 L 700 289.19709747009034 L 705 287.24496497233196 L 710 285.47265795939626 L 715 283.86031383763356 L 720 282.3901494274333 L 725 281.04638702319545 L 730 279.815108879872 L 735 278.68408011210636 L 740 277.6425641102955 L 745 276.6811441553101 L 750 275.791558316599 L 755 274.96655068732974 L 760 274.19973964524326 L 765 273.48550251587346 L 770 272.8188753511661 L 775 272.1954662608022 L 780 271.61138068129037 L 785 271.06315703739944 L 790 270.54771138008726 L 795 270.0622897383818 L 800.0000000000001 269.60442707900376 L 805 269.1719119158146 L 810 268.7627557461211 L 815 268.37516661051075 L 820 268.0075261771762 L 825.0000000000001 267.65836984154043 L 830 267.3263694088096 L 835 267.0103179924069 L 840 266.7091168165984 L 845 266.4217636584382 L 850.0000000000001 266.14734270370025 L 855 265.8850156248483 L 860 265.63401371728685 L 865 265.3936309539523 L 870 265.16321783844626 L 875.0000000000001 264.94217595396583 L 880 264.7299531197435 L 885 264.5260390789872 L 890 264.3299616527492 L 895 264.14128330305243 L 900 263.959598056191 L 905 263.784528743616 L 910 263.6157245233794 L 915.0000000000001 263.4528586498791 L 920 263.295626463757 L 925 263.1437435773339 L 930 262.99694423401934 L 935 262.8549798227739 L 940.0000000000001 262.71761753098656 L 945 262.58463912111534 L 950 262.45583981816617 L 955 262.3310272965847 L 960 262.21002075645225 L 965 262.0926500800184 L 970 261.9787550606119 L 975 261.86818469684675 L 980 261.76079654581895 L 985 261.656456129666 L 990 261.5550363904634 L 995 261.4564171889611 L 1000 261.3604848431312 L 1005 261.26713170291225 L 1010 261.1762557579036 L 1015 261.0877602750889 L 1020 261.00155346395803 L 1025 260.91754816665616 L 1030 260.8356615710171 L 1035 260.7558149445451 L 1040 260.67793338759327 L 1045 260.60194560414993 L 1050 260.52778368879336 L 1055 260.45538292850637 L 1060 260.38468161816206 L 1065 260.3156208885984 L 1070 260.24814454629575 L 1075 260.1821989237584 L 1080 260.1177327397794 L 1085 260.054696968839 L 1090 259.99304471894993 L 1095 259.9327311173233 L 1100 259.873713203278 L 1105 259.8159498278668 L 1110 259.7594015597352 L 1115 259.70403059676687 L 1120 259.64980068310734 L 1125 259.5966770311887 L 1130 259.54462624840903 L 1135 259.49361626814664 L 1140 259.4436162848133 L 1145 259.3945966926755 L 1150 259.3465290281911 L 1155 259.2993859156289 L 1160 259.2531410157559 L 1165 259.207768977393 L 1170 259.1632453916545 L 1175 259.1195467486991 L 1180 259.07665039683513 L 1185 259.03453450383057 L 1190 258.9931780202924 L 1195 258.9525606449866 L 1200 258.9126627919801 L 1205 258.8734655594956 L 1210 258.83495070037475 L 1215 258.7971005940544 L 1220 258.7598982199672 L 1225 258.72332713228167 L 1230 258.6873714359051 L 1235 258.65201576367593 L 1240 258.61724525467724 L 1245 258.58304553360847 L 1250 258.54940269115497 L 1255 258.5163032653002 L 1260 258.48373422352824 L 1265 258.45168294586705 L 1270 258.42013720872774 L 1275 258.3890851694955 L 1280 258.3585153518323" stroke-opacity="0.6980392156862745" stroke-linecap="round" stroke-linejoin="round" stroke-miterlimit="10" stroke-width="2.5"/><path fill="none" stroke="rgb(0,0,0)" paint-order="fill stroke markers" d=" M 302 671 L 978 -5" stroke-opacity="0.6980392156862745" stroke-linecap="round" stroke-linejoin="round" stroke-miterlimit="10" stroke-width="2.5"/><g transform="scale(19,19)"><g transform="translate(30.68421052631579,8.704989473684211) scale(0.7,0.7)"><path fill="rgb(204,0,0)" stroke="none" paint-order="stroke fill markers" d=" M 0.255 -0.47900000000000004 L 0.076 -0.059000000000000004 Q 0.07 -0.045 0.063 -0.045 Q 0.045 -0.045 0.033 -0.056 Q 0.029 -0.059000000000000004 0.029 -0.063 Q 0.029 -0.065 0.032 -0.077 L 0.153 -0.513 Q 0.166 -0.554 0.197 -0.558 Q 0.202 -0.559 0.20600000000000002 -0.559 Q 0.24 -0.559 0.256 -0.53 Q 0.262 -0.519 0.262 -0.507 Q 0.262 -0.494 0.255 -0.47900000000000004 Z"/></g><g transform="translate(31.069594666927195,9.11788147368421)"><path fill="rgb(204,0,0)" stroke="none" paint-order="stroke fill markers" d=" M 0.359 -0.386 Q 0.323 -0.423 0.252 -0.423 Q 0.189 -0.423 0.151 -0.363 Q 0.117 -0.309 0.117 -0.218 Q 0.117 -0.074 0.203 -0.029 Q 0.23 -0.014 0.258 -0.014 Q 0.356 -0.014 0.389 -0.11900000000000001 Q 0.392 -0.129 0.402 -0.129 Q 0.41500000000000004 -0.129 0.41500000000000004 -0.11900000000000001 Q 0.41500000000000004 -0.1 0.393 -0.065 Q 0.34400000000000003 0.011 0.249 0.011 Q 0.155 0.011 0.09 -0.063 Q 0.034 -0.128 0.034 -0.216 Q 0.034 -0.319 0.105 -0.388 Q 0.166 -0.448 0.251 -0.448 Q 0.334 -0.448 0.378 -0.403 Q 0.404 -0.376 0.404 -0.341 Q 0.404 -0.303 0.371 -0.295 Q 0.365 -0.294 0.358 -0.294 Q 0.323 -0.294 0.314 -0.326 Q 0.312 -0.332 0.312 -0.34 Q 0.312 -0.376 0.34700000000000003 -0.384 Q 0.353 -0.386 0.359 -0.386 Z"/></g><g transform="translate(31.513594666927194,9.11788147368421)"><path fill="rgb(204,0,0)" stroke="none" paint-order="stroke fill markers" d=" M 0.47100000000000003 -0.214 L 0.47100000000000003 -0.214 Q 0.47100000000000003 -0.111 0.395 -0.044 Q 0.332 0.011 0.249 0.011 Q 0.153 0.011 0.08700000000000001 -0.061 Q 0.028 -0.126 0.028 -0.214 Q 0.028 -0.316 0.101 -0.386 Q 0.164 -0.448 0.25 -0.448 Q 0.34700000000000003 -0.448 0.41300000000000003 -0.371 Q 0.47100000000000003 -0.304 0.47100000000000003 -0.214 M 0.25 -0.014 L 0.25 -0.014 Q 0.317 -0.014 0.356 -0.07 L 0.366 -0.088 Q 0.388 -0.132 0.388 -0.222 Q 0.388 -0.318 0.362 -0.361 Q 0.319 -0.423 0.249 -0.426 Q 0.187 -0.426 0.147 -0.376 Q 0.14 -0.368 0.135 -0.359 Q 0.111 -0.315 0.111 -0.222 Q 0.111 -0.125 0.136 -0.081 Q 0.178 -0.016 0.25 -0.014 Z"/></g><g transform="translate(32.01359466692719,9.11788147368421)"><path fill="rgb(204,0,0)" stroke="none" paint-order="stroke fill markers" d=" M 0.20800000000000002 -0.194 L 0.20800000000000002 -0.194 Q 0.122 -0.211 0.095 -0.227 Q 0.085 -0.232 0.076 -0.24 Q 0.033 -0.275 0.033 -0.325 Q 0.033 -0.395 0.095 -0.427 Q 0.134 -0.448 0.193 -0.448 Q 0.249 -0.448 0.28700000000000003 -0.42 Q 0.298 -0.429 0.304 -0.436 Q 0.317 -0.448 0.324 -0.448 Q 0.334 -0.439 0.335 -0.424 L 0.335 -0.323 Q 0.335 -0.302 0.329 -0.3 L 0.328 -0.3 L 0.327 -0.299 L 0.322 -0.299 Q 0.311 -0.299 0.31 -0.308 Q 0.303 -0.40900000000000003 0.227 -0.426 Q 0.211 -0.429 0.193 -0.429 Q 0.099 -0.429 0.083 -0.371 Q 0.081 -0.362 0.081 -0.353 Q 0.081 -0.302 0.158 -0.281 Q 0.17300000000000001 -0.277 0.20400000000000001 -0.271 Q 0.276 -0.257 0.307 -0.232 Q 0.313 -0.228 0.318 -0.223 Q 0.36 -0.181 0.36 -0.128 Q 0.36 -0.043000000000000003 0.29 -0.008 Q 0.252 0.011 0.199 0.011 Q 0.134 0.011 0.089 -0.032 L 0.069 -0.009000000000000001 Q 0.049 0.011 0.044 0.011 Q 0.034 0.002 0.033 -0.013000000000000001 L 0.033 -0.145 Q 0.033 -0.167 0.04 -0.169 L 0.04 -0.169 L 0.041 -0.17 L 0.046 -0.17 Q 0.056 -0.17 0.059000000000000004 -0.159 Q 0.059000000000000004 -0.157 0.06 -0.153 Q 0.08600000000000001 -0.037 0.159 -0.016 Q 0.177 -0.011 0.199 -0.011 Q 0.289 -0.011 0.308 -0.074 Q 0.312 -0.08700000000000001 0.312 -0.10200000000000001 Q 0.312 -0.17500000000000002 0.20800000000000002 -0.194 Z"/></g><g transform="translate(32.57426133359386,9.11788147368421)"><path fill="rgb(204,0,0)" stroke="none" paint-order="stroke fill markers" d=" M 0.334 -0.302 L 0.3 -0.165 Q 0.28300000000000003 -0.097 0.28300000000000003 -0.077 Q 0.28300000000000003 -0.025 0.32 -0.014 Q 0.328 -0.011 0.338 -0.011 Q 0.388 -0.011 0.429 -0.061 Q 0.456 -0.093 0.47100000000000003 -0.14200000000000002 Q 0.47400000000000003 -0.153 0.484 -0.153 Q 0.496 -0.153 0.496 -0.14300000000000002 Q 0.496 -0.11800000000000001 0.465 -0.07100000000000001 Q 0.41100000000000003 0.011 0.336 0.011 Q 0.268 0.011 0.23700000000000002 -0.046 Q 0.231 -0.055 0.228 -0.065 Q 0.20400000000000001 -0.017 0.162 0.002 Q 0.14300000000000002 0.011 0.123 0.011 Q 0.063 0.011 0.039 -0.024 Q 0.029 -0.037 0.029 -0.055 Q 0.029 -0.092 0.061 -0.107 Q 0.07200000000000001 -0.113 0.084 -0.113 Q 0.114 -0.113 0.12 -0.088 Q 0.121 -0.083 0.121 -0.078 Q 0.121 -0.044 0.08700000000000001 -0.028 Q 0.081 -0.025 0.074 -0.024 Q 0.095 -0.011 0.124 -0.011 Q 0.177 -0.011 0.20800000000000002 -0.082 Q 0.214 -0.097 0.219 -0.115 Q 0.273 -0.319 0.273 -0.353 Q 0.267 -0.41500000000000004 0.219 -0.42 Q 0.167 -0.42 0.124 -0.367 L 0.124 -0.366 Q 0.124 -0.365 0.123 -0.365 Q 0.108 -0.34500000000000003 0.096 -0.319 Q 0.091 -0.307 0.08700000000000001 -0.295 L 0.085 -0.289 Q 0.083 -0.278 0.07200000000000001 -0.278 Q 0.06 -0.278 0.06 -0.28800000000000003 Q 0.06 -0.313 0.092 -0.36 Q 0.146 -0.442 0.221 -0.442 Q 0.298 -0.442 0.329 -0.366 Q 0.361 -0.428 0.41400000000000003 -0.44 Q 0.424 -0.442 0.434 -0.442 Q 0.493 -0.442 0.517 -0.40900000000000003 Q 0.527 -0.395 0.527 -0.376 Q 0.527 -0.335 0.49 -0.321 Q 0.481 -0.318 0.47300000000000003 -0.318 Q 0.442 -0.318 0.436 -0.34500000000000003 Q 0.435 -0.34900000000000003 0.435 -0.353 Q 0.435 -0.383 0.464 -0.4 Q 0.47300000000000003 -0.405 0.483 -0.40700000000000003 Q 0.462 -0.42 0.433 -0.42 Q 0.365 -0.42 0.337 -0.314 Q 0.335 -0.308 0.334 -0.302 Z"/></g></g><g transform="scale(19,19)"><g transform="translate(30.68421052631579,22.17867368421053) scale(0.7,0.7)"><path fill="rgb(0,100,0)" stroke="none" paint-order="stroke fill markers" d=" M 0.255 -0.47900000000000004 L 0.076 -0.059000000000000004 Q 0.07 -0.045 0.063 -0.045 Q 0.045 -0.045 0.033 -0.056 Q 0.029 -0.059000000000000004 0.029 -0.063 Q 0.029 -0.065 0.032 -0.077 L 0.153 -0.513 Q 0.166 -0.554 0.197 -0.558 Q 0.202 -0.559 0.20600000000000002 -0.559 Q 0.24 -0.559 0.256 -0.53 Q 0.262 -0.519 0.262 -0.507 Q 0.262 -0.494 0.255 -0.47900000000000004 Z"/></g><g transform="translate(31.069594666927195,22.59156568421053)"><path fill="rgb(0,100,0)" stroke="none" paint-order="stroke fill markers" d=" M 0.20800000000000002 -0.194 L 0.20800000000000002 -0.194 Q 0.122 -0.211 0.095 -0.227 Q 0.085 -0.232 0.076 -0.24 Q 0.033 -0.275 0.033 -0.325 Q 0.033 -0.395 0.095 -0.427 Q 0.134 -0.448 0.193 -0.448 Q 0.249 -0.448 0.28700000000000003 -0.42 Q 0.298 -0.429 0.304 -0.436 Q 0.317 -0.448 0.324 -0.448 Q 0.334 -0.439 0.335 -0.424 L 0.335 -0.323 Q 0.335 -0.302 0.329 -0.3 L 0.328 -0.3 L 0.327 -0.299 L 0.322 -0.299 Q 0.311 -0.299 0.31 -0.308 Q 0.303 -0.40900000000000003 0.227 -0.426 Q 0.211 -0.429 0.193 -0.429 Q 0.099 -0.429 0.083 -0.371 Q 0.081 -0.362 0.081 -0.353 Q 0.081 -0.302 0.158 -0.281 Q 0.17300000000000001 -0.277 0.20400000000000001 -0.271 Q 0.276 -0.257 0.307 -0.232 Q 0.313 -0.228 0.318 -0.223 Q 0.36 -0.181 0.36 -0.128 Q 0.36 -0.043000000000000003 0.29 -0.008 Q 0.252 0.011 0.199 0.011 Q 0.134 0.011 0.089 -0.032 L 0.069 -0.009000000000000001 Q 0.049 0.011 0.044 0.011 Q 0.034 0.002 0.033 -0.013000000000000001 L 0.033 -0.145 Q 0.033 -0.167 0.04 -0.169 L 0.04 -0.169 L 0.041 -0.17 L 0.046 -0.17 Q 0.056 -0.17 0.059000000000000004 -0.159 Q 0.059000000000000004 -0.157 0.06 -0.153 Q 0.08600000000000001 -0.037 0.159 -0.016 Q 0.177 -0.011 0.199 -0.011 Q 0.289 -0.011 0.308 -0.074 Q 0.312 -0.08700000000000001 0.312 -0.10200000000000001 Q 0.312 -0.17500000000000002 0.20800000000000002 -0.194 Z"/></g><g transform="translate(31.463594666927193,22.59156568421053)"><path fill="rgb(0,100,0)" stroke="none" paint-order="stroke fill markers" d=" M 0.177 -0.442 L 0.177 -0.442 L 0.177 -0.075 Q 0.177 -0.044 0.189 -0.037 L 0.189 -0.037 Q 0.201 -0.031 0.247 -0.031 L 0.247 0 Q 0.145 -0.003 0.14300000000000002 -0.003 Q 0.129 -0.003 0.033 0 L 0.033 -0.031 Q 0.092 -0.031 0.10200000000000001 -0.04 L 0.10400000000000001 -0.042 Q 0.111 -0.05 0.111 -0.076 L 0.111 -0.34500000000000003 Q 0.111 -0.385 0.095 -0.393 L 0.094 -0.393 L 0.094 -0.393 L 0.093 -0.394 L 0.093 -0.394 Q 0.08 -0.4 0.037 -0.4 L 0.037 -0.431 L 0.177 -0.442 M 0.181 -0.616 Q 0.181 -0.579 0.148 -0.5670000000000001 Q 0.138 -0.5630000000000001 0.128 -0.5630000000000001 Q 0.093 -0.5630000000000001 0.079 -0.595 L 0.079 -0.596 Q 0.075 -0.606 0.075 -0.616 Q 0.075 -0.647 0.10300000000000001 -0.662 Q 0.114 -0.669 0.128 -0.669 Q 0.162 -0.669 0.176 -0.639 Q 0.181 -0.628 0.181 -0.616 Z"/></g><g transform="translate(31.741594666927192,22.59156568421053)"><path fill="rgb(0,100,0)" stroke="none" paint-order="stroke fill markers" d=" M 0.11 -0.34400000000000003 Q 0.11 -0.383 0.095 -0.392 Q 0.083 -0.399 0.052000000000000005 -0.4 L 0.032 -0.4 L 0.032 -0.431 L 0.17300000000000001 -0.442 L 0.17300000000000001 -0.337 Q 0.22 -0.442 0.321 -0.442 Q 0.396 -0.442 0.426 -0.405 Q 0.453 -0.374 0.456 -0.32 Q 0.457 -0.301 0.457 -0.252 L 0.457 -0.061 Q 0.458 -0.037 0.486 -0.033 Q 0.498 -0.031 0.535 -0.031 L 0.535 0 Q 0.433 -0.003 0.423 -0.003 Q 0.41500000000000004 -0.003 0.31 0 L 0.31 -0.031 Q 0.369 -0.031 0.379 -0.04 L 0.381 -0.042 Q 0.388 -0.05 0.388 -0.076 L 0.388 -0.309 Q 0.388 -0.40800000000000003 0.331 -0.418 Q 0.323 -0.42 0.314 -0.42 Q 0.253 -0.42 0.212 -0.367 Q 0.179 -0.324 0.179 -0.26 L 0.179 -0.076 Q 0.179 -0.042 0.195 -0.036000000000000004 Q 0.20600000000000002 -0.031 0.257 -0.031 L 0.257 0 Q 0.155 -0.003 0.145 -0.003 Q 0.137 -0.003 0.032 0 L 0.032 -0.031 Q 0.091 -0.031 0.101 -0.04 L 0.10300000000000001 -0.042 Q 0.11 -0.05 0.11 -0.076 L 0.11 -0.34400000000000003 Z"/></g><g transform="translate(32.46426133359386,22.59156568421053)"><path fill="rgb(0,100,0)" stroke="none" paint-order="stroke fill markers" d=" M 0.334 -0.302 L 0.3 -0.165 Q 0.28300000000000003 -0.097 0.28300000000000003 -0.077 Q 0.28300000000000003 -0.025 0.32 -0.014 Q 0.328 -0.011 0.338 -0.011 Q 0.388 -0.011 0.429 -0.061 Q 0.456 -0.093 0.47100000000000003 -0.14200000000000002 Q 0.47400000000000003 -0.153 0.484 -0.153 Q 0.496 -0.153 0.496 -0.14300000000000002 Q 0.496 -0.11800000000000001 0.465 -0.07100000000000001 Q 0.41100000000000003 0.011 0.336 0.011 Q 0.268 0.011 0.23700000000000002 -0.046 Q 0.231 -0.055 0.228 -0.065 Q 0.20400000000000001 -0.017 0.162 0.002 Q 0.14300000000000002 0.011 0.123 0.011 Q 0.063 0.011 0.039 -0.024 Q 0.029 -0.037 0.029 -0.055 Q 0.029 -0.092 0.061 -0.107 Q 0.07200000000000001 -0.113 0.084 -0.113 Q 0.114 -0.113 0.12 -0.088 Q 0.121 -0.083 0.121 -0.078 Q 0.121 -0.044 0.08700000000000001 -0.028 Q 0.081 -0.025 0.074 -0.024 Q 0.095 -0.011 0.124 -0.011 Q 0.177 -0.011 0.20800000000000002 -0.082 Q 0.214 -0.097 0.219 -0.115 Q 0.273 -0.319 0.273 -0.353 Q 0.267 -0.41500000000000004 0.219 -0.42 Q 0.167 -0.42 0.124 -0.367 L 0.124 -0.366 Q 0.124 -0.365 0.123 -0.365 Q 0.108 -0.34500000000000003 0.096 -0.319 Q 0.091 -0.307 0.08700000000000001 -0.295 L 0.085 -0.289 Q 0.083 -0.278 0.07200000000000001 -0.278 Q 0.06 -0.278 0.06 -0.28800000000000003 Q 0.06 -0.313 0.092 -0.36 Q 0.146 -0.442 0.221 -0.442 Q 0.298 -0.442 0.329 -0.366 Q 0.361 -0.428 0.41400000000000003 -0.44 Q 0.424 -0.442 0.434 -0.442 Q 0.493 -0.442 0.517 -0.40900000000000003 Q 0.527 -0.395 0.527 -0.376 Q 0.527 -0.335 0.49 -0.321 Q 0.481 -0.318 0.47300000000000003 -0.318 Q 0.442 -0.318 0.436 -0.34500000000000003 Q 0.435 -0.34900000000000003 0.435 -0.353 Q 0.435 -0.383 0.464 -0.4 Q 0.47300000000000003 -0.405 0.483 -0.40700000000000003 Q 0.462 -0.42 0.433 -0.42 Q 0.365 -0.42 0.337 -0.314 Q 0.335 -0.308 0.334 -0.302 Z"/></g></g><g transform="scale(19,19)"><g transform="translate(41.26315789473684,13.3892) scale(0.7,0.7)"><path fill="rgb(0,0,255)" stroke="none" paint-order="stroke fill markers" d=" M 0.255 -0.47900000000000004 L 0.076 -0.059000000000000004 Q 0.07 -0.045 0.063 -0.045 Q 0.045 -0.045 0.033 -0.056 Q 0.029 -0.059000000000000004 0.029 -0.063 Q 0.029 -0.065 0.032 -0.077 L 0.153 -0.513 Q 0.166 -0.554 0.197 -0.558 Q 0.202 -0.559 0.20600000000000002 -0.559 Q 0.24 -0.559 0.256 -0.53 Q 0.262 -0.519 0.262 -0.507 Q 0.262 -0.494 0.255 -0.47900000000000004 Z"/></g><g transform="translate(41.64854203534824,13.802092)"><path fill="rgb(0,0,255)" stroke="none" paint-order="stroke fill markers" d=" M 0.17300000000000001 -0.4 L 0.17300000000000001 -0.4 L 0.17300000000000001 -0.122 Q 0.17300000000000001 -0.022 0.231 -0.015 Q 0.23500000000000001 -0.014 0.24 -0.014 Q 0.28300000000000003 -0.014 0.3 -0.07 Q 0.307 -0.094 0.307 -0.126 L 0.307 -0.181 L 0.332 -0.181 L 0.332 -0.124 Q 0.332 -0.042 0.28600000000000003 -0.006 Q 0.264 0.011 0.233 0.011 Q 0.149 0.011 0.11800000000000001 -0.052000000000000005 Q 0.10400000000000001 -0.082 0.10400000000000001 -0.124 L 0.10400000000000001 -0.4 L 0.019 -0.4 L 0.019 -0.422 Q 0.108 -0.426 0.137 -0.534 Q 0.147 -0.5720000000000001 0.148 -0.615 L 0.17300000000000001 -0.615 L 0.17300000000000001 -0.431 L 0.316 -0.431 L 0.316 -0.4 L 0.17300000000000001 -0.4 Z"/></g><g transform="translate(42.037542035348245,13.802092)"><path fill="rgb(0,0,255)" stroke="none" paint-order="stroke fill markers" d=" M 0.333 -0.076 Q 0.308 -0.014 0.245 0.005 Q 0.225 0.011 0.202 0.011 Q 0.117 0.011 0.07100000000000001 -0.03 Q 0.042 -0.056 0.042 -0.095 Q 0.042 -0.17200000000000001 0.127 -0.218 Q 0.134 -0.222 0.14200000000000002 -0.225 Q 0.203 -0.254 0.321 -0.261 L 0.326 -0.261 L 0.326 -0.298 Q 0.326 -0.383 0.265 -0.41500000000000004 Q 0.244 -0.426 0.22 -0.426 Q 0.154 -0.426 0.11800000000000001 -0.387 Q 0.115 -0.383 0.112 -0.38 Q 0.159 -0.374 0.163 -0.334 Q 0.163 -0.3 0.132 -0.29 Q 0.125 -0.28800000000000003 0.117 -0.28800000000000003 Q 0.081 -0.28800000000000003 0.073 -0.321 Q 0.07100000000000001 -0.326 0.07100000000000001 -0.335 Q 0.07100000000000001 -0.395 0.134 -0.427 Q 0.17300000000000001 -0.448 0.222 -0.448 Q 0.304 -0.448 0.359 -0.393 Q 0.394 -0.357 0.395 -0.293 L 0.395 -0.292 L 0.395 -0.275 L 0.395 -0.075 Q 0.395 -0.046 0.41300000000000003 -0.032 Q 0.421 -0.025 0.432 -0.025 Q 0.467 -0.025 0.468 -0.089 L 0.468 -0.145 L 0.493 -0.145 L 0.493 -0.089 Q 0.493 -0.016 0.433 0.002 Q 0.421 0.006 0.41100000000000003 0.006 Q 0.362 0.006 0.341 -0.046 Q 0.335 -0.06 0.333 -0.076 M 0.326 -0.24 Q 0.17200000000000001 -0.234 0.13 -0.146 Q 0.11900000000000001 -0.122 0.11900000000000001 -0.096 Q 0.11900000000000001 -0.045 0.165 -0.021 Q 0.185 -0.011 0.209 -0.011 Q 0.261 -0.011 0.296 -0.052000000000000005 Q 0.326 -0.08600000000000001 0.326 -0.14 L 0.326 -0.24 Z"/></g><g transform="translate(42.537542035348245,13.802092)"><path fill="rgb(0,0,255)" stroke="none" paint-order="stroke fill markers" d=" M 0.11 -0.34400000000000003 Q 0.11 -0.383 0.095 -0.392 Q 0.083 -0.399 0.052000000000000005 -0.4 L 0.032 -0.4 L 0.032 -0.431 L 0.17300000000000001 -0.442 L 0.17300000000000001 -0.337 Q 0.22 -0.442 0.321 -0.442 Q 0.396 -0.442 0.426 -0.405 Q 0.453 -0.374 0.456 -0.32 Q 0.457 -0.301 0.457 -0.252 L 0.457 -0.061 Q 0.458 -0.037 0.486 -0.033 Q 0.498 -0.031 0.535 -0.031 L 0.535 0 Q 0.433 -0.003 0.423 -0.003 Q 0.41500000000000004 -0.003 0.31 0 L 0.31 -0.031 Q 0.369 -0.031 0.379 -0.04 L 0.381 -0.042 Q 0.388 -0.05 0.388 -0.076 L 0.388 -0.309 Q 0.388 -0.40800000000000003 0.331 -0.418 Q 0.323 -0.42 0.314 -0.42 Q 0.253 -0.42 0.212 -0.367 Q 0.179 -0.324 0.179 -0.26 L 0.179 -0.076 Q 0.179 -0.042 0.195 -0.036000000000000004 Q 0.20600000000000002 -0.031 0.257 -0.031 L 0.257 0 Q 0.155 -0.003 0.145 -0.003 Q 0.137 -0.003 0.032 0 L 0.032 -0.031 Q 0.091 -0.031 0.101 -0.04 L 0.10300000000000001 -0.042 Q 0.11 -0.05 0.11 -0.076 L 0.11 -0.34400000000000003 Z"/></g><g transform="translate(43.26020870201491,13.802092)"><path fill="rgb(0,0,255)" stroke="none" paint-order="stroke fill markers" d=" M 0.334 -0.302 L 0.3 -0.165 Q 0.28300000000000003 -0.097 0.28300000000000003 -0.077 Q 0.28300000000000003 -0.025 0.32 -0.014 Q 0.328 -0.011 0.338 -0.011 Q 0.388 -0.011 0.429 -0.061 Q 0.456 -0.093 0.47100000000000003 -0.14200000000000002 Q 0.47400000000000003 -0.153 0.484 -0.153 Q 0.496 -0.153 0.496 -0.14300000000000002 Q 0.496 -0.11800000000000001 0.465 -0.07100000000000001 Q 0.41100000000000003 0.011 0.336 0.011 Q 0.268 0.011 0.23700000000000002 -0.046 Q 0.231 -0.055 0.228 -0.065 Q 0.20400000000000001 -0.017 0.162 0.002 Q 0.14300000000000002 0.011 0.123 0.011 Q 0.063 0.011 0.039 -0.024 Q 0.029 -0.037 0.029 -0.055 Q 0.029 -0.092 0.061 -0.107 Q 0.07200000000000001 -0.113 0.084 -0.113 Q 0.114 -0.113 0.12 -0.088 Q 0.121 -0.083 0.121 -0.078 Q 0.121 -0.044 0.08700000000000001 -0.028 Q 0.081 -0.025 0.074 -0.024 Q 0.095 -0.011 0.124 -0.011 Q 0.177 -0.011 0.20800000000000002 -0.082 Q 0.214 -0.097 0.219 -0.115 Q 0.273 -0.319 0.273 -0.353 Q 0.267 -0.41500000000000004 0.219 -0.42 Q 0.167 -0.42 0.124 -0.367 L 0.124 -0.366 Q 0.124 -0.365 0.123 -0.365 Q 0.108 -0.34500000000000003 0.096 -0.319 Q 0.091 -0.307 0.08700000000000001 -0.295 L 0.085 -0.289 Q 0.083 -0.278 0.07200000000000001 -0.278 Q 0.06 -0.278 0.06 -0.28800000000000003 Q 0.06 -0.313 0.092 -0.36 Q 0.146 -0.442 0.221 -0.442 Q 0.298 -0.442 0.329 -0.366 Q 0.361 -0.428 0.41400000000000003 -0.44 Q 0.424 -0.442 0.434 -0.442 Q 0.493 -0.442 0.517 -0.40900000000000003 Q 0.527 -0.395 0.527 -0.376 Q 0.527 -0.335 0.49 -0.321 Q 0.481 -0.318 0.47300000000000003 -0.318 Q 0.442 -0.318 0.436 -0.34500000000000003 Q 0.435 -0.34900000000000003 0.435 -0.353 Q 0.435 -0.383 0.464 -0.4 Q 0.47300000000000003 -0.405 0.483 -0.40700000000000003 Q 0.462 -0.42 0.433 -0.42 Q 0.365 -0.42 0.337 -0.314 Q 0.335 -0.308 0.334 -0.302 Z"/></g></g><text fill="rgb(0,0,0)" stroke="none" font-family="geogebra-sans-serif, sans-serif" font-size="16px" font-style="normal" font-weight="normal" text-decoration="normal" x="532" y="431" text-anchor="start" dominant-baseline="alphabetic" fill-opacity="1">x</text></g></g></svg>