<?xml version="1.0" encoding="UTF-8" standalone="no"?>
<!DOCTYPE svg PUBLIC "-//W3C//DTD SVG 1.1//EN"
 "http://www.w3.org/Graphics/SVG/1.1/DTD/svg11.dtd">
<!-- Generated by graphviz version 2.38.0 (20140413.2041)
 -->
<!-- Title: %111 Pages: 1 -->
<svg width="576pt" height="80pt"
 viewBox="0.00 0.00 576.00 80.00" xmlns="http://www.w3.org/2000/svg" xmlns:xlink="http://www.w3.org/1999/xlink">
<g id="graph0" class="graph" transform="scale(1 1) rotate(0) translate(4 76)">
<title>%111</title>
<polygon fill="white" stroke="none" points="-4,4 -4,-76 572,-76 572,4 -4,4"/>
<text text-anchor="middle" x="284" y="-60" font-family="Consola" font-size="10.00">计算机图形学中的坐标变换</text>
<!-- Screen -->
<g id="node1" class="node"><title>Screen</title>
<polygon fill="none" stroke="black" points="0,-0.5 0,-52.5 87,-52.5 87,-0.5 0,-0.5"/>
<text text-anchor="middle" x="43.5" y="-40.5" font-family="Consola" font-size="10.00">屏幕空间</text>
<text text-anchor="middle" x="43.5" y="-29.5" font-family="Consola" font-size="10.00"> Screen Space </text>
<text text-anchor="middle" x="43.5" y="-18.5" font-family="Consola" font-size="10.00"> 视窗空间 </text>
<text text-anchor="middle" x="43.5" y="-7.5" font-family="Consola" font-size="10.00"> Viewport Space</text>
</g>
<!-- Projection -->
<g id="node2" class="node"><title>Projection</title>
<polygon fill="none" stroke="black" points="123,-0.5 123,-52.5 223,-52.5 223,-0.5 123,-0.5"/>
<text text-anchor="middle" x="173" y="-40.5" font-family="Consola" font-size="10.00">规范空间</text>
<text text-anchor="middle" x="173" y="-29.5" font-family="Consola" font-size="10.00"> Normalized Space </text>
<text text-anchor="middle" x="173" y="-18.5" font-family="Consola" font-size="10.00"> 裁剪空间 </text>
<text text-anchor="middle" x="173" y="-7.5" font-family="Consola" font-size="10.00"> Clip Space</text>
</g>
<!-- Screen&#45;&gt;Projection -->
<g id="edge1" class="edge"><title>Screen&#45;&gt;Projection</title>
<path fill="none" stroke="black" d="M97.4345,-25.5C105.874,-25.5 114.575,-25.5 122.92,-25.5"/>
<path fill="none" stroke="black" d="M97.4345,-27.5C105.874,-27.5 114.575,-27.5 122.92,-27.5"/>
<polygon fill="black" stroke="black" points="97.3104,-23.0001 87.3103,-26.5 97.3103,-30.0001 97.3104,-23.0001"/>
</g>
<!-- View -->
<g id="node3" class="node"><title>View</title>
<polygon fill="none" stroke="black" points="259,-0.5 259,-52.5 342,-52.5 342,-0.5 259,-0.5"/>
<text text-anchor="middle" x="300.5" y="-40.5" font-family="Consola" font-size="10.00">视野空间</text>
<text text-anchor="middle" x="300.5" y="-29.5" font-family="Consola" font-size="10.00"> View Space </text>
<text text-anchor="middle" x="300.5" y="-18.5" font-family="Consola" font-size="10.00"> 相机空间 </text>
<text text-anchor="middle" x="300.5" y="-7.5" font-family="Consola" font-size="10.00"> Camera Space</text>
</g>
<!-- Projection&#45;&gt;View -->
<g id="edge2" class="edge"><title>Projection&#45;&gt;View</title>
<path fill="none" stroke="black" d="M233.326,-25.5C241.985,-25.5 250.731,-25.5 258.903,-25.5"/>
<path fill="none" stroke="black" d="M233.326,-27.5C241.985,-27.5 250.731,-27.5 258.903,-27.5"/>
<polygon fill="black" stroke="black" points="233.241,-23.0001 223.241,-26.5 233.241,-30.0001 233.241,-23.0001"/>
</g>
<!-- World -->
<g id="node4" class="node"><title>World</title>
<polygon fill="none" stroke="black" points="378,-0.5 378,-52.5 455,-52.5 455,-0.5 378,-0.5"/>
<text text-anchor="middle" x="416.5" y="-40.5" font-family="Consola" font-size="10.00">世界空间</text>
<text text-anchor="middle" x="416.5" y="-29.5" font-family="Consola" font-size="10.00"> World Space </text>
<text text-anchor="middle" x="416.5" y="-18.5" font-family="Consola" font-size="10.00"> 场景空间 </text>
<text text-anchor="middle" x="416.5" y="-7.5" font-family="Consola" font-size="10.00"> Scene Space</text>
</g>
<!-- View&#45;&gt;World -->
<g id="edge3" class="edge"><title>View&#45;&gt;World</title>
<path fill="none" stroke="black" d="M352.031,-25.5C360.684,-25.5 369.54,-25.5 377.785,-25.5"/>
<path fill="none" stroke="black" d="M352.031,-27.5C360.684,-27.5 369.54,-27.5 377.785,-27.5"/>
<polygon fill="black" stroke="black" points="352.013,-23.0001 342.013,-26.5 352.013,-30.0001 352.013,-23.0001"/>
</g>
<!-- Local -->
<g id="node5" class="node"><title>Local</title>
<polygon fill="none" stroke="black" points="491,-0.5 491,-52.5 568,-52.5 568,-0.5 491,-0.5"/>
<text text-anchor="middle" x="529.5" y="-40.5" font-family="Consola" font-size="10.00">局部空间</text>
<text text-anchor="middle" x="529.5" y="-29.5" font-family="Consola" font-size="10.00"> Local Space </text>
<text text-anchor="middle" x="529.5" y="-18.5" font-family="Consola" font-size="10.00"> 物体空间 </text>
<text text-anchor="middle" x="529.5" y="-7.5" font-family="Consola" font-size="10.00"> Object Space</text>
</g>
<!-- World&#45;&gt;Local -->
<g id="edge4" class="edge"><title>World&#45;&gt;Local</title>
<path fill="none" stroke="black" d="M465.351,-25.5C473.918,-25.5 482.734,-25.5 490.959,-25.5"/>
<path fill="none" stroke="black" d="M465.351,-27.5C473.918,-27.5 482.734,-27.5 490.959,-27.5"/>
<polygon fill="black" stroke="black" points="465.08,-23.0001 455.08,-26.5 465.08,-30.0001 465.08,-23.0001"/>
</g>
</g>
</svg>
