<svg version="1.1" xmlns="http://www.w3.org/2000/svg" xmlns:xlink="http://www.w3.org/1999/xlink" width="1280" height="666"><defs><clipPath id="rZuVeQlXJzaf"><path fill="none" stroke="none" d=" M 0 0 L 1280 0 L 1280 666 L 0 666 L 0 0 Z"/></clipPath></defs><g transform="scale(1,1)" clip-path="url(#rZuVeQlXJzaf)"><g><rect fill="rgb(255,255,255)" stroke="none" x="0" y="0" width="1280" height="666" fill-opacity="1"/><path fill="none" stroke="rgb(192,192,192)" paint-order="fill stroke markers" d=" M 39.5 0.5 L 39.5 666.5 M 39.5 0.5 L 39.5 666.5 M 89.5 0.5 L 89.5 666.5 M 139.5 0.5 L 139.5 666.5 M 189.5 0.5 L 189.5 666.5 M 239.5 0.5 L 239.5 666.5 M 289.5 0.5 L 289.5 666.5 M 339.5 0.5 L 339.5 666.5 M 389.5 0.5 L 389.5 666.5 M 439.5 0.5 L 439.5 666.5 M 489.5 0.5 L 489.5 666.5 M 540.5 0.5 L 540.5 666.5 M 590.5 0.5 L 590.5 666.5 M 690.5 0.5 L 690.5 666.5 M 740.5 0.5 L 740.5 666.5 M 790.5 0.5 L 790.5 666.5 M 840.5 0.5 L 840.5 666.5 M 890.5 0.5 L 890.5 666.5 M 940.5 0.5 L 940.5 666.5 M 990.5 0.5 L 990.5 666.5 M 1040.5 0.5 L 1040.5 666.5 M 1090.5 0.5 L 1090.5 666.5 M 1140.5 0.5 L 1140.5 666.5 M 1190.5 0.5 L 1190.5 666.5 M 1240.5 0.5 L 1240.5 666.5" stroke-opacity="1" stroke-linecap="round" stroke-linejoin="round" stroke-miterlimit="10"/><path fill="none" stroke="rgb(192,192,192)" paint-order="fill stroke markers" d=" M 9.5 0.5 L 9.5 666.5 M 19.5 0.5 L 19.5 666.5 M 29.5 0.5 L 29.5 666.5 M 49.5 0.5 L 49.5 666.5 M 59.5 0.5 L 59.5 666.5 M 69.5 0.5 L 69.5 666.5 M 79.5 0.5 L 79.5 666.5 M 99.5 0.5 L 99.5 666.5 M 109.5 0.5 L 109.5 666.5 M 119.5 0.5 L 119.5 666.5 M 129.5 0.5 L 129.5 666.5 M 149.5 0.5 L 149.5 666.5 M 159.5 0.5 L 159.5 666.5 M 169.5 0.5 L 169.5 666.5 M 179.5 0.5 L 179.5 666.5 M 199.5 0.5 L 199.5 666.5 M 209.5 0.5 L 209.5 666.5 M 219.5 0.5 L 219.5 666.5 M 229.5 0.5 L 229.5 666.5 M 249.5 0.5 L 249.5 666.5 M 259.5 0.5 L 259.5 666.5 M 269.5 0.5 L 269.5 666.5 M 279.5 0.5 L 279.5 666.5 M 299.5 0.5 L 299.5 666.5 M 309.5 0.5 L 309.5 666.5 M 319.5 0.5 L 319.5 666.5 M 329.5 0.5 L 329.5 666.5 M 349.5 0.5 L 349.5 666.5 M 359.5 0.5 L 359.5 666.5 M 369.5 0.5 L 369.5 666.5 M 379.5 0.5 L 379.5 666.5 M 399.5 0.5 L 399.5 666.5 M 409.5 0.5 L 409.5 666.5 M 419.5 0.5 L 419.5 666.5 M 429.5 0.5 L 429.5 666.5 M 449.5 0.5 L 449.5 666.5 M 459.5 0.5 L 459.5 666.5 M 469.5 0.5 L 469.5 666.5 M 479.5 0.5 L 479.5 666.5 M 499.5 0.5 L 499.5 666.5 M 509.5 0.5 L 509.5 666.5 M 520.5 0.5 L 520.5 666.5 M 529.5 0.5 L 529.5 666.5 M 549.5 0.5 L 549.5 666.5 M 559.5 0.5 L 559.5 666.5 M 570.5 0.5 L 570.5 666.5 M 580.5 0.5 L 580.5 666.5 M 600.5 0.5 L 600.5 666.5 M 610.5 0.5 L 610.5 666.5 M 620.5 0.5 L 620.5 666.5 M 630.5 0.5 L 630.5 666.5 M 650.5 0.5 L 650.5 666.5 M 660.5 0.5 L 660.5 666.5 M 670.5 0.5 L 670.5 666.5 M 680.5 0.5 L 680.5 666.5 M 700.5 0.5 L 700.5 666.5 M 710.5 0.5 L 710.5 666.5 M 720.5 0.5 L 720.5 666.5 M 730.5 0.5 L 730.5 666.5 M 750.5 0.5 L 750.5 666.5 M 760.5 0.5 L 760.5 666.5 M 770.5 0.5 L 770.5 666.5 M 780.5 0.5 L 780.5 666.5 M 800.5 0.5 L 800.5 666.5 M 810.5 0.5 L 810.5 666.5 M 820.5 0.5 L 820.5 666.5 M 830.5 0.5 L 830.5 666.5 M 850.5 0.5 L 850.5 666.5 M 860.5 0.5 L 860.5 666.5 M 870.5 0.5 L 870.5 666.5 M 880.5 0.5 L 880.5 666.5 M 900.5 0.5 L 900.5 666.5 M 910.5 0.5 L 910.5 666.5 M 920.5 0.5 L 920.5 666.5 M 930.5 0.5 L 930.5 666.5 M 950.5 0.5 L 950.5 666.5 M 960.5 0.5 L 960.5 666.5 M 970.5 0.5 L 970.5 666.5 M 980.5 0.5 L 980.5 666.5 M 1000.5 0.5 L 1000.5 666.5 M 1010.5 0.5 L 1010.5 666.5 M 1020.5 0.5 L 1020.5 666.5 M 1030.5 0.5 L 1030.5 666.5 M 1050.5 0.5 L 1050.5 666.5 M 1060.5 0.5 L 1060.5 666.5 M 1070.5 0.5 L 1070.5 666.5 M 1080.5 0.5 L 1080.5 666.5 M 1100.5 0.5 L 1100.5 666.5 M 1110.5 0.5 L 1110.5 666.5 M 1120.5 0.5 L 1120.5 666.5 M 1130.5 0.5 L 1130.5 666.5 M 1150.5 0.5 L 1150.5 666.5 M 1160.5 0.5 L 1160.5 666.5 M 1170.5 0.5 L 1170.5 666.5 M 1180.5 0.5 L 1180.5 666.5 M 1200.5 0.5 L 1200.5 666.5 M 1210.5 0.5 L 1210.5 666.5 M 1220.5 0.5 L 1220.5 666.5 M 1230.5 0.5 L 1230.5 666.5 M 1250.5 0.5 L 1250.5 666.5 M 1260.5 0.5 L 1260.5 666.5 M 1270.5 0.5 L 1270.5 666.5" stroke-opacity="0.23529411764705882" stroke-linecap="round" stroke-linejoin="round" stroke-miterlimit="10"/><path fill="none" stroke="rgb(192,192,192)" paint-order="fill stroke markers" d=" M 0.5 33.5 L 1280.5 33.5 M 0.5 33.5 L 1280.5 33.5 M 0.5 83.5 L 1280.5 83.5 M 0.5 133.5 L 1280.5 133.5 M 0.5 183.5 L 1280.5 183.5 M 0.5 233.5 L 1280.5 233.5 M 0.5 283.5 L 1280.5 283.5 M 0.5 383.5 L 1280.5 383.5 M 0.5 433.5 L 1280.5 433.5 M 0.5 483.5 L 1280.5 483.5 M 0.5 533.5 L 1280.5 533.5 M 0.5 583.5 L 1280.5 583.5 M 0.5 633.5 L 1280.5 633.5" stroke-opacity="1" stroke-linecap="round" stroke-linejoin="round" stroke-miterlimit="10"/><path fill="none" stroke="rgb(192,192,192)" paint-order="fill stroke markers" d=" M 0.5 3.5 L 1280.5 3.5 M 0.5 3.5 L 1280.5 3.5 M 0.5 13.5 L 1280.5 13.5 M 0.5 23.5 L 1280.5 23.5 M 0.5 43.5 L 1280.5 43.5 M 0.5 53.5 L 1280.5 53.5 M 0.5 63.5 L 1280.5 63.5 M 0.5 73.5 L 1280.5 73.5 M 0.5 93.5 L 1280.5 93.5 M 0.5 103.5 L 1280.5 103.5 M 0.5 113.5 L 1280.5 113.5 M 0.5 123.5 L 1280.5 123.5 M 0.5 143.5 L 1280.5 143.5 M 0.5 153.5 L 1280.5 153.5 M 0.5 163.5 L 1280.5 163.5 M 0.5 173.5 L 1280.5 173.5 M 0.5 193.5 L 1280.5 193.5 M 0.5 203.5 L 1280.5 203.5 M 0.5 213.5 L 1280.5 213.5 M 0.5 223.5 L 1280.5 223.5 M 0.5 243.5 L 1280.5 243.5 M 0.5 253.5 L 1280.5 253.5 M 0.5 263.5 L 1280.5 263.5 M 0.5 273.5 L 1280.5 273.5 M 0.5 293.5 L 1280.5 293.5 M 0.5 303.5 L 1280.5 303.5 M 0.5 313.5 L 1280.5 313.5 M 0.5 323.5 L 1280.5 323.5 M 0.5 343.5 L 1280.5 343.5 M 0.5 353.5 L 1280.5 353.5 M 0.5 363.5 L 1280.5 363.5 M 0.5 373.5 L 1280.5 373.5 M 0.5 393.5 L 1280.5 393.5 M 0.5 403.5 L 1280.5 403.5 M 0.5 413.5 L 1280.5 413.5 M 0.5 423.5 L 1280.5 423.5 M 0.5 443.5 L 1280.5 443.5 M 0.5 453.5 L 1280.5 453.5 M 0.5 463.5 L 1280.5 463.5 M 0.5 473.5 L 1280.5 473.5 M 0.5 493.5 L 1280.5 493.5 M 0.5 503.5 L 1280.5 503.5 M 0.5 513.5 L 1280.5 513.5 M 0.5 523.5 L 1280.5 523.5 M 0.5 543.5 L 1280.5 543.5 M 0.5 553.5 L 1280.5 553.5 M 0.5 563.5 L 1280.5 563.5 M 0.5 573.5 L 1280.5 573.5 M 0.5 593.5 L 1280.5 593.5 M 0.5 603.5 L 1280.5 603.5 M 0.5 613.5 L 1280.5 613.5 M 0.5 623.5 L 1280.5 623.5 M 0.5 643.5 L 1280.5 643.5 M 0.5 653.5 L 1280.5 653.5 M 0.5 663.5 L 1280.5 663.5" stroke-opacity="0.23529411764705882" stroke-linecap="round" stroke-linejoin="round" stroke-miterlimit="10"/><path fill="none" stroke="rgb(0,0,0)" paint-order="fill stroke markers" d=" M 640.5 2.5 L 640.5 666.5" stroke-opacity="1" stroke-miterlimit="10"/><path fill="none" stroke="rgb(0,0,0)" paint-order="fill stroke markers" d=" M 640.5 1.5 L 636.5 5.5" stroke-opacity="1" stroke-miterlimit="10"/><path fill="none" stroke="rgb(0,0,0)" paint-order="fill stroke markers" d=" M 640.5 1.5 L 644.5 5.5" stroke-opacity="1" stroke-miterlimit="10"/><path fill="none" stroke="rgb(0,0,0)" paint-order="fill stroke markers" d=" M 0.5 333.5 L 1278.5 333.5" stroke-opacity="1" stroke-miterlimit="10"/><path fill="none" stroke="rgb(0,0,0)" paint-order="fill stroke markers" d=" M 1279.5 333.5 L 1275.5 329.5" stroke-opacity="1" stroke-miterlimit="10"/><path fill="none" stroke="rgb(0,0,0)" paint-order="fill stroke markers" d=" M 1279.5 333.5 L 1275.5 337.5" stroke-opacity="1" stroke-miterlimit="10"/><text fill="rgb(0,0,0)" stroke="none" font-family="geogebra-sans-serif, sans-serif" font-size="12px" font-style="normal" font-weight="normal" text-decoration="normal" x="31" y="349" text-anchor="start" dominant-baseline="alphabetic" fill-opacity="1">–12</text><text fill="none" stroke="rgb(255,255,255)" font-family="geogebra-sans-serif, sans-serif" font-size="12px" font-style="normal" font-weight="normal" text-decoration="normal" x="31" y="349" text-anchor="start" dominant-baseline="alphabetic" stroke-opacity="1" stroke-linejoin="bevel" stroke-miterlimit="10" stroke-width="3">–12</text><text fill="rgb(0,0,0)" stroke="none" font-family="geogebra-sans-serif, sans-serif" font-size="12px" font-style="normal" font-weight="normal" text-decoration="normal" x="31" y="349" text-anchor="start" dominant-baseline="alphabetic" fill-opacity="1">–12</text><text fill="rgb(0,0,0)" stroke="none" font-family="geogebra-sans-serif, sans-serif" font-size="12px" font-style="normal" font-weight="normal" text-decoration="normal" x="81" y="349" text-anchor="start" dominant-baseline="alphabetic" fill-opacity="1">–11</text><text fill="none" stroke="rgb(255,255,255)" font-family="geogebra-sans-serif, sans-serif" font-size="12px" font-style="normal" font-weight="normal" text-decoration="normal" x="81" y="349" text-anchor="start" dominant-baseline="alphabetic" stroke-opacity="1" stroke-linejoin="bevel" stroke-miterlimit="10" stroke-width="3">–11</text><text fill="rgb(0,0,0)" stroke="none" font-family="geogebra-sans-serif, sans-serif" font-size="12px" font-style="normal" font-weight="normal" text-decoration="normal" x="81" y="349" text-anchor="start" dominant-baseline="alphabetic" fill-opacity="1">–11</text><text fill="rgb(0,0,0)" stroke="none" font-family="geogebra-sans-serif, sans-serif" font-size="12px" font-style="normal" font-weight="normal" text-decoration="normal" x="131" y="349" text-anchor="start" dominant-baseline="alphabetic" fill-opacity="1">–10</text><text fill="none" stroke="rgb(255,255,255)" font-family="geogebra-sans-serif, sans-serif" font-size="12px" font-style="normal" font-weight="normal" text-decoration="normal" x="131" y="349" text-anchor="start" dominant-baseline="alphabetic" stroke-opacity="1" stroke-linejoin="bevel" stroke-miterlimit="10" stroke-width="3">–10</text><text fill="rgb(0,0,0)" stroke="none" font-family="geogebra-sans-serif, sans-serif" font-size="12px" font-style="normal" font-weight="normal" text-decoration="normal" x="131" y="349" text-anchor="start" dominant-baseline="alphabetic" fill-opacity="1">–10</text><text fill="rgb(0,0,0)" stroke="none" font-family="geogebra-sans-serif, sans-serif" font-size="12px" font-style="normal" font-weight="normal" text-decoration="normal" x="184" y="349" text-anchor="start" dominant-baseline="alphabetic" fill-opacity="1">–9</text><text fill="none" stroke="rgb(255,255,255)" font-family="geogebra-sans-serif, sans-serif" font-size="12px" font-style="normal" font-weight="normal" text-decoration="normal" x="184" y="349" text-anchor="start" dominant-baseline="alphabetic" stroke-opacity="1" stroke-linejoin="bevel" stroke-miterlimit="10" stroke-width="3">–9</text><text fill="rgb(0,0,0)" stroke="none" font-family="geogebra-sans-serif, sans-serif" font-size="12px" font-style="normal" font-weight="normal" text-decoration="normal" x="184" y="349" text-anchor="start" dominant-baseline="alphabetic" fill-opacity="1">–9</text><text fill="rgb(0,0,0)" stroke="none" font-family="geogebra-sans-serif, sans-serif" font-size="12px" font-style="normal" font-weight="normal" text-decoration="normal" x="234" y="349" text-anchor="start" dominant-baseline="alphabetic" fill-opacity="1">–8</text><text fill="none" stroke="rgb(255,255,255)" font-family="geogebra-sans-serif, sans-serif" font-size="12px" font-style="normal" font-weight="normal" text-decoration="normal" x="234" y="349" text-anchor="start" dominant-baseline="alphabetic" stroke-opacity="1" stroke-linejoin="bevel" stroke-miterlimit="10" stroke-width="3">–8</text><text fill="rgb(0,0,0)" stroke="none" font-family="geogebra-sans-serif, sans-serif" font-size="12px" font-style="normal" font-weight="normal" text-decoration="normal" x="234" y="349" text-anchor="start" dominant-baseline="alphabetic" fill-opacity="1">–8</text><text fill="rgb(0,0,0)" stroke="none" font-family="geogebra-sans-serif, sans-serif" font-size="12px" font-style="normal" font-weight="normal" text-decoration="normal" x="284" y="349" text-anchor="start" dominant-baseline="alphabetic" fill-opacity="1">–7</text><text fill="none" stroke="rgb(255,255,255)" font-family="geogebra-sans-serif, sans-serif" font-size="12px" font-style="normal" font-weight="normal" text-decoration="normal" x="284" y="349" text-anchor="start" dominant-baseline="alphabetic" stroke-opacity="1" stroke-linejoin="bevel" stroke-miterlimit="10" stroke-width="3">–7</text><text fill="rgb(0,0,0)" stroke="none" font-family="geogebra-sans-serif, sans-serif" font-size="12px" font-style="normal" font-weight="normal" text-decoration="normal" x="284" y="349" text-anchor="start" dominant-baseline="alphabetic" fill-opacity="1">–7</text><text fill="rgb(0,0,0)" stroke="none" font-family="geogebra-sans-serif, sans-serif" font-size="12px" font-style="normal" font-weight="normal" text-decoration="normal" x="334" y="349" text-anchor="start" dominant-baseline="alphabetic" fill-opacity="1">–6</text><text fill="none" stroke="rgb(255,255,255)" font-family="geogebra-sans-serif, sans-serif" font-size="12px" font-style="normal" font-weight="normal" text-decoration="normal" x="334" y="349" text-anchor="start" dominant-baseline="alphabetic" stroke-opacity="1" stroke-linejoin="bevel" stroke-miterlimit="10" stroke-width="3">–6</text><text fill="rgb(0,0,0)" stroke="none" font-family="geogebra-sans-serif, sans-serif" font-size="12px" font-style="normal" font-weight="normal" text-decoration="normal" x="334" y="349" text-anchor="start" dominant-baseline="alphabetic" fill-opacity="1">–6</text><text fill="rgb(0,0,0)" stroke="none" font-family="geogebra-sans-serif, sans-serif" font-size="12px" font-style="normal" font-weight="normal" text-decoration="normal" x="384" y="349" text-anchor="start" dominant-baseline="alphabetic" fill-opacity="1">–5</text><text fill="none" stroke="rgb(255,255,255)" font-family="geogebra-sans-serif, sans-serif" font-size="12px" font-style="normal" font-weight="normal" text-decoration="normal" x="384" y="349" text-anchor="start" dominant-baseline="alphabetic" stroke-opacity="1" stroke-linejoin="bevel" stroke-miterlimit="10" stroke-width="3">–5</text><text fill="rgb(0,0,0)" stroke="none" font-family="geogebra-sans-serif, sans-serif" font-size="12px" font-style="normal" font-weight="normal" text-decoration="normal" x="384" y="349" text-anchor="start" dominant-baseline="alphabetic" fill-opacity="1">–5</text><text fill="rgb(0,0,0)" stroke="none" font-family="geogebra-sans-serif, sans-serif" font-size="12px" font-style="normal" font-weight="normal" text-decoration="normal" x="434" y="349" text-anchor="start" dominant-baseline="alphabetic" fill-opacity="1">–4</text><text fill="none" stroke="rgb(255,255,255)" font-family="geogebra-sans-serif, sans-serif" font-size="12px" font-style="normal" font-weight="normal" text-decoration="normal" x="434" y="349" text-anchor="start" dominant-baseline="alphabetic" stroke-opacity="1" stroke-linejoin="bevel" stroke-miterlimit="10" stroke-width="3">–4</text><text fill="rgb(0,0,0)" stroke="none" font-family="geogebra-sans-serif, sans-serif" font-size="12px" font-style="normal" font-weight="normal" text-decoration="normal" x="434" y="349" text-anchor="start" dominant-baseline="alphabetic" fill-opacity="1">–4</text><text fill="rgb(0,0,0)" stroke="none" font-family="geogebra-sans-serif, sans-serif" font-size="12px" font-style="normal" font-weight="normal" text-decoration="normal" x="484" y="349" text-anchor="start" dominant-baseline="alphabetic" fill-opacity="1">–3</text><text fill="none" stroke="rgb(255,255,255)" font-family="geogebra-sans-serif, sans-serif" font-size="12px" font-style="normal" font-weight="normal" text-decoration="normal" x="484" y="349" text-anchor="start" dominant-baseline="alphabetic" stroke-opacity="1" stroke-linejoin="bevel" stroke-miterlimit="10" stroke-width="3">–3</text><text fill="rgb(0,0,0)" stroke="none" font-family="geogebra-sans-serif, sans-serif" font-size="12px" font-style="normal" font-weight="normal" text-decoration="normal" x="484" y="349" text-anchor="start" dominant-baseline="alphabetic" fill-opacity="1">–3</text><text fill="rgb(0,0,0)" stroke="none" font-family="geogebra-sans-serif, sans-serif" font-size="12px" font-style="normal" font-weight="normal" text-decoration="normal" x="534" y="349" text-anchor="start" dominant-baseline="alphabetic" fill-opacity="1">–2</text><text fill="none" stroke="rgb(255,255,255)" font-family="geogebra-sans-serif, sans-serif" font-size="12px" font-style="normal" font-weight="normal" text-decoration="normal" x="534" y="349" text-anchor="start" dominant-baseline="alphabetic" stroke-opacity="1" stroke-linejoin="bevel" stroke-miterlimit="10" stroke-width="3">–2</text><text fill="rgb(0,0,0)" stroke="none" font-family="geogebra-sans-serif, sans-serif" font-size="12px" font-style="normal" font-weight="normal" text-decoration="normal" x="534" y="349" text-anchor="start" dominant-baseline="alphabetic" fill-opacity="1">–2</text><text fill="rgb(0,0,0)" stroke="none" font-family="geogebra-sans-serif, sans-serif" font-size="12px" font-style="normal" font-weight="normal" text-decoration="normal" x="584" y="349" text-anchor="start" dominant-baseline="alphabetic" fill-opacity="1">–1</text><text fill="none" stroke="rgb(255,255,255)" font-family="geogebra-sans-serif, sans-serif" font-size="12px" font-style="normal" font-weight="normal" text-decoration="normal" x="584" y="349" text-anchor="start" dominant-baseline="alphabetic" stroke-opacity="1" stroke-linejoin="bevel" stroke-miterlimit="10" stroke-width="3">–1</text><text fill="rgb(0,0,0)" stroke="none" font-family="geogebra-sans-serif, sans-serif" font-size="12px" font-style="normal" font-weight="normal" text-decoration="normal" x="584" y="349" text-anchor="start" dominant-baseline="alphabetic" fill-opacity="1">–1</text><text fill="rgb(0,0,0)" stroke="none" font-family="geogebra-sans-serif, sans-serif" font-size="12px" font-style="normal" font-weight="normal" text-decoration="normal" x="687" y="349" text-anchor="start" dominant-baseline="alphabetic" fill-opacity="1">1</text><text fill="none" stroke="rgb(255,255,255)" font-family="geogebra-sans-serif, sans-serif" font-size="12px" font-style="normal" font-weight="normal" text-decoration="normal" x="687" y="349" text-anchor="start" dominant-baseline="alphabetic" stroke-opacity="1" stroke-linejoin="bevel" stroke-miterlimit="10" stroke-width="3">1</text><text fill="rgb(0,0,0)" stroke="none" font-family="geogebra-sans-serif, sans-serif" font-size="12px" font-style="normal" font-weight="normal" text-decoration="normal" x="687" y="349" text-anchor="start" dominant-baseline="alphabetic" fill-opacity="1">1</text><text fill="rgb(0,0,0)" stroke="none" font-family="geogebra-sans-serif, sans-serif" font-size="12px" font-style="normal" font-weight="normal" text-decoration="normal" x="737" y="349" text-anchor="start" dominant-baseline="alphabetic" fill-opacity="1">2</text><text fill="none" stroke="rgb(255,255,255)" font-family="geogebra-sans-serif, sans-serif" font-size="12px" font-style="normal" font-weight="normal" text-decoration="normal" x="737" y="349" text-anchor="start" dominant-baseline="alphabetic" stroke-opacity="1" stroke-linejoin="bevel" stroke-miterlimit="10" stroke-width="3">2</text><text fill="rgb(0,0,0)" stroke="none" font-family="geogebra-sans-serif, sans-serif" font-size="12px" font-style="normal" font-weight="normal" text-decoration="normal" x="737" y="349" text-anchor="start" dominant-baseline="alphabetic" fill-opacity="1">2</text><text fill="rgb(0,0,0)" stroke="none" font-family="geogebra-sans-serif, sans-serif" font-size="12px" font-style="normal" font-weight="normal" text-decoration="normal" x="787" y="349" text-anchor="start" dominant-baseline="alphabetic" fill-opacity="1">3</text><text fill="none" stroke="rgb(255,255,255)" font-family="geogebra-sans-serif, sans-serif" font-size="12px" font-style="normal" font-weight="normal" text-decoration="normal" x="787" y="349" text-anchor="start" dominant-baseline="alphabetic" stroke-opacity="1" stroke-linejoin="bevel" stroke-miterlimit="10" stroke-width="3">3</text><text fill="rgb(0,0,0)" stroke="none" font-family="geogebra-sans-serif, sans-serif" font-size="12px" font-style="normal" font-weight="normal" text-decoration="normal" x="787" y="349" text-anchor="start" dominant-baseline="alphabetic" fill-opacity="1">3</text><text fill="rgb(0,0,0)" stroke="none" font-family="geogebra-sans-serif, sans-serif" font-size="12px" font-style="normal" font-weight="normal" text-decoration="normal" x="837" y="349" text-anchor="start" dominant-baseline="alphabetic" fill-opacity="1">4</text><text fill="none" stroke="rgb(255,255,255)" font-family="geogebra-sans-serif, sans-serif" font-size="12px" font-style="normal" font-weight="normal" text-decoration="normal" x="837" y="349" text-anchor="start" dominant-baseline="alphabetic" stroke-opacity="1" stroke-linejoin="bevel" stroke-miterlimit="10" stroke-width="3">4</text><text fill="rgb(0,0,0)" stroke="none" font-family="geogebra-sans-serif, sans-serif" font-size="12px" font-style="normal" font-weight="normal" text-decoration="normal" x="837" y="349" text-anchor="start" dominant-baseline="alphabetic" fill-opacity="1">4</text><text fill="rgb(0,0,0)" stroke="none" font-family="geogebra-sans-serif, sans-serif" font-size="12px" font-style="normal" font-weight="normal" text-decoration="normal" x="887" y="349" text-anchor="start" dominant-baseline="alphabetic" fill-opacity="1">5</text><text fill="none" stroke="rgb(255,255,255)" font-family="geogebra-sans-serif, sans-serif" font-size="12px" font-style="normal" font-weight="normal" text-decoration="normal" x="887" y="349" text-anchor="start" dominant-baseline="alphabetic" stroke-opacity="1" stroke-linejoin="bevel" stroke-miterlimit="10" stroke-width="3">5</text><text fill="rgb(0,0,0)" stroke="none" font-family="geogebra-sans-serif, sans-serif" font-size="12px" font-style="normal" font-weight="normal" text-decoration="normal" x="887" y="349" text-anchor="start" dominant-baseline="alphabetic" fill-opacity="1">5</text><text fill="rgb(0,0,0)" stroke="none" font-family="geogebra-sans-serif, sans-serif" font-size="12px" font-style="normal" font-weight="normal" text-decoration="normal" x="937" y="349" text-anchor="start" dominant-baseline="alphabetic" fill-opacity="1">6</text><text fill="none" stroke="rgb(255,255,255)" font-family="geogebra-sans-serif, sans-serif" font-size="12px" font-style="normal" font-weight="normal" text-decoration="normal" x="937" y="349" text-anchor="start" dominant-baseline="alphabetic" stroke-opacity="1" stroke-linejoin="bevel" stroke-miterlimit="10" stroke-width="3">6</text><text fill="rgb(0,0,0)" stroke="none" font-family="geogebra-sans-serif, sans-serif" font-size="12px" font-style="normal" font-weight="normal" text-decoration="normal" x="937" y="349" text-anchor="start" dominant-baseline="alphabetic" fill-opacity="1">6</text><text fill="rgb(0,0,0)" stroke="none" font-family="geogebra-sans-serif, sans-serif" font-size="12px" font-style="normal" font-weight="normal" text-decoration="normal" x="987" y="349" text-anchor="start" dominant-baseline="alphabetic" fill-opacity="1">7</text><text fill="none" stroke="rgb(255,255,255)" font-family="geogebra-sans-serif, sans-serif" font-size="12px" font-style="normal" font-weight="normal" text-decoration="normal" x="987" y="349" text-anchor="start" dominant-baseline="alphabetic" stroke-opacity="1" stroke-linejoin="bevel" stroke-miterlimit="10" stroke-width="3">7</text><text fill="rgb(0,0,0)" stroke="none" font-family="geogebra-sans-serif, sans-serif" font-size="12px" font-style="normal" font-weight="normal" text-decoration="normal" x="987" y="349" text-anchor="start" dominant-baseline="alphabetic" fill-opacity="1">7</text><text fill="rgb(0,0,0)" stroke="none" font-family="geogebra-sans-serif, sans-serif" font-size="12px" font-style="normal" font-weight="normal" text-decoration="normal" x="1037" y="349" text-anchor="start" dominant-baseline="alphabetic" fill-opacity="1">8</text><text fill="none" stroke="rgb(255,255,255)" font-family="geogebra-sans-serif, sans-serif" font-size="12px" font-style="normal" font-weight="normal" text-decoration="normal" x="1037" y="349" text-anchor="start" dominant-baseline="alphabetic" stroke-opacity="1" stroke-linejoin="bevel" stroke-miterlimit="10" stroke-width="3">8</text><text fill="rgb(0,0,0)" stroke="none" font-family="geogebra-sans-serif, sans-serif" font-size="12px" font-style="normal" font-weight="normal" text-decoration="normal" x="1037" y="349" text-anchor="start" dominant-baseline="alphabetic" fill-opacity="1">8</text><text fill="rgb(0,0,0)" stroke="none" font-family="geogebra-sans-serif, sans-serif" font-size="12px" font-style="normal" font-weight="normal" text-decoration="normal" x="1087" y="349" text-anchor="start" dominant-baseline="alphabetic" fill-opacity="1">9</text><text fill="none" stroke="rgb(255,255,255)" font-family="geogebra-sans-serif, sans-serif" font-size="12px" font-style="normal" font-weight="normal" text-decoration="normal" x="1087" y="349" text-anchor="start" dominant-baseline="alphabetic" stroke-opacity="1" stroke-linejoin="bevel" stroke-miterlimit="10" stroke-width="3">9</text><text fill="rgb(0,0,0)" stroke="none" font-family="geogebra-sans-serif, sans-serif" font-size="12px" font-style="normal" font-weight="normal" text-decoration="normal" x="1087" y="349" text-anchor="start" dominant-baseline="alphabetic" fill-opacity="1">9</text><text fill="rgb(0,0,0)" stroke="none" font-family="geogebra-sans-serif, sans-serif" font-size="12px" font-style="normal" font-weight="normal" text-decoration="normal" x="1134" y="349" text-anchor="start" dominant-baseline="alphabetic" fill-opacity="1">10</text><text fill="none" stroke="rgb(255,255,255)" font-family="geogebra-sans-serif, sans-serif" font-size="12px" font-style="normal" font-weight="normal" text-decoration="normal" x="1134" y="349" text-anchor="start" dominant-baseline="alphabetic" stroke-opacity="1" stroke-linejoin="bevel" stroke-miterlimit="10" stroke-width="3">10</text><text fill="rgb(0,0,0)" stroke="none" font-family="geogebra-sans-serif, sans-serif" font-size="12px" font-style="normal" font-weight="normal" text-decoration="normal" x="1134" y="349" text-anchor="start" dominant-baseline="alphabetic" fill-opacity="1">10</text><text fill="rgb(0,0,0)" stroke="none" font-family="geogebra-sans-serif, sans-serif" font-size="12px" font-style="normal" font-weight="normal" text-decoration="normal" x="1184" y="349" text-anchor="start" dominant-baseline="alphabetic" fill-opacity="1">11</text><text fill="none" stroke="rgb(255,255,255)" font-family="geogebra-sans-serif, sans-serif" font-size="12px" font-style="normal" font-weight="normal" text-decoration="normal" x="1184" y="349" text-anchor="start" dominant-baseline="alphabetic" stroke-opacity="1" stroke-linejoin="bevel" stroke-miterlimit="10" stroke-width="3">11</text><text fill="rgb(0,0,0)" stroke="none" font-family="geogebra-sans-serif, sans-serif" font-size="12px" font-style="normal" font-weight="normal" text-decoration="normal" x="1184" y="349" text-anchor="start" dominant-baseline="alphabetic" fill-opacity="1">11</text><text fill="rgb(0,0,0)" stroke="none" font-family="geogebra-sans-serif, sans-serif" font-size="12px" font-style="normal" font-weight="normal" text-decoration="normal" x="1234" y="349" text-anchor="start" dominant-baseline="alphabetic" fill-opacity="1">12</text><text fill="none" stroke="rgb(255,255,255)" font-family="geogebra-sans-serif, sans-serif" font-size="12px" font-style="normal" font-weight="normal" text-decoration="normal" x="1234" y="349" text-anchor="start" dominant-baseline="alphabetic" stroke-opacity="1" stroke-linejoin="bevel" stroke-miterlimit="10" stroke-width="3">12</text><text fill="rgb(0,0,0)" stroke="none" font-family="geogebra-sans-serif, sans-serif" font-size="12px" font-style="normal" font-weight="normal" text-decoration="normal" x="1234" y="349" text-anchor="start" dominant-baseline="alphabetic" fill-opacity="1">12</text><text fill="rgb(0,0,0)" stroke="none" font-family="geogebra-sans-serif, sans-serif" font-size="12px" font-style="normal" font-weight="normal" text-decoration="normal" x="619" y="638" text-anchor="start" dominant-baseline="alphabetic" fill-opacity="1">–6</text><text fill="none" stroke="rgb(255,255,255)" font-family="geogebra-sans-serif, sans-serif" font-size="12px" font-style="normal" font-weight="normal" text-decoration="normal" x="619" y="638" text-anchor="start" dominant-baseline="alphabetic" stroke-opacity="1" stroke-linejoin="bevel" stroke-miterlimit="10" stroke-width="3">–6</text><text fill="rgb(0,0,0)" stroke="none" font-family="geogebra-sans-serif, sans-serif" font-size="12px" font-style="normal" font-weight="normal" text-decoration="normal" x="619" y="638" text-anchor="start" dominant-baseline="alphabetic" fill-opacity="1">–6</text><text fill="rgb(0,0,0)" stroke="none" font-family="geogebra-sans-serif, sans-serif" font-size="12px" font-style="normal" font-weight="normal" text-decoration="normal" x="619" y="588" text-anchor="start" dominant-baseline="alphabetic" fill-opacity="1">–5</text><text fill="none" stroke="rgb(255,255,255)" font-family="geogebra-sans-serif, sans-serif" font-size="12px" font-style="normal" font-weight="normal" text-decoration="normal" x="619" y="588" text-anchor="start" dominant-baseline="alphabetic" stroke-opacity="1" stroke-linejoin="bevel" stroke-miterlimit="10" stroke-width="3">–5</text><text fill="rgb(0,0,0)" stroke="none" font-family="geogebra-sans-serif, sans-serif" font-size="12px" font-style="normal" font-weight="normal" text-decoration="normal" x="619" y="588" text-anchor="start" dominant-baseline="alphabetic" fill-opacity="1">–5</text><text fill="rgb(0,0,0)" stroke="none" font-family="geogebra-sans-serif, sans-serif" font-size="12px" font-style="normal" font-weight="normal" text-decoration="normal" x="619" y="538" text-anchor="start" dominant-baseline="alphabetic" fill-opacity="1">–4</text><text fill="none" stroke="rgb(255,255,255)" font-family="geogebra-sans-serif, sans-serif" font-size="12px" font-style="normal" font-weight="normal" text-decoration="normal" x="619" y="538" text-anchor="start" dominant-baseline="alphabetic" stroke-opacity="1" stroke-linejoin="bevel" stroke-miterlimit="10" stroke-width="3">–4</text><text fill="rgb(0,0,0)" stroke="none" font-family="geogebra-sans-serif, sans-serif" font-size="12px" font-style="normal" font-weight="normal" text-decoration="normal" x="619" y="538" text-anchor="start" dominant-baseline="alphabetic" fill-opacity="1">–4</text><text fill="rgb(0,0,0)" stroke="none" font-family="geogebra-sans-serif, sans-serif" font-size="12px" font-style="normal" font-weight="normal" text-decoration="normal" x="619" y="488" text-anchor="start" dominant-baseline="alphabetic" fill-opacity="1">–3</text><text fill="none" stroke="rgb(255,255,255)" font-family="geogebra-sans-serif, sans-serif" font-size="12px" font-style="normal" font-weight="normal" text-decoration="normal" x="619" y="488" text-anchor="start" dominant-baseline="alphabetic" stroke-opacity="1" stroke-linejoin="bevel" stroke-miterlimit="10" stroke-width="3">–3</text><text fill="rgb(0,0,0)" stroke="none" font-family="geogebra-sans-serif, sans-serif" font-size="12px" font-style="normal" font-weight="normal" text-decoration="normal" x="619" y="488" text-anchor="start" dominant-baseline="alphabetic" fill-opacity="1">–3</text><text fill="rgb(0,0,0)" stroke="none" font-family="geogebra-sans-serif, sans-serif" font-size="12px" font-style="normal" font-weight="normal" text-decoration="normal" x="619" y="438" text-anchor="start" dominant-baseline="alphabetic" fill-opacity="1">–2</text><text fill="none" stroke="rgb(255,255,255)" font-family="geogebra-sans-serif, sans-serif" font-size="12px" font-style="normal" font-weight="normal" text-decoration="normal" x="619" y="438" text-anchor="start" dominant-baseline="alphabetic" stroke-opacity="1" stroke-linejoin="bevel" stroke-miterlimit="10" stroke-width="3">–2</text><text fill="rgb(0,0,0)" stroke="none" font-family="geogebra-sans-serif, sans-serif" font-size="12px" font-style="normal" font-weight="normal" text-decoration="normal" x="619" y="438" text-anchor="start" dominant-baseline="alphabetic" fill-opacity="1">–2</text><text fill="rgb(0,0,0)" stroke="none" font-family="geogebra-sans-serif, sans-serif" font-size="12px" font-style="normal" font-weight="normal" text-decoration="normal" x="619" y="388" text-anchor="start" dominant-baseline="alphabetic" fill-opacity="1">–1</text><text fill="none" stroke="rgb(255,255,255)" font-family="geogebra-sans-serif, sans-serif" font-size="12px" font-style="normal" font-weight="normal" text-decoration="normal" x="619" y="388" text-anchor="start" dominant-baseline="alphabetic" stroke-opacity="1" stroke-linejoin="bevel" stroke-miterlimit="10" stroke-width="3">–1</text><text fill="rgb(0,0,0)" stroke="none" font-family="geogebra-sans-serif, sans-serif" font-size="12px" font-style="normal" font-weight="normal" text-decoration="normal" x="619" y="388" text-anchor="start" dominant-baseline="alphabetic" fill-opacity="1">–1</text><text fill="rgb(0,0,0)" stroke="none" font-family="geogebra-sans-serif, sans-serif" font-size="12px" font-style="normal" font-weight="normal" text-decoration="normal" x="626" y="288" text-anchor="start" dominant-baseline="alphabetic" fill-opacity="1">1</text><text fill="none" stroke="rgb(255,255,255)" font-family="geogebra-sans-serif, sans-serif" font-size="12px" font-style="normal" font-weight="normal" text-decoration="normal" x="626" y="288" text-anchor="start" dominant-baseline="alphabetic" stroke-opacity="1" stroke-linejoin="bevel" stroke-miterlimit="10" stroke-width="3">1</text><text fill="rgb(0,0,0)" stroke="none" font-family="geogebra-sans-serif, sans-serif" font-size="12px" font-style="normal" font-weight="normal" text-decoration="normal" x="626" y="288" text-anchor="start" dominant-baseline="alphabetic" fill-opacity="1">1</text><text fill="rgb(0,0,0)" stroke="none" font-family="geogebra-sans-serif, sans-serif" font-size="12px" font-style="normal" font-weight="normal" text-decoration="normal" x="626" y="238" text-anchor="start" dominant-baseline="alphabetic" fill-opacity="1">2</text><text fill="none" stroke="rgb(255,255,255)" font-family="geogebra-sans-serif, sans-serif" font-size="12px" font-style="normal" font-weight="normal" text-decoration="normal" x="626" y="238" text-anchor="start" dominant-baseline="alphabetic" stroke-opacity="1" stroke-linejoin="bevel" stroke-miterlimit="10" stroke-width="3">2</text><text fill="rgb(0,0,0)" stroke="none" font-family="geogebra-sans-serif, sans-serif" font-size="12px" font-style="normal" font-weight="normal" text-decoration="normal" x="626" y="238" text-anchor="start" dominant-baseline="alphabetic" fill-opacity="1">2</text><text fill="rgb(0,0,0)" stroke="none" font-family="geogebra-sans-serif, sans-serif" font-size="12px" font-style="normal" font-weight="normal" text-decoration="normal" x="626" y="188" text-anchor="start" dominant-baseline="alphabetic" fill-opacity="1">3</text><text fill="none" stroke="rgb(255,255,255)" font-family="geogebra-sans-serif, sans-serif" font-size="12px" font-style="normal" font-weight="normal" text-decoration="normal" x="626" y="188" text-anchor="start" dominant-baseline="alphabetic" stroke-opacity="1" stroke-linejoin="bevel" stroke-miterlimit="10" stroke-width="3">3</text><text fill="rgb(0,0,0)" stroke="none" font-family="geogebra-sans-serif, sans-serif" font-size="12px" font-style="normal" font-weight="normal" text-decoration="normal" x="626" y="188" text-anchor="start" dominant-baseline="alphabetic" fill-opacity="1">3</text><text fill="rgb(0,0,0)" stroke="none" font-family="geogebra-sans-serif, sans-serif" font-size="12px" font-style="normal" font-weight="normal" text-decoration="normal" x="626" y="138" text-anchor="start" dominant-baseline="alphabetic" fill-opacity="1">4</text><text fill="none" stroke="rgb(255,255,255)" font-family="geogebra-sans-serif, sans-serif" font-size="12px" font-style="normal" font-weight="normal" text-decoration="normal" x="626" y="138" text-anchor="start" dominant-baseline="alphabetic" stroke-opacity="1" stroke-linejoin="bevel" stroke-miterlimit="10" stroke-width="3">4</text><text fill="rgb(0,0,0)" stroke="none" font-family="geogebra-sans-serif, sans-serif" font-size="12px" font-style="normal" font-weight="normal" text-decoration="normal" x="626" y="138" text-anchor="start" dominant-baseline="alphabetic" fill-opacity="1">4</text><text fill="rgb(0,0,0)" stroke="none" font-family="geogebra-sans-serif, sans-serif" font-size="12px" font-style="normal" font-weight="normal" text-decoration="normal" x="626" y="88" text-anchor="start" dominant-baseline="alphabetic" fill-opacity="1">5</text><text fill="none" stroke="rgb(255,255,255)" font-family="geogebra-sans-serif, sans-serif" font-size="12px" font-style="normal" font-weight="normal" text-decoration="normal" x="626" y="88" text-anchor="start" dominant-baseline="alphabetic" stroke-opacity="1" stroke-linejoin="bevel" stroke-miterlimit="10" stroke-width="3">5</text><text fill="rgb(0,0,0)" stroke="none" font-family="geogebra-sans-serif, sans-serif" font-size="12px" font-style="normal" font-weight="normal" text-decoration="normal" x="626" y="88" text-anchor="start" dominant-baseline="alphabetic" fill-opacity="1">5</text><text fill="rgb(0,0,0)" stroke="none" font-family="geogebra-sans-serif, sans-serif" font-size="12px" font-style="normal" font-weight="normal" text-decoration="normal" x="626" y="38" text-anchor="start" dominant-baseline="alphabetic" fill-opacity="1">6</text><text fill="none" stroke="rgb(255,255,255)" font-family="geogebra-sans-serif, sans-serif" font-size="12px" font-style="normal" font-weight="normal" text-decoration="normal" x="626" y="38" text-anchor="start" dominant-baseline="alphabetic" stroke-opacity="1" stroke-linejoin="bevel" stroke-miterlimit="10" stroke-width="3">6</text><text fill="rgb(0,0,0)" stroke="none" font-family="geogebra-sans-serif, sans-serif" font-size="12px" font-style="normal" font-weight="normal" text-decoration="normal" x="626" y="38" text-anchor="start" dominant-baseline="alphabetic" fill-opacity="1">6</text><text fill="rgb(0,0,0)" stroke="none" font-family="geogebra-sans-serif, sans-serif" font-size="12px" font-style="normal" font-weight="normal" text-decoration="normal" x="626" y="349" text-anchor="start" dominant-baseline="alphabetic" fill-opacity="1">0</text><text fill="none" stroke="rgb(255,255,255)" font-family="geogebra-sans-serif, sans-serif" font-size="12px" font-style="normal" font-weight="normal" text-decoration="normal" x="626" y="349" text-anchor="start" dominant-baseline="alphabetic" stroke-opacity="1" stroke-linejoin="bevel" stroke-miterlimit="10" stroke-width="3">0</text><text fill="rgb(0,0,0)" stroke="none" font-family="geogebra-sans-serif, sans-serif" font-size="12px" font-style="normal" font-weight="normal" text-decoration="normal" x="626" y="349" text-anchor="start" dominant-baseline="alphabetic" fill-opacity="1">0</text><path fill="none" stroke="rgb(0,100,0)" paint-order="fill stroke markers" d=" M 508.75 676 L 508.7942642703464 676 L 510 667.7366114196832 L 510 667.7366114196832 L 510 667.7366114196832 L 511.25 659.3790833922849 L 511.25 659.3790833922849 L 512.5 651.2255529165466 L 513.75 643.2709237705018 L 515 635.5102240519889 L 516.25 627.9386030710522 L 517.5 620.5513283181003 L 518.75 613.343782505937 L 520 606.3114606838044 L 521.25 599.4499674216418 L 522.5 592.7550140628006 L 523.75 586.2224160434911 L 525 579.8480902772976 L 526.25 573.6280526031147 L 527.5 567.5584152949161 L 528.75 561.6353846318016 L 530 555.8552585267946 L 531.25 550.2144242129209 L 532.5 544.7093559851097 L 533.75 539.3366129965133 L 535 534.0928371078667 L 536.25 528.9747507885393 L 537.5 523.979155067974 L 540 514.3430203923507 L 542.5 505.16033772506944 L 545 496.4081455764157 L 547.5 488.0645589072051 L 550 480.1087144047839 L 552.5 472.5207183138822 L 555 465.28159669186164 L 557.5 458.37324796397724 L 560 451.77839766001154 L 562.5 445.4805552190999 L 565 439.46397275474095 L 567.5 433.7136056768755 L 570 428.21507507257667 L 572.5 422.95463175127713 L 575 417.91912186463077 L 580 408.4730677706087 L 585 399.7823735062089 L 590 391.76005968219016 L 595 384.3258362854089 L 600 377.4052991093812 L 605 370.92918509197676 L 610 364.83267910741216 L 615 359.0547652746875 L 620 353.5376162901409 L 625 348.2260146723573 L 630 343.06680012705476 L 635 338.0083375009923 L 640 333.0000000000001 L 645 327.99166249900793 L 650 322.93319987294547 L 655 317.77398532764295 L 660 312.46238370985935 L 665 306.94523472531273 L 670 301.16732089258807 L 675 295.07081490802346 L 680 288.59470089061904 L 685 281.6741637145913 L 690 274.23994031781007 L 695 266.21762649379133 L 700 257.52693222939155 L 705 248.08087813536946 L 707.5 243.0453682487231 L 710 237.78492492742356 L 712.5 232.28639432312474 L 715 226.53602724525928 L 717.5 220.5194447809003 L 720 214.2216023399887 L 722.5 207.626752036023 L 725 200.71840330813862 L 727.5 193.47928168611804 L 730 185.89128559521635 L 732.5 177.93544109279512 L 735 169.59185442358455 L 737.5 160.83966227493082 L 740 151.65697960764956 L 742.5 142.0208449320262 L 743.75 137.02524921146096 L 745 131.90716289213356 L 746.25 126.66338700348692 L 747.5 121.29064401489055 L 748.75 115.78557578707932 L 750 110.14474147320564 L 751.25 104.36461536819868 L 752.5 98.44158470508407 L 753.75 92.37194739688553 L 755 86.15190972270256 L 756.25 79.77758395650915 L 757.5 73.24498593719966 L 758.75 66.55003257835841 L 760 59.68853931619583 L 761.25 52.65621749406313 L 762.5 45.44867168189995 L 763.75 38.06139692894806 L 765 30.489775948011356 L 766.25 22.729076229498446 L 767.5 14.774447083453595 L 768.75 6.620916607715344 L 768.75 6.620916607715344 L 770 -1.7366114196829585 L 770 -1.7366114196829585 L 770 -1.7366114196829585 L 771.2057357296538 -10 L 771.25 -10" stroke-opacity="0.6980392156862745" stroke-linecap="round" stroke-linejoin="round" stroke-miterlimit="10" stroke-width="2.5"/><path fill="none" stroke="rgb(204,0,0)" paint-order="fill stroke markers" d=" M 510 -5.450290330399696 L 510 -5.450290330399696 L 511.25 2.8132254677847754 L 511.25 2.8132254677847754 L 512.5 10.870363783395874 L 513.75 18.726160590162408 L 515 26.38552601681647 L 516.25 33.85324741608258 L 517.5 41.1339923569314 L 518.75 48.23231154195878 L 520 55.15264165172516 L 521.25 61.89930811782523 L 522.5 68.47652782642223 L 523.75 74.88841175394163 L 525 81.13896753656235 L 526.25 87.23210197512125 L 527.5 93.17162347699085 L 528.75 98.96124443645718 L 530 104.60458355508896 L 531.25 110.1051681035411 L 532.5 115.46643612621568 L 533.75 120.69173859015092 L 535 125.78434147948448 L 537.5 135.58409975263598 L 540 144.8902154458189 L 542.5 153.7259586956051 L 545 162.1134234624528 L 547.5 170.07358277711373 L 550 177.626341184137 L 552.5 184.79058451359577 L 555 191.5842271055019 L 557.5 198.02425660498525 L 560 204.12677644025592 L 562.5 209.90704608956315 L 565 215.37951923783777 L 567.5 220.55787991843485 L 570 225.45507673034325 L 575 234.4542884836688 L 580 242.46722163378146 L 585 249.57407230888737 L 590 255.84596825923796 L 595 261.3456807275614 L 600 266.12825268475797 L 605 270.24154971845303 L 610 273.72673908788676 L 615 276.6187017396811 L 620 278.9463814080774 L 625 280.7330742935571 L 630 281.99666221904636 L 635 282.74979159720993 L 640 283.0000000000001 L 645 282.74979159720993 L 650 281.99666221904636 L 655 280.7330742935571 L 660 278.9463814080774 L 665 276.6187017396811 L 670 273.72673908788676 L 675 270.24154971845303 L 680 266.12825268475797 L 685 261.3456807275614 L 690 255.84596825923796 L 695 249.57407230888737 L 700 242.46722163378146 L 705 234.4542884836688 L 710 225.45507673034325 L 712.5 220.55787991843485 L 715 215.37951923783777 L 717.5 209.90704608956315 L 720 204.12677644025592 L 722.5 198.02425660498525 L 725 191.5842271055019 L 727.5 184.79058451359577 L 730 177.626341184137 L 732.5 170.07358277711373 L 735 162.1134234624528 L 737.5 153.7259586956051 L 740 144.8902154458189 L 742.5 135.58409975263598 L 745 125.78434147948448 L 746.25 120.69173859015092 L 747.5 115.46643612621568 L 748.75 110.1051681035411 L 750 104.60458355508896 L 751.25 98.96124443645718 L 752.5 93.17162347699085 L 753.75 87.23210197512125 L 755 81.13896753656235 L 756.25 74.88841175394163 L 757.5 68.47652782642223 L 758.75 61.89930811782523 L 760 55.15264165172516 L 761.25 48.23231154195878 L 762.5 41.1339923569314 L 763.75 33.85324741608258 L 765 26.38552601681647 L 766.25 18.726160590162408 L 767.5 10.870363783395874 L 768.75 2.8132254677847754 L 768.75 2.8132254677847754 L 770 -5.450290330399696 L 770 -5.450290330399696" stroke-opacity="0.6980392156862745" stroke-linecap="round" stroke-linejoin="round" stroke-miterlimit="10" stroke-width="2.5"/><path fill="none" stroke="rgb(0,0,255)" paint-order="fill stroke markers" d=" M 0 382.9999999992379 L 4.999999999999886 382.99999999906913 L 9.999999999999886 382.9999999988631 L 15 382.9999999986113 L 20 382.9999999983038 L 25 382.9999999979283 L 30 382.99999999746956 L 34.999999999999886 382.9999999969093 L 39.999999999999886 382.999999996225 L 45 382.99999999538915 L 50 382.9999999943683 L 55 382.9999999931214 L 60 382.9999999915984 L 64.99999999999989 382.9999999897382 L 69.99999999999989 382.9999999874662 L 75 382.99999998469116 L 80 382.99999998130176 L 85 382.99999997716185 L 90 382.9999999721054 L 94.99999999999989 382.9999999659295 L 100 382.9999999583861 L 104.99999999999989 382.99999994917266 L 110 382.99999993791937 L 115 382.9999999241745 L 120 382.9999999073865 L 124.99999999999989 382.9999998868816 L 129.99999999999994 382.99999986183684 L 135 382.9999998312471 L 140 382.99999979388474 L 144.99999999999994 382.9999997482502 L 149.99999999999994 382.9999996925121 L 154.99999999999994 382.9999996244334 L 160 382.9999995412819 L 165 382.99999943972045 L 170 382.999999315673 L 174.99999999999994 382.99999916416107 L 179.99999999999994 382.999998979104 L 184.99999999999994 382.99999875307486 L 189.99999999999994 382.9999984770021 L 195 382.9999981398062 L 200 382.99999772795417 L 204.99999999999994 382.9999972249169 L 209.99999999999994 382.9999966105059 L 214.99999999999994 382.99999586006254 L 220 382.999994943469 L 224.9999999999999 382.9999938239391 L 230 382.9999924565423 L 234.99999999999994 382.99999078640013 L 239.99999999999994 382.9999887464839 L 245 382.9999862549247 L 249.99999999999994 382.9999832117276 L 255 382.9999794947586 L 260 382.9999749548426 L 264.99999999999994 382.9999694097774 L 270 382.99996263702025 L 275 382.99995436475723 L 279.99999999999994 382.99994426099425 L 285 382.999931920233 L 290 382.9999168471973 L 294.99999999999994 382.99989843695613 L 300 382.999875950646 L 305 382.99984848581846 L 309.99999999999994 382.9998149402228 L 315 382.9997739675703 L 320 382.9997239235051 L 324.99999999999994 382.9996627996137 L 330 382.9995881428256 L 335 382.9994969569699 L 339.99999999999994 382.9993855825399 L 345 382.9992495498404 L 350 382.99908339962815 L 354.99999999999994 382.9988804640496 L 360 382.99863259909165 L 365 382.9983298578153 L 369.99999999999994 382.9979600912721 L 375 382.9975084611062 L 380 382.99695684431003 L 385 382.9962831062898 L 390 382.99546021312983 L 395 382.9944551475278 L 400 382.99322758503814 L 405 382.9917282777149 L 410 382.98989708060935 L 415 382.9876605424015 L 419.99999999999994 382.9849289641941 L 425 382.98159280950375 L 430 382.9775183229768 L 435 382.97254218438997 L 440 382.96646498695344 L 445 382.9590432835015 L 449.99999999999994 382.94997988929214 L 455 382.93891206405664 L 460 382.9253971166164 L 465 382.90889488056007 L 470 382.88874639671405 L 475 382.8641480049572 L 479.99999999999994 382.83411989198265 L 485 382.7974679610951 L 490 382.75273768433664 L 495 382.69815836752923 L 500 382.6315760100565 L 505 382.550372683906 L 510 382.45137011005505 L 515 382.33071490757163 L 520 382.18374288468414 L 525 382.00481981330967 L 530 381.78715650157267 L 535 381.5225968306728 L 540 381.2013790037909 L 545 380.81187290638707 L 550 380.3403006423135 L 555 379.77045353015507 L 560 379.08342772032364 L 565 378.2574126822434 L 570 377.2675824101132 L 575 376.0861579656654 L 580 374.68273035060787 L 585 373.02495108803157 L 590 371.07970779778833 L 595 368.81489350995133 L 600 366.20183851339254 L 605 363.2183888558583 L 610 359.85247834990184 L 615 356.1058578630006 L 620 351.9974481127614 L 625 347.5656306225797 L 630 342.86876601124527 L 635 337.9833997312479 L 640 333.0000000000001 L 645 328.0166002687523 L 650 323.13123398875496 L 655 318.4343693774205 L 660 314.00255188723884 L 665 309.8941421369996 L 670 306.1475216500984 L 675 302.78161114414195 L 680 299.7981614866077 L 685 297.1851064900489 L 690 294.9202922022119 L 695 292.97504891196866 L 700 291.31726964939236 L 705 289.91384203433483 L 710 288.732417589887 L 715 287.74258731775683 L 720 286.9165722796766 L 725 286.22954646984516 L 730 285.6596993576867 L 735 285.18812709361316 L 740 284.7986209962093 L 745 284.47740316932743 L 750 284.21284349842756 L 755 283.99518018669056 L 760 283.81625711531615 L 765 283.6692850924286 L 770 283.5486298899452 L 775 283.4496273160943 L 780 283.3684239899437 L 785 283.301841632471 L 790 283.2472623156636 L 795 283.20253203890513 L 800 283.1658801080176 L 805 283.135851995043 L 810 283.1112536032862 L 815.0000000000001 283.0911051194402 L 820 283.0746028833838 L 825 283.0610879359436 L 830 283.0500201107081 L 835 283.0409567164987 L 840 283.0335350130468 L 845 283.02745781561026 L 850.0000000000001 283.02248167702345 L 855 283.0184071904965 L 860 283.0150710358061 L 865 283.0123394575987 L 870 283.0101029193909 L 875.0000000000001 283.0082717222853 L 880 283.0067724149621 L 885 283.0055448524724 L 890 283.0045397868704 L 895 283.0037168937104 L 900 283.0030431556902 L 905 283.00249153889405 L 910 283.00203990872814 L 915 283.00167014218493 L 920 283.0013674009086 L 925 283.00111953595064 L 930 283.00091660037214 L 935.0000000000001 283.00075045015984 L 940 283.0006144174603 L 945 283.00050304303033 L 950 283.00041185717464 L 955 283.0003372003865 L 960 283.00027607649514 L 965 283.0002260324299 L 970 283.00018505977744 L 975 283.00015151418177 L 980 283.0001240493542 L 985 283.0001015630441 L 990 283.0000831528029 L 995.0000000000001 283.00006807976723 L 1000 283.000055739006 L 1005 283.000045635243 L 1010 283.00003736298 L 1015 283.0000305902228 L 1020.0000000000001 283.0000250451576 L 1025 283.00002050524165 L 1030 283.0000167882726 L 1035 283.00001374507553 L 1040 283.00001125351633 L 1045 283.0000092136001 L 1050 283.0000075434579 L 1055 283.0000061760611 L 1060 283.0000050565312 L 1065 283.0000041399377 L 1070 283.00000338949434 L 1075 283.0000027750833 L 1080 283.00000227204606 L 1085 283.000001860194 L 1090 283.0000015229981 L 1095 283.0000012469254 L 1100 283.0000010208962 L 1105 283.00000083583916 L 1110 283.00000068432723 L 1115 283.0000005602798 L 1120 283.0000004587183 L 1125 283.0000003755668 L 1130 283.0000003074881 L 1135 283.00000025175 L 1140 283.0000002061155 L 1145 283.0000001687531 L 1150 283.0000001381634 L 1155 283.00000011311863 L 1160 283.00000009261373 L 1165 283.0000000758257 L 1170 283.00000006208086 L 1175 283.00000005082757 L 1180 283.0000000416141 L 1185 283.00000003407075 L 1190 283.0000000278948 L 1195 283.0000000228384 L 1200 283.0000000186985 L 1205 283.00000001530907 L 1210 283.00000001253403 L 1215 283.000000010262 L 1220 283.00000000840186 L 1225 283.00000000687885 L 1230 283.000000005632 L 1235 283.0000000046111 L 1240 283.00000000377526 L 1245 283.0000000030909 L 1250 283.00000000253067 L 1255 283.00000000207194 L 1260 283.00000000169643 L 1265 283.0000000013889 L 1270 283.00000000113715 L 1275 283.0000000009311 L 1280 283.0000000007623" stroke-opacity="0.6980392156862745" stroke-linecap="round" stroke-linejoin="round" stroke-miterlimit="10" stroke-width="2.5"/><path fill="none" stroke="rgb(0,0,0)" paint-order="fill stroke markers" d=" M 301.99999999999983 671 L 978.0000000000005 -5" stroke-opacity="0.6980392156862745" stroke-linecap="round" stroke-linejoin="round" stroke-miterlimit="10" stroke-width="2.5"/><g transform="scale(19,19)"><g transform="translate(25.894736842105264,9.641368421052633)"><path fill="rgb(204,0,0)" stroke="none" paint-order="stroke fill markers" d=" M 0.359 -0.386 Q 0.323 -0.423 0.252 -0.423 Q 0.189 -0.423 0.151 -0.363 Q 0.117 -0.309 0.117 -0.218 Q 0.117 -0.074 0.203 -0.029 Q 0.23 -0.014 0.258 -0.014 Q 0.356 -0.014 0.389 -0.11900000000000001 Q 0.392 -0.129 0.402 -0.129 Q 0.41500000000000004 -0.129 0.41500000000000004 -0.11900000000000001 Q 0.41500000000000004 -0.1 0.393 -0.065 Q 0.34400000000000003 0.011 0.249 0.011 Q 0.155 0.011 0.09 -0.063 Q 0.034 -0.128 0.034 -0.216 Q 0.034 -0.319 0.105 -0.388 Q 0.166 -0.448 0.251 -0.448 Q 0.334 -0.448 0.378 -0.403 Q 0.404 -0.376 0.404 -0.341 Q 0.404 -0.303 0.371 -0.295 Q 0.365 -0.294 0.358 -0.294 Q 0.323 -0.294 0.314 -0.326 Q 0.312 -0.332 0.312 -0.34 Q 0.312 -0.376 0.34700000000000003 -0.384 Q 0.353 -0.386 0.359 -0.386 Z"/></g><g transform="translate(26.338736842105263,9.641368421052633)"><path fill="rgb(204,0,0)" stroke="none" paint-order="stroke fill markers" d=" M 0.47100000000000003 -0.214 L 0.47100000000000003 -0.214 Q 0.47100000000000003 -0.111 0.395 -0.044 Q 0.332 0.011 0.249 0.011 Q 0.153 0.011 0.08700000000000001 -0.061 Q 0.028 -0.126 0.028 -0.214 Q 0.028 -0.316 0.101 -0.386 Q 0.164 -0.448 0.25 -0.448 Q 0.34700000000000003 -0.448 0.41300000000000003 -0.371 Q 0.47100000000000003 -0.304 0.47100000000000003 -0.214 M 0.25 -0.014 L 0.25 -0.014 Q 0.317 -0.014 0.356 -0.07 L 0.366 -0.088 Q 0.388 -0.132 0.388 -0.222 Q 0.388 -0.318 0.362 -0.361 Q 0.319 -0.423 0.249 -0.426 Q 0.187 -0.426 0.147 -0.376 Q 0.14 -0.368 0.135 -0.359 Q 0.111 -0.315 0.111 -0.222 Q 0.111 -0.125 0.136 -0.081 Q 0.178 -0.016 0.25 -0.014 Z"/></g><g transform="translate(26.838736842105263,9.641368421052633)"><path fill="rgb(204,0,0)" stroke="none" paint-order="stroke fill markers" d=" M 0.20800000000000002 -0.194 L 0.20800000000000002 -0.194 Q 0.122 -0.211 0.095 -0.227 Q 0.085 -0.232 0.076 -0.24 Q 0.033 -0.275 0.033 -0.325 Q 0.033 -0.395 0.095 -0.427 Q 0.134 -0.448 0.193 -0.448 Q 0.249 -0.448 0.28700000000000003 -0.42 Q 0.298 -0.429 0.304 -0.436 Q 0.317 -0.448 0.324 -0.448 Q 0.334 -0.439 0.335 -0.424 L 0.335 -0.323 Q 0.335 -0.302 0.329 -0.3 L 0.328 -0.3 L 0.327 -0.299 L 0.322 -0.299 Q 0.311 -0.299 0.31 -0.308 Q 0.303 -0.40900000000000003 0.227 -0.426 Q 0.211 -0.429 0.193 -0.429 Q 0.099 -0.429 0.083 -0.371 Q 0.081 -0.362 0.081 -0.353 Q 0.081 -0.302 0.158 -0.281 Q 0.17300000000000001 -0.277 0.20400000000000001 -0.271 Q 0.276 -0.257 0.307 -0.232 Q 0.313 -0.228 0.318 -0.223 Q 0.36 -0.181 0.36 -0.128 Q 0.36 -0.043000000000000003 0.29 -0.008 Q 0.252 0.011 0.199 0.011 Q 0.134 0.011 0.089 -0.032 L 0.069 -0.009000000000000001 Q 0.049 0.011 0.044 0.011 Q 0.034 0.002 0.033 -0.013000000000000001 L 0.033 -0.145 Q 0.033 -0.167 0.04 -0.169 L 0.04 -0.169 L 0.041 -0.17 L 0.046 -0.17 Q 0.056 -0.17 0.059000000000000004 -0.159 Q 0.059000000000000004 -0.157 0.06 -0.153 Q 0.08600000000000001 -0.037 0.159 -0.016 Q 0.177 -0.011 0.199 -0.011 Q 0.289 -0.011 0.308 -0.074 Q 0.312 -0.08700000000000001 0.312 -0.10200000000000001 Q 0.312 -0.17500000000000002 0.20800000000000002 -0.194 Z"/></g><g transform="translate(27.23273684210526,9.641368421052633)"><path fill="rgb(204,0,0)" stroke="none" paint-order="stroke fill markers" d=" M 0.457 -0.252 L 0.457 -0.061 Q 0.458 -0.037 0.486 -0.033 Q 0.498 -0.031 0.535 -0.031 L 0.535 0 Q 0.433 -0.003 0.423 -0.003 Q 0.41500000000000004 -0.003 0.31 0 L 0.31 -0.031 Q 0.369 -0.031 0.379 -0.04 L 0.381 -0.042 Q 0.388 -0.05 0.388 -0.076 L 0.388 -0.309 Q 0.388 -0.40800000000000003 0.331 -0.418 Q 0.323 -0.42 0.314 -0.42 Q 0.253 -0.42 0.212 -0.367 Q 0.179 -0.324 0.179 -0.26 L 0.179 -0.076 Q 0.179 -0.042 0.195 -0.036000000000000004 Q 0.20600000000000002 -0.031 0.257 -0.031 L 0.257 0 Q 0.155 -0.003 0.145 -0.003 Q 0.137 -0.003 0.032 0 L 0.032 -0.031 Q 0.091 -0.031 0.101 -0.04 L 0.10300000000000001 -0.042 Q 0.11 -0.05 0.11 -0.076 L 0.11 -0.596 Q 0.11 -0.635 0.096 -0.644 L 0.095 -0.644 Q 0.084 -0.65 0.057 -0.652 L 0.032 -0.652 L 0.032 -0.683 L 0.176 -0.6940000000000001 L 0.176 -0.34600000000000003 L 0.177 -0.34600000000000003 Q 0.20400000000000001 -0.40700000000000003 0.263 -0.431 Q 0.294 -0.441 0.321 -0.442 Q 0.396 -0.442 0.426 -0.405 Q 0.453 -0.374 0.456 -0.32 Q 0.457 -0.301 0.457 -0.252 Z"/></g><g transform="translate(27.955403508771933,9.641368421052633)"><path fill="rgb(204,0,0)" stroke="none" paint-order="stroke fill markers" d=" M 0.334 -0.302 L 0.3 -0.165 Q 0.28300000000000003 -0.097 0.28300000000000003 -0.077 Q 0.28300000000000003 -0.025 0.32 -0.014 Q 0.328 -0.011 0.338 -0.011 Q 0.388 -0.011 0.429 -0.061 Q 0.456 -0.093 0.47100000000000003 -0.14200000000000002 Q 0.47400000000000003 -0.153 0.484 -0.153 Q 0.496 -0.153 0.496 -0.14300000000000002 Q 0.496 -0.11800000000000001 0.465 -0.07100000000000001 Q 0.41100000000000003 0.011 0.336 0.011 Q 0.268 0.011 0.23700000000000002 -0.046 Q 0.231 -0.055 0.228 -0.065 Q 0.20400000000000001 -0.017 0.162 0.002 Q 0.14300000000000002 0.011 0.123 0.011 Q 0.063 0.011 0.039 -0.024 Q 0.029 -0.037 0.029 -0.055 Q 0.029 -0.092 0.061 -0.107 Q 0.07200000000000001 -0.113 0.084 -0.113 Q 0.114 -0.113 0.12 -0.088 Q 0.121 -0.083 0.121 -0.078 Q 0.121 -0.044 0.08700000000000001 -0.028 Q 0.081 -0.025 0.074 -0.024 Q 0.095 -0.011 0.124 -0.011 Q 0.177 -0.011 0.20800000000000002 -0.082 Q 0.214 -0.097 0.219 -0.115 Q 0.273 -0.319 0.273 -0.353 Q 0.267 -0.41500000000000004 0.219 -0.42 Q 0.167 -0.42 0.124 -0.367 L 0.124 -0.366 Q 0.124 -0.365 0.123 -0.365 Q 0.108 -0.34500000000000003 0.096 -0.319 Q 0.091 -0.307 0.08700000000000001 -0.295 L 0.085 -0.289 Q 0.083 -0.278 0.07200000000000001 -0.278 Q 0.06 -0.278 0.06 -0.28800000000000003 Q 0.06 -0.313 0.092 -0.36 Q 0.146 -0.442 0.221 -0.442 Q 0.298 -0.442 0.329 -0.366 Q 0.361 -0.428 0.41400000000000003 -0.44 Q 0.424 -0.442 0.434 -0.442 Q 0.493 -0.442 0.517 -0.40900000000000003 Q 0.527 -0.395 0.527 -0.376 Q 0.527 -0.335 0.49 -0.321 Q 0.481 -0.318 0.47300000000000003 -0.318 Q 0.442 -0.318 0.436 -0.34500000000000003 Q 0.435 -0.34900000000000003 0.435 -0.353 Q 0.435 -0.383 0.464 -0.4 Q 0.47300000000000003 -0.405 0.483 -0.40700000000000003 Q 0.462 -0.42 0.433 -0.42 Q 0.365 -0.42 0.337 -0.314 Q 0.335 -0.308 0.334 -0.302 Z"/></g></g><g transform="scale(19,19)"><g transform="translate(29.105263157894736,25.851894736842105)"><path fill="rgb(0,100,0)" stroke="none" paint-order="stroke fill markers" d=" M 0.20800000000000002 -0.194 L 0.20800000000000002 -0.194 Q 0.122 -0.211 0.095 -0.227 Q 0.085 -0.232 0.076 -0.24 Q 0.033 -0.275 0.033 -0.325 Q 0.033 -0.395 0.095 -0.427 Q 0.134 -0.448 0.193 -0.448 Q 0.249 -0.448 0.28700000000000003 -0.42 Q 0.298 -0.429 0.304 -0.436 Q 0.317 -0.448 0.324 -0.448 Q 0.334 -0.439 0.335 -0.424 L 0.335 -0.323 Q 0.335 -0.302 0.329 -0.3 L 0.328 -0.3 L 0.327 -0.299 L 0.322 -0.299 Q 0.311 -0.299 0.31 -0.308 Q 0.303 -0.40900000000000003 0.227 -0.426 Q 0.211 -0.429 0.193 -0.429 Q 0.099 -0.429 0.083 -0.371 Q 0.081 -0.362 0.081 -0.353 Q 0.081 -0.302 0.158 -0.281 Q 0.17300000000000001 -0.277 0.20400000000000001 -0.271 Q 0.276 -0.257 0.307 -0.232 Q 0.313 -0.228 0.318 -0.223 Q 0.36 -0.181 0.36 -0.128 Q 0.36 -0.043000000000000003 0.29 -0.008 Q 0.252 0.011 0.199 0.011 Q 0.134 0.011 0.089 -0.032 L 0.069 -0.009000000000000001 Q 0.049 0.011 0.044 0.011 Q 0.034 0.002 0.033 -0.013000000000000001 L 0.033 -0.145 Q 0.033 -0.167 0.04 -0.169 L 0.04 -0.169 L 0.041 -0.17 L 0.046 -0.17 Q 0.056 -0.17 0.059000000000000004 -0.159 Q 0.059000000000000004 -0.157 0.06 -0.153 Q 0.08600000000000001 -0.037 0.159 -0.016 Q 0.177 -0.011 0.199 -0.011 Q 0.289 -0.011 0.308 -0.074 Q 0.312 -0.08700000000000001 0.312 -0.10200000000000001 Q 0.312 -0.17500000000000002 0.20800000000000002 -0.194 Z"/></g><g transform="translate(29.499263157894735,25.851894736842105)"><path fill="rgb(0,100,0)" stroke="none" paint-order="stroke fill markers" d=" M 0.177 -0.442 L 0.177 -0.442 L 0.177 -0.075 Q 0.177 -0.044 0.189 -0.037 L 0.189 -0.037 Q 0.201 -0.031 0.247 -0.031 L 0.247 0 Q 0.145 -0.003 0.14300000000000002 -0.003 Q 0.129 -0.003 0.033 0 L 0.033 -0.031 Q 0.092 -0.031 0.10200000000000001 -0.04 L 0.10400000000000001 -0.042 Q 0.111 -0.05 0.111 -0.076 L 0.111 -0.34500000000000003 Q 0.111 -0.385 0.095 -0.393 L 0.094 -0.393 L 0.094 -0.393 L 0.093 -0.394 L 0.093 -0.394 Q 0.08 -0.4 0.037 -0.4 L 0.037 -0.431 L 0.177 -0.442 M 0.181 -0.616 Q 0.181 -0.579 0.148 -0.5670000000000001 Q 0.138 -0.5630000000000001 0.128 -0.5630000000000001 Q 0.093 -0.5630000000000001 0.079 -0.595 L 0.079 -0.596 Q 0.075 -0.606 0.075 -0.616 Q 0.075 -0.647 0.10300000000000001 -0.662 Q 0.114 -0.669 0.128 -0.669 Q 0.162 -0.669 0.176 -0.639 Q 0.181 -0.628 0.181 -0.616 Z"/></g><g transform="translate(29.777263157894733,25.851894736842105)"><path fill="rgb(0,100,0)" stroke="none" paint-order="stroke fill markers" d=" M 0.11 -0.34400000000000003 Q 0.11 -0.383 0.095 -0.392 Q 0.083 -0.399 0.052000000000000005 -0.4 L 0.032 -0.4 L 0.032 -0.431 L 0.17300000000000001 -0.442 L 0.17300000000000001 -0.337 Q 0.22 -0.442 0.321 -0.442 Q 0.396 -0.442 0.426 -0.405 Q 0.453 -0.374 0.456 -0.32 Q 0.457 -0.301 0.457 -0.252 L 0.457 -0.061 Q 0.458 -0.037 0.486 -0.033 Q 0.498 -0.031 0.535 -0.031 L 0.535 0 Q 0.433 -0.003 0.423 -0.003 Q 0.41500000000000004 -0.003 0.31 0 L 0.31 -0.031 Q 0.369 -0.031 0.379 -0.04 L 0.381 -0.042 Q 0.388 -0.05 0.388 -0.076 L 0.388 -0.309 Q 0.388 -0.40800000000000003 0.331 -0.418 Q 0.323 -0.42 0.314 -0.42 Q 0.253 -0.42 0.212 -0.367 Q 0.179 -0.324 0.179 -0.26 L 0.179 -0.076 Q 0.179 -0.042 0.195 -0.036000000000000004 Q 0.20600000000000002 -0.031 0.257 -0.031 L 0.257 0 Q 0.155 -0.003 0.145 -0.003 Q 0.137 -0.003 0.032 0 L 0.032 -0.031 Q 0.091 -0.031 0.101 -0.04 L 0.10300000000000001 -0.042 Q 0.11 -0.05 0.11 -0.076 L 0.11 -0.34400000000000003 Z"/></g><g transform="translate(30.333263157894734,25.851894736842105)"><path fill="rgb(0,100,0)" stroke="none" paint-order="stroke fill markers" d=" M 0.457 -0.252 L 0.457 -0.061 Q 0.458 -0.037 0.486 -0.033 Q 0.498 -0.031 0.535 -0.031 L 0.535 0 Q 0.433 -0.003 0.423 -0.003 Q 0.41500000000000004 -0.003 0.31 0 L 0.31 -0.031 Q 0.369 -0.031 0.379 -0.04 L 0.381 -0.042 Q 0.388 -0.05 0.388 -0.076 L 0.388 -0.309 Q 0.388 -0.40800000000000003 0.331 -0.418 Q 0.323 -0.42 0.314 -0.42 Q 0.253 -0.42 0.212 -0.367 Q 0.179 -0.324 0.179 -0.26 L 0.179 -0.076 Q 0.179 -0.042 0.195 -0.036000000000000004 Q 0.20600000000000002 -0.031 0.257 -0.031 L 0.257 0 Q 0.155 -0.003 0.145 -0.003 Q 0.137 -0.003 0.032 0 L 0.032 -0.031 Q 0.091 -0.031 0.101 -0.04 L 0.10300000000000001 -0.042 Q 0.11 -0.05 0.11 -0.076 L 0.11 -0.596 Q 0.11 -0.635 0.096 -0.644 L 0.095 -0.644 Q 0.084 -0.65 0.057 -0.652 L 0.032 -0.652 L 0.032 -0.683 L 0.176 -0.6940000000000001 L 0.176 -0.34600000000000003 L 0.177 -0.34600000000000003 Q 0.20400000000000001 -0.40700000000000003 0.263 -0.431 Q 0.294 -0.441 0.321 -0.442 Q 0.396 -0.442 0.426 -0.405 Q 0.453 -0.374 0.456 -0.32 Q 0.457 -0.301 0.457 -0.252 Z"/></g><g transform="translate(31.055929824561403,25.851894736842105)"><path fill="rgb(0,100,0)" stroke="none" paint-order="stroke fill markers" d=" M 0.334 -0.302 L 0.3 -0.165 Q 0.28300000000000003 -0.097 0.28300000000000003 -0.077 Q 0.28300000000000003 -0.025 0.32 -0.014 Q 0.328 -0.011 0.338 -0.011 Q 0.388 -0.011 0.429 -0.061 Q 0.456 -0.093 0.47100000000000003 -0.14200000000000002 Q 0.47400000000000003 -0.153 0.484 -0.153 Q 0.496 -0.153 0.496 -0.14300000000000002 Q 0.496 -0.11800000000000001 0.465 -0.07100000000000001 Q 0.41100000000000003 0.011 0.336 0.011 Q 0.268 0.011 0.23700000000000002 -0.046 Q 0.231 -0.055 0.228 -0.065 Q 0.20400000000000001 -0.017 0.162 0.002 Q 0.14300000000000002 0.011 0.123 0.011 Q 0.063 0.011 0.039 -0.024 Q 0.029 -0.037 0.029 -0.055 Q 0.029 -0.092 0.061 -0.107 Q 0.07200000000000001 -0.113 0.084 -0.113 Q 0.114 -0.113 0.12 -0.088 Q 0.121 -0.083 0.121 -0.078 Q 0.121 -0.044 0.08700000000000001 -0.028 Q 0.081 -0.025 0.074 -0.024 Q 0.095 -0.011 0.124 -0.011 Q 0.177 -0.011 0.20800000000000002 -0.082 Q 0.214 -0.097 0.219 -0.115 Q 0.273 -0.319 0.273 -0.353 Q 0.267 -0.41500000000000004 0.219 -0.42 Q 0.167 -0.42 0.124 -0.367 L 0.124 -0.366 Q 0.124 -0.365 0.123 -0.365 Q 0.108 -0.34500000000000003 0.096 -0.319 Q 0.091 -0.307 0.08700000000000001 -0.295 L 0.085 -0.289 Q 0.083 -0.278 0.07200000000000001 -0.278 Q 0.06 -0.278 0.06 -0.28800000000000003 Q 0.06 -0.313 0.092 -0.36 Q 0.146 -0.442 0.221 -0.442 Q 0.298 -0.442 0.329 -0.366 Q 0.361 -0.428 0.41400000000000003 -0.44 Q 0.424 -0.442 0.434 -0.442 Q 0.493 -0.442 0.517 -0.40900000000000003 Q 0.527 -0.395 0.527 -0.376 Q 0.527 -0.335 0.49 -0.321 Q 0.481 -0.318 0.47300000000000003 -0.318 Q 0.442 -0.318 0.436 -0.34500000000000003 Q 0.435 -0.34900000000000003 0.435 -0.353 Q 0.435 -0.383 0.464 -0.4 Q 0.47300000000000003 -0.405 0.483 -0.40700000000000003 Q 0.462 -0.42 0.433 -0.42 Q 0.365 -0.42 0.337 -0.314 Q 0.335 -0.308 0.334 -0.302 Z"/></g></g><text fill="rgb(0,0,0)" stroke="none" font-family="geogebra-sans-serif, sans-serif" font-size="16px" font-style="normal" font-weight="normal" text-decoration="normal" x="481" y="481" text-anchor="start" dominant-baseline="alphabetic" fill-opacity="1">x</text><g transform="scale(19,19)"><g transform="translate(41.578947368421055,15.746631578947369)"><path fill="rgb(0,0,255)" stroke="none" paint-order="stroke fill markers" d=" M 0.17300000000000001 -0.4 L 0.17300000000000001 -0.4 L 0.17300000000000001 -0.122 Q 0.17300000000000001 -0.022 0.231 -0.015 Q 0.23500000000000001 -0.014 0.24 -0.014 Q 0.28300000000000003 -0.014 0.3 -0.07 Q 0.307 -0.094 0.307 -0.126 L 0.307 -0.181 L 0.332 -0.181 L 0.332 -0.124 Q 0.332 -0.042 0.28600000000000003 -0.006 Q 0.264 0.011 0.233 0.011 Q 0.149 0.011 0.11800000000000001 -0.052000000000000005 Q 0.10400000000000001 -0.082 0.10400000000000001 -0.124 L 0.10400000000000001 -0.4 L 0.019 -0.4 L 0.019 -0.422 Q 0.108 -0.426 0.137 -0.534 Q 0.147 -0.5720000000000001 0.148 -0.615 L 0.17300000000000001 -0.615 L 0.17300000000000001 -0.431 L 0.316 -0.431 L 0.316 -0.4 L 0.17300000000000001 -0.4 Z"/></g><g transform="translate(41.96794736842106,15.746631578947369)"><path fill="rgb(0,0,255)" stroke="none" paint-order="stroke fill markers" d=" M 0.333 -0.076 Q 0.308 -0.014 0.245 0.005 Q 0.225 0.011 0.202 0.011 Q 0.117 0.011 0.07100000000000001 -0.03 Q 0.042 -0.056 0.042 -0.095 Q 0.042 -0.17200000000000001 0.127 -0.218 Q 0.134 -0.222 0.14200000000000002 -0.225 Q 0.203 -0.254 0.321 -0.261 L 0.326 -0.261 L 0.326 -0.298 Q 0.326 -0.383 0.265 -0.41500000000000004 Q 0.244 -0.426 0.22 -0.426 Q 0.154 -0.426 0.11800000000000001 -0.387 Q 0.115 -0.383 0.112 -0.38 Q 0.159 -0.374 0.163 -0.334 Q 0.163 -0.3 0.132 -0.29 Q 0.125 -0.28800000000000003 0.117 -0.28800000000000003 Q 0.081 -0.28800000000000003 0.073 -0.321 Q 0.07100000000000001 -0.326 0.07100000000000001 -0.335 Q 0.07100000000000001 -0.395 0.134 -0.427 Q 0.17300000000000001 -0.448 0.222 -0.448 Q 0.304 -0.448 0.359 -0.393 Q 0.394 -0.357 0.395 -0.293 L 0.395 -0.292 L 0.395 -0.275 L 0.395 -0.075 Q 0.395 -0.046 0.41300000000000003 -0.032 Q 0.421 -0.025 0.432 -0.025 Q 0.467 -0.025 0.468 -0.089 L 0.468 -0.145 L 0.493 -0.145 L 0.493 -0.089 Q 0.493 -0.016 0.433 0.002 Q 0.421 0.006 0.41100000000000003 0.006 Q 0.362 0.006 0.341 -0.046 Q 0.335 -0.06 0.333 -0.076 M 0.326 -0.24 Q 0.17200000000000001 -0.234 0.13 -0.146 Q 0.11900000000000001 -0.122 0.11900000000000001 -0.096 Q 0.11900000000000001 -0.045 0.165 -0.021 Q 0.185 -0.011 0.209 -0.011 Q 0.261 -0.011 0.296 -0.052000000000000005 Q 0.326 -0.08600000000000001 0.326 -0.14 L 0.326 -0.24 Z"/></g><g transform="translate(42.46794736842106,15.746631578947369)"><path fill="rgb(0,0,255)" stroke="none" paint-order="stroke fill markers" d=" M 0.11 -0.34400000000000003 Q 0.11 -0.383 0.095 -0.392 Q 0.083 -0.399 0.052000000000000005 -0.4 L 0.032 -0.4 L 0.032 -0.431 L 0.17300000000000001 -0.442 L 0.17300000000000001 -0.337 Q 0.22 -0.442 0.321 -0.442 Q 0.396 -0.442 0.426 -0.405 Q 0.453 -0.374 0.456 -0.32 Q 0.457 -0.301 0.457 -0.252 L 0.457 -0.061 Q 0.458 -0.037 0.486 -0.033 Q 0.498 -0.031 0.535 -0.031 L 0.535 0 Q 0.433 -0.003 0.423 -0.003 Q 0.41500000000000004 -0.003 0.31 0 L 0.31 -0.031 Q 0.369 -0.031 0.379 -0.04 L 0.381 -0.042 Q 0.388 -0.05 0.388 -0.076 L 0.388 -0.309 Q 0.388 -0.40800000000000003 0.331 -0.418 Q 0.323 -0.42 0.314 -0.42 Q 0.253 -0.42 0.212 -0.367 Q 0.179 -0.324 0.179 -0.26 L 0.179 -0.076 Q 0.179 -0.042 0.195 -0.036000000000000004 Q 0.20600000000000002 -0.031 0.257 -0.031 L 0.257 0 Q 0.155 -0.003 0.145 -0.003 Q 0.137 -0.003 0.032 0 L 0.032 -0.031 Q 0.091 -0.031 0.101 -0.04 L 0.10300000000000001 -0.042 Q 0.11 -0.05 0.11 -0.076 L 0.11 -0.34400000000000003 Z"/></g><g transform="translate(43.023947368421055,15.746631578947369)"><path fill="rgb(0,0,255)" stroke="none" paint-order="stroke fill markers" d=" M 0.457 -0.252 L 0.457 -0.061 Q 0.458 -0.037 0.486 -0.033 Q 0.498 -0.031 0.535 -0.031 L 0.535 0 Q 0.433 -0.003 0.423 -0.003 Q 0.41500000000000004 -0.003 0.31 0 L 0.31 -0.031 Q 0.369 -0.031 0.379 -0.04 L 0.381 -0.042 Q 0.388 -0.05 0.388 -0.076 L 0.388 -0.309 Q 0.388 -0.40800000000000003 0.331 -0.418 Q 0.323 -0.42 0.314 -0.42 Q 0.253 -0.42 0.212 -0.367 Q 0.179 -0.324 0.179 -0.26 L 0.179 -0.076 Q 0.179 -0.042 0.195 -0.036000000000000004 Q 0.20600000000000002 -0.031 0.257 -0.031 L 0.257 0 Q 0.155 -0.003 0.145 -0.003 Q 0.137 -0.003 0.032 0 L 0.032 -0.031 Q 0.091 -0.031 0.101 -0.04 L 0.10300000000000001 -0.042 Q 0.11 -0.05 0.11 -0.076 L 0.11 -0.596 Q 0.11 -0.635 0.096 -0.644 L 0.095 -0.644 Q 0.084 -0.65 0.057 -0.652 L 0.032 -0.652 L 0.032 -0.683 L 0.176 -0.6940000000000001 L 0.176 -0.34600000000000003 L 0.177 -0.34600000000000003 Q 0.20400000000000001 -0.40700000000000003 0.263 -0.431 Q 0.294 -0.441 0.321 -0.442 Q 0.396 -0.442 0.426 -0.405 Q 0.453 -0.374 0.456 -0.32 Q 0.457 -0.301 0.457 -0.252 Z"/></g><g transform="translate(43.74661403508772,15.746631578947369)"><path fill="rgb(0,0,255)" stroke="none" paint-order="stroke fill markers" d=" M 0.334 -0.302 L 0.3 -0.165 Q 0.28300000000000003 -0.097 0.28300000000000003 -0.077 Q 0.28300000000000003 -0.025 0.32 -0.014 Q 0.328 -0.011 0.338 -0.011 Q 0.388 -0.011 0.429 -0.061 Q 0.456 -0.093 0.47100000000000003 -0.14200000000000002 Q 0.47400000000000003 -0.153 0.484 -0.153 Q 0.496 -0.153 0.496 -0.14300000000000002 Q 0.496 -0.11800000000000001 0.465 -0.07100000000000001 Q 0.41100000000000003 0.011 0.336 0.011 Q 0.268 0.011 0.23700000000000002 -0.046 Q 0.231 -0.055 0.228 -0.065 Q 0.20400000000000001 -0.017 0.162 0.002 Q 0.14300000000000002 0.011 0.123 0.011 Q 0.063 0.011 0.039 -0.024 Q 0.029 -0.037 0.029 -0.055 Q 0.029 -0.092 0.061 -0.107 Q 0.07200000000000001 -0.113 0.084 -0.113 Q 0.114 -0.113 0.12 -0.088 Q 0.121 -0.083 0.121 -0.078 Q 0.121 -0.044 0.08700000000000001 -0.028 Q 0.081 -0.025 0.074 -0.024 Q 0.095 -0.011 0.124 -0.011 Q 0.177 -0.011 0.20800000000000002 -0.082 Q 0.214 -0.097 0.219 -0.115 Q 0.273 -0.319 0.273 -0.353 Q 0.267 -0.41500000000000004 0.219 -0.42 Q 0.167 -0.42 0.124 -0.367 L 0.124 -0.366 Q 0.124 -0.365 0.123 -0.365 Q 0.108 -0.34500000000000003 0.096 -0.319 Q 0.091 -0.307 0.08700000000000001 -0.295 L 0.085 -0.289 Q 0.083 -0.278 0.07200000000000001 -0.278 Q 0.06 -0.278 0.06 -0.28800000000000003 Q 0.06 -0.313 0.092 -0.36 Q 0.146 -0.442 0.221 -0.442 Q 0.298 -0.442 0.329 -0.366 Q 0.361 -0.428 0.41400000000000003 -0.44 Q 0.424 -0.442 0.434 -0.442 Q 0.493 -0.442 0.517 -0.40900000000000003 Q 0.527 -0.395 0.527 -0.376 Q 0.527 -0.335 0.49 -0.321 Q 0.481 -0.318 0.47300000000000003 -0.318 Q 0.442 -0.318 0.436 -0.34500000000000003 Q 0.435 -0.34900000000000003 0.435 -0.353 Q 0.435 -0.383 0.464 -0.4 Q 0.47300000000000003 -0.405 0.483 -0.40700000000000003 Q 0.462 -0.42 0.433 -0.42 Q 0.365 -0.42 0.337 -0.314 Q 0.335 -0.308 0.334 -0.302 Z"/></g></g></g></g></svg>