<?xml version="1.0" encoding="UTF-8" standalone="no"?>
<svg
   xmlns:dc="http://purl.org/dc/elements/1.1/"
   xmlns:cc="http://creativecommons.org/ns#"
   xmlns:rdf="http://www.w3.org/1999/02/22-rdf-syntax-ns#"
   xmlns:svg="http://www.w3.org/2000/svg"
   xmlns="http://www.w3.org/2000/svg"
   id="svg23"
   version="1.2"
   viewBox="0 0 212 212"
   height="480"
   width="480">
  <metadata
     id="metadata29">
    <rdf:RDF>
      <cc:Work
         rdf:about="">
        <dc:format>image/svg+xml</dc:format>
        <dc:type
           rdf:resource="http://purl.org/dc/dcmitype/StillImage" />
        <dc:title></dc:title>
      </cc:Work>
    </rdf:RDF>
  </metadata>
  <defs
     id="defs27" />
  <g
     id="surface40">
    <rect
       id="rect2"
       style="fill:#ffffff;fill-opacity:1;stroke:none"
       height="212"
       width="212"
       y="0"
       x="0" />
    <path
       id="path4"
       transform="matrix(0.522982,0,0,0.522982,-393.062,-132)"
       d="M 954.50206,655.49631 1127.8023,355.5933 781.40353,355.50367 Z m 0,0"
       style="fill:none;stroke:#000000;stroke-width:2.5;stroke-linecap:round;stroke-linejoin:round;stroke-miterlimit:10;stroke-opacity:1" />
    <path
       id="path6"
       transform="matrix(0.522982,0,0,0.522982,-393.062,-132)"
       d="m 1154.4971,455.50122 c 0,110.46188 -89.4958,199.99509 -199.99504,199.99509 -110.46189,0 -200.00256,-89.53321 -200.00256,-199.99509 0,-110.46189 89.54067,-200.00256 200.00256,-200.00256 110.49924,0 199.99504,89.54067 199.99504,200.00256 z m 0,0"
       style="fill:none;stroke:#000000;stroke-width:2.5;stroke-linecap:round;stroke-linejoin:round;stroke-miterlimit:10;stroke-opacity:1" />
    <path
       id="path8"
       transform="matrix(0.522982,0,0,0.522982,-393.062,-132)"
       d="m 1054.4996,455.50122 c 0,55.22721 -44.8002,99.99754 -99.99754,99.99754 -55.23468,0 -100.00502,-44.77033 -100.00502,-99.99754 0,-55.23468 44.77034,-99.99755 100.00502,-99.99755 55.19734,0 99.99754,44.76287 99.99754,99.99755 z m 0,0"
       style="fill:none;stroke:#000000;stroke-width:2.5;stroke-linecap:round;stroke-linejoin:round;stroke-miterlimit:10;stroke-opacity:1" />
    <path
       id="path10"
       transform="matrix(0.522982,0,0,0.522982,-393.062,-132)"
       d="m 969.50766,629.51846 c -9.27673,-5.35541 -20.71953,-5.35541 -29.99627,0 l 14.99067,25.97785 z m 0,0"
       style="fill:none;stroke:#000000;stroke-width:2.5;stroke-linecap:round;stroke-linejoin:round;stroke-miterlimit:10;stroke-opacity:1" />
    <path
       id="path12"
       transform="matrix(0.522982,0,0,0.522982,-393.062,-132)"
       d="m 754.4995,655.49631 h 399.9976"
       style="fill:none;stroke:#000000;stroke-width:2.5;stroke-linecap:round;stroke-linejoin:round;stroke-miterlimit:10;stroke-opacity:1" />
    <path
       id="path14"
       transform="matrix(0.522982,0,0,0.522982,-393.062,-132)"
       d="M 1127.8023,355.5933 781.40353,355.5037"
       style="fill:none;stroke:#000000;stroke-width:2.5;stroke-linecap:round;stroke-linejoin:round;stroke-miterlimit:10;stroke-opacity:1" />
    <path
       id="path16"
       transform="matrix(0.522982,0,0,0.522982,-393.062,-132)"
       d="M 781.40353,355.50367 954.50206,655.49631"
       style="fill:none;stroke:#000000;stroke-width:2.5;stroke-linecap:round;stroke-linejoin:round;stroke-miterlimit:10;stroke-opacity:1" />
    <path
       id="path18"
       transform="matrix(0.522982,0,0,0.522982,-393.062,-132)"
       d="M 954.50206,655.49631 V 255.49866"
       style="fill:none;stroke:#000000;stroke-width:2.5;stroke-linecap:round;stroke-linejoin:round;stroke-miterlimit:10;stroke-opacity:1" />
    <path
       id="path20"
       d="m 108.73828,106.21875 c 0,1.44141 -1.17187,2.61328 -2.61328,2.61328 -1.44531,0 -2.61719,-1.17187 -2.61719,-2.61328 0,-1.44531 1.17188,-2.61719 2.61719,-2.61719 1.44141,0 2.61328,1.17188 2.61328,2.61719 z m 0,0"
       style="fill:#000000;fill-opacity:1;fill-rule:nonzero;stroke:none" />
  </g>
</svg>
