<?xml version="1.0" encoding="UTF-8" standalone="no"?>
<!DOCTYPE svg PUBLIC "-//W3C//DTD SVG 1.1//EN"
 "http://www.w3.org/Graphics/SVG/1.1/DTD/svg11.dtd">
<!-- Generated by graphviz version 2.38.0 (20140413.2041)
 -->
<!-- Title: %313 Pages: 1 -->
<svg width="300pt" height="257pt"
 viewBox="0.00 0.00 300.00 257.00" xmlns="http://www.w3.org/2000/svg" xmlns:xlink="http://www.w3.org/1999/xlink">
<g id="graph0" class="graph" transform="scale(1 1) rotate(0) translate(4 253)">
<title>%313</title>
<polygon fill="white" stroke="none" points="-4,4 -4,-253 296,-253 296,4 -4,4"/>
<g id="clust1" class="cluster"><title>cluster</title>
<polygon fill="none" stroke="black" points="8,-8 8,-241 284,-241 284,-8 8,-8"/>
<text text-anchor="middle" x="146" y="-229" font-family="Consola" font-size="10.00">Binary Predicate</text>
</g>
<!-- VxVy -->
<g id="node1" class="node"><title>VxVy</title>
<text text-anchor="middle" x="88" y="-193.5" font-family="Consola" font-size="10.00">∀x∀y[Q(x, y)]</text>
</g>
<!-- VyVx -->
<g id="node2" class="node"><title>VyVx</title>
<text text-anchor="middle" x="204" y="-193.5" font-family="Consola" font-size="10.00">∀y∀x[Q(x, y)]</text>
</g>
<!-- VxVy&#45;&gt;VyVx -->
<g id="edge1" class="edge"><title>VxVy&#45;&gt;VyVx</title>
<path fill="none" stroke="black" d="M138.582,-195C143.573,-195 148.564,-195 153.555,-195"/>
<path fill="none" stroke="black" d="M138.582,-197C143.573,-197 148.564,-197 153.555,-197"/>
<polygon fill="black" stroke="black" points="138.328,-192.5 128.328,-196 138.328,-199.5 138.328,-192.5"/>
<polygon fill="black" stroke="black" points="153.799,-199.5 163.799,-196 153.799,-192.5 153.799,-199.5"/>
</g>
<!-- EyVx -->
<g id="node3" class="node"><title>EyVx</title>
<text text-anchor="middle" x="55" y="-139.5" font-family="Consola" font-size="10.00">∃y∀x[Q(x, y)]</text>
</g>
<!-- VxVy&#45;&gt;EyVx -->
<g id="edge2" class="edge"><title>VxVy&#45;&gt;EyVx</title>
<path fill="none" stroke="black" d="M76.3502,-178.509C74.4893,-175.577 72.5182,-172.471 70.5492,-169.368"/>
<path fill="none" stroke="black" d="M78.0389,-177.437C76.178,-174.505 74.2069,-171.399 72.2378,-168.296"/>
<polygon fill="black" stroke="black" points="74.2561,-166.811 65.9427,-160.243 68.3458,-170.562 74.2561,-166.811"/>
</g>
<!-- Vx -->
<g id="node4" class="node"><title>Vx</title>
<text text-anchor="middle" x="146" y="-139.5" font-family="Consola" font-size="10.00">∀x[Q(x, x)]</text>
</g>
<!-- VxVy&#45;&gt;Vx -->
<g id="edge3" class="edge"><title>VxVy&#45;&gt;Vx</title>
<path fill="none" stroke="black" d="M106.324,-177.229C110.189,-173.763 114.325,-170.055 118.406,-166.397"/>
<path fill="none" stroke="black" d="M107.659,-178.718C111.524,-175.252 115.66,-171.544 119.741,-167.886"/>
<polygon fill="black" stroke="black" points="121.658,-169.525 126.767,-160.243 116.985,-164.312 121.658,-169.525"/>
</g>
<!-- VyVx&#45;&gt;Vx -->
<g id="edge4" class="edge"><title>VyVx&#45;&gt;Vx</title>
<path fill="none" stroke="black" d="M184.341,-178.718C180.476,-175.252 176.34,-171.544 172.259,-167.886"/>
<path fill="none" stroke="black" d="M185.676,-177.229C181.811,-173.763 177.675,-170.055 173.594,-166.397"/>
<polygon fill="black" stroke="black" points="175.015,-164.312 165.233,-160.243 170.342,-169.525 175.015,-164.312"/>
</g>
<!-- ExVy -->
<g id="node5" class="node"><title>ExVy</title>
<text text-anchor="middle" x="237" y="-139.5" font-family="Consola" font-size="10.00">∃x∀y[Q(x, y)]</text>
</g>
<!-- VyVx&#45;&gt;ExVy -->
<g id="edge5" class="edge"><title>VyVx&#45;&gt;ExVy</title>
<path fill="none" stroke="black" d="M213.961,-177.437C215.822,-174.505 217.793,-171.399 219.762,-168.296"/>
<path fill="none" stroke="black" d="M215.65,-178.509C217.511,-175.577 219.482,-172.471 221.451,-169.368"/>
<polygon fill="black" stroke="black" points="223.654,-170.562 226.057,-160.243 217.744,-166.811 223.654,-170.562"/>
</g>
<!-- VxEy -->
<g id="node6" class="node"><title>VxEy</title>
<text text-anchor="middle" x="56" y="-85.5" font-family="Consola" font-size="10.00">∀x∃y[Q(x, y)]</text>
</g>
<!-- EyVx&#45;&gt;VxEy -->
<g id="edge6" class="edge"><title>EyVx&#45;&gt;VxEy</title>
<path fill="none" stroke="black" d="M54.3276,-123.954C54.3755,-121.466 54.4257,-118.853 54.4763,-116.223"/>
<path fill="none" stroke="black" d="M56.3272,-123.992C56.3751,-121.504 56.4254,-118.891 56.4759,-116.261"/>
<polygon fill="black" stroke="black" points="58.9754,-116.308 55.6684,-106.243 51.9767,-116.174 58.9754,-116.308"/>
</g>
<!-- Ex -->
<g id="node7" class="node"><title>Ex</title>
<text text-anchor="middle" x="146" y="-85.5" font-family="Consola" font-size="10.00">∃x[Q(x, x)]</text>
</g>
<!-- EyVx&#45;&gt;Ex -->
<g id="edge8" class="edge"><title>EyVx&#45;&gt;Ex</title>
<path fill="none" stroke="black" d="M84.3007,-123.105C91.5284,-118.975 99.3587,-114.5 106.927,-110.176"/>
<path fill="none" stroke="black" d="M85.2929,-124.841C92.5207,-120.711 100.351,-116.237 107.92,-111.912"/>
<polygon fill="black" stroke="black" points="109.19,-114.065 116.136,-106.065 105.717,-107.988 109.19,-114.065"/>
</g>
<!-- Vx&#45;&gt;VxEy -->
<g id="edge7" class="edge"><title>Vx&#45;&gt;VxEy</title>
<path fill="none" stroke="black" d="M116.03,-124.839C109.037,-120.799 101.474,-116.429 94.1409,-112.192"/>
<path fill="none" stroke="black" d="M117.031,-123.107C110.038,-119.067 102.475,-114.697 95.1415,-110.46"/>
<polygon fill="black" stroke="black" points="95.9452,-108.037 85.5356,-106.065 92.4432,-114.098 95.9452,-108.037"/>
</g>
<!-- Vx&#45;&gt;Ex -->
<g id="edge9" class="edge"><title>Vx&#45;&gt;Ex</title>
<path fill="none" stroke="black" d="M145,-123.973C145,-121.574 145,-119.059 145,-116.524"/>
<path fill="none" stroke="black" d="M147,-123.973C147,-121.574 147,-119.059 147,-116.524"/>
<polygon fill="black" stroke="black" points="149.5,-116.243 146,-106.243 142.5,-116.243 149.5,-116.243"/>
</g>
<!-- VyEx -->
<g id="node8" class="node"><title>VyEx</title>
<text text-anchor="middle" x="236" y="-85.5" font-family="Consola" font-size="10.00">∀y∃x[Q(x, y)]</text>
</g>
<!-- Vx&#45;&gt;VyEx -->
<g id="edge11" class="edge"><title>Vx&#45;&gt;VyEx</title>
<path fill="none" stroke="black" d="M174.969,-123.107C181.962,-119.067 189.525,-114.697 196.859,-110.46"/>
<path fill="none" stroke="black" d="M175.97,-124.839C182.963,-120.799 190.526,-116.429 197.859,-112.192"/>
<polygon fill="black" stroke="black" points="199.557,-114.098 206.464,-106.065 196.055,-108.037 199.557,-114.098"/>
</g>
<!-- ExVy&#45;&gt;Ex -->
<g id="edge10" class="edge"><title>ExVy&#45;&gt;Ex</title>
<path fill="none" stroke="black" d="M206.707,-124.841C199.479,-120.711 191.649,-116.237 184.08,-111.912"/>
<path fill="none" stroke="black" d="M207.699,-123.105C200.472,-118.975 192.641,-114.5 185.073,-110.176"/>
<polygon fill="black" stroke="black" points="186.283,-107.988 175.864,-106.065 182.81,-114.065 186.283,-107.988"/>
</g>
<!-- ExVy&#45;&gt;VyEx -->
<g id="edge12" class="edge"><title>ExVy&#45;&gt;VyEx</title>
<path fill="none" stroke="black" d="M235.673,-123.992C235.625,-121.504 235.575,-118.891 235.524,-116.261"/>
<path fill="none" stroke="black" d="M237.672,-123.954C237.625,-121.466 237.574,-118.853 237.524,-116.223"/>
<polygon fill="black" stroke="black" points="240.023,-116.174 236.332,-106.243 233.025,-116.308 240.023,-116.174"/>
</g>
<!-- ExEy -->
<g id="node9" class="node"><title>ExEy</title>
<text text-anchor="middle" x="90" y="-31.5" font-family="Consola" font-size="10.00">∃x∃y[Q(x, y)]</text>
</g>
<!-- VxEy&#45;&gt;ExEy -->
<g id="edge13" class="edge"><title>VxEy&#45;&gt;ExEy</title>
<path fill="none" stroke="black" d="M66.2959,-69.426C68.2132,-66.4936 70.244,-63.3877 72.2728,-60.2849"/>
<path fill="none" stroke="black" d="M67.9698,-70.5205C69.8872,-67.5881 71.918,-64.4822 73.9467,-61.3794"/>
<polygon fill="black" stroke="black" points="76.1826,-62.5281 78.7257,-52.243 70.3238,-58.6973 76.1826,-62.5281"/>
</g>
<!-- Ex&#45;&gt;ExEy -->
<g id="edge14" class="edge"><title>Ex&#45;&gt;ExEy</title>
<path fill="none" stroke="black" d="M126.983,-70.706C123.251,-67.2405 119.258,-63.5326 115.318,-59.8739"/>
<path fill="none" stroke="black" d="M128.344,-69.2405C124.612,-65.7749 120.619,-62.067 116.679,-58.4084"/>
<polygon fill="black" stroke="black" points="118.279,-56.4828 108.569,-52.243 113.516,-61.6123 118.279,-56.4828"/>
</g>
<!-- EyEx -->
<g id="node10" class="node"><title>EyEx</title>
<text text-anchor="middle" x="202" y="-31.5" font-family="Consola" font-size="10.00">∃y∃x[Q(x, y)]</text>
</g>
<!-- Ex&#45;&gt;EyEx -->
<g id="edge15" class="edge"><title>Ex&#45;&gt;EyEx</title>
<path fill="none" stroke="black" d="M163.656,-69.2405C167.388,-65.7749 171.381,-62.067 175.321,-58.4084"/>
<path fill="none" stroke="black" d="M165.017,-70.706C168.749,-67.2405 172.742,-63.5326 176.682,-59.8739"/>
<polygon fill="black" stroke="black" points="178.484,-61.6123 183.431,-52.243 173.721,-56.4828 178.484,-61.6123"/>
</g>
<!-- VyEx&#45;&gt;EyEx -->
<g id="edge16" class="edge"><title>VyEx&#45;&gt;EyEx</title>
<path fill="none" stroke="black" d="M224.03,-70.5205C222.113,-67.5881 220.082,-64.4822 218.053,-61.3794"/>
<path fill="none" stroke="black" d="M225.704,-69.426C223.787,-66.4936 221.756,-63.3877 219.727,-60.2849"/>
<polygon fill="black" stroke="black" points="221.676,-58.6973 213.274,-52.243 215.817,-62.5281 221.676,-58.6973"/>
</g>
<!-- ExEy&#45;&gt;EyEx -->
<g id="edge17" class="edge"><title>ExEy&#45;&gt;EyEx</title>
<path fill="none" stroke="black" d="M138.135,-33C143.364,-33 148.592,-33 153.821,-33"/>
<path fill="none" stroke="black" d="M138.135,-35C143.364,-35 148.592,-35 153.821,-35"/>
<polygon fill="black" stroke="black" points="138.063,-30.5001 128.063,-34 138.062,-37.5001 138.063,-30.5001"/>
<polygon fill="black" stroke="black" points="153.876,-37.5001 163.876,-34 153.876,-30.5001 153.876,-37.5001"/>
</g>
</g>
</svg>
