<?xml version="1.0" encoding="UTF-8" standalone="no"?>
<!DOCTYPE svg PUBLIC "-//W3C//DTD SVG 1.1//EN"
 "http://www.w3.org/Graphics/SVG/1.1/DTD/svg11.dtd">
<!-- Generated by graphviz version 2.38.0 (20140413.2041)
 -->
<!-- Title: %1005 Pages: 1 -->
<svg width="1719pt" height="621pt"
 viewBox="0.00 0.00 1719.00 621.00" xmlns="http://www.w3.org/2000/svg" xmlns:xlink="http://www.w3.org/1999/xlink">
<g id="graph0" class="graph" transform="scale(1 1) rotate(0) translate(4 617)">
<title>%1005</title>
<polygon fill="white" stroke="none" points="-4,4 -4,-617 1715,-617 1715,4 -4,4"/>
<text text-anchor="middle" x="855.5" y="-7.8" font-family="Times New Roman,serif" font-size="14.00">Bitcoin BlockChain</text>
<g id="clust5" class="cluster"><title>cluster2</title>
<polygon fill="none" stroke="black" stroke-dasharray="1,5" points="543,-163 543,-597 1054,-597 1054,-163 543,-163"/>
<text text-anchor="middle" x="798.5" y="-581.8" font-family="Times New Roman,serif" font-size="14.00">Block 2</text>
</g>
<g id="clust6" class="cluster"><title>cluster21</title>
<polygon fill="none" stroke="black" points="669,-457 669,-566 965,-566 965,-457 669,-457"/>
<text text-anchor="middle" x="710.5" y="-550.8" font-family="Times New Roman,serif" font-size="14.00">Block Head</text>
</g>
<g id="clust7" class="cluster"><title>cluster22</title>
<polygon fill="none" stroke="black" points="551,-171 551,-438 1046,-438 1046,-171 551,-171"/>
<text text-anchor="middle" x="593" y="-422.8" font-family="Times New Roman,serif" font-size="14.00">Block Body</text>
</g>
<g id="clust1" class="cluster"><title>cluster33</title>
<polygon fill="none" stroke="black" points="8,-31 8,-605 535,-605 535,-31 8,-31"/>
<text text-anchor="middle" x="55.5" y="-38.8" font-family="Times New Roman,serif" font-size="14.00">Bitcoin Wallet</text>
</g>
<g id="clust2" class="cluster"><title>cluster3</title>
<polygon fill="none" stroke="black" stroke-dasharray="1,5" points="16,-167 16,-597 527,-597 527,-167 16,-167"/>
<text text-anchor="middle" x="271.5" y="-581.8" font-family="Times New Roman,serif" font-size="14.00">Head Block</text>
</g>
<g id="clust4" class="cluster"><title>cluster32</title>
<polygon fill="none" stroke="black" points="24,-175 24,-438 519,-438 519,-175 24,-175"/>
<text text-anchor="middle" x="66" y="-422.8" font-family="Times New Roman,serif" font-size="14.00">Block Body</text>
</g>
<g id="clust3" class="cluster"><title>cluster31</title>
<polygon fill="none" stroke="black" points="177,-457 177,-566 473,-566 473,-457 177,-457"/>
<text text-anchor="middle" x="218.5" y="-550.8" font-family="Times New Roman,serif" font-size="14.00">Block Head</text>
</g>
<g id="clust8" class="cluster"><title>cluster23</title>
<polygon fill="none" stroke="black" points="816,-31 816,-130 974,-130 974,-31 816,-31"/>
<text text-anchor="middle" x="863.5" y="-38.8" font-family="Times New Roman,serif" font-size="14.00">Bitcoin Wallet</text>
</g>
<g id="clust9" class="cluster"><title>cluster1</title>
<polygon fill="none" stroke="black" stroke-dasharray="1,5" points="1062,-163 1062,-597 1573,-597 1573,-163 1062,-163"/>
<text text-anchor="middle" x="1317.5" y="-581.8" font-family="Times New Roman,serif" font-size="14.00">Block 1</text>
</g>
<g id="clust11" class="cluster"><title>cluster12</title>
<polygon fill="none" stroke="black" points="1070,-171 1070,-438 1565,-438 1565,-171 1070,-171"/>
<text text-anchor="middle" x="1112" y="-422.8" font-family="Times New Roman,serif" font-size="14.00">Block Body</text>
</g>
<g id="clust10" class="cluster"><title>cluster11</title>
<polygon fill="none" stroke="black" points="1231,-457 1231,-566 1527,-566 1527,-457 1231,-457"/>
<text text-anchor="middle" x="1272.5" y="-550.8" font-family="Times New Roman,serif" font-size="14.00">Block Head</text>
</g>
<g id="clust12" class="cluster"><title>cluster13</title>
<polygon fill="none" stroke="black" points="1228,-31 1228,-130 1386,-130 1386,-31 1228,-31"/>
<text text-anchor="middle" x="1275.5" y="-38.8" font-family="Times New Roman,serif" font-size="14.00">Bitcoin Wallet</text>
</g>
<!-- Block3_Head -->
<g id="node1" class="node"><title>Block3_Head</title>
<polygon fill="none" stroke="black" points="185.5,-465.5 185.5,-511.5 464.5,-511.5 464.5,-465.5 185.5,-465.5"/>
<text text-anchor="middle" x="264.5" y="-496.3" font-family="Times New Roman,serif" font-size="14.00">Timestamp</text>
<polyline fill="none" stroke="black" points="343.5,-488.5 343.5,-511.5 "/>
<text text-anchor="middle" x="404" y="-496.3" font-family="Times New Roman,serif" font-size="14.00">Link</text>
<polyline fill="none" stroke="black" points="185.5,-488.5 464.5,-488.5 "/>
<text text-anchor="middle" x="212" y="-473.3" font-family="Times New Roman,serif" font-size="14.00">Nonce</text>
<polyline fill="none" stroke="black" points="238.5,-465.5 238.5,-488.5 "/>
<text text-anchor="middle" x="301" y="-473.3" font-family="Times New Roman,serif" font-size="14.00">Transactions_Root</text>
<polyline fill="none" stroke="black" points="363.5,-465.5 363.5,-488.5 "/>
<text text-anchor="middle" x="414" y="-473.3" font-family="Times New Roman,serif" font-size="14.00">Previous_Hash</text>
</g>
<!-- Block3_Body -->
<g id="node2" class="node"><title>Block3_Body</title>
<polygon fill="none" stroke="black" points="198,-337.5 198,-383.5 406,-383.5 406,-337.5 198,-337.5"/>
<text text-anchor="middle" x="250" y="-368.3" font-family="Times New Roman,serif" font-size="14.00">Hash01</text>
<polyline fill="none" stroke="black" points="302,-360.5 302,-383.5 "/>
<text text-anchor="middle" x="354" y="-368.3" font-family="Times New Roman,serif" font-size="14.00">Hash23</text>
<polyline fill="none" stroke="black" points="198,-360.5 406,-360.5 "/>
<text text-anchor="middle" x="224" y="-345.3" font-family="Times New Roman,serif" font-size="14.00">Hash0</text>
<polyline fill="none" stroke="black" points="250,-337.5 250,-360.5 "/>
<text text-anchor="middle" x="276" y="-345.3" font-family="Times New Roman,serif" font-size="14.00">Hash1</text>
<polyline fill="none" stroke="black" points="302,-337.5 302,-360.5 "/>
<text text-anchor="middle" x="328" y="-345.3" font-family="Times New Roman,serif" font-size="14.00">Hash2</text>
<polyline fill="none" stroke="black" points="354,-337.5 354,-360.5 "/>
<text text-anchor="middle" x="380" y="-345.3" font-family="Times New Roman,serif" font-size="14.00">Hash3</text>
</g>
<!-- Block3_Head&#45;&gt;Block3_Body -->
<g id="edge1" class="edge"><title>Block3_Head:r3:s&#45;&gt;Block3_Body:r0:n</title>
<path fill="none" stroke="black" stroke-dasharray="1,5" d="M301,-464.5C301,-464.5 268.615,-413.699 255.458,-393.061"/>
<polygon fill="black" stroke="black" points="252.951,-382.619 255.376,-392.932 247.049,-386.381 252.951,-382.619"/>
</g>
<!-- Block3_Head&#45;&gt;Block3_Body -->
<g id="edge2" class="edge"><title>Block3_Head:r3:s&#45;&gt;Block3_Body:r1:n</title>
<path fill="none" stroke="black" stroke-dasharray="1,5" d="M301,-464.5C301,-464.5 334.656,-413.699 348.328,-393.061"/>
<polygon fill="black" stroke="black" points="356.918,-386.433 348.477,-392.837 351.082,-382.567 356.918,-386.433"/>
</g>
<!-- Block2_Head -->
<g id="node8" class="node"><title>Block2_Head</title>
<polygon fill="none" stroke="black" points="677.5,-465.5 677.5,-511.5 956.5,-511.5 956.5,-465.5 677.5,-465.5"/>
<text text-anchor="middle" x="756.5" y="-496.3" font-family="Times New Roman,serif" font-size="14.00">Timestamp</text>
<polyline fill="none" stroke="black" points="835.5,-488.5 835.5,-511.5 "/>
<text text-anchor="middle" x="896" y="-496.3" font-family="Times New Roman,serif" font-size="14.00">Link</text>
<polyline fill="none" stroke="black" points="677.5,-488.5 956.5,-488.5 "/>
<text text-anchor="middle" x="704" y="-473.3" font-family="Times New Roman,serif" font-size="14.00">Nonce</text>
<polyline fill="none" stroke="black" points="730.5,-465.5 730.5,-488.5 "/>
<text text-anchor="middle" x="793" y="-473.3" font-family="Times New Roman,serif" font-size="14.00">Transactions_Root</text>
<polyline fill="none" stroke="black" points="855.5,-465.5 855.5,-488.5 "/>
<text text-anchor="middle" x="906" y="-473.3" font-family="Times New Roman,serif" font-size="14.00">Previous_Hash</text>
</g>
<!-- Block3_Head&#45;&gt;Block2_Head -->
<g id="edge22" class="edge"><title>Block3_Head:r2:se&#45;&gt;Block2_Head</title>
<path fill="none" stroke="black" d="M427,-500.5C427,-500.5 551.221,-496.668 659.269,-493.335"/>
<polygon fill="black" stroke="black" points="659.449,-496.831 669.336,-493.024 659.233,-489.834 659.449,-496.831"/>
</g>
<!-- Block3_Head&#45;&gt;Block2_Head -->
<g id="edge23" class="edge"><title>Block3_Head:r4:ne&#45;&gt;Block2_Head</title>
<path fill="none" stroke="black" stroke-dasharray="1,5" d="M427,-476.5C427,-476.5 551.221,-480.332 659.269,-483.665"/>
<polygon fill="black" stroke="black" points="669.228,-487.474 659.341,-483.667 669.444,-480.477 669.228,-487.474"/>
</g>
<!-- Transaction3_0 -->
<g id="node3" class="node"><title>Transaction3_0</title>
<polygon fill="none" stroke="black" points="32.5,-183.5 32.5,-281.5 135.5,-281.5 135.5,-183.5 32.5,-183.5"/>
<text text-anchor="middle" x="74" y="-266.3" font-family="Times New Roman,serif" font-size="14.00">Output</text>
<text text-anchor="middle" x="74" y="-251.3" font-family="Times New Roman,serif" font-size="14.00">Address0</text>
<text text-anchor="middle" x="74" y="-236.3" font-family="Times New Roman,serif" font-size="14.00">(Bonus</text>
<text text-anchor="middle" x="74" y="-221.3" font-family="Times New Roman,serif" font-size="14.00">+Fees)</text>
<text text-anchor="middle" x="74" y="-206.3" font-family="Times New Roman,serif" font-size="14.00">(Owner 4&#39;s</text>
<text text-anchor="middle" x="74" y="-191.3" font-family="Times New Roman,serif" font-size="14.00">Public Key)</text>
<polyline fill="none" stroke="black" points="115.5,-183.5 115.5,-281.5 "/>
<text text-anchor="middle" x="125.5" y="-228.8" font-family="Times New Roman,serif" font-size="14.00"> </text>
</g>
<!-- Block3_Body&#45;&gt;Transaction3_0 -->
<g id="edge3" class="edge"><title>Block3_Body:r2:s&#45;&gt;Transaction3_0:n</title>
<path fill="none" stroke="black" stroke-dasharray="1,5" d="M224,-337C224,-337 125.253,-298.559 93.6228,-286.246"/>
<polygon fill="black" stroke="black" points="85.2697,-279.238 93.3188,-286.128 82.7303,-285.762 85.2697,-279.238"/>
</g>
<!-- Transaction3_1 -->
<g id="node4" class="node"><title>Transaction3_1</title>
<polygon fill="none" stroke="black" points="154,-194.5 154,-270.5 296,-270.5 296,-194.5 154,-194.5"/>
<text text-anchor="middle" x="189.5" y="-255.3" font-family="Times New Roman,serif" font-size="14.00">Output</text>
<text text-anchor="middle" x="189.5" y="-240.3" font-family="Times New Roman,serif" font-size="14.00">Address1</text>
<polyline fill="none" stroke="black" points="154,-232.5 225,-232.5 "/>
<text text-anchor="middle" x="189.5" y="-217.3" font-family="Times New Roman,serif" font-size="14.00">Output</text>
<text text-anchor="middle" x="189.5" y="-202.3" font-family="Times New Roman,serif" font-size="14.00">Address2</text>
<polyline fill="none" stroke="black" points="225,-194.5 225,-270.5 "/>
<text text-anchor="middle" x="260.5" y="-236.3" font-family="Times New Roman,serif" font-size="14.00">Input</text>
<text text-anchor="middle" x="260.5" y="-221.3" font-family="Times New Roman,serif" font-size="14.00">Address1</text>
</g>
<!-- Block3_Body&#45;&gt;Transaction3_1 -->
<g id="edge4" class="edge"><title>Block3_Body:r3:s&#45;&gt;Transaction3_1:n</title>
<path fill="none" stroke="black" stroke-dasharray="1,5" d="M276,-337C276,-337 244.872,-297.022 231.254,-279.532"/>
<polygon fill="black" stroke="black" points="227.762,-269.35 231.144,-279.39 222.238,-273.65 227.762,-269.35"/>
</g>
<!-- Transaction3_2 -->
<g id="node5" class="node"><title>Transaction3_2</title>
<polygon fill="none" stroke="black" points="314.5,-214.5 314.5,-250.5 403.5,-250.5 403.5,-214.5 314.5,-214.5"/>
<text text-anchor="middle" x="359" y="-228.8" font-family="Times New Roman,serif" font-size="14.00">Transaction2</text>
</g>
<!-- Block3_Body&#45;&gt;Transaction3_2 -->
<g id="edge5" class="edge"><title>Block3_Body:r4:s&#45;&gt;Transaction3_2:n</title>
<path fill="none" stroke="black" stroke-dasharray="1,5" d="M328,-337C328,-337 347.493,-283.238 355.564,-260.977"/>
<polygon fill="black" stroke="black" points="362.29,-252.693 355.591,-260.901 355.71,-250.307 362.29,-252.693"/>
</g>
<!-- Transaction3_3 -->
<g id="node6" class="node"><title>Transaction3_3</title>
<polygon fill="none" stroke="black" points="421.5,-214.5 421.5,-250.5 510.5,-250.5 510.5,-214.5 421.5,-214.5"/>
<text text-anchor="middle" x="466" y="-228.8" font-family="Times New Roman,serif" font-size="14.00">Transaction3</text>
</g>
<!-- Block3_Body&#45;&gt;Transaction3_3 -->
<g id="edge6" class="edge"><title>Block3_Body:r5:s&#45;&gt;Transaction3_3:n</title>
<path fill="none" stroke="black" stroke-dasharray="1,5" d="M380,-337C380,-337 437.87,-279.466 458.668,-258.79"/>
<polygon fill="black" stroke="black" points="468.468,-253.982 458.908,-258.55 463.532,-249.018 468.468,-253.982"/>
</g>
<!-- Signature3 -->
<g id="node7" class="node"><title>Signature3</title>
<polygon fill="none" stroke="black" points="190,-85.5 190,-121.5 332,-121.5 332,-85.5 190,-85.5"/>
<text text-anchor="middle" x="261" y="-99.8" font-family="Times New Roman,serif" font-size="14.00">Owner 3&#39;s Private Key</text>
</g>
<!-- Transaction3_1&#45;&gt;Signature3 -->
<g id="edge7" class="edge"><title>Transaction3_1:r2:s&#45;&gt;Signature3:n</title>
<path fill="none" stroke="black" stroke-dasharray="1,5" d="M261,-183.327C261,-163.695 261,-122.5 261,-122.5"/>
<polygon fill="black" stroke="black" points="257.5,-183.5 261,-193.5 264.5,-183.5 257.5,-183.5"/>
<text text-anchor="middle" x="273.5" y="-143.8" font-family="Times New Roman,serif" font-size="14.00">Sign</text>
</g>
<!-- Transaction2_2 -->
<g id="node12" class="node"><title>Transaction2_2</title>
<polygon fill="none" stroke="black" points="776,-179.5 776,-285.5 930,-285.5 930,-179.5 776,-179.5"/>
<text text-anchor="middle" x="817.5" y="-270.3" font-family="Times New Roman,serif" font-size="14.00">Output</text>
<text text-anchor="middle" x="817.5" y="-255.3" font-family="Times New Roman,serif" font-size="14.00">Address1</text>
<polyline fill="none" stroke="black" points="776,-247.5 859,-247.5 "/>
<text text-anchor="middle" x="817.5" y="-232.3" font-family="Times New Roman,serif" font-size="14.00">Output</text>
<text text-anchor="middle" x="817.5" y="-217.3" font-family="Times New Roman,serif" font-size="14.00">Address2</text>
<text text-anchor="middle" x="817.5" y="-202.3" font-family="Times New Roman,serif" font-size="14.00">(Owner 3&#39;s</text>
<text text-anchor="middle" x="817.5" y="-187.3" font-family="Times New Roman,serif" font-size="14.00">Public Key)</text>
<polyline fill="none" stroke="black" points="859,-179.5 859,-285.5 "/>
<text text-anchor="middle" x="894.5" y="-236.3" font-family="Times New Roman,serif" font-size="14.00">Input</text>
<text text-anchor="middle" x="894.5" y="-221.3" font-family="Times New Roman,serif" font-size="14.00">Address1</text>
</g>
<!-- Transaction3_1&#45;&gt;Transaction2_2 -->
<g id="edge28" class="edge"><title>Transaction3_1:r2:ne&#45;&gt;Transaction2_2:r1:nw</title>
<path fill="none" stroke="black" stroke-dasharray="1,5" d="M301.339,-280.102C303.277,-283.225 305,-286 305,-286 305,-286 526.5,-309 526.5,-309 526.5,-309 561.5,-309 561.5,-309 561.5,-309 766,-286 766,-286 766,-286 775,-247.5 775,-247.5"/>
<polygon fill="black" stroke="black" points="304.247,-278.151 296,-271.5 298.3,-281.842 304.247,-278.151"/>
<text text-anchor="middle" x="544" y="-307.8" font-family="Times New Roman,serif" font-size="14.00">Verify</text>
</g>
<!-- Block2_Body -->
<g id="node9" class="node"><title>Block2_Body</title>
<polygon fill="none" stroke="black" points="690,-337.5 690,-383.5 898,-383.5 898,-337.5 690,-337.5"/>
<text text-anchor="middle" x="742" y="-368.3" font-family="Times New Roman,serif" font-size="14.00">Hash01</text>
<polyline fill="none" stroke="black" points="794,-360.5 794,-383.5 "/>
<text text-anchor="middle" x="846" y="-368.3" font-family="Times New Roman,serif" font-size="14.00">Hash23</text>
<polyline fill="none" stroke="black" points="690,-360.5 898,-360.5 "/>
<text text-anchor="middle" x="716" y="-345.3" font-family="Times New Roman,serif" font-size="14.00">Hash0</text>
<polyline fill="none" stroke="black" points="742,-337.5 742,-360.5 "/>
<text text-anchor="middle" x="768" y="-345.3" font-family="Times New Roman,serif" font-size="14.00">Hash1</text>
<polyline fill="none" stroke="black" points="794,-337.5 794,-360.5 "/>
<text text-anchor="middle" x="820" y="-345.3" font-family="Times New Roman,serif" font-size="14.00">Hash2</text>
<polyline fill="none" stroke="black" points="846,-337.5 846,-360.5 "/>
<text text-anchor="middle" x="872" y="-345.3" font-family="Times New Roman,serif" font-size="14.00">Hash3</text>
</g>
<!-- Block2_Head&#45;&gt;Block2_Body -->
<g id="edge8" class="edge"><title>Block2_Head:r3:s&#45;&gt;Block2_Body:r0:n</title>
<path fill="none" stroke="black" stroke-dasharray="1,5" d="M793,-464.5C793,-464.5 760.615,-413.699 747.458,-393.061"/>
<polygon fill="black" stroke="black" points="744.951,-382.619 747.376,-392.932 739.049,-386.381 744.951,-382.619"/>
</g>
<!-- Block2_Head&#45;&gt;Block2_Body -->
<g id="edge9" class="edge"><title>Block2_Head:r3:s&#45;&gt;Block2_Body:r1:n</title>
<path fill="none" stroke="black" stroke-dasharray="1,5" d="M793,-464.5C793,-464.5 826.656,-413.699 840.328,-393.061"/>
<polygon fill="black" stroke="black" points="848.918,-386.433 840.477,-392.837 843.082,-382.567 848.918,-386.433"/>
</g>
<!-- Block1_Head -->
<g id="node15" class="node"><title>Block1_Head</title>
<polygon fill="none" stroke="black" points="1239.5,-465.5 1239.5,-511.5 1518.5,-511.5 1518.5,-465.5 1239.5,-465.5"/>
<text text-anchor="middle" x="1318.5" y="-496.3" font-family="Times New Roman,serif" font-size="14.00">Timestamp</text>
<polyline fill="none" stroke="black" points="1397.5,-488.5 1397.5,-511.5 "/>
<text text-anchor="middle" x="1458" y="-496.3" font-family="Times New Roman,serif" font-size="14.00">Link</text>
<polyline fill="none" stroke="black" points="1239.5,-488.5 1518.5,-488.5 "/>
<text text-anchor="middle" x="1266" y="-473.3" font-family="Times New Roman,serif" font-size="14.00">Nonce</text>
<polyline fill="none" stroke="black" points="1292.5,-465.5 1292.5,-488.5 "/>
<text text-anchor="middle" x="1355" y="-473.3" font-family="Times New Roman,serif" font-size="14.00">Transactions_Root</text>
<polyline fill="none" stroke="black" points="1417.5,-465.5 1417.5,-488.5 "/>
<text text-anchor="middle" x="1468" y="-473.3" font-family="Times New Roman,serif" font-size="14.00">Previous_Hash</text>
</g>
<!-- Block2_Head&#45;&gt;Block1_Head -->
<g id="edge24" class="edge"><title>Block2_Head:r2:se&#45;&gt;Block1_Head</title>
<path fill="none" stroke="black" d="M919,-500.5C919,-500.5 1088.04,-496.081 1220.96,-492.606"/>
<polygon fill="black" stroke="black" points="1221.36,-496.096 1231.27,-492.336 1221.18,-489.099 1221.36,-496.096"/>
</g>
<!-- Block2_Head&#45;&gt;Block1_Head -->
<g id="edge25" class="edge"><title>Block2_Head:r4:ne&#45;&gt;Block1_Head</title>
<path fill="none" stroke="black" stroke-dasharray="1,5" d="M919,-476.5C919,-476.5 1088.04,-480.919 1220.96,-484.394"/>
<polygon fill="black" stroke="black" points="1231.18,-488.163 1221.27,-484.402 1231.36,-481.165 1231.18,-488.163"/>
</g>
<!-- Transaction2_0 -->
<g id="node10" class="node"><title>Transaction2_0</title>
<polygon fill="none" stroke="black" points="559.5,-198.5 559.5,-266.5 650.5,-266.5 650.5,-198.5 559.5,-198.5"/>
<text text-anchor="middle" x="595" y="-251.3" font-family="Times New Roman,serif" font-size="14.00">Output</text>
<text text-anchor="middle" x="595" y="-236.3" font-family="Times New Roman,serif" font-size="14.00">Address0</text>
<text text-anchor="middle" x="595" y="-221.3" font-family="Times New Roman,serif" font-size="14.00">(Bonus</text>
<text text-anchor="middle" x="595" y="-206.3" font-family="Times New Roman,serif" font-size="14.00">+Fees)</text>
<polyline fill="none" stroke="black" points="630.5,-198.5 630.5,-266.5 "/>
<text text-anchor="middle" x="640.5" y="-228.8" font-family="Times New Roman,serif" font-size="14.00"> </text>
</g>
<!-- Block2_Body&#45;&gt;Transaction2_0 -->
<g id="edge10" class="edge"><title>Block2_Body:r2:s&#45;&gt;Transaction2_0:n</title>
<path fill="none" stroke="black" stroke-dasharray="1,5" d="M716,-337C716,-337 639.877,-289.338 613.71,-272.954"/>
<polygon fill="black" stroke="black" points="606.857,-264.534 613.476,-272.807 603.143,-270.466 606.857,-264.534"/>
</g>
<!-- Transaction2_1 -->
<g id="node11" class="node"><title>Transaction2_1</title>
<polygon fill="none" stroke="black" points="668.5,-214.5 668.5,-250.5 757.5,-250.5 757.5,-214.5 668.5,-214.5"/>
<text text-anchor="middle" x="713" y="-228.8" font-family="Times New Roman,serif" font-size="14.00">Transaction1</text>
</g>
<!-- Block2_Body&#45;&gt;Transaction2_1 -->
<g id="edge11" class="edge"><title>Block2_Body:r3:s&#45;&gt;Transaction2_1:n</title>
<path fill="none" stroke="black" stroke-dasharray="1,5" d="M768,-337C768,-337 732.386,-281.637 718.475,-260.011"/>
<polygon fill="black" stroke="black" points="715.944,-249.606 718.41,-259.91 710.056,-253.394 715.944,-249.606"/>
</g>
<!-- Block2_Body&#45;&gt;Transaction2_2 -->
<g id="edge12" class="edge"><title>Block2_Body:r4:s&#45;&gt;Transaction2_2:n</title>
<path fill="none" stroke="black" stroke-dasharray="1,5" d="M820,-337C820,-337 838.178,-308.907 847.551,-294.422"/>
<polygon fill="black" stroke="black" points="855.939,-287.901 847.567,-294.396 850.061,-284.099 855.939,-287.901"/>
</g>
<!-- Transaction2_3 -->
<g id="node13" class="node"><title>Transaction2_3</title>
<polygon fill="none" stroke="black" points="948.5,-214.5 948.5,-250.5 1037.5,-250.5 1037.5,-214.5 948.5,-214.5"/>
<text text-anchor="middle" x="993" y="-228.8" font-family="Times New Roman,serif" font-size="14.00">Transaction3</text>
</g>
<!-- Block2_Body&#45;&gt;Transaction2_3 -->
<g id="edge13" class="edge"><title>Block2_Body:r5:s&#45;&gt;Transaction2_3:n</title>
<path fill="none" stroke="black" stroke-dasharray="1,5" d="M872,-337C872,-337 957.346,-276.694 984.683,-257.377"/>
<polygon fill="black" stroke="black" points="995.02,-254.358 984.833,-257.271 990.98,-248.642 995.02,-254.358"/>
</g>
<!-- Signature2 -->
<g id="node14" class="node"><title>Signature2</title>
<polygon fill="none" stroke="black" points="824,-85.5 824,-121.5 966,-121.5 966,-85.5 824,-85.5"/>
<text text-anchor="middle" x="895" y="-99.8" font-family="Times New Roman,serif" font-size="14.00">Owner 2&#39;s Private Key</text>
</g>
<!-- Transaction2_2&#45;&gt;Signature2 -->
<g id="edge14" class="edge"><title>Transaction2_2:r2:s&#45;&gt;Signature2:n</title>
<path fill="none" stroke="black" stroke-dasharray="1,5" d="M895,-168.488C895,-152.381 895,-122.5 895,-122.5"/>
<polygon fill="black" stroke="black" points="891.5,-168.5 895,-178.5 898.5,-168.5 891.5,-168.5"/>
<text text-anchor="middle" x="907.5" y="-143.8" font-family="Times New Roman,serif" font-size="14.00">Sign</text>
</g>
<!-- Transaction1_1 -->
<g id="node18" class="node"><title>Transaction1_1</title>
<polygon fill="none" stroke="black" points="1188,-179.5 1188,-285.5 1342,-285.5 1342,-179.5 1188,-179.5"/>
<text text-anchor="middle" x="1229.5" y="-270.3" font-family="Times New Roman,serif" font-size="14.00">Output</text>
<text text-anchor="middle" x="1229.5" y="-255.3" font-family="Times New Roman,serif" font-size="14.00">Address1</text>
<text text-anchor="middle" x="1229.5" y="-240.3" font-family="Times New Roman,serif" font-size="14.00">(Owner 2&#39;s</text>
<text text-anchor="middle" x="1229.5" y="-225.3" font-family="Times New Roman,serif" font-size="14.00">Public Key)</text>
<polyline fill="none" stroke="black" points="1188,-217.5 1271,-217.5 "/>
<text text-anchor="middle" x="1229.5" y="-202.3" font-family="Times New Roman,serif" font-size="14.00">Output</text>
<text text-anchor="middle" x="1229.5" y="-187.3" font-family="Times New Roman,serif" font-size="14.00">Address2</text>
<polyline fill="none" stroke="black" points="1271,-179.5 1271,-285.5 "/>
<text text-anchor="middle" x="1306.5" y="-236.3" font-family="Times New Roman,serif" font-size="14.00">Input</text>
<text text-anchor="middle" x="1306.5" y="-221.3" font-family="Times New Roman,serif" font-size="14.00">Address1</text>
</g>
<!-- Transaction2_2&#45;&gt;Transaction1_1 -->
<g id="edge29" class="edge"><title>Transaction2_2:r2:ne&#45;&gt;Transaction1_1:r0:nw</title>
<path fill="none" stroke="black" stroke-dasharray="1,5" d="M939.895,-288.041C967.183,-293.67 1041.5,-309 1041.5,-309 1041.5,-309 1076.5,-309 1076.5,-309 1076.5,-309 1188,-286 1188,-286"/>
<polygon fill="black" stroke="black" points="940.501,-284.592 930,-286 939.087,-291.448 940.501,-284.592"/>
<text text-anchor="middle" x="1059" y="-307.8" font-family="Times New Roman,serif" font-size="14.00">Verify</text>
</g>
<!-- Block1_Body -->
<g id="node16" class="node"><title>Block1_Body</title>
<polygon fill="none" stroke="black" points="1252,-337.5 1252,-383.5 1460,-383.5 1460,-337.5 1252,-337.5"/>
<text text-anchor="middle" x="1304" y="-368.3" font-family="Times New Roman,serif" font-size="14.00">Hash01</text>
<polyline fill="none" stroke="black" points="1356,-360.5 1356,-383.5 "/>
<text text-anchor="middle" x="1408" y="-368.3" font-family="Times New Roman,serif" font-size="14.00">Hash23</text>
<polyline fill="none" stroke="black" points="1252,-360.5 1460,-360.5 "/>
<text text-anchor="middle" x="1278" y="-345.3" font-family="Times New Roman,serif" font-size="14.00">Hash0</text>
<polyline fill="none" stroke="black" points="1304,-337.5 1304,-360.5 "/>
<text text-anchor="middle" x="1330" y="-345.3" font-family="Times New Roman,serif" font-size="14.00">Hash1</text>
<polyline fill="none" stroke="black" points="1356,-337.5 1356,-360.5 "/>
<text text-anchor="middle" x="1382" y="-345.3" font-family="Times New Roman,serif" font-size="14.00">Hash2</text>
<polyline fill="none" stroke="black" points="1408,-337.5 1408,-360.5 "/>
<text text-anchor="middle" x="1434" y="-345.3" font-family="Times New Roman,serif" font-size="14.00">Hash3</text>
</g>
<!-- Block1_Head&#45;&gt;Block1_Body -->
<g id="edge15" class="edge"><title>Block1_Head:r3:s&#45;&gt;Block1_Body:r0:n</title>
<path fill="none" stroke="black" stroke-dasharray="1,5" d="M1355,-464.5C1355,-464.5 1322.61,-413.699 1309.46,-393.061"/>
<polygon fill="black" stroke="black" points="1306.95,-382.619 1309.38,-392.932 1301.05,-386.381 1306.95,-382.619"/>
</g>
<!-- Block1_Head&#45;&gt;Block1_Body -->
<g id="edge16" class="edge"><title>Block1_Head:r3:s&#45;&gt;Block1_Body:r1:n</title>
<path fill="none" stroke="black" stroke-dasharray="1,5" d="M1355,-464.5C1355,-464.5 1388.66,-413.699 1402.33,-393.061"/>
<polygon fill="black" stroke="black" points="1410.92,-386.433 1402.48,-392.837 1405.08,-382.567 1410.92,-386.433"/>
</g>
<!-- Block0_Head -->
<!-- Block1_Head&#45;&gt;Block0_Head -->
<g id="edge26" class="edge"><title>Block1_Head:r2:se&#45;&gt;Block0_Head</title>
<path fill="none" stroke="black" d="M1481,-500.5C1481,-500.5 1529.98,-496.474 1571.2,-493.086"/>
<polygon fill="black" stroke="black" points="1571.53,-496.571 1581.21,-492.264 1570.95,-489.595 1571.53,-496.571"/>
</g>
<!-- Block1_Head&#45;&gt;Block0_Head -->
<g id="edge27" class="edge"><title>Block1_Head:r4:ne&#45;&gt;Block0_Head</title>
<path fill="none" stroke="black" stroke-dasharray="1,5" d="M1481,-476.5C1481,-476.5 1529.98,-480.526 1571.2,-483.914"/>
<polygon fill="black" stroke="black" points="1580.92,-488.224 1571.24,-483.917 1581.49,-481.248 1580.92,-488.224"/>
</g>
<!-- Transaction1_0 -->
<g id="node17" class="node"><title>Transaction1_0</title>
<polygon fill="none" stroke="black" points="1078.5,-198.5 1078.5,-266.5 1169.5,-266.5 1169.5,-198.5 1078.5,-198.5"/>
<text text-anchor="middle" x="1114" y="-251.3" font-family="Times New Roman,serif" font-size="14.00">Output</text>
<text text-anchor="middle" x="1114" y="-236.3" font-family="Times New Roman,serif" font-size="14.00">Address0</text>
<text text-anchor="middle" x="1114" y="-221.3" font-family="Times New Roman,serif" font-size="14.00">(Bonus</text>
<text text-anchor="middle" x="1114" y="-206.3" font-family="Times New Roman,serif" font-size="14.00">+Fees)</text>
<polyline fill="none" stroke="black" points="1149.5,-198.5 1149.5,-266.5 "/>
<text text-anchor="middle" x="1159.5" y="-228.8" font-family="Times New Roman,serif" font-size="14.00"> </text>
</g>
<!-- Block1_Body&#45;&gt;Transaction1_0 -->
<g id="edge17" class="edge"><title>Block1_Body:r2:s&#45;&gt;Transaction1_0:n</title>
<path fill="none" stroke="black" stroke-dasharray="1,5" d="M1278,-337C1278,-337 1166.33,-286.601 1133.17,-271.639"/>
<polygon fill="black" stroke="black" points="1125.44,-264.31 1133.11,-271.614 1122.56,-270.69 1125.44,-264.31"/>
</g>
<!-- Block1_Body&#45;&gt;Transaction1_1 -->
<g id="edge18" class="edge"><title>Block1_Body:r3:s&#45;&gt;Transaction1_1:n</title>
<path fill="none" stroke="black" stroke-dasharray="1,5" d="M1330,-337C1330,-337 1290.33,-305.872 1272.97,-292.254"/>
<polygon fill="black" stroke="black" points="1267.16,-283.246 1272.87,-292.173 1262.84,-288.754 1267.16,-283.246"/>
</g>
<!-- Transaction1_2 -->
<g id="node19" class="node"><title>Transaction1_2</title>
<polygon fill="none" stroke="black" points="1360.5,-214.5 1360.5,-250.5 1449.5,-250.5 1449.5,-214.5 1360.5,-214.5"/>
<text text-anchor="middle" x="1405" y="-228.8" font-family="Times New Roman,serif" font-size="14.00">Transaction2</text>
</g>
<!-- Block1_Body&#45;&gt;Transaction1_2 -->
<g id="edge19" class="edge"><title>Block1_Body:r4:s&#45;&gt;Transaction1_2:n</title>
<path fill="none" stroke="black" stroke-dasharray="1,5" d="M1382,-337C1382,-337 1399,-319 1399,-319 1399,-319 1402.41,-280.635 1404.09,-261.752"/>
<polygon fill="black" stroke="black" points="1408.49,-251.81 1404.11,-261.461 1401.51,-251.19 1408.49,-251.81"/>
</g>
<!-- Transaction1_3 -->
<g id="node20" class="node"><title>Transaction1_3</title>
<polygon fill="none" stroke="black" points="1467.5,-214.5 1467.5,-250.5 1556.5,-250.5 1556.5,-214.5 1467.5,-214.5"/>
<text text-anchor="middle" x="1512" y="-228.8" font-family="Times New Roman,serif" font-size="14.00">Transaction3</text>
</g>
<!-- Block1_Body&#45;&gt;Transaction1_3 -->
<g id="edge20" class="edge"><title>Block1_Body:r5:s&#45;&gt;Transaction1_3:n</title>
<path fill="none" stroke="black" stroke-dasharray="1,5" d="M1434,-337C1434,-337 1485.99,-280.013 1505.08,-259.088"/>
<polygon fill="black" stroke="black" points="1514.59,-253.859 1505.26,-258.888 1509.41,-249.141 1514.59,-253.859"/>
</g>
<!-- Signature1 -->
<g id="node21" class="node"><title>Signature1</title>
<polygon fill="none" stroke="black" points="1236,-85.5 1236,-121.5 1378,-121.5 1378,-85.5 1236,-85.5"/>
<text text-anchor="middle" x="1307" y="-99.8" font-family="Times New Roman,serif" font-size="14.00">Owner 1&#39;s Private Key</text>
</g>
<!-- Transaction1_1&#45;&gt;Signature1 -->
<g id="edge21" class="edge"><title>Transaction1_1:r2:s&#45;&gt;Signature1:n</title>
<path fill="none" stroke="black" stroke-dasharray="1,5" d="M1307,-168.488C1307,-152.381 1307,-122.5 1307,-122.5"/>
<polygon fill="black" stroke="black" points="1303.5,-168.5 1307,-178.5 1310.5,-168.5 1303.5,-168.5"/>
<text text-anchor="middle" x="1319.5" y="-143.8" font-family="Times New Roman,serif" font-size="14.00">Sign</text>
</g>
<!-- Block0_Transaction -->
<!-- Transaction1_1&#45;&gt;Block0_Transaction -->
<g id="edge30" class="edge"><title>Transaction1_1:r2:ne&#45;&gt;Block0_Transaction:nw</title>
<path fill="none" stroke="black" stroke-dasharray="1,5" d="M1348.6,-293.787C1354.26,-300.459 1361.5,-309 1361.5,-309 1361.5,-309 1396.5,-309 1396.5,-309 1396.5,-309 1569,-286 1569,-286 1569,-286 1581,-251.5 1581,-251.5"/>
<polygon fill="black" stroke="black" points="1351.14,-291.364 1342,-286 1345.8,-295.891 1351.14,-291.364"/>
<text text-anchor="middle" x="1379" y="-307.8" font-family="Times New Roman,serif" font-size="14.00">Verify</text>
</g>
</g>
</svg>
