<?xml version="1.0" encoding="UTF-8" standalone="no"?>
<!DOCTYPE svg PUBLIC "-//W3C//DTD SVG 1.1//EN"
 "http://www.w3.org/Graphics/SVG/1.1/DTD/svg11.dtd">
<!-- Generated by graphviz version 2.38.0 (20140413.2041)
 -->
<!-- Title: G Pages: 1 -->
<svg width="741pt" height="537pt"
 viewBox="0.00 0.00 741.00 537.00" xmlns="http://www.w3.org/2000/svg" xmlns:xlink="http://www.w3.org/1999/xlink">
<g id="graph0" class="graph" transform="scale(1 1) rotate(0) translate(4 533)">
<title>G</title>
<polygon fill="white" stroke="none" points="-4,4 -4,-533 737,-533 737,4 -4,4"/>
<text text-anchor="middle" x="366.5" y="-7.8" font-family="Times New Roman,serif" font-size="14.00">Bitcoin BlockChain Fork</text>
<g id="clust1" class="cluster"><title>cluster2</title>
<polygon fill="none" stroke="black" points="8,-31 8,-309 725,-309 725,-31 8,-31"/>
<text text-anchor="middle" x="366.5" y="-293.8" font-family="Times New Roman,serif" font-size="14.00">Hard Fork</text>
</g>
<g id="clust2" class="cluster"><title>cluster2_1</title>
<path fill="none" stroke="black" d="M28,-185C28,-185 383,-185 383,-185 389,-185 395,-191 395,-197 395,-197 395,-266 395,-266 395,-272 389,-278 383,-278 383,-278 28,-278 28,-278 22,-278 16,-272 16,-266 16,-266 16,-197 16,-197 16,-191 22,-185 28,-185"/>
<text text-anchor="middle" x="205.5" y="-262.8" font-family="Times New Roman,serif" font-size="14.00" fill="red">Node 2 (upgraded)</text>
</g>
<g id="clust3" class="cluster"><title>cluster2_2</title>
<path fill="none" stroke="black" d="M143,-39C143,-39 380.5,-39 380.5,-39 386.5,-39 392.5,-45 392.5,-51 392.5,-51 392.5,-120 392.5,-120 392.5,-126 386.5,-132 380.5,-132 380.5,-132 143,-132 143,-132 137,-132 131,-126 131,-120 131,-120 131,-51 131,-51 131,-45 137,-39 143,-39"/>
<text text-anchor="middle" x="261.75" y="-46.8" font-family="Times New Roman,serif" font-size="14.00">Node 3 (obsolete)</text>
</g>
<g id="clust4" class="cluster"><title>cluster1</title>
<polygon fill="none" stroke="black" points="8,-317 8,-521 725,-521 725,-317 8,-317"/>
<text text-anchor="middle" x="366.5" y="-505.8" font-family="Times New Roman,serif" font-size="14.00">Soft Fork</text>
</g>
<g id="clust5" class="cluster"><title>cluster1_1</title>
<path fill="none" stroke="black" d="M28,-325C28,-325 383,-325 383,-325 389,-325 395,-331 395,-337 395,-337 395,-478 395,-478 395,-484 389,-490 383,-490 383,-490 28,-490 28,-490 22,-490 16,-484 16,-478 16,-478 16,-337 16,-337 16,-331 22,-325 28,-325"/>
<text text-anchor="middle" x="205.5" y="-332.8" font-family="Times New Roman,serif" font-size="14.00">Node 1 (obsolete)</text>
</g>
<!-- block2_6u -->
<g id="node1" class="node"><title>block2_6u</title>
<polygon fill="none" stroke="red" points="24,-201 24,-239 102,-239 102,-201 24,-201"/>
<text text-anchor="middle" x="63" y="-223.8" font-family="Times New Roman,serif" font-size="14.00" fill="red">Block 6u</text>
<text text-anchor="middle" x="63" y="-208.8" font-family="Times New Roman,serif" font-size="14.00" fill="red">(upgraded)</text>
</g>
<!-- block2_5ou -->
<g id="node2" class="node"><title>block2_5ou</title>
<polygon fill="none" stroke="red" points="140,-193.5 140,-246.5 271,-246.5 271,-193.5 140,-193.5"/>
<text text-anchor="middle" x="171" y="-231.3" font-family="Times New Roman,serif" font-size="14.00" fill="red">[refuse]</text>
<text text-anchor="middle" x="171" y="-216.3" font-family="Times New Roman,serif" font-size="14.00" fill="red">obselete</text>
<text text-anchor="middle" x="171" y="-201.3" font-family="Times New Roman,serif" font-size="14.00" fill="red">block</text>
<polyline fill="none" stroke="red" points="202,-193.5 202,-246.5 "/>
<text text-anchor="middle" x="236.5" y="-231.3" font-family="Times New Roman,serif" font-size="14.00" fill="red">[accept]</text>
<text text-anchor="middle" x="236.5" y="-216.3" font-family="Times New Roman,serif" font-size="14.00" fill="red">upgraded</text>
<text text-anchor="middle" x="236.5" y="-201.3" font-family="Times New Roman,serif" font-size="14.00" fill="red">block</text>
</g>
<!-- block2_6u&#45;&gt;block2_5ou -->
<g id="edge1" class="edge"><title>block2_6u&#45;&gt;block2_5ou</title>
<path fill="none" stroke="red" d="M102.021,-220C110.707,-220 120.232,-220 129.867,-220"/>
<polygon fill="red" stroke="red" points="129.917,-223.5 139.917,-220 129.917,-216.5 129.917,-223.5"/>
</g>
<!-- block2_4u -->
<g id="node3" class="node"><title>block2_4u</title>
<polygon fill="none" stroke="red" points="309,-196 309,-234 387,-234 387,-196 309,-196"/>
<text text-anchor="middle" x="348" y="-218.8" font-family="Times New Roman,serif" font-size="14.00" fill="red">Block 4u</text>
<text text-anchor="middle" x="348" y="-203.8" font-family="Times New Roman,serif" font-size="14.00" fill="red">(upgraded)</text>
</g>
<!-- block2_5ou&#45;&gt;block2_4u -->
<g id="edge2" class="edge"><title>block2_5ou&#45;&gt;block2_4u</title>
<path fill="none" stroke="red" d="M271.404,-217.69C280.602,-217.363 289.924,-217.031 298.733,-216.718"/>
<polygon fill="red" stroke="red" points="298.931,-220.213 308.801,-216.359 298.682,-213.217 298.931,-220.213"/>
</g>
<!-- block2_3o -->
<g id="node6" class="node"><title>block2_3o</title>
<polygon fill="none" stroke="black" points="424,-141 424,-179 497,-179 497,-141 424,-141"/>
<text text-anchor="middle" x="460.5" y="-163.8" font-family="Times New Roman,serif" font-size="14.00">Block 3o</text>
<text text-anchor="middle" x="460.5" y="-148.8" font-family="Times New Roman,serif" font-size="14.00">(obsolete)</text>
</g>
<!-- block2_4u&#45;&gt;block2_3o -->
<g id="edge3" class="edge"><title>block2_4u&#45;&gt;block2_3o</title>
<path fill="none" stroke="red" d="M387.028,-196.072C395.924,-191.644 405.482,-186.887 414.644,-182.326"/>
<polygon fill="red" stroke="red" points="416.243,-185.44 423.636,-177.851 413.124,-179.174 416.243,-185.44"/>
</g>
<!-- block2_5uo -->
<g id="node4" class="node"><title>block2_5uo</title>
<polygon fill="none" stroke="black" points="139,-70.5 139,-123.5 272,-123.5 272,-70.5 139,-70.5"/>
<text text-anchor="middle" x="173.5" y="-108.3" font-family="Times New Roman,serif" font-size="14.00">[refuse]</text>
<text text-anchor="middle" x="173.5" y="-93.3" font-family="Times New Roman,serif" font-size="14.00">upgraded</text>
<text text-anchor="middle" x="173.5" y="-78.3" font-family="Times New Roman,serif" font-size="14.00">block</text>
<polyline fill="none" stroke="black" points="208,-70.5 208,-123.5 "/>
<text text-anchor="middle" x="240" y="-108.3" font-family="Times New Roman,serif" font-size="14.00">[accept]</text>
<text text-anchor="middle" x="240" y="-93.3" font-family="Times New Roman,serif" font-size="14.00">obsolete</text>
<text text-anchor="middle" x="240" y="-78.3" font-family="Times New Roman,serif" font-size="14.00">block</text>
</g>
<!-- block2_4o -->
<g id="node5" class="node"><title>block2_4o</title>
<polygon fill="none" stroke="black" points="311.5,-84 311.5,-122 384.5,-122 384.5,-84 311.5,-84"/>
<text text-anchor="middle" x="348" y="-106.8" font-family="Times New Roman,serif" font-size="14.00">Block 4o</text>
<text text-anchor="middle" x="348" y="-91.8" font-family="Times New Roman,serif" font-size="14.00">(obsolete)</text>
</g>
<!-- block2_5uo&#45;&gt;block2_4o -->
<g id="edge10" class="edge"><title>block2_5uo&#45;&gt;block2_4o</title>
<path fill="none" stroke="black" d="M272.225,-99.8068C281.98,-100.223 291.853,-100.645 301.085,-101.039"/>
<polygon fill="black" stroke="black" points="301.056,-104.541 311.197,-101.471 301.355,-97.5475 301.056,-104.541"/>
</g>
<!-- block2_4o&#45;&gt;block2_3o -->
<g id="edge11" class="edge"><title>block2_4o&#45;&gt;block2_3o</title>
<path fill="none" stroke="black" d="M384.571,-121.349C394.232,-126.332 404.816,-131.792 414.907,-136.997"/>
<polygon fill="black" stroke="black" points="413.504,-140.212 423.996,-141.685 416.713,-133.99 413.504,-140.212"/>
</g>
<!-- block2_4 -->
<!-- block2_4o&#45;&gt;block2_4 -->
<!-- block2_2o -->
<g id="node7" class="node"><title>block2_2o</title>
<polygon fill="none" stroke="black" points="534,-141 534,-179 607,-179 607,-141 534,-141"/>
<text text-anchor="middle" x="570.5" y="-163.8" font-family="Times New Roman,serif" font-size="14.00">Block 2o</text>
<text text-anchor="middle" x="570.5" y="-148.8" font-family="Times New Roman,serif" font-size="14.00">(obsolete)</text>
</g>
<!-- block2_3o&#45;&gt;block2_2o -->
<g id="edge4" class="edge"><title>block2_3o&#45;&gt;block2_2o</title>
<path fill="none" stroke="black" d="M497.163,-160C505.641,-160 514.805,-160 523.668,-160"/>
<polygon fill="black" stroke="black" points="523.875,-163.5 533.875,-160 523.875,-156.5 523.875,-163.5"/>
</g>
<!-- block2_1o -->
<g id="node8" class="node"><title>block2_1o</title>
<polygon fill="none" stroke="black" points="644,-140 644,-178 717,-178 717,-140 644,-140"/>
<text text-anchor="middle" x="680.5" y="-162.8" font-family="Times New Roman,serif" font-size="14.00">Block 1o</text>
<text text-anchor="middle" x="680.5" y="-147.8" font-family="Times New Roman,serif" font-size="14.00">(obsolete)</text>
</g>
<!-- block2_2o&#45;&gt;block2_1o -->
<g id="edge5" class="edge"><title>block2_2o&#45;&gt;block2_1o</title>
<path fill="none" stroke="black" d="M607.163,-159.67C615.641,-159.591 624.805,-159.506 633.668,-159.424"/>
<polygon fill="black" stroke="black" points="633.908,-162.922 643.875,-159.33 633.843,-155.923 633.908,-162.922"/>
</g>
<!-- block2_0o -->
<g id="node9" class="node"><title>block2_0o</title>
<polygon fill="none" stroke="black" points="534,-84 534,-122 607,-122 607,-84 534,-84"/>
<text text-anchor="middle" x="570.5" y="-106.8" font-family="Times New Roman,serif" font-size="14.00">Block *a</text>
<text text-anchor="middle" x="570.5" y="-91.8" font-family="Times New Roman,serif" font-size="14.00">(obsolete)</text>
</g>
<!-- block2_0o&#45;&gt;block2_1o -->
<g id="edge14" class="edge"><title>block2_0o&#45;&gt;block2_1o</title>
<path fill="none" stroke="black" stroke-dasharray="1,5" d="M607.163,-121.492C616.01,-126.079 625.603,-131.053 634.822,-135.834"/>
<polygon fill="black" stroke="black" points="633.386,-139.032 643.875,-140.528 636.608,-132.817 633.386,-139.032"/>
</g>
<!-- block2_5 -->
<!-- block2_0o&#45;&gt;block2_5 -->
<!-- block2_1 -->
<!-- block2_2 -->
<!-- block2_1&#45;&gt;block2_2 -->
<g id="edge6" class="edge"><title>block2_1&#45;&gt;block2_2</title>
<path fill="none" stroke="blue" stroke-dasharray="5,2" d="M64.8138,-160C78.6903,-160 167.5,-160 167.5,-160 167.5,-160 326.143,-160 345.973,-160"/>
<text text-anchor="middle" x="205.5" y="-163.8" font-family="Times New Roman,serif" font-size="14.00" fill="blue">cannot merge</text>
</g>
<!-- block2_2&#45;&gt;block2_3o -->
<!-- block2_2&#45;&gt;block2_4 -->
<g id="edge7" class="edge"><title>block2_2&#45;&gt;block2_4</title>
<path fill="none" stroke="blue" stroke-dasharray="5,2" d="M350.241,-159.36C357.639,-155.544 396.592,-135.45 425.896,-120.334"/>
</g>
<!-- block2_3 -->
<!-- block2_3&#45;&gt;block2_5uo -->
<!-- block2_4&#45;&gt;block2_0o -->
<!-- block1_6u -->
<g id="node15" class="node"><title>block1_6u</title>
<polygon fill="none" stroke="red" points="24,-436 24,-474 102,-474 102,-436 24,-436"/>
<text text-anchor="middle" x="63" y="-458.8" font-family="Times New Roman,serif" font-size="14.00" fill="red">Block 6u</text>
<text text-anchor="middle" x="63" y="-443.8" font-family="Times New Roman,serif" font-size="14.00" fill="red">(upgraded)</text>
</g>
<!-- block1_5uo -->
<g id="node16" class="node"><title>block1_5uo</title>
<polygon fill="none" stroke="black" points="139,-428.5 139,-481.5 272,-481.5 272,-428.5 139,-428.5"/>
<text text-anchor="middle" x="173.5" y="-466.3" font-family="Times New Roman,serif" font-size="14.00">[accept]</text>
<text text-anchor="middle" x="173.5" y="-451.3" font-family="Times New Roman,serif" font-size="14.00">upgraded</text>
<text text-anchor="middle" x="173.5" y="-436.3" font-family="Times New Roman,serif" font-size="14.00">block</text>
<polyline fill="none" stroke="black" points="208,-428.5 208,-481.5 "/>
<text text-anchor="middle" x="240" y="-466.3" font-family="Times New Roman,serif" font-size="14.00">[accept]</text>
<text text-anchor="middle" x="240" y="-451.3" font-family="Times New Roman,serif" font-size="14.00">obsolete</text>
<text text-anchor="middle" x="240" y="-436.3" font-family="Times New Roman,serif" font-size="14.00">block</text>
</g>
<!-- block1_6u&#45;&gt;block1_5uo -->
<g id="edge16" class="edge"><title>block1_6u&#45;&gt;block1_5uo</title>
<path fill="none" stroke="red" d="M102.021,-455C110.377,-455 119.509,-455 128.769,-455"/>
<polygon fill="red" stroke="red" points="128.836,-458.5 138.836,-455 128.836,-451.5 128.836,-458.5"/>
</g>
<!-- block1_4u -->
<g id="node17" class="node"><title>block1_4u</title>
<polygon fill="none" stroke="red" points="309,-434 309,-472 387,-472 387,-434 309,-434"/>
<text text-anchor="middle" x="348" y="-456.8" font-family="Times New Roman,serif" font-size="14.00" fill="red">Block 4u</text>
<text text-anchor="middle" x="348" y="-441.8" font-family="Times New Roman,serif" font-size="14.00" fill="red">(upgraded)</text>
</g>
<!-- block1_5uo&#45;&gt;block1_4u -->
<g id="edge17" class="edge"><title>block1_5uo&#45;&gt;block1_4u</title>
<path fill="none" stroke="black" d="M272.225,-454.064C281.161,-453.937 290.196,-453.809 298.746,-453.687"/>
<polygon fill="black" stroke="black" points="298.948,-457.184 308.898,-453.542 298.849,-450.185 298.948,-457.184"/>
</g>
<!-- block1_3o -->
<g id="node20" class="node"><title>block1_3o</title>
<polygon fill="none" stroke="black" points="424,-397 424,-435 497,-435 497,-397 424,-397"/>
<text text-anchor="middle" x="460.5" y="-419.8" font-family="Times New Roman,serif" font-size="14.00">Block 3o</text>
<text text-anchor="middle" x="460.5" y="-404.8" font-family="Times New Roman,serif" font-size="14.00">(obsolete)</text>
</g>
<!-- block1_4u&#45;&gt;block1_3o -->
<g id="edge18" class="edge"><title>block1_4u&#45;&gt;block1_3o</title>
<path fill="none" stroke="red" d="M387.028,-440.267C395.739,-437.35 405.084,-434.221 414.071,-431.211"/>
<polygon fill="red" stroke="red" points="415.265,-434.503 423.636,-428.009 413.042,-427.865 415.265,-434.503"/>
</g>
<!-- block1_5ou -->
<g id="node18" class="node"><title>block1_5ou</title>
<polygon fill="none" stroke="red" points="139,-356.5 139,-409.5 272,-409.5 272,-356.5 139,-356.5"/>
<text text-anchor="middle" x="171" y="-394.3" font-family="Times New Roman,serif" font-size="14.00" fill="red">[accept]</text>
<text text-anchor="middle" x="171" y="-379.3" font-family="Times New Roman,serif" font-size="14.00" fill="red">obsolete</text>
<text text-anchor="middle" x="171" y="-364.3" font-family="Times New Roman,serif" font-size="14.00" fill="red">block</text>
<polyline fill="none" stroke="red" points="203,-356.5 203,-409.5 "/>
<text text-anchor="middle" x="237.5" y="-394.3" font-family="Times New Roman,serif" font-size="14.00" fill="red">[accept]</text>
<text text-anchor="middle" x="237.5" y="-379.3" font-family="Times New Roman,serif" font-size="14.00" fill="red">upgraded</text>
<text text-anchor="middle" x="237.5" y="-364.3" font-family="Times New Roman,serif" font-size="14.00" fill="red">block</text>
</g>
<!-- block1_4o -->
<g id="node19" class="node"><title>block1_4o</title>
<polygon fill="none" stroke="black" points="311.5,-377 311.5,-415 384.5,-415 384.5,-377 311.5,-377"/>
<text text-anchor="middle" x="348" y="-399.8" font-family="Times New Roman,serif" font-size="14.00">Block 4o</text>
<text text-anchor="middle" x="348" y="-384.8" font-family="Times New Roman,serif" font-size="14.00">(obsolete)</text>
</g>
<!-- block1_5ou&#45;&gt;block1_4o -->
<g id="edge21" class="edge"><title>block1_5ou&#45;&gt;block1_4o</title>
<path fill="none" stroke="red" d="M272.225,-389.081C281.98,-389.984 291.853,-390.897 301.085,-391.752"/>
<polygon fill="red" stroke="red" points="300.917,-395.251 311.197,-392.687 301.562,-388.281 300.917,-395.251"/>
</g>
<!-- block1_4o&#45;&gt;block1_3o -->
<g id="edge22" class="edge"><title>block1_4o&#45;&gt;block1_3o</title>
<path fill="none" stroke="black" stroke-dasharray="1,5" d="M384.571,-402.438C393.936,-404.133 404.169,-405.985 413.979,-407.761"/>
<polygon fill="black" stroke="black" points="413.532,-411.237 423.996,-409.574 414.779,-404.349 413.532,-411.237"/>
</g>
<!-- block1_2o -->
<g id="node21" class="node"><title>block1_2o</title>
<polygon fill="none" stroke="black" points="534,-397 534,-435 607,-435 607,-397 534,-397"/>
<text text-anchor="middle" x="570.5" y="-419.8" font-family="Times New Roman,serif" font-size="14.00">Block 2o</text>
<text text-anchor="middle" x="570.5" y="-404.8" font-family="Times New Roman,serif" font-size="14.00">(obsolete)</text>
</g>
<!-- block1_3o&#45;&gt;block1_2o -->
<g id="edge19" class="edge"><title>block1_3o&#45;&gt;block1_2o</title>
<path fill="none" stroke="black" d="M497.163,-416C505.641,-416 514.805,-416 523.668,-416"/>
<polygon fill="black" stroke="black" points="523.875,-419.5 533.875,-416 523.875,-412.5 523.875,-419.5"/>
</g>
<!-- block1_1o -->
<g id="node22" class="node"><title>block1_1o</title>
<polygon fill="none" stroke="black" points="644,-396 644,-434 717,-434 717,-396 644,-396"/>
<text text-anchor="middle" x="680.5" y="-418.8" font-family="Times New Roman,serif" font-size="14.00">Block 1o</text>
<text text-anchor="middle" x="680.5" y="-403.8" font-family="Times New Roman,serif" font-size="14.00">(obsolete)</text>
</g>
<!-- block1_2o&#45;&gt;block1_1o -->
<g id="edge20" class="edge"><title>block1_2o&#45;&gt;block1_1o</title>
<path fill="none" stroke="black" d="M607.163,-415.67C615.641,-415.591 624.805,-415.506 633.668,-415.424"/>
<polygon fill="black" stroke="black" points="633.908,-418.922 643.875,-415.33 633.843,-411.923 633.908,-418.922"/>
</g>
<!-- block1_0o -->
<g id="node23" class="node"><title>block1_0o</title>
<polygon fill="none" stroke="black" points="534,-340 534,-378 607,-378 607,-340 534,-340"/>
<text text-anchor="middle" x="570.5" y="-362.8" font-family="Times New Roman,serif" font-size="14.00">Block *o</text>
<text text-anchor="middle" x="570.5" y="-347.8" font-family="Times New Roman,serif" font-size="14.00">(obsolete)</text>
</g>
<!-- block1_0o&#45;&gt;block1_1o -->
<g id="edge23" class="edge"><title>block1_0o&#45;&gt;block1_1o</title>
<path fill="none" stroke="black" stroke-dasharray="1,5" d="M607.163,-377.492C616.01,-382.079 625.603,-387.053 634.822,-391.834"/>
<polygon fill="black" stroke="black" points="633.386,-395.032 643.875,-396.528 636.608,-388.817 633.386,-395.032"/>
</g>
<!-- block1_1 -->
<!-- block1_0o&#45;&gt;block1_1 -->
</g>
</svg>
