<?xml version="1.0" encoding="UTF-8" standalone="no"?>
<svg
   xmlns:dc="http://purl.org/dc/elements/1.1/"
   xmlns:cc="http://creativecommons.org/ns#"
   xmlns:rdf="http://www.w3.org/1999/02/22-rdf-syntax-ns#"
   xmlns:svg="http://www.w3.org/2000/svg"
   xmlns="http://www.w3.org/2000/svg"
   id="svg21"
   version="1.2"
   viewBox="0 0 199 200"
   height="480"
   width="480">
  <metadata
     id="metadata27">
    <rdf:RDF>
      <cc:Work
         rdf:about="">
        <dc:format>image/svg+xml</dc:format>
        <dc:type
           rdf:resource="http://purl.org/dc/dcmitype/StillImage" />
        <dc:title></dc:title>
      </cc:Work>
    </rdf:RDF>
  </metadata>
  <defs
     id="defs25" />
  <g
     id="surface180">
    <rect
       id="rect2"
       style="fill:#ffffff;fill-opacity:1;stroke:none"
       height="200"
       width="199"
       y="0"
       x="0" />
    <path
       id="path4"
       transform="matrix(0.49006,0,0,0.49006,-88.508,-28)"
       d="M 384.00154,61.001783 210.91207,361.21218 557.44173,360.99696 Z m 0,0"
       style="fill:none;stroke:#000000;stroke-width:2.5;stroke-linecap:round;stroke-linejoin:round;stroke-miterlimit:10;stroke-opacity:1" />
    <path
       id="path6"
       transform="matrix(0.49006,0,0,0.49006,-88.508,-28)"
       d="m 584.00099,261.00122 c 0,110.46161 -89.53784,199.99945 -199.99945,199.99945 -110.46161,0 -199.99944,-89.53784 -199.99944,-199.99945 0,-110.46161 89.53783,-199.999437 199.99944,-199.999437 110.46161,0 199.99945,89.537827 199.99945,199.999437 z m 0,0"
       style="fill:none;stroke:#000000;stroke-width:2.5;stroke-linecap:round;stroke-linejoin:round;stroke-miterlimit:10;stroke-opacity:1" />
    <path
       id="path8"
       transform="matrix(0.49006,0,0,0.49006,-88.508,-28)"
       d="m 483.99728,261.00122 c 0,55.23081 -44.76493,99.99574 -99.99574,99.99574 -55.2308,0 -100.0037,-44.76493 -100.0037,-99.99574 0,-55.2308 44.7729,-100.0037 100.0037,-100.0037 55.23081,0 99.99574,44.7729 99.99574,100.0037 z m 0,0"
       style="fill:none;stroke:#000000;stroke-width:2.5;stroke-linecap:round;stroke-linejoin:round;stroke-miterlimit:10;stroke-opacity:1" />
    <path
       id="path10"
       transform="matrix(0.49006,0,0,0.49006,-88.508,-28)"
       d="M 384.00154,61.001783 210.91207,361.21218"
       style="fill:none;stroke:#000000;stroke-width:2.5;stroke-linecap:round;stroke-linejoin:round;stroke-miterlimit:10;stroke-opacity:1" />
    <path
       id="path12"
       transform="matrix(0.49006,0,0,0.49006,-88.508,-28)"
       d="m 210.91207,361.21218 346.52966,-0.21522"
       style="fill:none;stroke:#000000;stroke-width:2.5;stroke-linecap:round;stroke-linejoin:round;stroke-miterlimit:10;stroke-opacity:1" />
    <path
       id="path14"
       transform="matrix(0.49006,0,0,0.49006,-88.508,-28)"
       d="M 557.44173,360.99696 384.00154,61.001783"
       style="fill:none;stroke:#000000;stroke-width:2.5;stroke-linecap:round;stroke-linejoin:round;stroke-miterlimit:10;stroke-opacity:1" />
    <path
       id="path16"
       transform="matrix(0.49006,0,0,0.49006,-88.508,-28)"
       d="M 384.00154,61.001783 V 461.00067"
       style="fill:none;stroke:#000000;stroke-width:2.5;stroke-linecap:round;stroke-linejoin:round;stroke-miterlimit:10;stroke-opacity:1" />
    <path
       id="path18"
       d="m 102.125,99.90625 c 0,1.35156 -1.09766,2.44922 -2.449219,2.44922 -1.351562,0 -2.449218,-1.09766 -2.449218,-2.44922 0,-1.351562 1.097656,-2.449219 2.449218,-2.449219 1.351559,0 2.449219,1.097657 2.449219,2.449219 z m 0,0"
       style="fill:#000000;fill-opacity:1;fill-rule:nonzero;stroke:none" />
  </g>
</svg>
