<?xml version="1.0" encoding="UTF-8" standalone="no"?>
<!-- Copyright 2017 mathsisfun.com -->

<svg
   xmlns:dc="http://purl.org/dc/elements/1.1/"
   xmlns:cc="http://creativecommons.org/ns#"
   xmlns:rdf="http://www.w3.org/1999/02/22-rdf-syntax-ns#"
   xmlns:svg="http://www.w3.org/2000/svg"
   xmlns="http://www.w3.org/2000/svg"
   xmlns:xlink="http://www.w3.org/1999/xlink"
   xmlns:sodipodi="http://sodipodi.sourceforge.net/DTD/sodipodi-0.dtd"
   xmlns:inkscape="http://www.inkscape.org/namespaces/inkscape"
   width="302"
   height="300"
   version="1.1"
   id="svg36"
   sodipodi:docname="Regular_Dodecahedron@MATH_is_FUN.svg"
   inkscape:version="0.92.3 (2405546, 2018-03-11)">
  <metadata
     id="metadata40">
    <rdf:RDF>
      <cc:Work
         rdf:about="">
        <dc:format>image/svg+xml</dc:format>
        <dc:type
           rdf:resource="http://purl.org/dc/dcmitype/StillImage" />
      </cc:Work>
    </rdf:RDF>
  </metadata>
  <sodipodi:namedview
     pagecolor="#ffffff"
     bordercolor="#666666"
     borderopacity="1"
     objecttolerance="10"
     gridtolerance="10"
     guidetolerance="10"
     inkscape:pageopacity="0"
     inkscape:pageshadow="2"
     inkscape:window-width="1920"
     inkscape:window-height="1013"
     id="namedview38"
     showgrid="false"
     inkscape:zoom="256"
     inkscape:cx="300.86102"
     inkscape:cy="0.67596727"
     inkscape:window-x="-9"
     inkscape:window-y="-9"
     inkscape:window-maximized="1"
     inkscape:current-layer="svg36" />
  <defs
     id="defs8">
    <linearGradient
       id="id1">
      <stop
         offset="0"
         style="stop-color:#fcff9a; stop-opacity:0.78;"
         id="stop2" />
      <stop
         offset="1"
         style="stop-color:white; stop-opacity:0;"
         id="stop4" />
    </linearGradient>
    <radialGradient
       id="id2"
       r="114.34"
       fx="130.341"
       fy="225.07001"
       cx="130.3"
       cy="225.10001"
       gradientTransform="matrix(0.882694,0.439603,-0.537372,1.079,125.436,-80.0508)"
       xlink:href="#id1"
       gradientUnits="userSpaceOnUse" />
  </defs>
  <polyline
     points="182.79 172.62, 261.57 155.56, 301.55 226.59, 246.49 284.86, 174.82 251.45"
     transform="matrix(1.0500454,0,0,1.0500061,-79.38755,-78.339699)"
     style="fill:#5353d3;fill-opacity:0.5;stroke:#000000;stroke-width:1"
     id="polyline10" />
  <polyline
     points="253.56 351.08, 246.49 284.86, 174.82 251.45, 116.22 285.85, 162.39 359.78"
     transform="matrix(1.0500454,0,0,1.0500061,-79.38755,-78.339699)"
     style="fill:#d3d380;fill-opacity:0.5;stroke:#000000;stroke-width:1"
     id="polyline12" />
  <polyline
     points="76.281 209.84, 116.22 285.85, 174.82 251.45, 182.79 172.62, 129.87 133.76"
     transform="matrix(1.0500454,0,0,1.0500061,-79.38755,-78.339699)"
     style="fill:#808053;fill-opacity:0.5;stroke:#000000;stroke-width:1"
     id="polyline14" />
  <polyline
     points="246.49 284.86, 253.56 351.08, 335.22 330.70, 362.58 239.02, 301.55 226.59"
     transform="matrix(1.0500454,0,0,1.0500061,-79.38755,-78.339699)"
     style="fill:#d3d380;fill-opacity:0.5;stroke:#000000;stroke-width:1"
     id="polyline16" />
  <polyline
     points="261.57 155.56, 182.79 172.62, 129.87 133.76, 191.08 75.236, 283.82 98.384"
     transform="matrix(1.0500454,0,0,1.0500061,-79.38755,-78.339699)"
     style="fill:#adadd3;fill-opacity:0.5;stroke:#000000;stroke-width:1"
     id="polyline18" />
  <polyline
     points="362.58 239.02, 359.90 149.54, 283.82 98.384, 261.57 155.56, 301.55 226.59"
     transform="matrix(1.0500454,0,0,1.0500061,-79.38755,-78.339699)"
     style="fill:#808053;fill-opacity:0.5;stroke:#000000;stroke-width:1"
     id="polyline20" />
  <polyline
     points="116.22 285.85, 76.281 209.84, 92.492 222.25, 162.33 343.97, 162.39 359.78"
     transform="matrix(1.0500454,0,0,1.0500061,-79.38755,-78.339699)"
     style="fill:#8080ad;fill-opacity:0.5;stroke:#000000;stroke-width:1"
     id="polyline22" />
  <polyline
     points="301.53 319.97, 162.33 343.97, 162.39 359.78, 253.56 351.08, 335.22 330.70"
     transform="matrix(1.0500454,0,0,1.0500061,-79.38755,-78.339699)"
     style="fill:#53532d;fill-opacity:0.5;stroke:#000000;stroke-width:1"
     id="polyline24" />
  <polyline
     points="191.08 75.236, 185.38 114.64, 92.492 222.25, 76.281 209.84, 129.87 133.76"
     transform="matrix(1.0500454,0,0,1.0500061,-79.38755,-78.339699)"
     style="fill:#a0a0dd;fill-opacity:0.5;stroke:#000000;stroke-width:1"
     id="polyline26" />
  <polyline
     points="359.90 149.54, 362.58 239.02, 335.22 330.70, 301.53 319.97, 320.25 174.80"
     transform="matrix(1.0500454,0,0,1.0500061,-79.38755,-78.339699)"
     style="fill:#8080ad;fill-opacity:0.5;stroke:#000000;stroke-width:1"
     id="polyline28" />
  <polyline
     points="185.38 114.64, 191.08 75.236, 283.82 98.384, 359.90 149.54, 320.25 174.80"
     transform="matrix(1.0500454,0,0,1.0500061,-79.38755,-78.339699)"
     style="fill:#7373ce;fill-opacity:0.5;stroke:#000000;stroke-width:1"
     id="polyline30" />
  <polyline
     points="162.33 343.97, 301.53 319.97, 320.25 174.80, 185.38 114.64, 92.492 222.25"
     transform="matrix(1.0500454,0,0,1.0500061,-79.38755,-78.339699)"
     style="fill:#71c882;fill-opacity:0.75;stroke:#000000;stroke-width:1"
     id="polyline32" />
  <polyline
     points="162.33 343.97, 301.53 319.97, 320.25 174.80, 185.38 114.64, 92.492 222.25"
     transform="matrix(1.0500454,0,0,1.0500061,-79.38755,-78.339699)"
     style="fill:url(#id2);stroke:#000000;stroke-width:1"
     id="polyline34" />
</svg>
