<?xml version="1.0" encoding="UTF-8" standalone="no"?>
<!-- Copyright 2017 mathsisfun.com -->

<svg
   xmlns:dc="http://purl.org/dc/elements/1.1/"
   xmlns:cc="http://creativecommons.org/ns#"
   xmlns:rdf="http://www.w3.org/1999/02/22-rdf-syntax-ns#"
   xmlns:svg="http://www.w3.org/2000/svg"
   xmlns="http://www.w3.org/2000/svg"
   xmlns:xlink="http://www.w3.org/1999/xlink"
   xmlns:sodipodi="http://sodipodi.sourceforge.net/DTD/sodipodi-0.dtd"
   xmlns:inkscape="http://www.inkscape.org/namespaces/inkscape"
   width="300"
   height="300"
   version="1.1"
   id="svg22"
   sodipodi:docname="Regular_Hexahedron@MATH_is_FUN.svg"
   inkscape:version="0.92.3 (2405546, 2018-03-11)">
  <metadata
     id="metadata26">
    <rdf:RDF>
      <cc:Work
         rdf:about="">
        <dc:format>image/svg+xml</dc:format>
        <dc:type
           rdf:resource="http://purl.org/dc/dcmitype/StillImage" />
      </cc:Work>
    </rdf:RDF>
  </metadata>
  <sodipodi:namedview
     pagecolor="#ffffff"
     bordercolor="#666666"
     borderopacity="1"
     objecttolerance="10"
     gridtolerance="10"
     guidetolerance="10"
     inkscape:pageopacity="0"
     inkscape:pageshadow="2"
     inkscape:window-width="1920"
     inkscape:window-height="1013"
     id="namedview24"
     showgrid="false"
     inkscape:zoom="256"
     inkscape:cx="300.21499"
     inkscape:cy="-0.48381364"
     inkscape:window-x="-9"
     inkscape:window-y="-9"
     inkscape:window-maximized="1"
     inkscape:current-layer="svg22" />
  <defs
     id="defs8">
    <linearGradient
       id="id1">
      <stop
         offset="0"
         style="stop-color:#ffff80; stop-opacity:0.9;"
         id="stop2" />
      <stop
         offset="1"
         style="stop-color:#ffff80; stop-opacity:0.34;"
         id="stop4" />
    </linearGradient>
    <linearGradient
       id="id2"
       xlink:href="#id1"
       x1="292.10001"
       y1="182.2"
       x2="248.5"
       y2="99.900002"
       gradientUnits="userSpaceOnUse" />
  </defs>
  <polyline
     points="116.19 256.07, 127.52 103.12, 283.64 121.11, 251.44 252.09"
     transform="matrix(1.1053645,0,0,1.1068993,-127.74721,-112.44063)"
     style="fill:#808080;fill-opacity:0.5;stroke:#000000;stroke-width:1"
     id="polyline10" />
  <polyline
     points="141.97 372.12, 116.19 256.07, 251.44 252.09, 322.26 346.59"
     transform="matrix(1.1053645,0,0,1.1068993,-127.74721,-112.44063)"
     style="fill:#010180;fill-opacity:0.5;stroke:#000000;stroke-width:1"
     id="polyline12" />
  <polyline
     points="322.26 346.59, 251.44 252.09, 283.64 121.11, 386.27 178.95"
     transform="matrix(1.1053645,0,0,1.1068993,-127.74721,-112.44063)"
     style="fill:#8080ff;fill-opacity:0.5;stroke:#000000;stroke-width:1"
     id="polyline14" />
  <polyline
     points="141.97 372.12, 167.83 166.41, 127.52 103.12, 116.19 256.07"
     transform="matrix(1.1053645,0,0,1.1068993,-127.74721,-112.44063)"
     style="fill:#808001;fill-opacity:0.5;stroke:#000000;stroke-width:1"
     id="polyline16" />
  <polyline
     points="167.83 166.41, 386.27 178.95, 283.64 121.11, 127.52 103.12"
     transform="matrix(1.1053645,0,0,1.1068993,-127.74721,-112.44063)"
     style="fill:url(#id2);stroke:#000000;stroke-width:1"
     id="polyline18" />
  <polyline
     points="141.97 372.12, 322.26 346.59, 386.27 178.95, 167.83 166.41"
     transform="matrix(1.1053645,0,0,1.1068993,-127.74721,-112.44063)"
     style="fill:#808080;fill-opacity:0.5;stroke:#000000;stroke-width:1"
     id="polyline20" />
</svg>
