<?xml version="1.0" encoding="UTF-8" standalone="no"?>
<!-- Copyright 2017 mathsisfun.com -->

<svg
   xmlns:dc="http://purl.org/dc/elements/1.1/"
   xmlns:cc="http://creativecommons.org/ns#"
   xmlns:rdf="http://www.w3.org/1999/02/22-rdf-syntax-ns#"
   xmlns:svg="http://www.w3.org/2000/svg"
   xmlns="http://www.w3.org/2000/svg"
   xmlns:xlink="http://www.w3.org/1999/xlink"
   xmlns:sodipodi="http://sodipodi.sourceforge.net/DTD/sodipodi-0.dtd"
   xmlns:inkscape="http://www.inkscape.org/namespaces/inkscape"
   width="298"
   height="300"
   version="1.1"
   id="svg26"
   sodipodi:docname="Regular_Octahedron@MATH_is_FUN.svg"
   inkscape:version="0.92.3 (2405546, 2018-03-11)">
  <metadata
     id="metadata30">
    <rdf:RDF>
      <cc:Work
         rdf:about="">
        <dc:format>image/svg+xml</dc:format>
        <dc:type
           rdf:resource="http://purl.org/dc/dcmitype/StillImage" />
      </cc:Work>
    </rdf:RDF>
  </metadata>
  <sodipodi:namedview
     pagecolor="#ffffff"
     bordercolor="#666666"
     borderopacity="1"
     objecttolerance="10"
     gridtolerance="10"
     guidetolerance="10"
     inkscape:pageopacity="0"
     inkscape:pageshadow="2"
     inkscape:window-width="1920"
     inkscape:window-height="1013"
     id="namedview28"
     showgrid="false"
     inkscape:zoom="256"
     inkscape:cx="296.92448"
     inkscape:cy="0.54660275"
     inkscape:window-x="-9"
     inkscape:window-y="-9"
     inkscape:window-maximized="1"
     inkscape:current-layer="svg26" />
  <defs
     id="defs8">
    <linearGradient
       id="id1">
      <stop
         offset="0"
         style="stop-color:#e0e49c; stop-opacity:1;"
         id="stop2" />
      <stop
         offset="1"
         style="stop-color:#ceceb2; stop-opacity:0;"
         id="stop4" />
    </linearGradient>
    <linearGradient
       id="id2"
       xlink:href="#id1"
       x1="268.5"
       y1="190.10001"
       x2="80.099998"
       y2="114.8"
       gradientUnits="userSpaceOnUse" />
  </defs>
  <polyline
     points="212.90 210.17, 196.62 350.77, 349.54 250.79"
     transform="matrix(1.1331675,0,0,1.1333839,-98.575172,-98.686853)"
     style="fill:#32324e;fill-opacity:0.5;stroke:#000000;stroke-width:1"
     id="polyline10" />
  <polyline
     points="255.73 88.814, 212.90 210.17, 349.54 250.79"
     transform="matrix(1.1331675,0,0,1.1333839,-98.575172,-98.686853)"
     style="fill:#80804e;fill-opacity:0.5;stroke:#000000;stroke-width:1"
     id="polyline12" />
  <polyline
     points="196.62 350.77, 212.90 210.17, 87.399 196.50"
     transform="matrix(1.1331675,0,0,1.1333839,-98.575172,-98.686853)"
     style="fill:#3232b2;fill-opacity:0.5;stroke:#000000;stroke-width:1"
     id="polyline14" />
  <polyline
     points="212.90 210.17, 255.73 88.814, 87.399 196.50"
     transform="matrix(1.1331675,0,0,1.1333839,-98.575172,-98.686853)"
     style="fill:#8080b2;fill-opacity:0.5;stroke:#000000;stroke-width:1"
     id="polyline16" />
  <polyline
     points="196.62 350.77, 249.10 254.54, 349.54 250.79"
     transform="matrix(1.1331675,0,0,1.1333839,-98.575172,-98.686853)"
     style="fill:#80804e;fill-opacity:0.5;stroke:#000000;stroke-width:1"
     id="polyline18" />
  <polyline
     points="249.10 254.54, 255.73 88.814, 349.54 250.79"
     transform="matrix(1.1331675,0,0,1.1333839,-98.575172,-98.686853)"
     style="fill:#cece4e;fill-opacity:0.5;stroke:#000000;stroke-width:1"
     id="polyline20" />
  <polyline
     points="249.10 254.54, 196.62 350.77, 87.399 196.50"
     transform="matrix(1.1331675,0,0,1.1333839,-98.575172,-98.686853)"
     style="fill:#9f9fc5;fill-opacity:0.5;stroke:#000000;stroke-width:1"
     id="polyline22" />
  <polyline
     points="255.73 88.814, 249.10 254.54, 87.399 196.50"
     transform="matrix(1.1331675,0,0,1.1333839,-98.575172,-98.686853)"
     style="fill:url(#id2);stroke:#000000;stroke-width:1"
     id="polyline24" />
</svg>
