<?xml version="1.0" encoding="UTF-8" standalone="no"?>
<!DOCTYPE svg PUBLIC "-//W3C//DTD SVG 1.1//EN"
 "http://www.w3.org/Graphics/SVG/1.1/DTD/svg11.dtd">
<!-- Generated by graphviz version 2.38.0 (20140413.2041)
 -->
<!-- Title: %467 Pages: 1 -->
<svg width="1877pt" height="553pt"
 viewBox="0.00 0.00 1877.00 553.00" xmlns="http://www.w3.org/2000/svg" xmlns:xlink="http://www.w3.org/1999/xlink">
<g id="graph0" class="graph" transform="scale(1 1) rotate(0) translate(4 549)">
<title>%467</title>
<polygon fill="white" stroke="none" points="-4,4 -4,-549 1873,-549 1873,4 -4,4"/>
<text text-anchor="middle" x="934.5" y="-22.8" font-family="Times New Roman,serif" font-size="14.00">Bitcoin Core</text>
<text text-anchor="middle" x="934.5" y="-7.8" font-family="Times New Roman,serif" font-size="14.00">Bitcoin BlockChain</text>
<g id="clust5" class="cluster"><title>cluster2</title>
<polygon fill="none" stroke="black" stroke-dasharray="1,5" points="609,-155 609,-529 1166,-529 1166,-155 609,-155"/>
<text text-anchor="middle" x="887.5" y="-513.8" font-family="Times New Roman,serif" font-size="14.00">Block 2</text>
</g>
<g id="clust6" class="cluster"><title>cluster21</title>
<polygon fill="none" stroke="black" points="790,-412 790,-498 1086,-498 1086,-412 790,-412"/>
<text text-anchor="middle" x="831.5" y="-482.8" font-family="Times New Roman,serif" font-size="14.00">Block Head</text>
</g>
<g id="clust7" class="cluster"><title>cluster22</title>
<polygon fill="none" stroke="black" points="617,-163 617,-393 1158,-393 1158,-163 617,-163"/>
<text text-anchor="middle" x="659" y="-377.8" font-family="Times New Roman,serif" font-size="14.00">Block Body</text>
</g>
<g id="clust8" class="cluster"><title>cluster23</title>
<polygon fill="none" stroke="black" points="759,-46 759,-122 917,-122 917,-46 759,-46"/>
<text text-anchor="middle" x="806.5" y="-53.8" font-family="Times New Roman,serif" font-size="14.00">Bitcoin Wallet</text>
</g>
<g id="clust9" class="cluster"><title>cluster1</title>
<polygon fill="none" stroke="black" stroke-dasharray="1,5" points="1174,-155 1174,-529 1731,-529 1731,-155 1174,-155"/>
<text text-anchor="middle" x="1452.5" y="-513.8" font-family="Times New Roman,serif" font-size="14.00">Block 1</text>
</g>
<g id="clust10" class="cluster"><title>cluster11</title>
<polygon fill="none" stroke="black" points="1293,-412 1293,-498 1589,-498 1589,-412 1293,-412"/>
<text text-anchor="middle" x="1334.5" y="-482.8" font-family="Times New Roman,serif" font-size="14.00">Block Head</text>
</g>
<g id="clust11" class="cluster"><title>cluster12</title>
<polygon fill="none" stroke="black" points="1182,-163 1182,-393 1723,-393 1723,-163 1182,-163"/>
<text text-anchor="middle" x="1224" y="-377.8" font-family="Times New Roman,serif" font-size="14.00">Block Body</text>
</g>
<g id="clust12" class="cluster"><title>cluster13</title>
<polygon fill="none" stroke="black" points="1434,-46 1434,-122 1592,-122 1592,-46 1434,-46"/>
<text text-anchor="middle" x="1481.5" y="-53.8" font-family="Times New Roman,serif" font-size="14.00">Bitcoin Wallet</text>
</g>
<g id="clust1" class="cluster"><title>cluster33</title>
<polygon fill="none" stroke="black" points="8,-46 8,-537 601,-537 601,-46 8,-46"/>
<text text-anchor="middle" x="55.5" y="-53.8" font-family="Times New Roman,serif" font-size="14.00">Bitcoin Wallet</text>
</g>
<g id="clust2" class="cluster"><title>cluster3</title>
<polygon fill="none" stroke="black" stroke-dasharray="1,5" points="16,-155 16,-529 593,-529 593,-155 16,-155"/>
<text text-anchor="middle" x="304.5" y="-513.8" font-family="Times New Roman,serif" font-size="14.00">Head Block</text>
</g>
<g id="clust4" class="cluster"><title>cluster32</title>
<polygon fill="none" stroke="black" points="24,-163 24,-393 585,-393 585,-163 24,-163"/>
<text text-anchor="middle" x="66" y="-377.8" font-family="Times New Roman,serif" font-size="14.00">Block Body</text>
</g>
<g id="clust3" class="cluster"><title>cluster31</title>
<polygon fill="none" stroke="black" points="200,-412 200,-498 496,-498 496,-412 200,-412"/>
<text text-anchor="middle" x="241.5" y="-482.8" font-family="Times New Roman,serif" font-size="14.00">Block Head</text>
</g>
<!-- Block3_Head -->
<g id="node1" class="node"><title>Block3_Head</title>
<polygon fill="none" stroke="black" points="208.5,-420.5 208.5,-466.5 487.5,-466.5 487.5,-420.5 208.5,-420.5"/>
<text text-anchor="middle" x="263" y="-451.3" font-family="Times New Roman,serif" font-size="14.00">Timestamp</text>
<polyline fill="none" stroke="black" points="317.5,-443.5 317.5,-466.5 "/>
<text text-anchor="middle" x="366.5" y="-451.3" font-family="Times New Roman,serif" font-size="14.00">Difficulty</text>
<polyline fill="none" stroke="black" points="415.5,-443.5 415.5,-466.5 "/>
<text text-anchor="middle" x="451.5" y="-451.3" font-family="Times New Roman,serif" font-size="14.00">Link</text>
<polyline fill="none" stroke="black" points="208.5,-443.5 487.5,-443.5 "/>
<text text-anchor="middle" x="235" y="-428.3" font-family="Times New Roman,serif" font-size="14.00">Nonce</text>
<polyline fill="none" stroke="black" points="261.5,-420.5 261.5,-443.5 "/>
<text text-anchor="middle" x="324" y="-428.3" font-family="Times New Roman,serif" font-size="14.00">Transactions_Root</text>
<polyline fill="none" stroke="black" points="386.5,-420.5 386.5,-443.5 "/>
<text text-anchor="middle" x="437" y="-428.3" font-family="Times New Roman,serif" font-size="14.00">Previous_Hash</text>
</g>
<!-- Block3_Body -->
<g id="node2" class="node"><title>Block3_Body</title>
<polygon fill="none" stroke="black" points="221,-315.5 221,-361.5 429,-361.5 429,-315.5 221,-315.5"/>
<text text-anchor="middle" x="273" y="-346.3" font-family="Times New Roman,serif" font-size="14.00">Hash01</text>
<polyline fill="none" stroke="black" points="325,-338.5 325,-361.5 "/>
<text text-anchor="middle" x="377" y="-346.3" font-family="Times New Roman,serif" font-size="14.00">Hash23</text>
<polyline fill="none" stroke="black" points="221,-338.5 429,-338.5 "/>
<text text-anchor="middle" x="247" y="-323.3" font-family="Times New Roman,serif" font-size="14.00">Hash0</text>
<polyline fill="none" stroke="black" points="273,-315.5 273,-338.5 "/>
<text text-anchor="middle" x="299" y="-323.3" font-family="Times New Roman,serif" font-size="14.00">Hash1</text>
<polyline fill="none" stroke="black" points="325,-315.5 325,-338.5 "/>
<text text-anchor="middle" x="351" y="-323.3" font-family="Times New Roman,serif" font-size="14.00">Hash2</text>
<polyline fill="none" stroke="black" points="377,-315.5 377,-338.5 "/>
<text text-anchor="middle" x="403" y="-323.3" font-family="Times New Roman,serif" font-size="14.00">Hash3</text>
</g>
<!-- Block3_Head&#45;&gt;Block3_Body -->
<g id="edge1" class="edge"><title>Block3_Head:r4:s&#45;&gt;Block3_Body:r0:n</title>
<path fill="none" stroke="black" stroke-dasharray="1,5" d="M324,-419.5C324,-419.5 294.105,-386.088 280.091,-370.426"/>
<polygon fill="black" stroke="black" points="275.608,-360.166 279.668,-369.952 270.392,-364.834 275.608,-360.166"/>
</g>
<!-- Block3_Head&#45;&gt;Block3_Body -->
<g id="edge2" class="edge"><title>Block3_Head:r4:s&#45;&gt;Block3_Body:r1:n</title>
<path fill="none" stroke="black" stroke-dasharray="1,5" d="M324,-419.5C324,-419.5 355.705,-385.402 370.071,-369.952"/>
<polygon fill="black" stroke="black" points="379.563,-364.883 370.191,-369.823 374.437,-360.117 379.563,-364.883"/>
</g>
<!-- Block2_Head -->
<g id="node8" class="node"><title>Block2_Head</title>
<polygon fill="none" stroke="black" points="798.5,-420.5 798.5,-466.5 1077.5,-466.5 1077.5,-420.5 798.5,-420.5"/>
<text text-anchor="middle" x="853" y="-451.3" font-family="Times New Roman,serif" font-size="14.00">Timestamp</text>
<polyline fill="none" stroke="black" points="907.5,-443.5 907.5,-466.5 "/>
<text text-anchor="middle" x="956.5" y="-451.3" font-family="Times New Roman,serif" font-size="14.00">Difficulty</text>
<polyline fill="none" stroke="black" points="1005.5,-443.5 1005.5,-466.5 "/>
<text text-anchor="middle" x="1041.5" y="-451.3" font-family="Times New Roman,serif" font-size="14.00">Link</text>
<polyline fill="none" stroke="black" points="798.5,-443.5 1077.5,-443.5 "/>
<text text-anchor="middle" x="825" y="-428.3" font-family="Times New Roman,serif" font-size="14.00">Nonce</text>
<polyline fill="none" stroke="black" points="851.5,-420.5 851.5,-443.5 "/>
<text text-anchor="middle" x="914" y="-428.3" font-family="Times New Roman,serif" font-size="14.00">Transactions_Root</text>
<polyline fill="none" stroke="black" points="976.5,-420.5 976.5,-443.5 "/>
<text text-anchor="middle" x="1027" y="-428.3" font-family="Times New Roman,serif" font-size="14.00">Previous_Hash</text>
</g>
<!-- Block3_Head&#45;&gt;Block2_Head -->
<g id="edge25" class="edge"><title>Block3_Head:r4:ne&#45;&gt;Block2_Head</title>
<path fill="none" stroke="black" d="M450,-455.5C450,-455.5 637.91,-450.87 780.282,-447.362"/>
<polygon fill="black" stroke="black" points="780.54,-450.856 790.451,-447.111 780.368,-443.859 780.54,-450.856"/>
</g>
<!-- Block3_Head&#45;&gt;Block2_Head -->
<g id="edge26" class="edge"><title>Block3_Head:r5:ne&#45;&gt;Block2_Head</title>
<path fill="none" stroke="black" stroke-dasharray="1,5" d="M450,-431.5C450,-431.5 637.91,-436.13 780.282,-439.638"/>
<polygon fill="black" stroke="black" points="790.365,-443.388 780.454,-439.643 790.537,-436.39 790.365,-443.388"/>
</g>
<!-- Transaction3_0 -->
<g id="node3" class="node"><title>Transaction3_0</title>
<polygon fill="none" stroke="black" points="32,-190.5 32,-258.5 116,-258.5 116,-190.5 32,-190.5"/>
<text text-anchor="middle" x="64" y="-243.3" font-family="Times New Roman,serif" font-size="14.00">Payee&#39;s</text>
<text text-anchor="middle" x="64" y="-228.3" font-family="Times New Roman,serif" font-size="14.00">Address</text>
<text text-anchor="middle" x="64" y="-213.3" font-family="Times New Roman,serif" font-size="14.00">(Bonus</text>
<text text-anchor="middle" x="64" y="-198.3" font-family="Times New Roman,serif" font-size="14.00">+Fees)</text>
<polyline fill="none" stroke="black" points="96,-190.5 96,-258.5 "/>
<text text-anchor="middle" x="106" y="-220.8" font-family="Times New Roman,serif" font-size="14.00"> </text>
</g>
<!-- Block3_Body&#45;&gt;Transaction3_0 -->
<g id="edge3" class="edge"><title>Block3_Body:r2:s&#45;&gt;Transaction3_0:n</title>
<path fill="none" stroke="black" stroke-dasharray="1,5" d="M247,-315C247,-315 125,-278 125,-278 125,-278 98.6533,-268.443 83.8333,-263.067"/>
<polygon fill="black" stroke="black" points="75.1935,-256.21 83.4006,-262.91 72.8065,-262.79 75.1935,-256.21"/>
</g>
<!-- Transaction3_1 -->
<g id="node4" class="node"><title>Transaction3_1</title>
<polygon fill="none" stroke="black" points="134,-171.5 134,-277.5 276,-277.5 276,-171.5 134,-171.5"/>
<text text-anchor="middle" x="166" y="-262.3" font-family="Times New Roman,serif" font-size="14.00">Payee&#39;s</text>
<text text-anchor="middle" x="166" y="-247.3" font-family="Times New Roman,serif" font-size="14.00">Address</text>
<text text-anchor="middle" x="166" y="-232.3" font-family="Times New Roman,serif" font-size="14.00">(8 BTC)</text>
<polyline fill="none" stroke="black" points="134,-224.5 198,-224.5 "/>
<text text-anchor="middle" x="166" y="-209.3" font-family="Times New Roman,serif" font-size="14.00">Payer&#39;s</text>
<text text-anchor="middle" x="166" y="-194.3" font-family="Times New Roman,serif" font-size="14.00">Address</text>
<text text-anchor="middle" x="166" y="-179.3" font-family="Times New Roman,serif" font-size="14.00">(2 BTC)</text>
<polyline fill="none" stroke="black" points="198,-171.5 198,-277.5 "/>
<text text-anchor="middle" x="237" y="-250.8" font-family="Times New Roman,serif" font-size="14.00">Owner 3&#39;s</text>
<text text-anchor="middle" x="237" y="-235.8" font-family="Times New Roman,serif" font-size="14.00">Public Key</text>
<text text-anchor="middle" x="237" y="-220.8" font-family="Times New Roman,serif" font-size="14.00">(Payer&#39;s</text>
<text text-anchor="middle" x="237" y="-205.8" font-family="Times New Roman,serif" font-size="14.00">Address)</text>
<text text-anchor="middle" x="237" y="-190.8" font-family="Times New Roman,serif" font-size="14.00">(10 BTC)</text>
</g>
<!-- Block3_Body&#45;&gt;Transaction3_1 -->
<g id="edge4" class="edge"><title>Block3_Body:r3:s&#45;&gt;Transaction3_1:n</title>
<path fill="none" stroke="black" stroke-dasharray="1,5" d="M299,-315C299,-315 238.133,-291.042 214.357,-281.683"/>
<polygon fill="black" stroke="black" points="206.282,-274.743 214.305,-281.663 203.718,-281.257 206.282,-274.743"/>
</g>
<!-- Transaction3_2 -->
<g id="node5" class="node"><title>Transaction3_2</title>
<polygon fill="none" stroke="black" points="347,-201.5 347,-247.5 467,-247.5 467,-201.5 347,-201.5"/>
<text text-anchor="middle" x="379.5" y="-232.3" font-family="Times New Roman,serif" font-size="14.00">[Output]</text>
<polyline fill="none" stroke="black" points="347,-224.5 412,-224.5 "/>
<text text-anchor="middle" x="379.5" y="-209.3" font-family="Times New Roman,serif" font-size="14.00">[Output]</text>
<polyline fill="none" stroke="black" points="412,-201.5 412,-247.5 "/>
<text text-anchor="middle" x="439.5" y="-220.8" font-family="Times New Roman,serif" font-size="14.00">[Input]</text>
</g>
<!-- Block3_Body&#45;&gt;Transaction3_2 -->
<g id="edge5" class="edge"><title>Block3_Body:r4:s&#45;&gt;Transaction3_2:n</title>
<path fill="none" stroke="black" stroke-dasharray="1,5" d="M351,-315C351,-315 385.522,-274.005 400.356,-256.39"/>
<polygon fill="black" stroke="black" points="409.677,-250.754 400.559,-256.149 404.323,-246.246 409.677,-250.754"/>
</g>
<!-- Transaction3_3 -->
<g id="node6" class="node"><title>Transaction3_3</title>
<polygon fill="none" stroke="black" points="485,-206.5 485,-242.5 577,-242.5 577,-206.5 485,-206.5"/>
<text text-anchor="middle" x="531" y="-220.8" font-family="Times New Roman,serif" font-size="14.00">[Transaction]</text>
</g>
<!-- Block3_Body&#45;&gt;Transaction3_3 -->
<g id="edge6" class="edge"><title>Block3_Body:r5:s&#45;&gt;Transaction3_3:n</title>
<path fill="none" stroke="black" stroke-dasharray="1,5" d="M403,-315C403,-315 476,-278 476,-278 476,-278 506.938,-258.594 522.406,-248.891"/>
<polygon fill="black" stroke="black" points="532.86,-246.465 522.529,-248.814 529.14,-240.535 532.86,-246.465"/>
</g>
<!-- Transaction3_1&#45;&gt;Transaction3_1 -->
<g id="edge8" class="edge"><title>Transaction3_1:r2:e&#45;&gt;Transaction3_1:r2:se</title>
<path fill="none" stroke="black" stroke-dasharray="1,5" d="M276,-224.5C282,-242.5 294,-242.5 294,-198 294,-163.234 286.676,-155.629 280.61,-162.549"/>
<polygon fill="black" stroke="black" points="277.467,-161.007 276,-171.5 283.691,-164.213 277.467,-161.007"/>
<text text-anchor="middle" x="311.5" y="-220.8" font-family="Times New Roman,serif" font-size="14.00">Verify</text>
</g>
<!-- Signature3 -->
<g id="node7" class="node"><title>Signature3</title>
<polygon fill="none" stroke="black" points="166,-77.5 166,-113.5 308,-113.5 308,-77.5 166,-77.5"/>
<text text-anchor="middle" x="237" y="-91.8" font-family="Times New Roman,serif" font-size="14.00">Owner 3&#39;s Private Key</text>
</g>
<!-- Transaction3_1&#45;&gt;Signature3 -->
<g id="edge7" class="edge"><title>Transaction3_1:r2:s&#45;&gt;Signature3:n</title>
<path fill="none" stroke="black" stroke-dasharray="1,5" d="M237,-160.488C237,-144.381 237,-114.5 237,-114.5"/>
<polygon fill="black" stroke="black" points="233.5,-160.5 237,-170.5 240.5,-160.5 233.5,-160.5"/>
<text text-anchor="middle" x="249.5" y="-135.8" font-family="Times New Roman,serif" font-size="14.00">Sign</text>
</g>
<!-- Transaction2_1 -->
<g id="node11" class="node"><title>Transaction2_1</title>
<polygon fill="none" stroke="black" points="727.5,-171.5 727.5,-277.5 876.5,-277.5 876.5,-171.5 727.5,-171.5"/>
<text text-anchor="middle" x="763" y="-262.3" font-family="Times New Roman,serif" font-size="14.00">Payee&#39;s</text>
<text text-anchor="middle" x="763" y="-247.3" font-family="Times New Roman,serif" font-size="14.00">Address</text>
<text text-anchor="middle" x="763" y="-232.3" font-family="Times New Roman,serif" font-size="14.00">(10 BTC)</text>
<polyline fill="none" stroke="black" points="727.5,-224.5 798.5,-224.5 "/>
<text text-anchor="middle" x="763" y="-209.3" font-family="Times New Roman,serif" font-size="14.00">Payer&#39;s</text>
<text text-anchor="middle" x="763" y="-194.3" font-family="Times New Roman,serif" font-size="14.00">Address</text>
<text text-anchor="middle" x="763" y="-179.3" font-family="Times New Roman,serif" font-size="14.00">(2 BTC)</text>
<polyline fill="none" stroke="black" points="798.5,-171.5 798.5,-277.5 "/>
<text text-anchor="middle" x="837.5" y="-250.8" font-family="Times New Roman,serif" font-size="14.00">Owner 2&#39;s</text>
<text text-anchor="middle" x="837.5" y="-235.8" font-family="Times New Roman,serif" font-size="14.00">Public Key</text>
<text text-anchor="middle" x="837.5" y="-220.8" font-family="Times New Roman,serif" font-size="14.00">(Payer&#39;s</text>
<text text-anchor="middle" x="837.5" y="-205.8" font-family="Times New Roman,serif" font-size="14.00">Address)</text>
<text text-anchor="middle" x="837.5" y="-190.8" font-family="Times New Roman,serif" font-size="14.00">(12 BTC)</text>
</g>
<!-- Transaction3_1&#45;&gt;Transaction2_1 -->
<g id="edge31" class="edge"><title>Transaction3_1:r2:ne&#45;&gt;Transaction2_1:r0:w</title>
<path fill="none" stroke="black" d="M285.872,-280.572C305.381,-285.656 347,-296.5 347,-296.5 347,-296.5 709,-296.5 709,-296.5 709,-296.5 718,-278 718,-278 718,-278 726,-251.5 726,-251.5"/>
<polygon fill="black" stroke="black" points="286.559,-277.135 276,-278 284.794,-283.908 286.559,-277.135"/>
</g>
<!-- Block2_Body -->
<g id="node9" class="node"><title>Block2_Body</title>
<polygon fill="none" stroke="black" points="811,-315.5 811,-361.5 1019,-361.5 1019,-315.5 811,-315.5"/>
<text text-anchor="middle" x="863" y="-346.3" font-family="Times New Roman,serif" font-size="14.00">Hash01</text>
<polyline fill="none" stroke="black" points="915,-338.5 915,-361.5 "/>
<text text-anchor="middle" x="967" y="-346.3" font-family="Times New Roman,serif" font-size="14.00">Hash23</text>
<polyline fill="none" stroke="black" points="811,-338.5 1019,-338.5 "/>
<text text-anchor="middle" x="837" y="-323.3" font-family="Times New Roman,serif" font-size="14.00">Hash0</text>
<polyline fill="none" stroke="black" points="863,-315.5 863,-338.5 "/>
<text text-anchor="middle" x="889" y="-323.3" font-family="Times New Roman,serif" font-size="14.00">Hash1</text>
<polyline fill="none" stroke="black" points="915,-315.5 915,-338.5 "/>
<text text-anchor="middle" x="941" y="-323.3" font-family="Times New Roman,serif" font-size="14.00">Hash2</text>
<polyline fill="none" stroke="black" points="967,-315.5 967,-338.5 "/>
<text text-anchor="middle" x="993" y="-323.3" font-family="Times New Roman,serif" font-size="14.00">Hash3</text>
</g>
<!-- Block2_Head&#45;&gt;Block2_Body -->
<g id="edge9" class="edge"><title>Block2_Head:r4:s&#45;&gt;Block2_Body:r0:n</title>
<path fill="none" stroke="black" stroke-dasharray="1,5" d="M914,-419.5C914,-419.5 884.105,-386.088 870.091,-370.426"/>
<polygon fill="black" stroke="black" points="865.608,-360.166 869.668,-369.952 860.392,-364.834 865.608,-360.166"/>
</g>
<!-- Block2_Head&#45;&gt;Block2_Body -->
<g id="edge10" class="edge"><title>Block2_Head:r4:s&#45;&gt;Block2_Body:r1:n</title>
<path fill="none" stroke="black" stroke-dasharray="1,5" d="M914,-419.5C914,-419.5 945.705,-385.402 960.071,-369.952"/>
<polygon fill="black" stroke="black" points="969.563,-364.883 960.191,-369.823 964.437,-360.117 969.563,-364.883"/>
</g>
<!-- Block1_Head -->
<g id="node15" class="node"><title>Block1_Head</title>
<polygon fill="none" stroke="black" points="1301.5,-420.5 1301.5,-466.5 1580.5,-466.5 1580.5,-420.5 1301.5,-420.5"/>
<text text-anchor="middle" x="1356" y="-451.3" font-family="Times New Roman,serif" font-size="14.00">Timestamp</text>
<polyline fill="none" stroke="black" points="1410.5,-443.5 1410.5,-466.5 "/>
<text text-anchor="middle" x="1459.5" y="-451.3" font-family="Times New Roman,serif" font-size="14.00">Difficulty</text>
<polyline fill="none" stroke="black" points="1508.5,-443.5 1508.5,-466.5 "/>
<text text-anchor="middle" x="1544.5" y="-451.3" font-family="Times New Roman,serif" font-size="14.00">Link</text>
<polyline fill="none" stroke="black" points="1301.5,-443.5 1580.5,-443.5 "/>
<text text-anchor="middle" x="1328" y="-428.3" font-family="Times New Roman,serif" font-size="14.00">Nonce</text>
<polyline fill="none" stroke="black" points="1354.5,-420.5 1354.5,-443.5 "/>
<text text-anchor="middle" x="1417" y="-428.3" font-family="Times New Roman,serif" font-size="14.00">Transactions_Root</text>
<polyline fill="none" stroke="black" points="1479.5,-420.5 1479.5,-443.5 "/>
<text text-anchor="middle" x="1530" y="-428.3" font-family="Times New Roman,serif" font-size="14.00">Previous_Hash</text>
</g>
<!-- Block2_Head&#45;&gt;Block1_Head -->
<g id="edge27" class="edge"><title>Block2_Head:r4:ne&#45;&gt;Block1_Head</title>
<path fill="none" stroke="black" d="M1040,-455.5C1040,-455.5 1171.17,-451.565 1283.29,-448.201"/>
<polygon fill="black" stroke="black" points="1283.49,-451.697 1293.38,-447.899 1283.28,-444.7 1283.49,-451.697"/>
</g>
<!-- Block2_Head&#45;&gt;Block1_Head -->
<g id="edge28" class="edge"><title>Block2_Head:r5:ne&#45;&gt;Block1_Head</title>
<path fill="none" stroke="black" stroke-dasharray="1,5" d="M1040,-431.5C1040,-431.5 1171.17,-435.435 1283.29,-438.799"/>
<polygon fill="black" stroke="black" points="1293.28,-442.6 1283.39,-438.801 1293.49,-435.603 1293.28,-442.6"/>
</g>
<!-- Transaction2_0 -->
<g id="node10" class="node"><title>Transaction2_0</title>
<polygon fill="none" stroke="black" points="625,-190.5 625,-258.5 709,-258.5 709,-190.5 625,-190.5"/>
<text text-anchor="middle" x="657" y="-243.3" font-family="Times New Roman,serif" font-size="14.00">Payee&#39;s</text>
<text text-anchor="middle" x="657" y="-228.3" font-family="Times New Roman,serif" font-size="14.00">Address</text>
<text text-anchor="middle" x="657" y="-213.3" font-family="Times New Roman,serif" font-size="14.00">(Bonus</text>
<text text-anchor="middle" x="657" y="-198.3" font-family="Times New Roman,serif" font-size="14.00">+Fees)</text>
<polyline fill="none" stroke="black" points="689,-190.5 689,-258.5 "/>
<text text-anchor="middle" x="699" y="-220.8" font-family="Times New Roman,serif" font-size="14.00"> </text>
</g>
<!-- Block2_Body&#45;&gt;Transaction2_0 -->
<g id="edge11" class="edge"><title>Block2_Body:r2:s&#45;&gt;Transaction2_0:n</title>
<path fill="none" stroke="black" stroke-dasharray="1,5" d="M837,-315C837,-315 718,-278 718,-278 718,-278 691.653,-268.443 676.833,-263.067"/>
<polygon fill="black" stroke="black" points="668.194,-256.21 676.401,-262.91 665.806,-262.79 668.194,-256.21"/>
</g>
<!-- Block2_Body&#45;&gt;Transaction2_1 -->
<g id="edge12" class="edge"><title>Block2_Body:r3:s&#45;&gt;Transaction2_1:n</title>
<path fill="none" stroke="black" stroke-dasharray="1,5" d="M889,-315C889,-315 833.754,-291.505 811.311,-281.96"/>
<polygon fill="black" stroke="black" points="803.37,-274.779 811.202,-281.914 800.63,-281.221 803.37,-274.779"/>
</g>
<!-- Transaction2_2 -->
<g id="node12" class="node"><title>Transaction2_2</title>
<polygon fill="none" stroke="black" points="948,-206.5 948,-242.5 1040,-242.5 1040,-206.5 948,-206.5"/>
<text text-anchor="middle" x="994" y="-220.8" font-family="Times New Roman,serif" font-size="14.00">[Transaction]</text>
</g>
<!-- Block2_Body&#45;&gt;Transaction2_2 -->
<g id="edge13" class="edge"><title>Block2_Body:r4:s&#45;&gt;Transaction2_2:n</title>
<path fill="none" stroke="black" stroke-dasharray="1,5" d="M941,-315C941,-315 973.999,-270.483 987.92,-251.702"/>
<polygon fill="black" stroke="black" points="996.812,-245.584 988.045,-251.534 991.188,-241.416 996.812,-245.584"/>
</g>
<!-- Transaction2_3 -->
<g id="node13" class="node"><title>Transaction2_3</title>
<polygon fill="none" stroke="black" points="1058,-206.5 1058,-242.5 1150,-242.5 1150,-206.5 1058,-206.5"/>
<text text-anchor="middle" x="1104" y="-220.8" font-family="Times New Roman,serif" font-size="14.00">[Transaction]</text>
</g>
<!-- Block2_Body&#45;&gt;Transaction2_3 -->
<g id="edge14" class="edge"><title>Block2_Body:r5:s&#45;&gt;Transaction2_3:n</title>
<path fill="none" stroke="black" stroke-dasharray="1,5" d="M993,-315C993,-315 1069.12,-265.966 1095.29,-249.11"/>
<polygon fill="black" stroke="black" points="1105.9,-246.442 1095.59,-248.915 1102.1,-240.558 1105.9,-246.442"/>
</g>
<!-- Transaction2_1&#45;&gt;Transaction2_1 -->
<g id="edge16" class="edge"><title>Transaction2_1:r2:e&#45;&gt;Transaction2_1:r2:se</title>
<path fill="none" stroke="black" stroke-dasharray="1,5" d="M877,-224.5C882.5,-242.5 894.5,-242.5 894.5,-198 894.5,-163.93 887.466,-155.944 881.7,-162.151"/>
<polygon fill="black" stroke="black" points="878.365,-160.993 877,-171.5 884.619,-164.138 878.365,-160.993"/>
<text text-anchor="middle" x="912" y="-220.8" font-family="Times New Roman,serif" font-size="14.00">Verify</text>
</g>
<!-- Signature2 -->
<g id="node14" class="node"><title>Signature2</title>
<polygon fill="none" stroke="black" points="767,-77.5 767,-113.5 909,-113.5 909,-77.5 767,-77.5"/>
<text text-anchor="middle" x="838" y="-91.8" font-family="Times New Roman,serif" font-size="14.00">Owner 2&#39;s Private Key</text>
</g>
<!-- Transaction2_1&#45;&gt;Signature2 -->
<g id="edge15" class="edge"><title>Transaction2_1:r2:s&#45;&gt;Signature2:n</title>
<path fill="none" stroke="black" stroke-dasharray="1,5" d="M838,-160.488C838,-144.381 838,-114.5 838,-114.5"/>
<polygon fill="black" stroke="black" points="834.5,-160.5 838,-170.5 841.5,-160.5 834.5,-160.5"/>
<text text-anchor="middle" x="850.5" y="-135.8" font-family="Times New Roman,serif" font-size="14.00">Sign</text>
</g>
<!-- Transaction1_2 -->
<g id="node19" class="node"><title>Transaction1_2</title>
<polygon fill="none" stroke="black" points="1402.5,-171.5 1402.5,-277.5 1551.5,-277.5 1551.5,-171.5 1402.5,-171.5"/>
<text text-anchor="middle" x="1438" y="-262.3" font-family="Times New Roman,serif" font-size="14.00">Payee&#39;s</text>
<text text-anchor="middle" x="1438" y="-247.3" font-family="Times New Roman,serif" font-size="14.00">Address</text>
<text text-anchor="middle" x="1438" y="-232.3" font-family="Times New Roman,serif" font-size="14.00">(13 BTC)</text>
<polyline fill="none" stroke="black" points="1402.5,-224.5 1473.5,-224.5 "/>
<text text-anchor="middle" x="1438" y="-209.3" font-family="Times New Roman,serif" font-size="14.00">Payer&#39;s</text>
<text text-anchor="middle" x="1438" y="-194.3" font-family="Times New Roman,serif" font-size="14.00">Address</text>
<text text-anchor="middle" x="1438" y="-179.3" font-family="Times New Roman,serif" font-size="14.00">(12 BTC)</text>
<polyline fill="none" stroke="black" points="1473.5,-171.5 1473.5,-277.5 "/>
<text text-anchor="middle" x="1512.5" y="-250.8" font-family="Times New Roman,serif" font-size="14.00">Owner 1&#39;s</text>
<text text-anchor="middle" x="1512.5" y="-235.8" font-family="Times New Roman,serif" font-size="14.00">Public Key</text>
<text text-anchor="middle" x="1512.5" y="-220.8" font-family="Times New Roman,serif" font-size="14.00">(Payer&#39;s</text>
<text text-anchor="middle" x="1512.5" y="-205.8" font-family="Times New Roman,serif" font-size="14.00">Address)</text>
<text text-anchor="middle" x="1512.5" y="-190.8" font-family="Times New Roman,serif" font-size="14.00">(25 BTC)</text>
</g>
<!-- Transaction2_1&#45;&gt;Transaction1_2 -->
<g id="edge32" class="edge"><title>Transaction2_1:r2:ne&#45;&gt;Transaction1_2:r1:w</title>
<path fill="none" stroke="black" d="M886.872,-280.572C906.381,-285.656 948,-296.5 948,-296.5 948,-296.5 1384,-296.5 1384,-296.5 1384,-296.5 1393,-278 1393,-278 1393,-278 1401,-197.5 1401,-197.5"/>
<polygon fill="black" stroke="black" points="887.559,-277.135 877,-278 885.794,-283.908 887.559,-277.135"/>
</g>
<!-- Block1_Body -->
<g id="node16" class="node"><title>Block1_Body</title>
<polygon fill="none" stroke="black" points="1314,-315.5 1314,-361.5 1522,-361.5 1522,-315.5 1314,-315.5"/>
<text text-anchor="middle" x="1366" y="-346.3" font-family="Times New Roman,serif" font-size="14.00">Hash01</text>
<polyline fill="none" stroke="black" points="1418,-338.5 1418,-361.5 "/>
<text text-anchor="middle" x="1470" y="-346.3" font-family="Times New Roman,serif" font-size="14.00">Hash23</text>
<polyline fill="none" stroke="black" points="1314,-338.5 1522,-338.5 "/>
<text text-anchor="middle" x="1340" y="-323.3" font-family="Times New Roman,serif" font-size="14.00">Hash0</text>
<polyline fill="none" stroke="black" points="1366,-315.5 1366,-338.5 "/>
<text text-anchor="middle" x="1392" y="-323.3" font-family="Times New Roman,serif" font-size="14.00">Hash1</text>
<polyline fill="none" stroke="black" points="1418,-315.5 1418,-338.5 "/>
<text text-anchor="middle" x="1444" y="-323.3" font-family="Times New Roman,serif" font-size="14.00">Hash2</text>
<polyline fill="none" stroke="black" points="1470,-315.5 1470,-338.5 "/>
<text text-anchor="middle" x="1496" y="-323.3" font-family="Times New Roman,serif" font-size="14.00">Hash3</text>
</g>
<!-- Block1_Head&#45;&gt;Block1_Body -->
<g id="edge17" class="edge"><title>Block1_Head:r4:s&#45;&gt;Block1_Body:r0:n</title>
<path fill="none" stroke="black" stroke-dasharray="1,5" d="M1417,-419.5C1417,-419.5 1387.1,-386.088 1373.09,-370.426"/>
<polygon fill="black" stroke="black" points="1368.61,-360.166 1372.67,-369.952 1363.39,-364.834 1368.61,-360.166"/>
</g>
<!-- Block1_Head&#45;&gt;Block1_Body -->
<g id="edge18" class="edge"><title>Block1_Head:r4:s&#45;&gt;Block1_Body:r1:n</title>
<path fill="none" stroke="black" stroke-dasharray="1,5" d="M1417,-419.5C1417,-419.5 1448.7,-385.402 1463.07,-369.952"/>
<polygon fill="black" stroke="black" points="1472.56,-364.883 1463.19,-369.823 1467.44,-360.117 1472.56,-364.883"/>
</g>
<!-- Block0_Head -->
<!-- Block1_Head&#45;&gt;Block0_Head -->
<g id="edge29" class="edge"><title>Block1_Head:r4:ne&#45;&gt;Block0_Head</title>
<path fill="none" stroke="black" d="M1543,-455.5C1543,-455.5 1657.81,-449.807 1729.27,-446.263"/>
<polygon fill="black" stroke="black" points="1729.67,-449.748 1739.48,-445.757 1729.32,-442.757 1729.67,-449.748"/>
</g>
<!-- Block1_Head&#45;&gt;Block0_Head -->
<g id="edge30" class="edge"><title>Block1_Head:r5:ne&#45;&gt;Block0_Head</title>
<path fill="none" stroke="black" stroke-dasharray="1,5" d="M1543,-431.5C1543,-431.5 1657.81,-437.193 1729.27,-440.737"/>
<polygon fill="black" stroke="black" points="1739.31,-444.739 1729.49,-440.748 1739.66,-437.747 1739.31,-444.739"/>
</g>
<!-- Transaction1_0 -->
<g id="node17" class="node"><title>Transaction1_0</title>
<polygon fill="none" stroke="black" points="1190,-190.5 1190,-258.5 1274,-258.5 1274,-190.5 1190,-190.5"/>
<text text-anchor="middle" x="1222" y="-243.3" font-family="Times New Roman,serif" font-size="14.00">Payee&#39;s</text>
<text text-anchor="middle" x="1222" y="-228.3" font-family="Times New Roman,serif" font-size="14.00">Address</text>
<text text-anchor="middle" x="1222" y="-213.3" font-family="Times New Roman,serif" font-size="14.00">(Bonus</text>
<text text-anchor="middle" x="1222" y="-198.3" font-family="Times New Roman,serif" font-size="14.00">+Fees)</text>
<polyline fill="none" stroke="black" points="1254,-190.5 1254,-258.5 "/>
<text text-anchor="middle" x="1264" y="-220.8" font-family="Times New Roman,serif" font-size="14.00"> </text>
</g>
<!-- Block1_Body&#45;&gt;Transaction1_0 -->
<g id="edge19" class="edge"><title>Block1_Body:r2:s&#45;&gt;Transaction1_0:n</title>
<path fill="none" stroke="black" stroke-dasharray="1,5" d="M1340,-315C1340,-315 1267.33,-277.653 1241.21,-264.232"/>
<polygon fill="black" stroke="black" points="1233.6,-256.387 1240.89,-264.071 1230.4,-262.613 1233.6,-256.387"/>
</g>
<!-- Transaction1_1 -->
<g id="node18" class="node"><title>Transaction1_1</title>
<polygon fill="none" stroke="black" points="1292,-206.5 1292,-242.5 1384,-242.5 1384,-206.5 1292,-206.5"/>
<text text-anchor="middle" x="1338" y="-220.8" font-family="Times New Roman,serif" font-size="14.00">[Transaction]</text>
</g>
<!-- Block1_Body&#45;&gt;Transaction1_1 -->
<g id="edge20" class="edge"><title>Block1_Body:r3:s&#45;&gt;Transaction1_1:n</title>
<path fill="none" stroke="black" stroke-dasharray="1,5" d="M1392,-315C1392,-315 1358.38,-270.483 1344.19,-251.702"/>
<polygon fill="black" stroke="black" points="1340.79,-241.391 1344.03,-251.48 1335.21,-245.609 1340.79,-241.391"/>
</g>
<!-- Block1_Body&#45;&gt;Transaction1_2 -->
<g id="edge21" class="edge"><title>Block1_Body:r4:s&#45;&gt;Transaction1_2:n</title>
<path fill="none" stroke="black" stroke-dasharray="1,5" d="M1444,-315C1444,-315 1460.68,-296.299 1470.32,-285.488"/>
<polygon fill="black" stroke="black" points="1479.61,-280.33 1470.34,-285.463 1474.39,-275.67 1479.61,-280.33"/>
</g>
<!-- Transaction1_3 -->
<g id="node20" class="node"><title>Transaction1_3</title>
<polygon fill="none" stroke="black" points="1623,-206.5 1623,-242.5 1715,-242.5 1715,-206.5 1623,-206.5"/>
<text text-anchor="middle" x="1669" y="-220.8" font-family="Times New Roman,serif" font-size="14.00">[Transaction]</text>
</g>
<!-- Block1_Body&#45;&gt;Transaction1_3 -->
<g id="edge22" class="edge"><title>Block1_Body:r5:s&#45;&gt;Transaction1_3:n</title>
<path fill="none" stroke="black" stroke-dasharray="1,5" d="M1496,-315C1496,-315 1614,-278 1614,-278 1614,-278 1644.94,-258.594 1660.41,-248.891"/>
<polygon fill="black" stroke="black" points="1670.86,-246.465 1660.53,-248.814 1667.14,-240.535 1670.86,-246.465"/>
</g>
<!-- Transaction1_2&#45;&gt;Transaction1_2 -->
<g id="edge24" class="edge"><title>Transaction1_2:r2:e&#45;&gt;Transaction1_2:r2:se</title>
<path fill="none" stroke="black" stroke-dasharray="1,5" d="M1552,-224.5C1557.5,-242.5 1569.5,-242.5 1569.5,-198 1569.5,-163.93 1562.47,-155.944 1556.7,-162.151"/>
<polygon fill="black" stroke="black" points="1553.36,-160.993 1552,-171.5 1559.62,-164.138 1553.36,-160.993"/>
<text text-anchor="middle" x="1587" y="-220.8" font-family="Times New Roman,serif" font-size="14.00">Verify</text>
</g>
<!-- Signature1 -->
<g id="node21" class="node"><title>Signature1</title>
<polygon fill="none" stroke="black" points="1442,-77.5 1442,-113.5 1584,-113.5 1584,-77.5 1442,-77.5"/>
<text text-anchor="middle" x="1513" y="-91.8" font-family="Times New Roman,serif" font-size="14.00">Owner 1&#39;s Private Key</text>
</g>
<!-- Transaction1_2&#45;&gt;Signature1 -->
<g id="edge23" class="edge"><title>Transaction1_2:r2:s&#45;&gt;Signature1:n</title>
<path fill="none" stroke="black" stroke-dasharray="1,5" d="M1513,-160.488C1513,-144.381 1513,-114.5 1513,-114.5"/>
<polygon fill="black" stroke="black" points="1509.5,-160.5 1513,-170.5 1516.5,-160.5 1509.5,-160.5"/>
<text text-anchor="middle" x="1525.5" y="-135.8" font-family="Times New Roman,serif" font-size="14.00">Sign</text>
</g>
<!-- Block0_Transaction -->
<!-- Transaction1_2&#45;&gt;Block0_Transaction -->
<g id="edge33" class="edge"><title>Transaction1_2:r2:ne&#45;&gt;Block0_Transaction:w</title>
<path fill="none" stroke="black" d="M1561.87,-280.572C1581.38,-285.656 1623,-296.5 1623,-296.5 1623,-296.5 1718,-296.5 1718,-296.5 1718,-296.5 1727,-278 1727,-278 1727,-278 1738,-224.5 1738,-224.5"/>
<polygon fill="black" stroke="black" points="1562.56,-277.135 1552,-278 1560.79,-283.908 1562.56,-277.135"/>
</g>
</g>
</svg>
