<?xml version="1.0" standalone="no"?><!DOCTYPE svg PUBLIC "-//W3C//DTD SVG 1.1//EN" "http://www.w3.org/Graphics/SVG/1.1/DTD/svg11.dtd"><svg t="1750327059530" class="icon" viewBox="0 0 1024 1024" version="1.1" xmlns="http://www.w3.org/2000/svg" p-id="10277" xmlns:xlink="http://www.w3.org/1999/xlink" width="200" height="200"><path d="M512.00307 128.235616c-211.946157 0-383.767454 171.821297-383.767454 383.762337 0 211.95332 171.820274 383.765407 383.767454 383.765407s383.760291-171.812087 383.76029-383.765407c0-211.940017-171.814134-383.762337-383.76029-383.762337z m-0.00307 703.564967c-176.620603 0-319.803653-143.184073-319.803653-319.80263 0-176.615487 143.182027-319.80263 319.803653-319.802629 176.623673 0 319.79956 143.187143 319.79956 319.802629 0 176.618557-143.175887 319.80263-319.79956 319.80263z" p-id="10278"></path><path d="M480.019635 639.924531h63.96073v63.950498h-63.96073zM480.019635 320.117808h63.96073v255.831666h-63.96073z" p-id="10279"></path></svg>