
<svg id="line" viewBox="0 0 1024 1024" xmlns="http://www.w3.org/2000/svg">
    <path fill="#00C300" d="M542.05615344 931.31271688h-60.88981969c-214.34399344 0-389.71635188-175.37235844-389.71635188-389.71635188v-60.88981969c0-214.34399344 175.37235844-389.71635188 389.71635188-389.71635187h60.88981969c214.34399344 0 389.71635188 175.37235844 389.71635187 389.71635187v60.88981969C931.77154531 755.94035844 756.39918688 931.31271688 542.05615344 931.31271688z"/>
    <path fill="#FFFFFF" d="M750.69838531 485.07405594c0-107.72105531-108.04933875-195.43027219-240.83990531-195.43027219s-240.83990625 87.68713875-240.83990625 195.43027219c0 96.62085844 85.67328469 177.56475281 201.4296 192.84720093 7.8384825 1.68557156 18.50096812 5.16710156 21.19346625 11.86715063 2.45252531 6.08667844 1.59822094 15.61073156 0.78807188 21.78476062l-3.43737469 20.62425c-1.05108187 6.13083375-4.81674094 23.82165188 20.86518281 12.98350594 25.70400094-10.81606875 138.6795075-81.66669375 189.21208781-139.81794094 34.89977156-38.31506906 51.6268575-77.15615813 51.62685844-120.31004531V485.07405594zM657.71264 476.09714094c6.97073906 0.29084719 12.3864525 6.17690812 12.09656531 13.14764718-0.27356906 6.563745-5.53186031 11.82299625-12.09656531 12.09656532h-35.25013219v22.55171437h35.25013219c6.98321812 0.29084719 12.40853062 6.18746719 12.11768344 13.16972531-0.27356906 6.57622312-5.54241938 11.84411344-12.11768344 12.1176825h-47.86119937c-6.97169906-0.01247906-12.62066625-5.66144625-12.63314532-12.63314531V440.86908687c0-7.00625531 5.6921625-12.6552225 12.63314532-12.6552225h47.86119937c6.97073906 0.50298375 12.21463219 6.561825 11.71068844 13.53352407-0.45306937 6.27097781-5.44067063 11.25857906-11.71068844 11.71068843h-35.25013219v22.61698688h35.25013219V476.09714094zM580.27139375 536.56940844c0.02399719 6.95250094-5.59233375 12.60914812-12.54579469 12.63314531-0.03647625 0-0.07295156 0-0.10942781 0-3.95859656-0.01727812-7.68297938-1.87946906-10.07119219-5.03559656l-49.04378719-66.77876063v59.18121188c0 6.97745813-5.65568625 12.63314531-12.63314531 12.63314531-6.97745813 0-12.63314531-5.65568625-12.63314531-12.63314531l0 0v-95.67920438c0-6.97745813 5.65568625-12.63314531 12.63314531-12.63314531 3.96915562 0 7.70697656 1.86507094 10.09326938 5.03559656l49.04378718 66.77876063v-59.18121188c0.41083406-6.97745813 6.40056281-12.30006281 13.37706188-11.88922781 6.40344281 0.37723781 11.51199094 5.48578594 11.88922875 11.88922781L580.27139375 536.56940844zM465.10637188 536.56940844c0 6.97745813-5.65568625 12.63314531-12.63314532 12.63314531-6.97745813 0-12.63314531-5.65568625-12.63314437-12.63314531l0 0v-95.67920438c0.29084719-6.97073906 6.17690812-12.3864525 13.14764719-12.09656531 6.563745 0.27356906 11.82299625 5.53186031 12.09656531 12.09656531v95.67920438H465.10637188zM415.58071906 549.20255375h-47.86119937c-6.96881906-0.01247906-12.61106719-5.66432531-12.61106813-12.63314531v-95.67920438c0.29084719-6.97073906 6.17690812-12.3864525 13.14764813-12.09656531 6.563745 0.27356906 11.82299625 5.53186031 12.09656437 12.09656531v83.02398188h35.25013219c6.98321812 0 12.64370344 5.66144625 12.64370437 12.64370344 0 6.98321812-5.66048625 12.64370344-12.64370437 12.64370437H415.58071906z"/>
</svg>