<?xml version="1.0" encoding="UTF-8" standalone="no"?>
<svg
   xmlns:dc="http://purl.org/dc/elements/1.1/"
   xmlns:cc="http://creativecommons.org/ns#"
   xmlns:rdf="http://www.w3.org/1999/02/22-rdf-syntax-ns#"
   xmlns:svg="http://www.w3.org/2000/svg"
   xmlns="http://www.w3.org/2000/svg"
   viewBox="0 0 377.33334 318.66666"
   height="318.66666"
   width="377.33334"
   xml:space="preserve"
   id="svg2"
   version="1.1"><metadata
     id="metadata8"><rdf:RDF><cc:Work
         rdf:about=""><dc:format>image/svg+xml</dc:format><dc:type
           rdf:resource="http://purl.org/dc/dcmitype/StillImage" /><dc:title></dc:title></cc:Work></rdf:RDF></metadata><defs
     id="defs6"><clipPath
       id="clipPath18"
       clipPathUnits="userSpaceOnUse"><path
         id="path16"
         d="M 0,0 H 453 V 453 H 0 Z" /></clipPath><clipPath
       id="clipPath30"
       clipPathUnits="userSpaceOnUse"><path
         id="path28"
         d="M 0,0 V 453 H 453 V 0 Z" /></clipPath><clipPath
       id="clipPath40"
       clipPathUnits="userSpaceOnUse"><path
         id="path38"
         d="M 0,0 H 600 V 600 H 0 Z" /></clipPath></defs><g
     transform="matrix(1.2156,0,0,1.2156,-64.000001,-98.666649)"
     id="g10"><g
       id="g12"><g
         clip-path="url(#clipPath18)"
         id="g14"><g
           id="g20"><g
             id="g22" /></g><g
           id="g24"><g
             clip-path="url(#clipPath30)"
             id="g26"><g
               transform="scale(0.75591)"
               id="g32" /></g></g><g
           transform="scale(0.75591)"
           id="g34"><g
             clip-path="url(#clipPath40)"
             id="g36"><path
               id="path42"
               style="fill:#ffffff;fill-opacity:1;fill-rule:nonzero;stroke:none"
               d="M 0,0 H 600 V 600 H 0 Z" /><path
               id="path44"
               style="fill:none;stroke:#000000;stroke-width:1;stroke-linecap:round;stroke-linejoin:round;stroke-miterlimit:10;stroke-dasharray:none;stroke-opacity:1"
               d="m 375,300 c 0,82.84 -67.16,150 -150,150 -82.84,0 -150,-67.16 -150,-150 0,-82.84 67.16,-150 150,-150 82.84,0 150,67.16 150,150 z" /><path
               id="path46"
               style="fill:#006400;fill-opacity:0.09803898;fill-rule:nonzero;stroke:none"
               d="m 255,300 c 0,-9.44 -4.45,-18.33 -12,-24 l -18,24 z" /><path
               id="path48"
               style="fill:none;stroke:#006400;stroke-width:1;stroke-linecap:round;stroke-linejoin:round;stroke-miterlimit:10;stroke-dasharray:none;stroke-opacity:1"
               d="m 255,300 c 0,-9.44 -4.45,-18.33 -12,-24 l -18,24 z" /><path
               id="path50"
               style="fill:#006400;fill-opacity:1;fill-rule:nonzero;stroke:none"
               d="m 237.81,290.56 c 0,-4.45 1.4,-6.67 4.21,-6.67 2.8,0 4.2,2.22 4.2,6.67 0,4.44 -1.4,6.66 -4.2,6.66 -2.81,0 -4.21,-2.22 -4.21,-6.66 z m 1.63,-0.64 h 5.14 c -0.06,-1.83 -0.33,-3.08 -0.8,-3.73 -0.47,-0.66 -1.06,-0.99 -1.78,-0.99 -1.64,0 -2.49,1.58 -2.56,4.72 z m 5.14,1.27 h -5.14 c 0.07,3.14 0.93,4.72 2.58,4.72 1.64,0 2.5,-1.58 2.56,-4.72 z" /><path
               id="path52"
               style="fill:none;stroke:#000000;stroke-width:1;stroke-linecap:round;stroke-linejoin:round;stroke-miterlimit:10;stroke-dasharray:none;stroke-opacity:1"
               d="m 225,300 h 90" /><path
               id="path54"
               style="fill:#000000;fill-opacity:1;fill-rule:nonzero;stroke:none"
               d="m 264.28,303.58 1.55,0.2 c -0.17,1.07 -0.6,1.92 -1.3,2.52 -0.7,0.61 -1.56,0.92 -2.58,0.92 -1.28,0 -2.31,-0.42 -3.08,-1.26 -0.78,-0.84 -1.17,-2.03 -1.17,-3.58 0,-1.02 0.17,-1.9 0.5,-2.65 0.34,-0.76 0.84,-1.33 1.53,-1.71 0.68,-0.38 1.42,-0.57 2.22,-0.57 1.02,0 1.85,0.26 2.5,0.78 0.64,0.51 1.05,1.24 1.24,2.18 l -1.55,0.23 c -0.15,-0.62 -0.4,-1.1 -0.77,-1.41 -0.37,-0.32 -0.82,-0.48 -1.35,-0.48 -0.8,0 -1.44,0.29 -1.94,0.86 -0.5,0.57 -0.75,1.48 -0.75,2.72 0,1.25 0.24,2.16 0.72,2.72 0.48,0.57 1.11,0.86 1.89,0.86 0.61,0 1.13,-0.19 1.54,-0.57 0.42,-0.38 0.69,-0.97 0.8,-1.76 z m 2.31,-1.25 c 0,-1.73 0.49,-3.01 1.46,-3.85 0.8,-0.68 1.77,-1.03 2.92,-1.03 1.29,0 2.34,0.43 3.15,1.27 0.82,0.84 1.22,2 1.22,3.48 0,1.2 -0.18,2.14 -0.54,2.83 -0.35,0.69 -0.88,1.23 -1.57,1.61 -0.68,0.39 -1.44,0.58 -2.26,0.58 -1.3,0 -2.36,-0.42 -3.17,-1.26 -0.8,-0.84 -1.21,-2.05 -1.21,-3.63 z m 1.63,0 c 0,1.2 0.26,2.09 0.78,2.69 0.52,0.59 1.18,0.89 1.97,0.89 0.79,0 1.45,-0.3 1.97,-0.9 0.52,-0.6 0.78,-1.51 0.78,-2.73 0,-1.16 -0.26,-2.03 -0.79,-2.62 -0.53,-0.6 -1.18,-0.89 -1.96,-0.89 -0.79,0 -1.45,0.29 -1.97,0.89 -0.52,0.59 -0.78,1.48 -0.78,2.67 z m 8.34,1.89 1.58,-0.25 c 0.08,0.62 0.32,1.1 0.72,1.44 0.4,0.33 0.96,0.5 1.68,0.5 0.73,0 1.27,-0.15 1.63,-0.45 0.35,-0.3 0.53,-0.64 0.53,-1.04 0,-0.35 -0.16,-0.63 -0.47,-0.84 -0.22,-0.14 -0.76,-0.31 -1.63,-0.53 -1.15,-0.29 -1.95,-0.55 -2.4,-0.76 -0.45,-0.21 -0.79,-0.51 -1.03,-0.89 -0.23,-0.38 -0.35,-0.8 -0.35,-1.26 0,-0.42 0.1,-0.8 0.29,-1.16 0.2,-0.35 0.45,-0.64 0.78,-0.87 0.25,-0.19 0.58,-0.34 1.01,-0.47 0.43,-0.12 0.88,-0.19 1.36,-0.19 0.74,0 1.39,0.11 1.94,0.32 0.55,0.22 0.96,0.5 1.22,0.86 0.27,0.36 0.45,0.84 0.54,1.45 l -1.54,0.2 c -0.08,-0.48 -0.28,-0.85 -0.61,-1.12 -0.34,-0.27 -0.81,-0.41 -1.42,-0.41 -0.73,0 -1.25,0.12 -1.57,0.36 -0.31,0.24 -0.47,0.52 -0.47,0.84 0,0.21 0.07,0.4 0.21,0.57 0.12,0.16 0.32,0.3 0.59,0.42 0.17,0.05 0.64,0.18 1.41,0.4 1.11,0.3 1.89,0.54 2.33,0.73 0.45,0.19 0.8,0.47 1.05,0.84 0.26,0.36 0.38,0.81 0.38,1.34 0,0.53 -0.15,1.03 -0.46,1.5 -0.3,0.47 -0.75,0.83 -1.33,1.09 -0.59,0.25 -1.24,0.38 -1.97,0.38 -1.22,0 -2.15,-0.25 -2.78,-0.76 -0.64,-0.5 -1.05,-1.25 -1.22,-2.24 z m 14.26,-3.66 c 0,-4.45 1.41,-6.67 4.21,-6.67 2.8,0 4.2,2.22 4.2,6.67 0,4.44 -1.4,6.66 -4.2,6.66 -2.8,0 -4.21,-2.22 -4.21,-6.66 z m 1.63,-0.64 h 5.14 c -0.06,-1.83 -0.33,-3.08 -0.8,-3.73 -0.47,-0.66 -1.06,-0.99 -1.78,-0.99 -1.63,0 -2.49,1.58 -2.56,4.72 z m 5.14,1.27 h -5.14 c 0.07,3.14 0.93,4.72 2.58,4.72 1.64,0 2.5,-1.58 2.56,-4.72 z" /><path
               id="path56"
               style="fill:none;stroke:#000000;stroke-width:1;stroke-linecap:round;stroke-linejoin:round;stroke-miterlimit:10;stroke-dasharray:none;stroke-opacity:1"
               d="M 225,300 315,180" /><path
               id="path58"
               style="fill:none;stroke:#000000;stroke-width:1;stroke-linecap:round;stroke-linejoin:round;stroke-miterlimit:10;stroke-dasharray:none;stroke-opacity:1"
               d="M 315,300 V 180" /><path
               id="path60"
               style="fill:#000000;fill-opacity:1;fill-rule:nonzero;stroke:none"
               d="m 304.55,244.22 1.57,-0.25 c 0.09,0.62 0.33,1.1 0.73,1.44 0.4,0.33 0.96,0.5 1.68,0.5 0.73,0 1.27,-0.15 1.63,-0.45 0.35,-0.3 0.53,-0.64 0.53,-1.04 0,-0.35 -0.16,-0.63 -0.47,-0.84 -0.22,-0.14 -0.76,-0.31 -1.63,-0.53 -1.15,-0.29 -1.95,-0.55 -2.4,-0.76 -0.45,-0.21 -0.79,-0.51 -1.03,-0.89 -0.23,-0.38 -0.35,-0.8 -0.35,-1.26 0,-0.42 0.1,-0.8 0.29,-1.16 0.19,-0.35 0.45,-0.64 0.78,-0.87 0.24,-0.19 0.58,-0.34 1.01,-0.47 0.43,-0.12 0.88,-0.19 1.36,-0.19 0.74,0 1.39,0.11 1.94,0.32 0.55,0.22 0.96,0.5 1.22,0.86 0.27,0.36 0.45,0.84 0.54,1.45 l -1.54,0.2 c -0.08,-0.48 -0.28,-0.85 -0.61,-1.12 -0.34,-0.27 -0.81,-0.41 -1.42,-0.41 -0.73,0 -1.26,0.12 -1.57,0.36 -0.31,0.24 -0.47,0.52 -0.47,0.84 0,0.21 0.07,0.4 0.21,0.57 0.12,0.16 0.32,0.3 0.59,0.42 0.17,0.05 0.64,0.18 1.41,0.4 1.11,0.3 1.89,0.54 2.33,0.73 0.45,0.19 0.79,0.47 1.05,0.84 0.25,0.36 0.38,0.81 0.38,1.34 0,0.53 -0.15,1.03 -0.46,1.5 -0.31,0.47 -0.75,0.83 -1.33,1.09 -0.59,0.25 -1.24,0.38 -1.97,0.38 -1.22,0 -2.15,-0.25 -2.78,-0.76 -0.64,-0.5 -1.05,-1.25 -1.22,-2.24 z m 9.65,-8.28 v -1.83 h 1.58 v 1.83 z m 0,11.06 v -9.33 h 1.58 V 247 Z m 3.99,0 v -9.33 h 1.42 V 239 c 0.69,-1.03 1.68,-1.55 2.97,-1.55 0.56,0 1.08,0.1 1.55,0.31 0.48,0.2 0.83,0.47 1.06,0.79 0.24,0.33 0.4,0.72 0.5,1.17 0.05,0.29 0.07,0.81 0.07,1.55 V 247 h -1.57 v -5.67 c 0,-0.65 -0.06,-1.13 -0.18,-1.45 -0.12,-0.33 -0.34,-0.58 -0.66,-0.77 -0.32,-0.19 -0.68,-0.28 -1.1,-0.28 -0.68,0 -1.26,0.21 -1.75,0.64 -0.49,0.43 -0.74,1.24 -0.74,2.44 V 247 Z m 14.63,-6.44 c 0,-4.45 1.4,-6.67 4.21,-6.67 2.8,0 4.2,2.22 4.2,6.67 0,4.44 -1.4,6.66 -4.2,6.66 -2.81,0 -4.21,-2.22 -4.21,-6.66 z m 1.63,-0.64 h 5.14 c -0.06,-1.83 -0.33,-3.08 -0.8,-3.73 -0.47,-0.66 -1.06,-0.99 -1.78,-0.99 -1.63,0 -2.49,1.58 -2.56,4.72 z m 5.14,1.27 h -5.14 c 0.07,3.14 0.93,4.72 2.58,4.72 1.64,0 2.5,-1.58 2.56,-4.72 z" /><path
               id="path62"
               style="fill:none;stroke:#000000;stroke-width:1;stroke-linecap:round;stroke-linejoin:round;stroke-miterlimit:10;stroke-dasharray:none;stroke-opacity:1"
               d="M 315,180 475,300" /><path
               id="path64"
               style="fill:#000000;fill-opacity:1;fill-rule:nonzero;stroke:none"
               d="m 410.64,245.58 0.24,1.4 c -0.45,0.1 -0.85,0.14 -1.21,0.14 -0.57,0 -1.02,-0.09 -1.33,-0.27 -0.32,-0.18 -0.54,-0.42 -0.67,-0.72 -0.12,-0.29 -0.19,-0.92 -0.19,-1.86 v -5.38 h -1.17 v -1.22 h 1.17 v -2.31 l 1.57,-0.95 v 3.26 h 1.59 v 1.22 h -1.59 v 5.47 c 0,0.45 0.03,0.74 0.08,0.87 0.06,0.13 0.15,0.23 0.28,0.3 0.12,0.07 0.3,0.11 0.54,0.11 0.17,0 0.4,-0.02 0.69,-0.06 z m 7.64,0.26 c -0.58,0.5 -1.15,0.86 -1.69,1.07 -0.55,0.2 -1.13,0.31 -1.75,0.31 -1.03,0 -1.82,-0.25 -2.36,-0.76 -0.55,-0.5 -0.82,-1.15 -0.82,-1.93 0,-0.45 0.1,-0.86 0.31,-1.24 0.21,-0.38 0.48,-0.69 0.81,-0.91 0.34,-0.23 0.72,-0.41 1.14,-0.52 0.32,-0.08 0.78,-0.16 1.41,-0.24 1.27,-0.15 2.21,-0.33 2.81,-0.54 0.01,-0.22 0.02,-0.36 0.02,-0.42 0,-0.64 -0.15,-1.09 -0.46,-1.36 -0.4,-0.36 -1,-0.53 -1.79,-0.53 -0.75,0 -1.3,0.13 -1.66,0.39 -0.35,0.26 -0.61,0.72 -0.78,1.39 l -1.55,-0.22 c 0.15,-0.67 0.38,-1.21 0.7,-1.61 0.32,-0.41 0.78,-0.72 1.39,-0.94 0.61,-0.22 1.32,-0.33 2.13,-0.33 0.79,0 1.44,0.1 1.94,0.28 0.5,0.19 0.87,0.43 1.1,0.72 0.24,0.28 0.4,0.64 0.49,1.07 0.05,0.27 0.08,0.76 0.08,1.46 v 2.11 c 0,1.47 0.03,2.4 0.1,2.79 0.07,0.39 0.2,0.77 0.4,1.12 h -1.66 c -0.16,-0.33 -0.27,-0.72 -0.31,-1.16 z m -0.14,-3.53 c -0.57,0.24 -1.43,0.44 -2.58,0.6 -0.64,0.09 -1.1,0.2 -1.37,0.32 -0.27,0.12 -0.48,0.29 -0.63,0.51 -0.14,0.23 -0.22,0.48 -0.22,0.76 0,0.42 0.16,0.77 0.48,1.05 0.32,0.28 0.79,0.42 1.4,0.42 0.61,0 1.16,-0.13 1.63,-0.4 0.48,-0.27 0.82,-0.63 1.04,-1.09 0.17,-0.36 0.25,-0.89 0.25,-1.59 z m 4.06,4.69 v -9.33 h 1.42 V 239 c 0.69,-1.03 1.68,-1.55 2.97,-1.55 0.56,0 1.08,0.1 1.55,0.31 0.48,0.2 0.83,0.47 1.07,0.79 0.23,0.33 0.4,0.72 0.49,1.17 0.05,0.29 0.08,0.81 0.08,1.55 V 247 h -1.58 v -5.67 c 0,-0.65 -0.06,-1.13 -0.18,-1.45 -0.12,-0.33 -0.34,-0.58 -0.66,-0.77 -0.31,-0.19 -0.68,-0.28 -1.1,-0.28 -0.68,0 -1.26,0.21 -1.75,0.64 -0.49,0.43 -0.73,1.24 -0.73,2.44 V 247 Z m 14.64,-6.44 c 0,-4.45 1.4,-6.67 4.2,-6.67 2.8,0 4.2,2.22 4.2,6.67 0,4.44 -1.4,6.66 -4.2,6.66 -2.8,0 -4.2,-2.22 -4.2,-6.66 z m 1.62,-0.64 h 5.14 c -0.06,-1.83 -0.33,-3.08 -0.8,-3.73 -0.46,-0.66 -1.06,-0.99 -1.78,-0.99 -1.63,0 -2.49,1.58 -2.56,4.72 z m 5.14,1.27 h -5.14 c 0.07,3.14 0.93,4.72 2.58,4.72 1.64,0 2.5,-1.58 2.56,-4.72 z" /><path
               id="path66"
               style="fill:none;stroke:#000000;stroke-width:1;stroke-linecap:round;stroke-linejoin:round;stroke-miterlimit:10;stroke-dasharray:none;stroke-opacity:1"
               d="M 315,180 225,112.5" /><path
               id="path68"
               style="fill:#000000;fill-opacity:1;fill-rule:nonzero;stroke:none"
               d="m 276.28,141.58 1.55,0.2 c -0.17,1.07 -0.6,1.92 -1.3,2.52 -0.7,0.61 -1.56,0.92 -2.58,0.92 -1.28,0 -2.31,-0.42 -3.08,-1.26 -0.78,-0.84 -1.17,-2.03 -1.17,-3.58 0,-1.02 0.17,-1.9 0.5,-2.65 0.34,-0.76 0.84,-1.33 1.53,-1.71 0.68,-0.38 1.42,-0.57 2.22,-0.57 1.02,0 1.85,0.26 2.5,0.78 0.64,0.51 1.05,1.24 1.24,2.18 l -1.55,0.23 c -0.15,-0.62 -0.4,-1.1 -0.77,-1.41 -0.37,-0.32 -0.82,-0.48 -1.35,-0.48 -0.8,0 -1.44,0.29 -1.94,0.86 -0.5,0.57 -0.75,1.48 -0.75,2.72 0,1.25 0.24,2.16 0.72,2.72 0.48,0.57 1.11,0.86 1.89,0.86 0.61,0 1.13,-0.19 1.54,-0.57 0.42,-0.38 0.69,-0.97 0.8,-1.76 z m 2.31,-1.25 c 0,-1.73 0.49,-3.01 1.46,-3.85 0.8,-0.68 1.77,-1.03 2.92,-1.03 1.29,0 2.34,0.43 3.15,1.27 0.82,0.84 1.22,2 1.22,3.48 0,1.2 -0.18,2.14 -0.54,2.83 -0.35,0.69 -0.88,1.23 -1.57,1.61 -0.68,0.39 -1.44,0.58 -2.26,0.58 -1.3,0 -2.36,-0.42 -3.17,-1.26 -0.8,-0.84 -1.21,-2.05 -1.21,-3.63 z m 1.63,0 c 0,1.2 0.26,2.09 0.78,2.69 0.52,0.59 1.18,0.89 1.97,0.89 0.79,0 1.45,-0.3 1.97,-0.9 0.52,-0.6 0.78,-1.51 0.78,-2.73 0,-1.16 -0.26,-2.03 -0.79,-2.62 -0.53,-0.6 -1.18,-0.89 -1.96,-0.89 -0.79,0 -1.45,0.29 -1.97,0.89 -0.52,0.59 -0.78,1.48 -0.78,2.67 z m 12.43,3.25 0.24,1.4 c -0.45,0.1 -0.85,0.14 -1.21,0.14 -0.57,0 -1.02,-0.09 -1.33,-0.27 -0.32,-0.18 -0.54,-0.42 -0.67,-0.72 -0.12,-0.29 -0.18,-0.92 -0.18,-1.86 v -5.38 h -1.18 v -1.22 h 1.18 v -2.31 l 1.56,-0.95 v 3.26 h 1.59 v 1.22 h -1.59 v 5.47 c 0,0.45 0.03,0.74 0.08,0.87 0.06,0.13 0.15,0.23 0.28,0.3 0.12,0.07 0.3,0.11 0.54,0.11 0.17,0 0.4,-0.02 0.69,-0.06 z m 6.18,-5.02 c 0,-4.45 1.4,-6.67 4.2,-6.67 2.8,0 4.2,2.22 4.2,6.67 0,4.44 -1.4,6.66 -4.2,6.66 -2.8,0 -4.2,-2.22 -4.2,-6.66 z m 1.62,-0.64 h 5.14 c -0.06,-1.83 -0.33,-3.08 -0.8,-3.73 -0.46,-0.66 -1.06,-0.99 -1.78,-0.99 -1.63,0 -2.49,1.58 -2.56,4.72 z m 5.14,1.27 h -5.14 c 0.07,3.14 0.93,4.72 2.58,4.72 1.64,0 2.5,-1.58 2.56,-4.72 z" /><path
               id="path70"
               style="fill:none;stroke:#000000;stroke-width:1;stroke-linecap:round;stroke-linejoin:round;stroke-miterlimit:10;stroke-dasharray:none;stroke-opacity:1"
               d="M 225,300 H 475" /><path
               id="path72"
               style="fill:#000000;fill-opacity:1;fill-rule:nonzero;stroke:none"
               d="m 336.55,312.22 1.57,-0.25 c 0.09,0.62 0.33,1.1 0.73,1.44 0.4,0.33 0.96,0.5 1.68,0.5 0.73,0 1.27,-0.15 1.63,-0.45 0.35,-0.3 0.53,-0.64 0.53,-1.04 0,-0.35 -0.16,-0.63 -0.47,-0.84 -0.22,-0.14 -0.76,-0.31 -1.63,-0.53 -1.15,-0.29 -1.95,-0.55 -2.4,-0.76 -0.45,-0.21 -0.79,-0.51 -1.03,-0.89 -0.23,-0.38 -0.35,-0.8 -0.35,-1.26 0,-0.42 0.1,-0.8 0.29,-1.16 0.19,-0.35 0.45,-0.64 0.78,-0.87 0.24,-0.19 0.58,-0.34 1.01,-0.47 0.43,-0.12 0.88,-0.19 1.36,-0.19 0.74,0 1.39,0.11 1.94,0.32 0.55,0.22 0.96,0.5 1.22,0.86 0.27,0.36 0.45,0.84 0.54,1.45 l -1.54,0.2 c -0.08,-0.48 -0.28,-0.85 -0.61,-1.12 -0.34,-0.27 -0.81,-0.41 -1.42,-0.41 -0.73,0 -1.26,0.12 -1.57,0.36 -0.31,0.24 -0.47,0.52 -0.47,0.84 0,0.21 0.07,0.4 0.21,0.57 0.12,0.16 0.32,0.3 0.59,0.42 0.17,0.05 0.64,0.18 1.41,0.4 1.11,0.3 1.89,0.54 2.33,0.73 0.45,0.19 0.79,0.47 1.05,0.84 0.25,0.36 0.38,0.81 0.38,1.34 0,0.53 -0.15,1.03 -0.46,1.5 -0.31,0.47 -0.75,0.83 -1.33,1.09 -0.59,0.25 -1.24,0.38 -1.97,0.38 -1.22,0 -2.15,-0.25 -2.78,-0.76 -0.64,-0.5 -1.05,-1.25 -1.22,-2.24 z m 16.03,-0.22 1.64,0.2 c -0.26,0.95 -0.74,1.69 -1.44,2.22 -0.7,0.53 -1.59,0.8 -2.67,0.8 -1.37,0 -2.45,-0.42 -3.25,-1.27 -0.8,-0.84 -1.2,-2.02 -1.2,-3.54 0,-1.57 0.4,-2.78 1.21,-3.65 0.8,-0.87 1.85,-1.31 3.15,-1.31 1.25,0 2.27,0.43 3.06,1.28 0.79,0.85 1.19,2.04 1.19,3.58 0,0.1 -0.01,0.24 -0.02,0.42 h -6.95 c 0.05,1.04 0.34,1.82 0.86,2.36 0.53,0.55 1.18,0.82 1.95,0.82 0.58,0 1.08,-0.15 1.49,-0.46 0.41,-0.3 0.74,-0.78 0.98,-1.45 z m -5.2,-2.56 h 5.21 c -0.07,-0.78 -0.27,-1.37 -0.59,-1.77 -0.51,-0.61 -1.17,-0.92 -1.97,-0.92 -0.72,0 -1.32,0.24 -1.82,0.73 -0.49,0.49 -0.77,1.14 -0.83,1.96 z m 14.91,2.14 1.55,0.2 c -0.17,1.07 -0.6,1.92 -1.3,2.52 -0.7,0.61 -1.56,0.92 -2.58,0.92 -1.28,0 -2.31,-0.42 -3.08,-1.26 -0.78,-0.84 -1.17,-2.03 -1.17,-3.58 0,-1.02 0.17,-1.9 0.5,-2.65 0.34,-0.76 0.85,-1.33 1.53,-1.71 0.68,-0.38 1.42,-0.57 2.22,-0.57 1.02,0 1.86,0.26 2.5,0.78 0.64,0.51 1.05,1.24 1.24,2.18 l -1.55,0.23 c -0.14,-0.62 -0.4,-1.1 -0.77,-1.41 -0.37,-0.32 -0.82,-0.48 -1.35,-0.48 -0.8,0 -1.44,0.29 -1.94,0.86 -0.5,0.57 -0.75,1.48 -0.75,2.72 0,1.25 0.24,2.16 0.72,2.72 0.48,0.57 1.11,0.86 1.89,0.86 0.61,0 1.13,-0.19 1.55,-0.57 0.41,-0.38 0.68,-0.97 0.79,-1.76 z m 7.53,-3.02 c 0,-4.45 1.41,-6.67 4.21,-6.67 2.8,0 4.2,2.22 4.2,6.67 0,4.44 -1.4,6.66 -4.2,6.66 -2.8,0 -4.21,-2.22 -4.21,-6.66 z m 1.63,-0.64 h 5.14 c -0.06,-1.83 -0.33,-3.08 -0.8,-3.73 -0.47,-0.66 -1.06,-0.99 -1.78,-0.99 -1.63,0 -2.49,1.58 -2.56,4.72 z m 5.14,1.27 h -5.14 c 0.07,3.14 0.93,4.72 2.58,4.72 1.64,0 2.5,-1.58 2.56,-4.72 z" /><path
               id="path74"
               style="fill:none;stroke:#000000;stroke-width:1;stroke-linecap:round;stroke-linejoin:round;stroke-miterlimit:10;stroke-dasharray:none;stroke-opacity:1"
               d="M 225,300 V 112.5" /><path
               id="path76"
               style="fill:#000000;fill-opacity:1;fill-rule:nonzero;stroke:none"
               d="m 189.28,209.58 1.55,0.2 c -0.17,1.07 -0.6,1.92 -1.3,2.52 -0.7,0.61 -1.56,0.92 -2.58,0.92 -1.28,0 -2.31,-0.42 -3.08,-1.26 -0.78,-0.84 -1.17,-2.03 -1.17,-3.58 0,-1.02 0.17,-1.9 0.5,-2.65 0.34,-0.76 0.84,-1.33 1.53,-1.71 0.68,-0.38 1.42,-0.57 2.22,-0.57 1.02,0 1.85,0.26 2.5,0.78 0.64,0.51 1.05,1.24 1.24,2.18 l -1.55,0.23 c -0.15,-0.62 -0.4,-1.1 -0.77,-1.41 -0.37,-0.32 -0.82,-0.48 -1.35,-0.48 -0.8,0 -1.44,0.29 -1.94,0.86 -0.5,0.57 -0.75,1.48 -0.75,2.72 0,1.25 0.24,2.16 0.72,2.72 0.48,0.57 1.11,0.86 1.89,0.86 0.61,0 1.13,-0.19 1.54,-0.57 0.42,-0.38 0.69,-0.97 0.8,-1.76 z m 2.27,0.64 1.57,-0.25 c 0.09,0.62 0.33,1.1 0.73,1.44 0.4,0.33 0.96,0.5 1.68,0.5 0.73,0 1.27,-0.15 1.63,-0.45 0.35,-0.3 0.53,-0.64 0.53,-1.04 0,-0.35 -0.16,-0.63 -0.47,-0.84 -0.22,-0.14 -0.76,-0.31 -1.63,-0.53 -1.15,-0.29 -1.95,-0.55 -2.4,-0.76 -0.45,-0.21 -0.79,-0.51 -1.03,-0.89 -0.23,-0.38 -0.35,-0.8 -0.35,-1.26 0,-0.42 0.1,-0.8 0.29,-1.16 0.19,-0.35 0.45,-0.64 0.78,-0.87 0.24,-0.19 0.58,-0.34 1.01,-0.47 0.43,-0.12 0.88,-0.19 1.36,-0.19 0.74,0 1.39,0.11 1.94,0.32 0.55,0.22 0.96,0.5 1.22,0.86 0.27,0.36 0.45,0.84 0.54,1.45 l -1.54,0.2 c -0.08,-0.48 -0.28,-0.85 -0.61,-1.12 -0.34,-0.27 -0.81,-0.41 -1.42,-0.41 -0.73,0 -1.26,0.12 -1.57,0.36 -0.31,0.24 -0.47,0.52 -0.47,0.84 0,0.21 0.07,0.4 0.21,0.57 0.12,0.16 0.32,0.3 0.59,0.42 0.17,0.05 0.64,0.18 1.41,0.4 1.11,0.3 1.89,0.54 2.33,0.73 0.45,0.19 0.79,0.47 1.05,0.84 0.25,0.36 0.38,0.81 0.38,1.34 0,0.53 -0.15,1.03 -0.46,1.5 -0.31,0.47 -0.75,0.83 -1.33,1.09 -0.59,0.25 -1.24,0.38 -1.97,0.38 -1.22,0 -2.15,-0.25 -2.78,-0.76 -0.64,-0.5 -1.05,-1.25 -1.22,-2.24 z m 15.73,-0.64 1.55,0.2 c -0.17,1.07 -0.6,1.92 -1.3,2.52 -0.7,0.61 -1.56,0.92 -2.58,0.92 -1.28,0 -2.31,-0.42 -3.08,-1.26 -0.78,-0.84 -1.17,-2.03 -1.17,-3.58 0,-1.02 0.17,-1.9 0.5,-2.65 0.34,-0.76 0.84,-1.33 1.53,-1.71 0.68,-0.38 1.42,-0.57 2.22,-0.57 1.02,0 1.85,0.26 2.5,0.78 0.64,0.51 1.05,1.24 1.24,2.18 l -1.55,0.23 c -0.15,-0.62 -0.4,-1.1 -0.77,-1.41 -0.37,-0.32 -0.82,-0.48 -1.35,-0.48 -0.8,0 -1.44,0.29 -1.94,0.86 -0.5,0.57 -0.75,1.48 -0.75,2.72 0,1.25 0.24,2.16 0.72,2.72 0.48,0.57 1.11,0.86 1.89,0.86 0.61,0 1.13,-0.19 1.54,-0.57 0.42,-0.38 0.69,-0.97 0.8,-1.76 z m 7.53,-3.02 c 0,-4.45 1.4,-6.67 4.21,-6.67 2.8,0 4.2,2.22 4.2,6.67 0,4.44 -1.4,6.66 -4.2,6.66 -2.81,0 -4.21,-2.22 -4.21,-6.66 z m 1.63,-0.64 h 5.14 c -0.06,-1.83 -0.33,-3.08 -0.8,-3.73 -0.47,-0.66 -1.06,-0.99 -1.78,-0.99 -1.63,0 -2.49,1.58 -2.56,4.72 z m 5.14,1.27 h -5.14 c 0.07,3.14 0.93,4.72 2.58,4.72 1.64,0 2.5,-1.58 2.56,-4.72 z" /><path
               id="path78"
               style="fill:#ffffff;fill-opacity:1;fill-rule:nonzero;stroke:none"
               d="m 261,227 h 16 v 33 h -16 z" /><path
               id="path80"
               style="fill:#000000;fill-opacity:1;fill-rule:nonzero;stroke:none"
               d="m 270.7,248 h -1.58 v -10.08 c -0.38,0.37 -0.88,0.73 -1.5,1.09 -0.61,0.36 -1.17,0.63 -1.67,0.82 v -1.53 c 0.89,-0.42 1.66,-0.92 2.33,-1.52 0.67,-0.59 1.14,-1.17 1.41,-1.72 h 1.01 z" /></g></g><g
           transform="scale(0.75591)"
           id="g82" /></g></g></g></svg>