<?xml version="1.0" encoding="UTF-8" standalone="no"?>
<!-- Created with Inkscape (http://www.inkscape.org/) -->

<svg
   xmlns:dc="http://purl.org/dc/elements/1.1/"
   xmlns:cc="http://creativecommons.org/ns#"
   xmlns:rdf="http://www.w3.org/1999/02/22-rdf-syntax-ns#"
   xmlns:svg="http://www.w3.org/2000/svg"
   xmlns="http://www.w3.org/2000/svg"
   xmlns:sodipodi="http://sodipodi.sourceforge.net/DTD/sodipodi-0.dtd"
   xmlns:inkscape="http://www.inkscape.org/namespaces/inkscape"
   version="1.1"
   id="svg2"
   xml:space="preserve"
   width="317.33334"
   height="281.33334"
   viewBox="0 0 317.33334 281.33334"
   sodipodi:docname="Trigonometric_Functions.svg"
   inkscape:version="0.92.1 r15371"><metadata
     id="metadata8"><rdf:RDF><cc:Work
         rdf:about=""><dc:format>image/svg+xml</dc:format><dc:type
           rdf:resource="http://purl.org/dc/dcmitype/StillImage" /><dc:title></dc:title></cc:Work></rdf:RDF></metadata><defs
     id="defs6"><clipPath
       clipPathUnits="userSpaceOnUse"
       id="clipPath18"><path
         d="M 0,0 H 453 V 453 H 0 Z"
         id="path16"
         inkscape:connector-curvature="0" /></clipPath><clipPath
       clipPathUnits="userSpaceOnUse"
       id="clipPath30"><path
         d="M 0,0 V 453 H 453 V 0 Z"
         id="path28"
         inkscape:connector-curvature="0" /></clipPath><clipPath
       clipPathUnits="userSpaceOnUse"
       id="clipPath40"><path
         d="M 0,0 H 800 V 800 H 0 Z"
         id="path38"
         inkscape:connector-curvature="0" /></clipPath></defs><sodipodi:namedview
     pagecolor="#ffffff"
     bordercolor="#666666"
     borderopacity="1"
     objecttolerance="10"
     gridtolerance="10"
     guidetolerance="10"
     inkscape:pageopacity="0"
     inkscape:pageshadow="2"
     inkscape:window-width="764"
     inkscape:window-height="489"
     id="namedview4"
     showgrid="false"
     inkscape:zoom="0.83886253"
     inkscape:cx="158.66667"
     inkscape:cy="140.66667"
     inkscape:window-x="0"
     inkscape:window-y="0"
     inkscape:window-maximized="0"
     inkscape:current-layer="g10" /><g
     id="g10"
     inkscape:groupmode="layer"
     inkscape:label="Trigonometric_Functions"
     transform="matrix(1.2156,0,0,1.2156,-117.33333,-134.66665)"><g
       id="g12"><g
         id="g14"
         clip-path="url(#clipPath18)"><g
           id="g20"><g
             id="g22" /></g><g
           id="g24"><g
             id="g26"
             clip-path="url(#clipPath30)"><g
               id="g32"
               transform="scale(0.56693)" /></g></g><g
           id="g34"
           transform="scale(0.56693)"><g
             id="g36"
             clip-path="url(#clipPath40)"><path
               d="M 0,0 H 800 V 800 H 0 Z"
               style="fill:#ffffff;fill-opacity:1;fill-rule:nonzero;stroke:none"
               id="path42"
               inkscape:connector-curvature="0" /><path
               d="M 500,226.79 H 300 L 400,400 Z"
               style="fill:#03a9f4;fill-opacity:0.8;fill-rule:evenodd;stroke:none"
               id="path44"
               inkscape:connector-curvature="0" /><path
               d="M 300,573.21 400,400 H 200 Z"
               style="fill:#03a9f4;fill-opacity:0.8;fill-rule:evenodd;stroke:none"
               id="path46"
               inkscape:connector-curvature="0" /><path
               d="M 400,400 500,573.21 600,400 Z"
               style="fill:#03a9f4;fill-opacity:0.8;fill-rule:evenodd;stroke:none"
               id="path48"
               inkscape:connector-curvature="0" /><path
               d="m 425,400 c 0,13.81 -11.19,25 -25,25 -13.81,0 -25,-11.19 -25,-25 0,-13.81 11.19,-25 25,-25 13.81,0 25,11.19 25,25 z"
               style="fill:#ffffff;fill-opacity:1;fill-rule:nonzero;stroke:none"
               id="path50"
               inkscape:connector-curvature="0" /><path
               d="m 425,400 c 0,13.81 -11.19,25 -25,25 -13.81,0 -25,-11.19 -25,-25 0,-13.81 11.19,-25 25,-25 13.81,0 25,11.19 25,25 z"
               style="fill:none;stroke:#ffffff;stroke-width:0.5;stroke-linecap:round;stroke-linejoin:round;stroke-miterlimit:10;stroke-dasharray:none;stroke-opacity:0"
               id="path52"
               inkscape:connector-curvature="0" /><path
               d="m 525,226.79 c 0,13.81 -11.19,25 -25,25 -13.81,0 -25,-11.19 -25,-25 0,-13.8 11.19,-25 25,-25 13.81,0 25,11.2 25,25 z"
               style="fill:#ffffff;fill-opacity:1;fill-rule:nonzero;stroke:none"
               id="path54"
               inkscape:connector-curvature="0" /><path
               d="m 525,226.79 c 0,13.81 -11.19,25 -25,25 -13.81,0 -25,-11.19 -25,-25 0,-13.8 11.19,-25 25,-25 13.81,0 25,11.2 25,25 z"
               style="fill:none;stroke:#ffffff;stroke-width:1;stroke-linecap:round;stroke-linejoin:round;stroke-miterlimit:10;stroke-dasharray:none;stroke-opacity:1"
               id="path56"
               inkscape:connector-curvature="0" /><path
               d="m 325,226.79 c 0,13.81 -11.19,25 -25,25 -13.81,0 -25,-11.19 -25,-25 0,-13.8 11.19,-25 25,-25 13.81,0 25,11.2 25,25 z"
               style="fill:#ffffff;fill-opacity:1;fill-rule:nonzero;stroke:none"
               id="path58"
               inkscape:connector-curvature="0" /><path
               d="m 325,226.79 c 0,13.81 -11.19,25 -25,25 -13.81,0 -25,-11.19 -25,-25 0,-13.8 11.19,-25 25,-25 13.81,0 25,11.2 25,25 z"
               style="fill:none;stroke:#ffffff;stroke-width:0.5;stroke-linecap:round;stroke-linejoin:round;stroke-miterlimit:10;stroke-dasharray:none;stroke-opacity:0"
               id="path60"
               inkscape:connector-curvature="0" /><path
               d="m 225,400 c 0,13.81 -11.19,25 -25,25 -13.81,0 -25,-11.19 -25,-25 0,-13.81 11.19,-25 25,-25 13.81,0 25,11.19 25,25 z"
               style="fill:#ffffff;fill-opacity:1;fill-rule:nonzero;stroke:none"
               id="path62"
               inkscape:connector-curvature="0" /><path
               d="m 225,400 c 0,13.81 -11.19,25 -25,25 -13.81,0 -25,-11.19 -25,-25 0,-13.81 11.19,-25 25,-25 13.81,0 25,11.19 25,25 z"
               style="fill:none;stroke:#ffffff;stroke-width:0.5;stroke-linecap:round;stroke-linejoin:round;stroke-miterlimit:10;stroke-dasharray:none;stroke-opacity:0"
               id="path64"
               inkscape:connector-curvature="0" /><path
               d="m 325,573.21 c 0,13.8 -11.19,25 -25,25 -13.81,0 -25,-11.2 -25,-25 0,-13.81 11.19,-25 25,-25 13.81,0 25,11.19 25,25 z"
               style="fill:#ffffff;fill-opacity:1;fill-rule:nonzero;stroke:none"
               id="path66"
               inkscape:connector-curvature="0" /><path
               d="m 325,573.21 c 0,13.8 -11.19,25 -25,25 -13.81,0 -25,-11.2 -25,-25 0,-13.81 11.19,-25 25,-25 13.81,0 25,11.19 25,25 z"
               style="fill:none;stroke:#ffffff;stroke-width:0.5;stroke-linecap:round;stroke-linejoin:round;stroke-miterlimit:10;stroke-dasharray:none;stroke-opacity:0"
               id="path68"
               inkscape:connector-curvature="0" /><path
               d="m 525,573.21 c 0,13.8 -11.19,25 -25,25 -13.81,0 -25,-11.2 -25,-25 0,-13.81 11.19,-25 25,-25 13.81,0 25,11.19 25,25 z"
               style="fill:#ffffff;fill-opacity:1;fill-rule:nonzero;stroke:none"
               id="path70"
               inkscape:connector-curvature="0" /><path
               d="m 525,573.21 c 0,13.8 -11.19,25 -25,25 -13.81,0 -25,-11.2 -25,-25 0,-13.81 11.19,-25 25,-25 13.81,0 25,11.19 25,25 z"
               style="fill:none;stroke:#ffffff;stroke-width:1;stroke-linecap:round;stroke-linejoin:round;stroke-miterlimit:10;stroke-dasharray:none;stroke-opacity:1"
               id="path72"
               inkscape:connector-curvature="0" /><path
               d="m 625,400 c 0,13.81 -11.19,25 -25,25 -13.81,0 -25,-11.19 -25,-25 0,-13.81 11.19,-25 25,-25 13.81,0 25,11.19 25,25 z"
               style="fill:#ffffff;fill-opacity:1;fill-rule:nonzero;stroke:none"
               id="path74"
               inkscape:connector-curvature="0" /><path
               d="m 625,400 c 0,13.81 -11.19,25 -25,25 -13.81,0 -25,-11.19 -25,-25 0,-13.81 11.19,-25 25,-25 13.81,0 25,11.19 25,25 z"
               style="fill:none;stroke:#ffffff;stroke-width:0.5;stroke-linecap:round;stroke-linejoin:round;stroke-miterlimit:10;stroke-dasharray:none;stroke-opacity:0"
               id="path76"
               inkscape:connector-curvature="0" /><path
               d="m 425,400 c 0,13.81 -11.19,25 -25,25 -13.81,0 -25,-11.19 -25,-25 0,-13.81 11.19,-25 25,-25 13.81,0 25,11.19 25,25 z"
               style="fill:none;stroke:#03a9f4;stroke-width:2;stroke-linecap:round;stroke-linejoin:round;stroke-miterlimit:10;stroke-dasharray:none;stroke-opacity:0.8"
               id="path78"
               inkscape:connector-curvature="0" /><path
               d="m 225,400 c 0,13.81 -11.19,25 -25,25 -13.81,0 -25,-11.19 -25,-25 0,-13.81 11.19,-25 25,-25 13.81,0 25,11.19 25,25 z"
               style="fill:none;stroke:#03a9f4;stroke-width:2;stroke-linecap:round;stroke-linejoin:round;stroke-miterlimit:10;stroke-dasharray:none;stroke-opacity:0.8"
               id="path80"
               inkscape:connector-curvature="0" /><path
               d="m 525,226.79 c 0,13.81 -11.19,25 -25,25 -13.81,0 -25,-11.19 -25,-25 0,-13.8 11.19,-25 25,-25 13.81,0 25,11.2 25,25 z"
               style="fill:none;stroke:#03a9f4;stroke-width:2;stroke-linecap:round;stroke-linejoin:round;stroke-miterlimit:10;stroke-dasharray:none;stroke-opacity:0.8"
               id="path82"
               inkscape:connector-curvature="0" /><path
               d="m 325,226.79 c 0,13.81 -11.19,25 -25,25 -13.81,0 -25,-11.19 -25,-25 0,-13.8 11.19,-25 25,-25 13.81,0 25,11.2 25,25 z"
               style="fill:none;stroke:#03a9f4;stroke-width:2;stroke-linecap:round;stroke-linejoin:round;stroke-miterlimit:10;stroke-dasharray:none;stroke-opacity:0.8"
               id="path84"
               inkscape:connector-curvature="0" /><path
               d="m 625,400 c 0,13.81 -11.19,25 -25,25 -13.81,0 -25,-11.19 -25,-25 0,-13.81 11.19,-25 25,-25 13.81,0 25,11.19 25,25 z"
               style="fill:none;stroke:#03a9f4;stroke-width:2;stroke-linecap:round;stroke-linejoin:round;stroke-miterlimit:10;stroke-dasharray:none;stroke-opacity:0.8"
               id="path86"
               inkscape:connector-curvature="0" /><path
               d="m 525,573.21 c 0,13.8 -11.19,25 -25,25 -13.81,0 -25,-11.2 -25,-25 0,-13.81 11.19,-25 25,-25 13.81,0 25,11.19 25,25 z"
               style="fill:none;stroke:#03a9f4;stroke-width:2;stroke-linecap:round;stroke-linejoin:round;stroke-miterlimit:10;stroke-dasharray:none;stroke-opacity:0.8"
               id="path88"
               inkscape:connector-curvature="0" /><path
               d="m 325,573.21 c 0,13.8 -11.19,25 -25,25 -13.81,0 -25,-11.2 -25,-25 0,-13.81 11.19,-25 25,-25 13.81,0 25,11.19 25,25 z"
               style="fill:none;stroke:#03a9f4;stroke-width:2;stroke-linecap:round;stroke-linejoin:round;stroke-miterlimit:10;stroke-dasharray:none;stroke-opacity:0.8"
               id="path90"
               inkscape:connector-curvature="0" /><path
               d="m 512.5,248.45 75,129.9"
               style="fill:none;stroke:#03a9f4;stroke-width:2;stroke-linecap:round;stroke-linejoin:round;stroke-miterlimit:10;stroke-dasharray:none;stroke-opacity:0.8"
               id="path92"
               inkscape:connector-curvature="0" /><path
               d="m 287.5,248.45 -75,129.9"
               style="fill:none;stroke:#03a9f4;stroke-width:2;stroke-linecap:round;stroke-linejoin:round;stroke-miterlimit:10;stroke-dasharray:none;stroke-opacity:0.8"
               id="path94"
               inkscape:connector-curvature="0" /><path
               d="M 325,573.21 H 475"
               style="fill:none;stroke:#03a9f4;stroke-width:2;stroke-linecap:round;stroke-linejoin:round;stroke-miterlimit:10;stroke-dasharray:none;stroke-opacity:0.8"
               id="path96"
               inkscape:connector-curvature="0" /><g
               id="g98"
               transform="scale(28)"><g
                 id="g100"
                 transform="translate(17.179,8.2877)"><path
                   d="M 0.35938,-0.39062 C 0.33854,-0.41146 0.30208,-0.42188 0.25,-0.42188 c -0.04167,0 -0.07292,0.02084 -0.09375,0.0625 -0.03125,0.03126 -0.04687,0.07813 -0.04687,0.14063 0,0.09375 0.03124,0.15625 0.09374,0.1875 0.02084,0.010417 0.04167,0.015625 0.0625,0.015625 0.0625,0 0.10417,-0.036458 0.125,-0.109375 0,0 0.00521,0 0.01563,0 0.01042,0 0.01563,0 0.01563,0 0,0.02083 -0.01042,0.041667 -0.03126,0.0625 C 0.35938,-0.010417 0.3125,0.015625 0.25,0.015625 c -0.0625,0 -0.11458,-0.026042 -0.15625,-0.078125 -0.041667,-0.04167 -0.0625,-0.09375 -0.0625,-0.15625 0,-0.0625 0.026042,-0.11979 0.07813,-0.17187 0.04166,-0.04167 0.08854,-0.0625 0.14062,-0.0625 0.05208,0 0.09375,0.01562 0.125,0.04687 0.02083,0.02083 0.03125,0.04167 0.03125,0.0625 0,0.03125 -0.01042,0.04687 -0.03125,0.04687 -0.01042,0 -0.01562,0 -0.01562,0 -0.02084,0 -0.03646,-0.01041 -0.04688,-0.03124 0,0 0,-0.00521 0,-0.01563 0,-0.02083 0.01042,-0.03646 0.03125,-0.04687 0.01042,0 0.01563,0 0.01563,0 z"
                   style="fill:#000000;fill-opacity:1;fill-rule:nonzero;stroke:none"
                   id="path102"
                   inkscape:connector-curvature="0" /><g
                   id="g104"
                   transform="translate(0.444)"><path
                     d="m 0.46875,-0.21875 v 0 c 0,0.07292 -0.02604,0.130208 -0.07813,0.171875 -0.04166,0.0416667 -0.08854,0.0625 -0.14062,0.0625 -0.0625,0 -0.11458,-0.026042 -0.15625,-0.078125 -0.041667,-0.04167 -0.0625,-0.09375 -0.0625,-0.15625 0,-0.0625 0.020833,-0.11979 0.0625,-0.17187 0.04167,-0.04167 0.09375,-0.0625 0.15625,-0.0625 0.0625,0 0.11458,0.02604 0.15625,0.07812 0.04167,0.05208 0.0625,0.10417 0.0625,0.15625 z M 0.25,-0.015625 v 0 c 0.04167,0 0.07812,-0.015625 0.10938,-0.046875 v -0.03125 c 0.02083,-0.02083 0.03124,-0.0625 0.03124,-0.125 0,-0.0625 -0.01041,-0.10937 -0.03124,-0.14063 -0.03126,-0.04166 -0.06771,-0.0625 -0.10938,-0.0625 -0.04167,0 -0.07812,0.01563 -0.10938,0.04688 0,0 0,0.00521 0,0.01562 -0.02083,0.03126 -0.03124,0.07813 -0.03124,0.14063 0,0.0625 0.01041,0.10937 0.03124,0.140625 0.02084,0.041667 0.0573,0.0625 0.10938,0.0625 z"
                     style="fill:#000000;fill-opacity:1;fill-rule:nonzero;stroke:none"
                     id="path106"
                     inkscape:connector-curvature="0" /><g
                     id="g108"
                     transform="translate(0.5)"><path
                       d="m 0.20312,-0.1875 v 0 C 0.15104,-0.20833 0.11458,-0.22396 0.09375,-0.23438 c -0.010417,0 -0.015625,0 -0.015625,0 -0.03125,-0.03124 -0.046875,-0.0625 -0.046875,-0.09374 0,-0.04167 0.020833,-0.07292 0.0625,-0.09376 0.03125,-0.02083 0.0625,-0.03124 0.09375,-0.03124 0.04167,0 0.07292,0.01041 0.09375,0.03124 0.01042,0 0.01563,-0.0052 0.01563,-0.01562 0.01041,-0.01042 0.02083,-0.01562 0.03124,-0.01562 0,0.01041 0,0.02083 0,0.03124 v 0.09376 c 0,0.02083 0,0.03124 0,0.03124 v 0 0 0 c -0.01041,0 -0.01562,-0.0052 -0.01562,-0.01562 -0.01042,-0.0625 -0.03646,-0.09896 -0.07812,-0.10938 -0.01042,0 -0.02605,0 -0.04688,0 -0.0625,0 -0.098958,0.01563 -0.109375,0.04688 0,0.01042 0,0.01562 0,0.01562 0,0.04167 0.026045,0.06771 0.078125,0.07813 0.01042,0 0.02604,0.00521 0.04687,0.01563 0.05209,0.01041 0.08855,0.02083 0.10938,0.03124 0,0 0,0.00521 0,0.01563 0.03125,0.02083 0.04688,0.05208 0.04688,0.09375 0,0.052083 -0.02084,0.088542 -0.0625,0.109375 C 0.26562,0.0052083 0.23438,0.015625 0.20312,0.015625 0.16146,0.015625 0.125,0 0.09375,-0.03125 L 0.0625,-0.015625 C 0.052083,0.0052083 0.046875,0.015625 0.046875,0.015625 0.036458,0.0052083 0.03125,-0.0052083 0.03125,-0.015625 V -0.14062 c 0,-0.02084 0.005208,-0.03126 0.015625,-0.03126 v 0 0 0 c 0.010417,0 0.015625,0.00521 0.015625,0.01563 0,0 0,0 0,0 0.020833,0.083333 0.05208,0.130208 0.09375,0.140625 0.01042,0 0.02604,0 0.04687,0 0.05209,0 0.08855,-0.020833 0.10938,-0.0625 0,-0.010417 0,-0.020833 0,-0.031255 0,-0.04166 -0.03646,-0.0677 -0.10938,-0.07812 z"
                       style="fill:#000000;fill-opacity:1;fill-rule:nonzero;stroke:none"
                       id="path110"
                       inkscape:connector-curvature="0" /><g
                       id="g112"
                       transform="matrix(0.999992,0,0,0.999992,-8.0520806,0.13013266)"><path
                         d="m 0.20312,-0.1875 v 0 C 0.15104,-0.20833 0.11458,-0.22396 0.09375,-0.23438 c -0.010417,0 -0.015625,0 -0.015625,0 -0.03125,-0.03124 -0.046875,-0.0625 -0.046875,-0.09374 0,-0.04167 0.020833,-0.07292 0.0625,-0.09376 0.03125,-0.02083 0.0625,-0.03124 0.09375,-0.03124 0.04167,0 0.07292,0.01041 0.09375,0.03124 0.01042,0 0.01563,-0.0052 0.01563,-0.01562 0.01041,-0.01042 0.02083,-0.01562 0.03124,-0.01562 0,0.01041 0,0.02083 0,0.03124 v 0.09376 c 0,0.02083 0,0.03124 0,0.03124 v 0 0 0 c -0.01041,0 -0.01562,-0.0052 -0.01562,-0.01562 -0.01042,-0.0625 -0.03646,-0.09896 -0.07812,-0.10938 -0.01042,0 -0.02605,0 -0.04688,0 -0.0625,0 -0.098958,0.01563 -0.109375,0.04688 0,0.01042 0,0.01562 0,0.01562 0,0.04167 0.026045,0.06771 0.078125,0.07813 0.01042,0 0.02604,0.00521 0.04687,0.01563 0.05209,0.01041 0.08855,0.02083 0.10938,0.03124 0,0 0,0.00521 0,0.01563 0.03125,0.02083 0.04688,0.05208 0.04688,0.09375 0,0.052083 -0.02084,0.088542 -0.0625,0.109375 C 0.26562,0.0052083 0.23438,0.015625 0.20312,0.015625 0.16146,0.015625 0.125,0 0.09375,-0.03125 L 0.0625,-0.015625 C 0.052083,0.0052083 0.046875,0.015625 0.046875,0.015625 0.036458,0.0052083 0.03125,-0.0052083 0.03125,-0.015625 V -0.14062 c 0,-0.02084 0.005208,-0.03126 0.015625,-0.03126 v 0 0 0 c 0.010417,0 0.015625,0.00521 0.015625,0.01563 0,0 0,0 0,0 0.020833,0.083333 0.05208,0.130208 0.09375,0.140625 0.01042,0 0.02604,0 0.04687,0 0.05209,0 0.08855,-0.020833 0.10938,-0.0625 0,-0.010417 0,-0.020833 0,-0.031255 0,-0.04166 -0.03646,-0.0677 -0.10938,-0.07812 z"
                         style="fill:#000000;fill-opacity:1;fill-rule:nonzero;stroke:none"
                         id="path114"
                         inkscape:connector-curvature="0" /><g
                         id="g116"
                         transform="translate(0.395)"><path
                           d="m 0.17188,-0.4375 v 0 0.359375 c 0,0.020833 0.0052,0.036458 0.01562,0.046875 v 0 c 0.01042,0 0.03125,0 0.0625,0 V 0 C 0.17708,0 0.14062,0 0.14062,0 0.13021,0 0.09375,0 0.03125,0 v -0.03125 c 0.041667,0 0.067708,-0.005208 0.07813,-0.015625 v 0 c 0,0 0,-0.010417 0,-0.03125 V -0.34375 c 0,-0.03125 -0.00521,-0.04687 -0.01563,-0.04687 v 0 0 0 0 C 0.083333,-0.40104 0.0625,-0.40625 0.03125,-0.40625 V -0.4375 Z M 0.1875,-0.60938 c 0,0.02084 -0.01562,0.03646 -0.04688,0.04688 0,0 -0.0052,0 -0.01562,0 -0.02083,0 -0.036458,-0.01042 -0.046875,-0.03125 v 0 c 0,-0.01042 0,-0.01563 0,-0.01563 0,-0.02083 0.010417,-0.03645 0.031255,-0.04687 0,-0.01042 0.0052,-0.01563 0.01562,-0.01563 0.02083,0 0.03646,0.01042 0.04688,0.03126 0.01041,0.01041 0.01562,0.02083 0.01562,0.03124 z"
                           style="fill:#000000;fill-opacity:1;fill-rule:nonzero;stroke:none"
                           id="path118"
                           inkscape:connector-curvature="0" /><g
                           id="g120"
                           transform="translate(0.278)"><path
                             d="M 0.10938,-0.34375 C 0.10938,-0.375 0.10417,-0.39062 0.09375,-0.39062 0.083333,-0.40104 0.067708,-0.40625 0.046875,-0.40625 H 0.03125 V -0.4375 h 0.14063 v 0.09375 c 0.03124,-0.0625 0.08333,-0.09375 0.15624,-0.09375 0.04167,0 0.07292,0.01042 0.09376,0.03125 0.02083,0.02083 0.03124,0.05208 0.03124,0.09375 0,0.01042 0,0.03125 0,0.0625 v 0.1875 c 0,0.020833 0.01042,0.03125 0.03126,0.03125 0.01041,0 0.02604,0 0.04687,0 V 0 c -0.0625,0 -0.09896,0 -0.10937,0 0,0 -0.03646,0 -0.10938,0 v -0.03125 c 0.04167,0 0.0625,-0.005208 0.0625,-0.015625 v 0 c 0.01042,0 0.01562,-0.010417 0.01562,-0.03125 V -0.3125 c 0,-0.0625 -0.02083,-0.09896 -0.0625,-0.10938 0,0 -0.0052,0 -0.01562,0 -0.04167,0 -0.07292,0.02084 -0.09375,0.0625 -0.03125,0.02084 -0.04687,0.05209 -0.04687,0.09376 v 0.187495 c 0,0.020833 0.0052,0.036458 0.01562,0.046875 0.01042,0 0.03125,0 0.0625,0 V 0 C 0.1875,0 0.15104,0 0.14062,0 c 0,0 -0.03645,0 -0.10937,0 v -0.03125 c 0.041667,0 0.0625,-0.005208 0.0625,-0.015625 h 0.01563 c 0,0 0,-0.010417 0,-0.03125 z"
                             style="fill:#000000;fill-opacity:1;fill-rule:nonzero;stroke:none"
                             id="path122"
                             inkscape:connector-curvature="0" /><g
                             id="g124"
                             transform="matrix(0.999992,0,0,0.999992,-4.3511511,6.1609834)"><path
                               d="m 0.17188,-0.40625 v 0 0.28125 c 0,0.072917 0.02083,0.109375 0.0625,0.109375 0,0 0,0 0,0 0.03124,0 0.05208,-0.015625 0.0625,-0.046875 C 0.30729,-0.083333 0.3125,-0.10417 0.3125,-0.125 V -0.1875 H 0.32812 V -0.125 C 0.32812,-0.072917 0.3125,-0.03125 0.28125,0 0.27083,0.010417 0.25521,0.015625 0.23438,0.015625 0.18229,0.015625 0.14583,-0.0052083 0.125,-0.046875 0.11458,-0.067708 0.10938,-0.09375 0.10938,-0.125 V -0.40625 H 0.015625 v -0.01563 c 0.0625,0 0.104165,-0.03645 0.124995,-0.10937 0,-0.03125 0,-0.05729 0,-0.07813 H 0.17188 V -0.4375 H 0.3125 v 0.03125 z"
                               style="fill:#000000;fill-opacity:1;fill-rule:nonzero;stroke:none"
                               id="path126"
                               inkscape:connector-curvature="0" /><g
                               id="g128"
                               transform="translate(0.3888)"><path
                                 d="M 0.32812,-0.078125 C 0.31771,-0.036458 0.29167,-0.010417 0.25,0 0.22917,0.010417 0.21354,0.015625 0.20312,0.015625 0.14062,0.015625 0.098958,0 0.078125,-0.03125 c -0.020833,-0.020833 -0.03125,-0.041667 -0.03125,-0.0625 0,-0.05208 0.026042,-0.09375 0.078125,-0.125 0.01042,0 0.01562,0 0.01562,0 0.04167,-0.02083 0.10417,-0.03646 0.1875,-0.04687 v 0 -0.03126 c 0,-0.0625 -0.02083,-0.10416 -0.0625,-0.125 -0.01041,0 -0.02604,0 -0.04687,0 -0.04167,0 -0.07292,0.01042 -0.09375,0.03126 -0.01042,0 -0.01562,0.0052 -0.01562,0.01562 0.03124,0 0.04687,0.01562 0.04687,0.04688 0,0.02083 -0.01042,0.03124 -0.03125,0.03124 0,0.01042 -0.00521,0.01563 -0.01562,0.01563 -0.020838,0 -0.031255,-0.01563 -0.031255,-0.04687 0,0 0,0 0,0 0,-0.04167 0.020833,-0.07292 0.062495,-0.09376 0.02084,-0.02083 0.04688,-0.03124 0.07813,-0.03124 0.05208,0 0.09896,0.02083 0.14063,0.0625 0.02083,0.02083 0.03124,0.05208 0.03124,0.09374 v 0 0.01563 0.203125 c 0,0.020833 0.00521,0.036458 0.01563,0.046875 0.01042,0 0.02083,0 0.03125,0 0.02083,0 0.03125,-0.020833 0.03125,-0.0625 V -0.14062 H 0.5 v 0.04687 C 0.5,-0.041667 0.47917,-0.010417 0.4375,0 0.42708,0 0.41667,0 0.40625,0 0.375,0 0.35417,-0.015625 0.34375,-0.046875 0.33333,-0.057292 0.32812,-0.067708 0.32812,-0.078125 Z m 0,-0.156255 c -0.10416,0 -0.17187,0.03126 -0.20312,0.09376 0,0.01041 0,0.02604 0,0.04687 0,0.03125 0.01562,0.057292 0.04688,0.078125 0.01041,0 0.02083,0 0.03124,0 0.04167,0 0.07292,-0.010417 0.09376,-0.03125 0.02083,-0.03125 0.03124,-0.062505 0.03124,-0.093745 z"
                                 style="fill:#000000;fill-opacity:1;fill-rule:nonzero;stroke:none"
                                 id="path130"
                                 inkscape:connector-curvature="0" /><g
                                 id="g132"
                                 transform="translate(0.5)"><path
                                   d="M 0.10938,-0.34375 C 0.10938,-0.375 0.10417,-0.39062 0.09375,-0.39062 0.083333,-0.40104 0.067708,-0.40625 0.046875,-0.40625 H 0.03125 V -0.4375 h 0.14063 v 0.09375 c 0.03124,-0.0625 0.08333,-0.09375 0.15624,-0.09375 0.04167,0 0.07292,0.01042 0.09376,0.03125 0.02083,0.02083 0.03124,0.05208 0.03124,0.09375 0,0.01042 0,0.03125 0,0.0625 v 0.1875 c 0,0.020833 0.01042,0.03125 0.03126,0.03125 0.01041,0 0.02604,0 0.04687,0 V 0 c -0.0625,0 -0.09896,0 -0.10937,0 0,0 -0.03646,0 -0.10938,0 v -0.03125 c 0.04167,0 0.0625,-0.005208 0.0625,-0.015625 v 0 c 0.01042,0 0.01562,-0.010417 0.01562,-0.03125 V -0.3125 c 0,-0.0625 -0.02083,-0.09896 -0.0625,-0.10938 0,0 -0.0052,0 -0.01562,0 -0.04167,0 -0.07292,0.02084 -0.09375,0.0625 -0.03125,0.02084 -0.04687,0.05209 -0.04687,0.09376 v 0.187495 c 0,0.020833 0.0052,0.036458 0.01562,0.046875 0.01042,0 0.03125,0 0.0625,0 V 0 C 0.1875,0 0.15104,0 0.14062,0 c 0,0 -0.03645,0 -0.10937,0 v -0.03125 c 0.041667,0 0.0625,-0.005208 0.0625,-0.015625 h 0.01563 c 0,0 0,-0.010417 0,-0.03125 z"
                                   style="fill:#000000;fill-opacity:1;fill-rule:nonzero;stroke:none"
                                   id="path134"
                                   inkscape:connector-curvature="0" /><g
                                   id="g136"
                                   transform="matrix(0.999992,0,0,0.999992,6.7541877,0.02988313)"><path
                                   d="m 0.29688,-0.64062 v 0.562495 c 0,0.020833 0.0052,0.03125 0.01562,0.03125 0.01042,0.010417 0.03646,0.015625 0.07812,0.015625 H 0.42188 V 0 C 0.40104,0 0.34375,0 0.25,0 0.16667,0 0.11458,0 0.09375,0 V -0.03125 H 0.125 c 0.05208,0 0.08333,-0.005208 0.09375,-0.015625 v 0 c 0,-0.010417 0,-0.020833 0,-0.03125 V -0.59375 c -0.03125,0.01042 -0.07292,0.01563 -0.125,0.01563 v -0.03126 c 0.07292,0 0.13021,-0.02083 0.17187,-0.0625 0.02084,0 0.03126,0.00521 0.03126,0.01563 v 0 0 c 0,0 0,0.00521 0,0.01563 z"
                                   style="fill:#000000;fill-opacity:1;fill-rule:nonzero;stroke:none"
                                   id="path138"
                                   inkscape:connector-curvature="0" /><g
                                   id="g140"
                                   transform="matrix(0.999992,0,0,0.999992,6.7498337,-0.06511635)"><path
                                   d="M 0.35938,-0.39062 C 0.33854,-0.41146 0.30208,-0.42188 0.25,-0.42188 c -0.04167,0 -0.07292,0.02084 -0.09375,0.0625 -0.03125,0.03126 -0.04687,0.07813 -0.04687,0.14063 0,0.09375 0.03124,0.15625 0.09374,0.1875 0.02084,0.010417 0.04167,0.015625 0.0625,0.015625 0.0625,0 0.10417,-0.036458 0.125,-0.109375 0,0 0.00521,0 0.01563,0 0.01042,0 0.01563,0 0.01563,0 0,0.02083 -0.01042,0.041667 -0.03126,0.0625 C 0.35938,-0.010417 0.3125,0.015625 0.25,0.015625 c -0.0625,0 -0.11458,-0.026042 -0.15625,-0.078125 -0.041667,-0.04167 -0.0625,-0.09375 -0.0625,-0.15625 0,-0.0625 0.026042,-0.11979 0.07813,-0.17187 0.04166,-0.04167 0.08854,-0.0625 0.14062,-0.0625 0.05208,0 0.09375,0.01562 0.125,0.04687 0.02083,0.02083 0.03125,0.04167 0.03125,0.0625 0,0.03125 -0.01042,0.04687 -0.03125,0.04687 -0.01042,0 -0.01562,0 -0.01562,0 -0.02084,0 -0.03646,-0.01041 -0.04688,-0.03124 0,0 0,-0.00521 0,-0.01563 0,-0.02083 0.01042,-0.03646 0.03125,-0.04687 0.01042,0 0.01563,0 0.01563,0 z"
                                   style="fill:#000000;fill-opacity:1;fill-rule:nonzero;stroke:none"
                                   id="path142"
                                   inkscape:connector-curvature="0" /><g
                                   id="g144"
                                   transform="translate(0.444)"><path
                                   d="m 0.46875,-0.21875 v 0 c 0,0.07292 -0.02604,0.130208 -0.07813,0.171875 -0.04166,0.0416667 -0.08854,0.0625 -0.14062,0.0625 -0.0625,0 -0.11458,-0.026042 -0.15625,-0.078125 -0.041667,-0.04167 -0.0625,-0.09375 -0.0625,-0.15625 0,-0.0625 0.020833,-0.11979 0.0625,-0.17187 0.04167,-0.04167 0.09375,-0.0625 0.15625,-0.0625 0.0625,0 0.11458,0.02604 0.15625,0.07812 0.04167,0.05208 0.0625,0.10417 0.0625,0.15625 z M 0.25,-0.015625 v 0 c 0.04167,0 0.07812,-0.015625 0.10938,-0.046875 v -0.03125 c 0.02083,-0.02083 0.03124,-0.0625 0.03124,-0.125 0,-0.0625 -0.01041,-0.10937 -0.03124,-0.14063 -0.03126,-0.04166 -0.06771,-0.0625 -0.10938,-0.0625 -0.04167,0 -0.07812,0.01563 -0.10938,0.04688 0,0 0,0.00521 0,0.01562 -0.02083,0.03126 -0.03124,0.07813 -0.03124,0.14063 0,0.0625 0.01041,0.10937 0.03124,0.140625 0.02084,0.041667 0.0573,0.0625 0.10938,0.0625 z"
                                   style="fill:#000000;fill-opacity:1;fill-rule:nonzero;stroke:none"
                                   id="path146"
                                   inkscape:connector-curvature="0" /><g
                                   id="g148"
                                   transform="translate(0.5)"><path
                                   d="m 0.17188,-0.40625 v 0 0.28125 c 0,0.072917 0.02083,0.109375 0.0625,0.109375 0,0 0,0 0,0 0.03124,0 0.05208,-0.015625 0.0625,-0.046875 C 0.30729,-0.083333 0.3125,-0.10417 0.3125,-0.125 V -0.1875 H 0.32812 V -0.125 C 0.32812,-0.072917 0.3125,-0.03125 0.28125,0 0.27083,0.010417 0.25521,0.015625 0.23438,0.015625 0.18229,0.015625 0.14583,-0.0052083 0.125,-0.046875 0.11458,-0.067708 0.10938,-0.09375 0.10938,-0.125 V -0.40625 H 0.015625 v -0.01563 c 0.0625,0 0.104165,-0.03645 0.124995,-0.10937 0,-0.03125 0,-0.05729 0,-0.07813 H 0.17188 V -0.4375 H 0.3125 v 0.03125 z"
                                   style="fill:#000000;fill-opacity:1;fill-rule:nonzero;stroke:none"
                                   id="path150"
                                   inkscape:connector-curvature="0" /><g
                                   id="g152"
                                   transform="matrix(0.999992,0,0,0.999992,-11.659081,6.1368346)"><path
                                   d="m 0.20312,-0.1875 v 0 C 0.15104,-0.20833 0.11458,-0.22396 0.09375,-0.23438 c -0.010417,0 -0.015625,0 -0.015625,0 -0.03125,-0.03124 -0.046875,-0.0625 -0.046875,-0.09374 0,-0.04167 0.020833,-0.07292 0.0625,-0.09376 0.03125,-0.02083 0.0625,-0.03124 0.09375,-0.03124 0.04167,0 0.07292,0.01041 0.09375,0.03124 0.01042,0 0.01563,-0.0052 0.01563,-0.01562 0.01041,-0.01042 0.02083,-0.01562 0.03124,-0.01562 0,0.01041 0,0.02083 0,0.03124 v 0.09376 c 0,0.02083 0,0.03124 0,0.03124 v 0 0 0 c -0.01041,0 -0.01562,-0.0052 -0.01562,-0.01562 -0.01042,-0.0625 -0.03646,-0.09896 -0.07812,-0.10938 -0.01042,0 -0.02605,0 -0.04688,0 -0.0625,0 -0.098958,0.01563 -0.109375,0.04688 0,0.01042 0,0.01562 0,0.01562 0,0.04167 0.026045,0.06771 0.078125,0.07813 0.01042,0 0.02604,0.00521 0.04687,0.01563 0.05209,0.01041 0.08855,0.02083 0.10938,0.03124 0,0 0,0.00521 0,0.01563 0.03125,0.02083 0.04688,0.05208 0.04688,0.09375 0,0.052083 -0.02084,0.088542 -0.0625,0.109375 C 0.26562,0.0052083 0.23438,0.015625 0.20312,0.015625 0.16146,0.015625 0.125,0 0.09375,-0.03125 L 0.0625,-0.015625 C 0.052083,0.0052083 0.046875,0.015625 0.046875,0.015625 0.036458,0.0052083 0.03125,-0.0052083 0.03125,-0.015625 V -0.14062 c 0,-0.02084 0.005208,-0.03126 0.015625,-0.03126 v 0 0 0 c 0.010417,0 0.015625,0.00521 0.015625,0.01563 0,0 0,0 0,0 0.020833,0.083333 0.05208,0.130208 0.09375,0.140625 0.01042,0 0.02604,0 0.04687,0 0.05209,0 0.08855,-0.020833 0.10938,-0.0625 0,-0.010417 0,-0.020833 0,-0.031255 0,-0.04166 -0.03646,-0.0677 -0.10938,-0.07812 z"
                                   style="fill:#000000;fill-opacity:1;fill-rule:nonzero;stroke:none"
                                   id="path154"
                                   inkscape:connector-curvature="0" /><g
                                   id="g156"
                                   transform="translate(0.395)"><path
                                   d="m 0.39062,-0.23438 v 0 H 0.10938 c 0,0.07292 0.01041,0.125 0.03124,0.156255 0.03126,0.041667 0.06771,0.0625 0.10938,0.0625 0.05208,0 0.08854,-0.015625 0.10938,-0.046875 0.01041,-0.020833 0.02083,-0.036458 0.03124,-0.04688 0,-0.01041 0.00521,-0.01562 0.01563,-0.01562 0.01042,0 0.01563,0 0.01563,0 0,0.02083 -0.01042,0.041667 -0.03126,0.0625 -0.03124,0.041667 -0.0677,0.0677083 -0.10937,0.078125 -0.01042,0 -0.02083,0 -0.03125,0 -0.0625,0 -0.11458,-0.026042 -0.15625,-0.078125 -0.041667,-0.04167 -0.0625,-0.09375 -0.0625,-0.15625 0,-0.07292 0.020833,-0.13021 0.0625,-0.17187 0.04167,-0.04167 0.08854,-0.0625 0.14063,-0.0625 0.07291,0 0.125,0.03124 0.15624,0.09374 0.02084,0.03126 0.03126,0.06771 0.03126,0.10938 0,0.01042 -0.00521,0.01562 -0.01563,0.01562 0,0 -0.00521,0 -0.01563,0 z M 0.10938,-0.25 v 0 h 0.23437 c 0,-0.0625 -0.01042,-0.10938 -0.03125,-0.14062 -0.02083,-0.02084 -0.04688,-0.03126 -0.07812,-0.03126 -0.03126,0 -0.0573,0.01563 -0.07813,0.04688 C 0.125,-0.34375 0.10938,-0.30208 0.10938,-0.25 Z"
                                   style="fill:#000000;fill-opacity:1;fill-rule:nonzero;stroke:none"
                                   id="path158"
                                   inkscape:connector-curvature="0" /><g
                                   id="g160"
                                   transform="translate(0.444)"><path
                                   d="M 0.35938,-0.39062 C 0.33854,-0.41146 0.30208,-0.42188 0.25,-0.42188 c -0.04167,0 -0.07292,0.02084 -0.09375,0.0625 -0.03125,0.03126 -0.04687,0.07813 -0.04687,0.14063 0,0.09375 0.03124,0.15625 0.09374,0.1875 0.02084,0.010417 0.04167,0.015625 0.0625,0.015625 0.0625,0 0.10417,-0.036458 0.125,-0.109375 0,0 0.00521,0 0.01563,0 0.01042,0 0.01563,0 0.01563,0 0,0.02083 -0.01042,0.041667 -0.03126,0.0625 C 0.35938,-0.010417 0.3125,0.015625 0.25,0.015625 c -0.0625,0 -0.11458,-0.026042 -0.15625,-0.078125 -0.041667,-0.04167 -0.0625,-0.09375 -0.0625,-0.15625 0,-0.0625 0.026042,-0.11979 0.07813,-0.17187 0.04166,-0.04167 0.08854,-0.0625 0.14062,-0.0625 0.05208,0 0.09375,0.01562 0.125,0.04687 0.02083,0.02083 0.03125,0.04167 0.03125,0.0625 0,0.03125 -0.01042,0.04687 -0.03125,0.04687 -0.01042,0 -0.01562,0 -0.01562,0 -0.02084,0 -0.03646,-0.01041 -0.04688,-0.03124 0,0 0,-0.00521 0,-0.01563 0,-0.02083 0.01042,-0.03646 0.03125,-0.04687 0.01042,0 0.01563,0 0.01563,0 z"
                                   style="fill:#000000;fill-opacity:1;fill-rule:nonzero;stroke:none"
                                   id="path162"
                                   inkscape:connector-curvature="0" /><g
                                   id="g164"
                                   transform="matrix(0.999992,0,0,0.999992,6.3038623,-1.65448e-4)"><path
                                   d="M 0.35938,-0.39062 C 0.33854,-0.41146 0.30208,-0.42188 0.25,-0.42188 c -0.04167,0 -0.07292,0.02084 -0.09375,0.0625 -0.03125,0.03126 -0.04687,0.07813 -0.04687,0.14063 0,0.09375 0.03124,0.15625 0.09374,0.1875 0.02084,0.010417 0.04167,0.015625 0.0625,0.015625 0.0625,0 0.10417,-0.036458 0.125,-0.109375 0,0 0.00521,0 0.01563,0 0.01042,0 0.01563,0 0.01563,0 0,0.02083 -0.01042,0.041667 -0.03126,0.0625 C 0.35938,-0.010417 0.3125,0.015625 0.25,0.015625 c -0.0625,0 -0.11458,-0.026042 -0.15625,-0.078125 -0.041667,-0.04167 -0.0625,-0.09375 -0.0625,-0.15625 0,-0.0625 0.026042,-0.11979 0.07813,-0.17187 0.04166,-0.04167 0.08854,-0.0625 0.14062,-0.0625 0.05208,0 0.09375,0.01562 0.125,0.04687 0.02083,0.02083 0.03125,0.04167 0.03125,0.0625 0,0.03125 -0.01042,0.04687 -0.03125,0.04687 -0.01042,0 -0.01562,0 -0.01562,0 -0.02084,0 -0.03646,-0.01041 -0.04688,-0.03124 0,0 0,-0.00521 0,-0.01563 0,-0.02083 0.01042,-0.03646 0.03125,-0.04687 0.01042,0 0.01563,0 0.01563,0 z"
                                   style="fill:#000000;fill-opacity:1;fill-rule:nonzero;stroke:none"
                                   id="path166"
                                   inkscape:connector-curvature="0" /><g
                                   id="g168"
                                   transform="translate(0.445)"><path
                                   d="m 0.20312,-0.1875 v 0 C 0.15104,-0.20833 0.11458,-0.22396 0.09375,-0.23438 c -0.010417,0 -0.015625,0 -0.015625,0 -0.03125,-0.03124 -0.046875,-0.0625 -0.046875,-0.09374 0,-0.04167 0.020833,-0.07292 0.0625,-0.09376 0.03125,-0.02083 0.0625,-0.03124 0.09375,-0.03124 0.04167,0 0.07292,0.01041 0.09375,0.03124 0.01042,0 0.01563,-0.0052 0.01563,-0.01562 0.01041,-0.01042 0.02083,-0.01562 0.03124,-0.01562 0,0.01041 0,0.02083 0,0.03124 v 0.09376 c 0,0.02083 0,0.03124 0,0.03124 v 0 0 0 c -0.01041,0 -0.01562,-0.0052 -0.01562,-0.01562 -0.01042,-0.0625 -0.03646,-0.09896 -0.07812,-0.10938 -0.01042,0 -0.02605,0 -0.04688,0 -0.0625,0 -0.098958,0.01563 -0.109375,0.04688 0,0.01042 0,0.01562 0,0.01562 0,0.04167 0.026045,0.06771 0.078125,0.07813 0.01042,0 0.02604,0.00521 0.04687,0.01563 0.05209,0.01041 0.08855,0.02083 0.10938,0.03124 0,0 0,0.00521 0,0.01563 0.03125,0.02083 0.04688,0.05208 0.04688,0.09375 0,0.052083 -0.02084,0.088542 -0.0625,0.109375 C 0.26562,0.0052083 0.23438,0.015625 0.20312,0.015625 0.16146,0.015625 0.125,0 0.09375,-0.03125 L 0.0625,-0.015625 C 0.052083,0.0052083 0.046875,0.015625 0.046875,0.015625 0.036458,0.0052083 0.03125,-0.0052083 0.03125,-0.015625 V -0.14062 c 0,-0.02084 0.005208,-0.03126 0.015625,-0.03126 v 0 0 0 c 0.010417,0 0.015625,0.00521 0.015625,0.01563 0,0 0,0 0,0 0.020833,0.083333 0.05208,0.130208 0.09375,0.140625 0.01042,0 0.02604,0 0.04687,0 0.05209,0 0.08855,-0.020833 0.10938,-0.0625 0,-0.010417 0,-0.020833 0,-0.031255 0,-0.04166 -0.03646,-0.0677 -0.10938,-0.07812 z"
                                   style="fill:#000000;fill-opacity:1;fill-rule:nonzero;stroke:none"
                                   id="path170"
                                   inkscape:connector-curvature="0" /><g
                                   id="g172"
                                   transform="translate(0.394)"><path
                                   d="M 0.35938,-0.39062 C 0.33854,-0.41146 0.30208,-0.42188 0.25,-0.42188 c -0.04167,0 -0.07292,0.02084 -0.09375,0.0625 -0.03125,0.03126 -0.04687,0.07813 -0.04687,0.14063 0,0.09375 0.03124,0.15625 0.09374,0.1875 0.02084,0.010417 0.04167,0.015625 0.0625,0.015625 0.0625,0 0.10417,-0.036458 0.125,-0.109375 0,0 0.00521,0 0.01563,0 0.01042,0 0.01563,0 0.01563,0 0,0.02083 -0.01042,0.041667 -0.03126,0.0625 C 0.35938,-0.010417 0.3125,0.015625 0.25,0.015625 c -0.0625,0 -0.11458,-0.026042 -0.15625,-0.078125 -0.041667,-0.04167 -0.0625,-0.09375 -0.0625,-0.15625 0,-0.0625 0.026042,-0.11979 0.07813,-0.17187 0.04166,-0.04167 0.08854,-0.0625 0.14062,-0.0625 0.05208,0 0.09375,0.01562 0.125,0.04687 0.02083,0.02083 0.03125,0.04167 0.03125,0.0625 0,0.03125 -0.01042,0.04687 -0.03125,0.04687 -0.01042,0 -0.01562,0 -0.01562,0 -0.02084,0 -0.03646,-0.01041 -0.04688,-0.03124 0,0 0,-0.00521 0,-0.01563 0,-0.02083 0.01042,-0.03646 0.03125,-0.04687 0.01042,0 0.01563,0 0.01563,0 z"
                                   style="fill:#000000;fill-opacity:1;fill-rule:nonzero;stroke:none"
                                   id="path174"
                                   inkscape:connector-curvature="0" /><g
                                   id="g176"
                                   transform="matrix(0.035714,0,0,0.035714,-18.053,-20.681)" /></g></g></g></g></g></g></g></g></g></g></g></g></g></g></g></g></g></g></g></g></g></g><g
           id="g178"
           transform="scale(0.56693)" /></g></g></g></svg>