<?xml version="1.0" encoding="UTF-8" standalone="no"?>
<!DOCTYPE svg PUBLIC "-//W3C//DTD SVG 1.1//EN"
 "http://www.w3.org/Graphics/SVG/1.1/DTD/svg11.dtd">
<!-- Generated by graphviz version 2.38.0 (20140413.2041)
 -->
<!-- Title: %1901 Pages: 1 -->
<svg width="824pt" height="242pt"
 viewBox="0.00 0.00 824.00 242.00" xmlns="http://www.w3.org/2000/svg" xmlns:xlink="http://www.w3.org/1999/xlink">
<g id="graph0" class="graph" transform="scale(1 1) rotate(0) translate(4 238)">
<title>%1901</title>
<polygon fill="white" stroke="none" points="-4,4 -4,-238 820,-238 820,4 -4,4"/>
<!-- AxM -->
<g id="node1" class="node"><title>AxM</title>
<text text-anchor="middle" x="54" y="-186.5" font-family="Consola" font-size="10.00">∀x[Q(x) ∧ P(x)]</text>
</g>
<!-- AxAyM -->
<g id="node2" class="node"><title>AxAyM</title>
<text text-anchor="middle" x="54" y="-114.5" font-family="Consola" font-size="10.00">∀x∀y[Q(x) ∧ P(y)]</text>
</g>
<!-- AxM&#45;&gt;AxAyM -->
<g id="edge1" class="edge"><title>AxM&#45;&gt;AxAyM</title>
<path fill="none" stroke="black" d="M53,-160.938C53,-155.73 53,-150.522 53,-145.314"/>
<path fill="none" stroke="black" d="M55,-160.938C55,-155.73 55,-150.522 55,-145.314"/>
<polygon fill="black" stroke="black" points="50.5001,-160.954 54,-170.954 57.5001,-160.954 50.5001,-160.954"/>
<polygon fill="black" stroke="black" points="57.5001,-145.281 54,-135.281 50.5001,-145.281 57.5001,-145.281"/>
</g>
<!-- AxMAy -->
<g id="node3" class="node"><title>AxMAy</title>
<text text-anchor="middle" x="54" y="-42.5" font-family="Consola" font-size="10.00">∀x[Q(x)] ∧ ∀y[P(y)]</text>
</g>
<!-- AxAyM&#45;&gt;AxMAy -->
<g id="edge7" class="edge"><title>AxAyM&#45;&gt;AxMAy</title>
<path fill="none" stroke="black" d="M53,-88.9384C53,-83.7303 53,-78.5222 53,-73.3142"/>
<path fill="none" stroke="black" d="M55,-88.9384C55,-83.7303 55,-78.5222 55,-73.3142"/>
<polygon fill="black" stroke="black" points="50.5001,-88.9538 54,-98.9539 57.5001,-88.9539 50.5001,-88.9538"/>
<polygon fill="black" stroke="black" points="57.5001,-73.2812 54,-63.2813 50.5001,-73.2813 57.5001,-73.2812"/>
</g>
<!-- AxEyM -->
<g id="node5" class="node"><title>AxEyM</title>
<text text-anchor="middle" x="197" y="-141.5" font-family="Consola" font-size="10.00">∀x∃y[Q(x) ∧ P(y)]</text>
</g>
<!-- AxAyM&#45;&gt;AxEyM -->
<g id="edge15" class="edge"><title>AxAyM&#45;&gt;AxEyM</title>
<path fill="none" stroke="black" d="M104.899,-125.537C115.583,-127.583 126.967,-129.763 137.941,-131.864"/>
<path fill="none" stroke="black" d="M104.523,-127.501C115.207,-129.547 126.591,-131.727 137.565,-133.829"/>
<polygon fill="black" stroke="black" points="137.206,-136.305 147.685,-134.748 138.522,-129.43 137.206,-136.305"/>
</g>
<!-- ExAyM -->
<g id="node6" class="node"><title>ExAyM</title>
<text text-anchor="middle" x="197" y="-87.5" font-family="Consola" font-size="10.00">∃x∀y[Q(x) ∧ P(y)]</text>
</g>
<!-- AxAyM&#45;&gt;ExAyM -->
<g id="edge20" class="edge"><title>AxAyM&#45;&gt;ExAyM</title>
<path fill="none" stroke="black" d="M104.523,-106.499C115.207,-104.453 126.591,-102.273 137.565,-100.171"/>
<path fill="none" stroke="black" d="M104.899,-108.463C115.583,-106.417 126.967,-104.237 137.941,-102.136"/>
<polygon fill="black" stroke="black" points="138.522,-104.57 147.685,-99.2517 137.206,-97.695 138.522,-104.57"/>
</g>
<!-- AxMEy -->
<g id="node4" class="node"><title>AxMEy</title>
<text text-anchor="middle" x="197" y="-213.5" font-family="Consola" font-size="10.00">∀x[Q(x)] ∧ ∃y[P(y)]</text>
</g>
<!-- AxMEy&#45;&gt;AxEyM -->
<g id="edge2" class="edge"><title>AxMEy&#45;&gt;AxEyM</title>
<path fill="none" stroke="black" d="M196,-187.938C196,-182.73 196,-177.522 196,-172.314"/>
<path fill="none" stroke="black" d="M198,-187.938C198,-182.73 198,-177.522 198,-172.314"/>
<polygon fill="black" stroke="black" points="193.5,-187.954 197,-197.954 200.5,-187.954 193.5,-187.954"/>
<polygon fill="black" stroke="black" points="200.5,-172.281 197,-162.281 193.5,-172.281 200.5,-172.281"/>
</g>
<!-- AxEyM&#45;&gt;ExAyM -->
<!-- AxAyW -->
<g id="node9" class="node"><title>AxAyW</title>
<text text-anchor="middle" x="340" y="-141.5" font-family="Consola" font-size="10.00">∀x∀y[Q(x) ∨ P(y)]</text>
</g>
<!-- AxEyM&#45;&gt;AxAyW -->
<g id="edge16" class="edge"><title>AxEyM&#45;&gt;AxAyW</title>
<path fill="none" stroke="black" d="M246.13,-143C256.649,-143 267.91,-143 278.833,-143"/>
<path fill="none" stroke="black" d="M246.13,-145C256.649,-145 267.91,-145 278.833,-145"/>
<polygon fill="black" stroke="black" points="279.166,-147.5 289.166,-144 279.166,-140.5 279.166,-147.5"/>
</g>
<!-- ExM -->
<g id="node10" class="node"><title>ExM</title>
<text text-anchor="middle" x="340" y="-87.5" font-family="Consola" font-size="10.00">∃x[Q(x) ∧ P(x)]</text>
</g>
<!-- AxEyM&#45;&gt;ExM -->
<g id="edge25" class="edge"><title>AxEyM&#45;&gt;ExM</title>
<path fill="none" stroke="black" d="M244.986,-124.935C258.636,-119.707 273.59,-113.98 287.462,-108.667"/>
<path fill="none" stroke="black" d="M245.701,-126.802C259.352,-121.575 274.305,-115.848 288.177,-110.535"/>
<polygon fill="black" stroke="black" points="289.135,-112.845 297.222,-106 286.631,-106.308 289.135,-112.845"/>
</g>
<!-- ExMAy -->
<g id="node7" class="node"><title>ExMAy</title>
<text text-anchor="middle" x="197" y="-15.5" font-family="Consola" font-size="10.00">∃x[Q(x)] ∧ ∀y[P(y)]</text>
</g>
<!-- ExAyM&#45;&gt;ExMAy -->
<g id="edge13" class="edge"><title>ExAyM&#45;&gt;ExMAy</title>
<path fill="none" stroke="black" d="M196,-61.9384C196,-56.7303 196,-51.5222 196,-46.3142"/>
<path fill="none" stroke="black" d="M198,-61.9384C198,-56.7303 198,-51.5222 198,-46.3142"/>
<polygon fill="black" stroke="black" points="193.5,-61.9538 197,-71.9539 200.5,-61.9539 193.5,-61.9538"/>
<polygon fill="black" stroke="black" points="200.5,-46.2812 197,-36.2813 193.5,-46.2813 200.5,-46.2812"/>
</g>
<!-- ExAyM&#45;&gt;AxAyW -->
<g id="edge27" class="edge"><title>ExAyM&#45;&gt;AxAyW</title>
<path fill="none" stroke="black" d="M245.701,-107.198C257.443,-111.694 270.149,-116.561 282.301,-121.215"/>
<path fill="none" stroke="black" d="M244.986,-109.065C256.727,-113.562 269.433,-118.428 281.586,-123.082"/>
<polygon fill="black" stroke="black" points="280.951,-125.516 291.542,-125.824 283.455,-118.979 280.951,-125.516"/>
</g>
<!-- ExAyM&#45;&gt;ExM -->
<g id="edge21" class="edge"><title>ExAyM&#45;&gt;ExM</title>
<path fill="none" stroke="black" d="M246.13,-89C259.353,-89 273.748,-89 287.17,-89"/>
<path fill="none" stroke="black" d="M246.13,-91C259.353,-91 273.748,-91 287.17,-91"/>
<polygon fill="black" stroke="black" points="287.208,-93.5001 297.208,-90 287.208,-86.5001 287.208,-93.5001"/>
</g>
<!-- AxWAy -->
<g id="node8" class="node"><title>AxWAy</title>
<text text-anchor="middle" x="340" y="-213.5" font-family="Consola" font-size="10.00">∀x[Q(x)] ∨ ∀y[P(y)]</text>
</g>
<!-- AxWAy&#45;&gt;AxAyW -->
<g id="edge3" class="edge"><title>AxWAy&#45;&gt;AxAyW</title>
<path fill="none" stroke="black" d="M339,-187.938C339,-182.73 339,-177.522 339,-172.314"/>
<path fill="none" stroke="black" d="M341,-187.938C341,-182.73 341,-177.522 341,-172.314"/>
<polygon fill="black" stroke="black" points="336.5,-187.954 340,-197.954 343.5,-187.954 336.5,-187.954"/>
<polygon fill="black" stroke="black" points="343.5,-172.281 340,-162.281 336.5,-172.281 343.5,-172.281"/>
</g>
<!-- AxAyW&#45;&gt;ExM -->
<!-- AxW -->
<g id="node11" class="node"><title>AxW</title>
<text text-anchor="middle" x="482" y="-141.5" font-family="Consola" font-size="10.00">∀x[Q(x) ∨ P(x)]</text>
</g>
<!-- AxAyW&#45;&gt;AxW -->
<g id="edge17" class="edge"><title>AxAyW&#45;&gt;AxW</title>
<path fill="none" stroke="black" d="M390.753,-143C402.91,-143 415.959,-143 428.252,-143"/>
<path fill="none" stroke="black" d="M390.753,-145C402.91,-145 415.959,-145 428.252,-145"/>
<polygon fill="black" stroke="black" points="428.363,-147.5 438.363,-144 428.363,-140.5 428.363,-147.5"/>
</g>
<!-- ExEyM -->
<g id="node12" class="node"><title>ExEyM</title>
<text text-anchor="middle" x="482" y="-87.5" font-family="Consola" font-size="10.00">∃x∃y[Q(x) ∧ P(y)]</text>
</g>
<!-- ExM&#45;&gt;ExEyM -->
<g id="edge22" class="edge"><title>ExM&#45;&gt;ExEyM</title>
<path fill="none" stroke="black" d="M382.626,-89C395.471,-89 409.852,-89 423.567,-89"/>
<path fill="none" stroke="black" d="M382.626,-91C395.471,-91 409.852,-91 423.567,-91"/>
<polygon fill="black" stroke="black" points="423.889,-93.5001 433.889,-90 423.889,-86.5001 423.889,-93.5001"/>
</g>
<!-- AxW&#45;&gt;ExEyM -->
<!-- AxEyW -->
<g id="node15" class="node"><title>AxEyW</title>
<text text-anchor="middle" x="623" y="-141.5" font-family="Consola" font-size="10.00">∀x∃y[Q(x) ∨ P(y)]</text>
</g>
<!-- AxW&#45;&gt;AxEyW -->
<g id="edge18" class="edge"><title>AxW&#45;&gt;AxEyW</title>
<path fill="none" stroke="black" d="M525.839,-143C537.798,-143 550.998,-143 563.688,-143"/>
<path fill="none" stroke="black" d="M525.839,-145C537.798,-145 550.998,-145 563.688,-145"/>
<polygon fill="black" stroke="black" points="563.721,-147.5 573.721,-144 563.721,-140.5 563.721,-147.5"/>
</g>
<!-- ExAyW -->
<g id="node16" class="node"><title>ExAyW</title>
<text text-anchor="middle" x="623" y="-87.5" font-family="Consola" font-size="10.00">∃x∀y[Q(x) ∨ P(y)]</text>
</g>
<!-- AxW&#45;&gt;ExAyW -->
<g id="edge26" class="edge"><title>AxW&#45;&gt;ExAyW</title>
<path fill="none" stroke="black" d="M525.477,-126.425C538.058,-121.538 552.013,-116.117 565.301,-110.954"/>
<path fill="none" stroke="black" d="M526.201,-128.29C538.782,-123.402 552.737,-117.981 566.025,-112.818"/>
<polygon fill="black" stroke="black" points="567.138,-115.068 575.192,-108.184 564.603,-108.543 567.138,-115.068"/>
</g>
<!-- ExMEy -->
<g id="node13" class="node"><title>ExMEy</title>
<text text-anchor="middle" x="482" y="-15.5" font-family="Consola" font-size="10.00">∃x[Q(x)] ∧ ∃y[P(y)]</text>
</g>
<!-- ExEyM&#45;&gt;ExMEy -->
<g id="edge10" class="edge"><title>ExEyM&#45;&gt;ExMEy</title>
<path fill="none" stroke="black" d="M481,-61.9384C481,-56.7303 481,-51.5222 481,-46.3142"/>
<path fill="none" stroke="black" d="M483,-61.9384C483,-56.7303 483,-51.5222 483,-46.3142"/>
<polygon fill="black" stroke="black" points="478.5,-61.9538 482,-71.9539 485.5,-61.9539 478.5,-61.9538"/>
<polygon fill="black" stroke="black" points="485.5,-46.2812 482,-36.2813 478.5,-46.2813 485.5,-46.2812"/>
</g>
<!-- ExEyM&#45;&gt;AxEyW -->
<g id="edge28" class="edge"><title>ExEyM&#45;&gt;AxEyW</title>
<path fill="none" stroke="black" d="M530.034,-107.199C541.609,-111.696 554.135,-116.562 566.115,-121.216"/>
<path fill="none" stroke="black" d="M529.31,-109.064C540.885,-113.56 553.41,-118.427 565.391,-123.081"/>
<polygon fill="black" stroke="black" points="564.626,-125.466 575.215,-125.824 567.161,-118.941 564.626,-125.466"/>
</g>
<!-- ExEyM&#45;&gt;ExAyW -->
<g id="edge23" class="edge"><title>ExEyM&#45;&gt;ExAyW</title>
<path fill="none" stroke="black" d="M530.059,-89C540.793,-89 552.326,-89 563.473,-89"/>
<path fill="none" stroke="black" d="M530.059,-91C540.793,-91 552.326,-91 563.473,-91"/>
<polygon fill="black" stroke="black" points="563.568,-93.5001 573.567,-90 563.567,-86.5001 563.568,-93.5001"/>
</g>
<!-- AxWEy -->
<g id="node14" class="node"><title>AxWEy</title>
<text text-anchor="middle" x="623" y="-213.5" font-family="Consola" font-size="10.00">∀x[Q(x)] ∨ ∃y[P(y)]</text>
</g>
<!-- AxWEy&#45;&gt;AxEyW -->
<g id="edge5" class="edge"><title>AxWEy&#45;&gt;AxEyW</title>
<path fill="none" stroke="black" d="M622,-187.938C622,-182.73 622,-177.522 622,-172.314"/>
<path fill="none" stroke="black" d="M624,-187.938C624,-182.73 624,-177.522 624,-172.314"/>
<polygon fill="black" stroke="black" points="619.5,-187.954 623,-197.954 626.5,-187.954 619.5,-187.954"/>
<polygon fill="black" stroke="black" points="626.5,-172.281 623,-162.281 619.5,-172.281 626.5,-172.281"/>
</g>
<!-- AxEyW&#45;&gt;ExAyW -->
<!-- ExEyW -->
<g id="node19" class="node"><title>ExEyW</title>
<text text-anchor="middle" x="764" y="-114.5" font-family="Consola" font-size="10.00">∃x∃y[Q(x) ∨ P(y)]</text>
</g>
<!-- AxEyW&#45;&gt;ExEyW -->
<g id="edge19" class="edge"><title>AxEyW&#45;&gt;ExEyW</title>
<path fill="none" stroke="black" d="M672.035,-133.651C682.841,-131.552 694.406,-129.305 705.539,-127.143"/>
<path fill="none" stroke="black" d="M672.416,-135.614C683.222,-133.515 694.788,-131.269 705.921,-129.106"/>
<polygon fill="black" stroke="black" points="706.649,-131.511 715.799,-126.169 705.315,-124.64 706.649,-131.511"/>
</g>
<!-- ExWAy -->
<g id="node17" class="node"><title>ExWAy</title>
<text text-anchor="middle" x="623" y="-15.5" font-family="Consola" font-size="10.00">∃x[Q(x)] ∨ ∀y[P(y)]</text>
</g>
<!-- ExAyW&#45;&gt;ExWAy -->
<g id="edge14" class="edge"><title>ExAyW&#45;&gt;ExWAy</title>
<path fill="none" stroke="black" d="M622,-61.9384C622,-56.7303 622,-51.5222 622,-46.3142"/>
<path fill="none" stroke="black" d="M624,-61.9384C624,-56.7303 624,-51.5222 624,-46.3142"/>
<polygon fill="black" stroke="black" points="619.5,-61.9538 623,-71.9539 626.5,-61.9539 619.5,-61.9538"/>
<polygon fill="black" stroke="black" points="626.5,-46.2812 623,-36.2813 619.5,-46.2813 626.5,-46.2812"/>
</g>
<!-- ExAyW&#45;&gt;ExEyW -->
<g id="edge24" class="edge"><title>ExAyW&#45;&gt;ExEyW</title>
<path fill="none" stroke="black" d="M672.416,-98.3859C683.222,-100.485 694.788,-102.731 705.921,-104.894"/>
<path fill="none" stroke="black" d="M672.035,-100.349C682.841,-102.448 694.406,-104.695 705.539,-106.857"/>
<polygon fill="black" stroke="black" points="705.315,-109.36 715.799,-107.831 706.649,-102.489 705.315,-109.36"/>
</g>
<!-- ExWEy -->
<g id="node18" class="node"><title>ExWEy</title>
<text text-anchor="middle" x="764" y="-186.5" font-family="Consola" font-size="10.00">∃x[Q(x)] ∨ ∃y[P(y)]</text>
</g>
<!-- ExWEy&#45;&gt;ExEyW -->
<g id="edge6" class="edge"><title>ExWEy&#45;&gt;ExEyW</title>
<path fill="none" stroke="black" d="M763,-160.938C763,-155.73 763,-150.522 763,-145.314"/>
<path fill="none" stroke="black" d="M765,-160.938C765,-155.73 765,-150.522 765,-145.314"/>
<polygon fill="black" stroke="black" points="760.5,-160.954 764,-170.954 767.5,-160.954 760.5,-160.954"/>
<polygon fill="black" stroke="black" points="767.5,-145.281 764,-135.281 760.5,-145.281 767.5,-145.281"/>
</g>
<!-- ExW -->
<g id="node20" class="node"><title>ExW</title>
<text text-anchor="middle" x="764" y="-42.5" font-family="Consola" font-size="10.00">∃x[Q(x) ∨ P(x)]</text>
</g>
<!-- ExEyW&#45;&gt;ExW -->
<g id="edge12" class="edge"><title>ExEyW&#45;&gt;ExW</title>
<path fill="none" stroke="black" d="M763,-88.9384C763,-83.7303 763,-78.5222 763,-73.3142"/>
<path fill="none" stroke="black" d="M765,-88.9384C765,-83.7303 765,-78.5222 765,-73.3142"/>
<polygon fill="black" stroke="black" points="760.5,-88.9538 764,-98.9539 767.5,-88.9539 760.5,-88.9538"/>
<polygon fill="black" stroke="black" points="767.5,-73.2812 764,-63.2813 760.5,-73.2813 767.5,-73.2812"/>
</g>
</g>
</svg>
