<?xml version="1.0" encoding="UTF-8" standalone="no"?>
<!DOCTYPE svg PUBLIC "-//W3C//DTD SVG 1.1//EN"
 "http://www.w3.org/Graphics/SVG/1.1/DTD/svg11.dtd">
<!-- Generated by graphviz version 2.38.0 (20140413.2041)
 -->
<!-- Title: %435 Pages: 1 -->
<svg width="428pt" height="152pt"
 viewBox="0.00 0.00 428.00 152.00" xmlns="http://www.w3.org/2000/svg" xmlns:xlink="http://www.w3.org/1999/xlink">
<g id="graph0" class="graph" transform="scale(1 1) rotate(0) translate(4 148)">
<title>%435</title>
<polygon fill="white" stroke="none" points="-4,4 -4,-148 424,-148 424,4 -4,4"/>
<!-- AxAy -->
<g id="node1" class="node"><title>AxAy</title>
<text text-anchor="middle" x="40" y="-105.5" font-family="Consola" font-size="10.00">∀x∀y[Q(x, y)]</text>
</g>
<!-- AyAx -->
<g id="node2" class="node"><title>AyAx</title>
<text text-anchor="middle" x="40" y="-33.5" font-family="Consola" font-size="10.00">∀y∀x[Q(x, y)]</text>
</g>
<!-- AxAy&#45;&gt;AyAx -->
<g id="edge1" class="edge"><title>AxAy&#45;&gt;AyAx</title>
<path fill="none" stroke="black" d="M39,-79.9384C39,-74.7303 39,-69.5222 39,-64.3142"/>
<path fill="none" stroke="black" d="M41,-79.9384C41,-74.7303 41,-69.5222 41,-64.3142"/>
<polygon fill="black" stroke="black" points="36.5001,-79.9538 40,-89.9539 43.5001,-79.9539 36.5001,-79.9538"/>
<polygon fill="black" stroke="black" points="43.5001,-64.2812 40,-54.2813 36.5001,-64.2813 43.5001,-64.2812"/>
</g>
<!-- EyAx -->
<g id="node3" class="node"><title>EyAx</title>
<text text-anchor="middle" x="155" y="-123.5" font-family="Consola" font-size="10.00">∃y∀x[Q(x, y)]</text>
</g>
<!-- AxAy&#45;&gt;EyAx -->
<g id="edge3" class="edge"><title>AxAy&#45;&gt;EyAx</title>
<path fill="none" stroke="black" d="M80.3621,-113.257C88.5194,-114.557 97.209,-115.941 105.655,-117.286"/>
<path fill="none" stroke="black" d="M80.0475,-115.233C88.2048,-116.532 96.8943,-117.916 105.341,-119.262"/>
<polygon fill="black" stroke="black" points="105.201,-121.771 115.628,-119.888 106.303,-114.858 105.201,-121.771"/>
</g>
<!-- Az -->
<g id="node4" class="node"><title>Az</title>
<text text-anchor="middle" x="155" y="-69.5" font-family="Consola" font-size="10.00">∀z[Q(z, z)]</text>
</g>
<!-- AxAy&#45;&gt;Az -->
<g id="edge6" class="edge"><title>AxAy&#45;&gt;Az</title>
<path fill="none" stroke="black" d="M79.9012,-94.5572C90.0455,-91.3253 101.013,-87.8313 111.312,-84.5502"/>
<path fill="none" stroke="black" d="M80.5083,-96.4628C90.6527,-93.231 101.62,-89.7369 111.919,-86.4558"/>
<polygon fill="black" stroke="black" points="112.771,-88.8084 121.236,-82.438 110.646,-82.1387 112.771,-88.8084"/>
</g>
<!-- AyAx&#45;&gt;Az -->
<g id="edge9" class="edge"><title>AyAx&#45;&gt;Az</title>
<path fill="none" stroke="black" d="M80.5083,-47.5372C90.6527,-50.769 101.62,-54.2631 111.919,-57.5442"/>
<path fill="none" stroke="black" d="M79.9012,-49.4428C90.0455,-52.6747 101.013,-56.1687 111.312,-59.4498"/>
<polygon fill="black" stroke="black" points="110.646,-61.8613 121.236,-61.562 112.771,-55.1916 110.646,-61.8613"/>
</g>
<!-- ExAy -->
<g id="node5" class="node"><title>ExAy</title>
<text text-anchor="middle" x="155" y="-15.5" font-family="Consola" font-size="10.00">∃x∀y[Q(x, y)]</text>
</g>
<!-- AyAx&#45;&gt;ExAy -->
<g id="edge12" class="edge"><title>AyAx&#45;&gt;ExAy</title>
<path fill="none" stroke="black" d="M80.0475,-28.7674C88.2048,-27.4681 96.8943,-26.0839 105.341,-24.7385"/>
<path fill="none" stroke="black" d="M80.3621,-30.7425C88.5194,-29.4431 97.209,-28.059 105.655,-26.7136"/>
<polygon fill="black" stroke="black" points="106.303,-29.142 115.628,-24.1124 105.201,-22.2292 106.303,-29.142"/>
</g>
<!-- AxEy -->
<g id="node6" class="node"><title>AxEy</title>
<text text-anchor="middle" x="269" y="-123.5" font-family="Consola" font-size="10.00">∀x∃y[Q(x, y)]</text>
</g>
<!-- EyAx&#45;&gt;AxEy -->
<g id="edge4" class="edge"><title>EyAx&#45;&gt;AxEy</title>
<path fill="none" stroke="black" d="M194.231,-125C202.43,-125 211.197,-125 219.72,-125"/>
<path fill="none" stroke="black" d="M194.231,-127C202.43,-127 211.197,-127 219.72,-127"/>
<polygon fill="black" stroke="black" points="219.942,-129.5 229.942,-126 219.941,-122.5 219.942,-129.5"/>
</g>
<!-- Ez -->
<g id="node7" class="node"><title>Ez</title>
<text text-anchor="middle" x="269" y="-69.5" font-family="Consola" font-size="10.00">∃z[Q(z, z)]</text>
</g>
<!-- EyAx&#45;&gt;Ez -->
<g id="edge7" class="edge"><title>EyAx&#45;&gt;Ez</title>
<path fill="none" stroke="black" d="M193.172,-106.968C203.887,-101.802 215.612,-96.1482 226.521,-90.8886"/>
<path fill="none" stroke="black" d="M194.04,-108.769C204.755,-103.603 216.481,-97.9497 227.39,-92.6902"/>
<polygon fill="black" stroke="black" points="228.798,-94.7867 236.285,-87.2909 225.758,-88.4813 228.798,-94.7867"/>
</g>
<!-- Az&#45;&gt;AxEy -->
<g id="edge10" class="edge"><title>Az&#45;&gt;AxEy</title>
<path fill="none" stroke="black" d="M189.13,-86.8634C199.32,-91.7762 210.762,-97.2931 221.717,-102.575"/>
<path fill="none" stroke="black" d="M188.262,-88.665C198.451,-93.5778 209.894,-99.0946 220.848,-104.376"/>
<polygon fill="black" stroke="black" points="219.804,-106.648 230.332,-107.839 222.844,-100.343 219.804,-106.648"/>
</g>
<!-- AyEx -->
<g id="node8" class="node"><title>AyEx</title>
<text text-anchor="middle" x="269" y="-15.5" font-family="Consola" font-size="10.00">∀y∃x[Q(x, y)]</text>
</g>
<!-- Az&#45;&gt;AyEx -->
<g id="edge13" class="edge"><title>Az&#45;&gt;AyEx</title>
<path fill="none" stroke="black" d="M188.262,-55.335C198.451,-50.4222 209.894,-44.9054 220.848,-39.6236"/>
<path fill="none" stroke="black" d="M189.13,-57.1366C199.32,-52.2238 210.762,-46.7069 221.717,-41.4252"/>
<polygon fill="black" stroke="black" points="222.844,-43.6571 230.332,-36.1614 219.804,-37.3518 222.844,-43.6571"/>
</g>
<!-- ExAy&#45;&gt;Ez -->
<g id="edge15" class="edge"><title>ExAy&#45;&gt;Ez</title>
<path fill="none" stroke="black" d="M194.04,-35.2307C204.755,-40.3968 216.481,-46.0503 227.39,-51.3098"/>
<path fill="none" stroke="black" d="M193.172,-37.0322C203.887,-42.1984 215.612,-47.8518 226.521,-53.1114"/>
<polygon fill="black" stroke="black" points="225.758,-55.5187 236.285,-56.7091 228.798,-49.2133 225.758,-55.5187"/>
</g>
<!-- ExAy&#45;&gt;AyEx -->
<g id="edge16" class="edge"><title>ExAy&#45;&gt;AyEx</title>
<path fill="none" stroke="black" d="M194.231,-17C202.43,-17 211.197,-17 219.72,-17"/>
<path fill="none" stroke="black" d="M194.231,-19C202.43,-19 211.197,-19 219.72,-19"/>
<polygon fill="black" stroke="black" points="219.942,-21.5001 229.942,-18 219.941,-14.5001 219.942,-21.5001"/>
</g>
<!-- ExEy -->
<g id="node9" class="node"><title>ExEy</title>
<text text-anchor="middle" x="382" y="-105.5" font-family="Consola" font-size="10.00">∃x∃y[Q(x, y)]</text>
</g>
<!-- AxEy&#45;&gt;ExEy -->
<g id="edge5" class="edge"><title>AxEy&#45;&gt;ExEy</title>
<path fill="none" stroke="black" d="M308.04,-118.818C316.333,-117.473 325.2,-116.036 333.79,-114.643"/>
<path fill="none" stroke="black" d="M308.36,-120.793C316.654,-119.448 325.52,-118.01 334.11,-116.617"/>
<polygon fill="black" stroke="black" points="334.545,-119.079 343.855,-114.023 333.424,-112.169 334.545,-119.079"/>
</g>
<!-- Ez&#45;&gt;ExEy -->
<g id="edge8" class="edge"><title>Ez&#45;&gt;ExEy</title>
<path fill="none" stroke="black" d="M301.82,-81.2686C312.032,-84.5807 323.586,-88.3279 334.657,-91.9187"/>
<path fill="none" stroke="black" d="M301.203,-83.1711C311.415,-86.4831 322.969,-90.2303 334.04,-93.8211"/>
<polygon fill="black" stroke="black" points="333.316,-96.2145 343.908,-95.9703 335.476,-89.5559 333.316,-96.2145"/>
</g>
<!-- EyEx -->
<g id="node10" class="node"><title>EyEx</title>
<text text-anchor="middle" x="382" y="-33.5" font-family="Consola" font-size="10.00">∃y∃x[Q(x, y)]</text>
</g>
<!-- Ez&#45;&gt;EyEx -->
<g id="edge11" class="edge"><title>Ez&#45;&gt;EyEx</title>
<path fill="none" stroke="black" d="M301.203,-60.8289C311.415,-57.5169 322.969,-53.7697 334.04,-50.1789"/>
<path fill="none" stroke="black" d="M301.82,-62.7314C312.032,-59.4193 323.586,-55.6721 334.657,-52.0813"/>
<polygon fill="black" stroke="black" points="335.476,-54.4441 343.908,-48.0297 333.316,-47.7855 335.476,-54.4441"/>
</g>
<!-- AyEx&#45;&gt;EyEx -->
<g id="edge14" class="edge"><title>AyEx&#45;&gt;EyEx</title>
<path fill="none" stroke="black" d="M308.36,-23.2075C316.654,-24.5524 325.52,-25.9902 334.11,-27.3831"/>
<path fill="none" stroke="black" d="M308.04,-25.1817C316.333,-26.5266 325.2,-27.9644 333.79,-29.3573"/>
<polygon fill="black" stroke="black" points="333.424,-31.8306 343.855,-29.9765 334.545,-24.9209 333.424,-31.8306"/>
</g>
<!-- ExEy&#45;&gt;EyEx -->
<g id="edge2" class="edge"><title>ExEy&#45;&gt;EyEx</title>
<path fill="none" stroke="black" d="M381,-79.9384C381,-74.7303 381,-69.5222 381,-64.3142"/>
<path fill="none" stroke="black" d="M383,-79.9384C383,-74.7303 383,-69.5222 383,-64.3142"/>
<polygon fill="black" stroke="black" points="378.5,-79.9538 382,-89.9539 385.5,-79.9539 378.5,-79.9538"/>
<polygon fill="black" stroke="black" points="385.5,-64.2812 382,-54.2813 378.5,-64.2813 385.5,-64.2812"/>
</g>
</g>
</svg>
