<?xml version="1.0" encoding="UTF-8" standalone="no"?>
<!DOCTYPE svg PUBLIC "-//W3C//DTD SVG 1.1//EN"
 "http://www.w3.org/Graphics/SVG/1.1/DTD/svg11.dtd">
<!-- Generated by graphviz version 2.38.0 (20140413.2041)
 -->
<!-- Title: %3183 Pages: 1 -->
<svg width="1068pt" height="386pt"
 viewBox="0.00 0.00 1068.00 386.00" xmlns="http://www.w3.org/2000/svg" xmlns:xlink="http://www.w3.org/1999/xlink">
<g id="graph0" class="graph" transform="scale(1 1) rotate(0) translate(4 382)">
<title>%3183</title>
<polygon fill="white" stroke="none" points="-4,4 -4,-382 1064,-382 1064,4 -4,4"/>
<!-- AxM -->
<g id="node1" class="node"><title>AxM</title>
<text text-anchor="middle" x="43.5" y="-186.5" font-family="Consola" font-size="10.00">∀x[Q(x) ∧ P(x)]</text>
</g>
<!-- AxAyM -->
<g id="node3" class="node"><title>AxAyM</title>
<text text-anchor="middle" x="177" y="-186.5" font-family="Consola" font-size="10.00">∀x∀y[Q(x) ∧ P(y)]</text>
</g>
<!-- AxM&#45;&gt;AxAyM -->
<g id="edge21" class="edge"><title>AxM&#45;&gt;AxAyM</title>
<path fill="none" stroke="black" d="M97.342,-188C103.444,-188 109.7,-188 115.889,-188"/>
<path fill="none" stroke="black" d="M97.342,-190C103.444,-190 109.7,-190 115.889,-190"/>
<polygon fill="black" stroke="black" points="97.1943,-185.5 87.1943,-189 97.1942,-192.5 97.1943,-185.5"/>
<polygon fill="black" stroke="black" points="116.202,-192.5 126.202,-189 116.202,-185.5 116.202,-192.5"/>
</g>
<!-- AxMAy -->
<g id="node2" class="node"><title>AxMAy</title>
<text text-anchor="middle" x="177" y="-258.5" font-family="Consola" font-size="10.00">∀x[Q(x)] ∧ ∀y[P(y)]</text>
</g>
<!-- AxMAy&#45;&gt;AxAyM -->
<g id="edge1" class="edge"><title>AxMAy&#45;&gt;AxAyM</title>
<path fill="none" stroke="black" d="M176,-232.938C176,-227.73 176,-222.522 176,-217.314"/>
<path fill="none" stroke="black" d="M178,-232.938C178,-227.73 178,-222.522 178,-217.314"/>
<polygon fill="black" stroke="black" points="173.5,-232.954 177,-242.954 180.5,-232.954 173.5,-232.954"/>
<polygon fill="black" stroke="black" points="180.5,-217.281 177,-207.281 173.5,-217.281 180.5,-217.281"/>
</g>
<!-- AyAxM -->
<g id="node4" class="node"><title>AyAxM</title>
<text text-anchor="middle" x="177" y="-114.5" font-family="Consola" font-size="10.00">∀y∀x[Q(x) ∧ P(y)]</text>
</g>
<!-- AxAyM&#45;&gt;AyAxM -->
<g id="edge7" class="edge"><title>AxAyM&#45;&gt;AyAxM</title>
<path fill="none" stroke="black" d="M176,-160.938C176,-155.73 176,-150.522 176,-145.314"/>
<path fill="none" stroke="black" d="M178,-160.938C178,-155.73 178,-150.522 178,-145.314"/>
<polygon fill="black" stroke="black" points="173.5,-160.954 177,-170.954 180.5,-160.954 173.5,-160.954"/>
<polygon fill="black" stroke="black" points="180.5,-145.281 177,-135.281 173.5,-145.281 180.5,-145.281"/>
</g>
<!-- AxEyM -->
<g id="node7" class="node"><title>AxEyM</title>
<text text-anchor="middle" x="320" y="-213.5" font-family="Consola" font-size="10.00">∀x∃y[Q(x) ∧ P(y)]</text>
</g>
<!-- AxAyM&#45;&gt;AxEyM -->
<g id="edge22" class="edge"><title>AxAyM&#45;&gt;AxEyM</title>
<path fill="none" stroke="black" d="M227.899,-197.537C238.583,-199.583 249.967,-201.763 260.941,-203.864"/>
<path fill="none" stroke="black" d="M227.523,-199.501C238.207,-201.547 249.591,-203.727 260.565,-205.829"/>
<polygon fill="black" stroke="black" points="260.206,-208.305 270.685,-206.748 261.522,-201.43 260.206,-208.305"/>
</g>
<!-- ExAyM -->
<g id="node8" class="node"><title>ExAyM</title>
<text text-anchor="middle" x="320" y="-159.5" font-family="Consola" font-size="10.00">∃x∀y[Q(x) ∧ P(y)]</text>
</g>
<!-- AxAyM&#45;&gt;ExAyM -->
<g id="edge28" class="edge"><title>AxAyM&#45;&gt;ExAyM</title>
<path fill="none" stroke="black" d="M227.523,-178.499C238.207,-176.453 249.591,-174.273 260.565,-172.171"/>
<path fill="none" stroke="black" d="M227.899,-180.463C238.583,-178.417 249.967,-176.237 260.941,-174.136"/>
<polygon fill="black" stroke="black" points="261.522,-176.57 270.685,-171.252 260.206,-169.695 261.522,-176.57"/>
</g>
<!-- EyAxM -->
<g id="node5" class="node"><title>EyAxM</title>
<text text-anchor="middle" x="320" y="-357.5" font-family="Consola" font-size="10.00">∃y∀x[Q(x) ∧ P(y)]</text>
</g>
<!-- AxMEy -->
<g id="node6" class="node"><title>AxMEy</title>
<text text-anchor="middle" x="320" y="-285.5" font-family="Consola" font-size="10.00">∀x[Q(x)] ∧ ∃y[P(y)]</text>
</g>
<!-- EyAxM&#45;&gt;AxMEy -->
<g id="edge2" class="edge"><title>EyAxM&#45;&gt;AxMEy</title>
<path fill="none" stroke="black" d="M319,-331.938C319,-326.73 319,-321.522 319,-316.314"/>
<path fill="none" stroke="black" d="M321,-331.938C321,-326.73 321,-321.522 321,-316.314"/>
<polygon fill="black" stroke="black" points="316.5,-331.954 320,-341.954 323.5,-331.954 316.5,-331.954"/>
<polygon fill="black" stroke="black" points="323.5,-316.281 320,-306.281 316.5,-316.281 323.5,-316.281"/>
</g>
<!-- AxMEy&#45;&gt;AxEyM -->
<g id="edge8" class="edge"><title>AxMEy&#45;&gt;AxEyM</title>
<path fill="none" stroke="black" d="M319,-259.938C319,-254.73 319,-249.522 319,-244.314"/>
<path fill="none" stroke="black" d="M321,-259.938C321,-254.73 321,-249.522 321,-244.314"/>
<polygon fill="black" stroke="black" points="316.5,-259.954 320,-269.954 323.5,-259.954 316.5,-259.954"/>
<polygon fill="black" stroke="black" points="323.5,-244.281 320,-234.281 316.5,-244.281 323.5,-244.281"/>
</g>
<!-- AxEyM&#45;&gt;ExAyM -->
<!-- AxAyW -->
<g id="node13" class="node"><title>AxAyW</title>
<text text-anchor="middle" x="463" y="-213.5" font-family="Consola" font-size="10.00">∀x∀y[Q(x) ∨ P(y)]</text>
</g>
<!-- AxEyM&#45;&gt;AxAyW -->
<g id="edge23" class="edge"><title>AxEyM&#45;&gt;AxAyW</title>
<path fill="none" stroke="black" d="M369.13,-215C379.649,-215 390.91,-215 401.833,-215"/>
<path fill="none" stroke="black" d="M369.13,-217C379.649,-217 390.91,-217 401.833,-217"/>
<polygon fill="black" stroke="black" points="402.166,-219.5 412.166,-216 402.166,-212.5 402.166,-219.5"/>
</g>
<!-- ExM -->
<g id="node14" class="node"><title>ExM</title>
<text text-anchor="middle" x="463" y="-159.5" font-family="Consola" font-size="10.00">∃x[Q(x) ∧ P(x)]</text>
</g>
<!-- AxEyM&#45;&gt;ExM -->
<g id="edge33" class="edge"><title>AxEyM&#45;&gt;ExM</title>
<path fill="none" stroke="black" d="M367.986,-196.935C381.636,-191.707 396.59,-185.98 410.462,-180.667"/>
<path fill="none" stroke="black" d="M368.701,-198.802C382.352,-193.575 397.305,-187.848 411.177,-182.535"/>
<polygon fill="black" stroke="black" points="412.135,-184.845 420.222,-178 409.631,-178.308 412.135,-184.845"/>
</g>
<!-- ExMAy -->
<g id="node9" class="node"><title>ExMAy</title>
<text text-anchor="middle" x="320" y="-87.5" font-family="Consola" font-size="10.00">∃x[Q(x)] ∧ ∀y[P(y)]</text>
</g>
<!-- ExAyM&#45;&gt;ExMAy -->
<g id="edge17" class="edge"><title>ExAyM&#45;&gt;ExMAy</title>
<path fill="none" stroke="black" d="M319,-133.938C319,-128.73 319,-123.522 319,-118.314"/>
<path fill="none" stroke="black" d="M321,-133.938C321,-128.73 321,-123.522 321,-118.314"/>
<polygon fill="black" stroke="black" points="316.5,-133.954 320,-143.954 323.5,-133.954 316.5,-133.954"/>
<polygon fill="black" stroke="black" points="323.5,-118.281 320,-108.281 316.5,-118.281 323.5,-118.281"/>
</g>
<!-- ExAyM&#45;&gt;AxAyW -->
<g id="edge35" class="edge"><title>ExAyM&#45;&gt;AxAyW</title>
<path fill="none" stroke="black" d="M368.701,-179.198C380.443,-183.694 393.149,-188.561 405.301,-193.215"/>
<path fill="none" stroke="black" d="M367.986,-181.065C379.727,-185.562 392.433,-190.428 404.586,-195.082"/>
<polygon fill="black" stroke="black" points="403.951,-197.516 414.542,-197.824 406.455,-190.979 403.951,-197.516"/>
</g>
<!-- ExAyM&#45;&gt;ExM -->
<g id="edge29" class="edge"><title>ExAyM&#45;&gt;ExM</title>
<path fill="none" stroke="black" d="M369.13,-161C382.353,-161 396.748,-161 410.17,-161"/>
<path fill="none" stroke="black" d="M369.13,-163C382.353,-163 396.748,-163 410.17,-163"/>
<polygon fill="black" stroke="black" points="410.208,-165.5 420.208,-162 410.208,-158.5 410.208,-165.5"/>
</g>
<!-- AyExM -->
<g id="node10" class="node"><title>AyExM</title>
<text text-anchor="middle" x="320" y="-15.5" font-family="Consola" font-size="10.00">∀y∃x[Q(x) ∧ P(y)]</text>
</g>
<!-- ExMAy&#45;&gt;AyExM -->
<g id="edge19" class="edge"><title>ExMAy&#45;&gt;AyExM</title>
<path fill="none" stroke="black" d="M319,-61.9384C319,-56.7303 319,-51.5222 319,-46.3142"/>
<path fill="none" stroke="black" d="M321,-61.9384C321,-56.7303 321,-51.5222 321,-46.3142"/>
<polygon fill="black" stroke="black" points="316.5,-61.9538 320,-71.9539 323.5,-61.9539 316.5,-61.9538"/>
<polygon fill="black" stroke="black" points="323.5,-46.2812 320,-36.2813 316.5,-46.2813 323.5,-46.2812"/>
</g>
<!-- AyAxW -->
<g id="node11" class="node"><title>AyAxW</title>
<text text-anchor="middle" x="463" y="-357.5" font-family="Consola" font-size="10.00">∀y∀x[Q(x) ∨ P(y)]</text>
</g>
<!-- AxWAy -->
<g id="node12" class="node"><title>AxWAy</title>
<text text-anchor="middle" x="463" y="-285.5" font-family="Consola" font-size="10.00">∀x[Q(x)] ∨ ∀y[P(y)]</text>
</g>
<!-- AyAxW&#45;&gt;AxWAy -->
<g id="edge3" class="edge"><title>AyAxW&#45;&gt;AxWAy</title>
<path fill="none" stroke="black" d="M462,-331.938C462,-326.73 462,-321.522 462,-316.314"/>
<path fill="none" stroke="black" d="M464,-331.938C464,-326.73 464,-321.522 464,-316.314"/>
<polygon fill="black" stroke="black" points="459.5,-331.954 463,-341.954 466.5,-331.954 459.5,-331.954"/>
<polygon fill="black" stroke="black" points="466.5,-316.281 463,-306.281 459.5,-316.281 466.5,-316.281"/>
</g>
<!-- AxWAy&#45;&gt;AxAyW -->
<g id="edge9" class="edge"><title>AxWAy&#45;&gt;AxAyW</title>
<path fill="none" stroke="black" d="M462,-259.938C462,-254.73 462,-249.522 462,-244.314"/>
<path fill="none" stroke="black" d="M464,-259.938C464,-254.73 464,-249.522 464,-244.314"/>
<polygon fill="black" stroke="black" points="459.5,-259.954 463,-269.954 466.5,-259.954 459.5,-259.954"/>
<polygon fill="black" stroke="black" points="466.5,-244.281 463,-234.281 459.5,-244.281 466.5,-244.281"/>
</g>
<!-- AxAyW&#45;&gt;ExM -->
<!-- AxW -->
<g id="node15" class="node"><title>AxW</title>
<text text-anchor="middle" x="605" y="-213.5" font-family="Consola" font-size="10.00">∀x[Q(x) ∨ P(x)]</text>
</g>
<!-- AxAyW&#45;&gt;AxW -->
<g id="edge24" class="edge"><title>AxAyW&#45;&gt;AxW</title>
<path fill="none" stroke="black" d="M513.753,-215C525.91,-215 538.959,-215 551.252,-215"/>
<path fill="none" stroke="black" d="M513.753,-217C525.91,-217 538.959,-217 551.252,-217"/>
<polygon fill="black" stroke="black" points="551.363,-219.5 561.363,-216 551.363,-212.5 551.363,-219.5"/>
</g>
<!-- ExEyM -->
<g id="node16" class="node"><title>ExEyM</title>
<text text-anchor="middle" x="605" y="-159.5" font-family="Consola" font-size="10.00">∃x∃y[Q(x) ∧ P(y)]</text>
</g>
<!-- ExM&#45;&gt;ExEyM -->
<g id="edge30" class="edge"><title>ExM&#45;&gt;ExEyM</title>
<path fill="none" stroke="black" d="M505.626,-161C518.471,-161 532.852,-161 546.567,-161"/>
<path fill="none" stroke="black" d="M505.626,-163C518.471,-163 532.852,-163 546.567,-163"/>
<polygon fill="black" stroke="black" points="546.889,-165.5 556.889,-162 546.889,-158.5 546.889,-165.5"/>
</g>
<!-- AxW&#45;&gt;ExEyM -->
<!-- AxEyW -->
<g id="node21" class="node"><title>AxEyW</title>
<text text-anchor="middle" x="746" y="-213.5" font-family="Consola" font-size="10.00">∀x∃y[Q(x) ∨ P(y)]</text>
</g>
<!-- AxW&#45;&gt;AxEyW -->
<g id="edge25" class="edge"><title>AxW&#45;&gt;AxEyW</title>
<path fill="none" stroke="black" d="M648.839,-215C660.798,-215 673.998,-215 686.688,-215"/>
<path fill="none" stroke="black" d="M648.839,-217C660.798,-217 673.998,-217 686.688,-217"/>
<polygon fill="black" stroke="black" points="686.721,-219.5 696.721,-216 686.721,-212.5 686.721,-219.5"/>
</g>
<!-- ExAyW -->
<g id="node22" class="node"><title>ExAyW</title>
<text text-anchor="middle" x="746" y="-159.5" font-family="Consola" font-size="10.00">∃x∀y[Q(x) ∨ P(y)]</text>
</g>
<!-- AxW&#45;&gt;ExAyW -->
<g id="edge34" class="edge"><title>AxW&#45;&gt;ExAyW</title>
<path fill="none" stroke="black" d="M648.477,-198.425C661.058,-193.538 675.013,-188.117 688.301,-182.954"/>
<path fill="none" stroke="black" d="M649.201,-200.29C661.782,-195.402 675.737,-189.981 689.025,-184.818"/>
<polygon fill="black" stroke="black" points="690.138,-187.068 698.192,-180.184 687.603,-180.543 690.138,-187.068"/>
</g>
<!-- ExMEy -->
<g id="node17" class="node"><title>ExMEy</title>
<text text-anchor="middle" x="605" y="-87.5" font-family="Consola" font-size="10.00">∃x[Q(x)] ∧ ∃y[P(y)]</text>
</g>
<!-- ExEyM&#45;&gt;ExMEy -->
<g id="edge10" class="edge"><title>ExEyM&#45;&gt;ExMEy</title>
<path fill="none" stroke="black" d="M604,-133.938C604,-128.73 604,-123.522 604,-118.314"/>
<path fill="none" stroke="black" d="M606,-133.938C606,-128.73 606,-123.522 606,-118.314"/>
<polygon fill="black" stroke="black" points="601.5,-133.954 605,-143.954 608.5,-133.954 601.5,-133.954"/>
<polygon fill="black" stroke="black" points="608.5,-118.281 605,-108.281 601.5,-118.281 608.5,-118.281"/>
</g>
<!-- ExEyM&#45;&gt;AxEyW -->
<g id="edge36" class="edge"><title>ExEyM&#45;&gt;AxEyW</title>
<path fill="none" stroke="black" d="M653.034,-179.199C664.609,-183.696 677.135,-188.562 689.115,-193.216"/>
<path fill="none" stroke="black" d="M652.31,-181.064C663.885,-185.56 676.41,-190.427 688.391,-195.081"/>
<polygon fill="black" stroke="black" points="687.626,-197.466 698.215,-197.824 690.161,-190.941 687.626,-197.466"/>
</g>
<!-- ExEyM&#45;&gt;ExAyW -->
<g id="edge31" class="edge"><title>ExEyM&#45;&gt;ExAyW</title>
<path fill="none" stroke="black" d="M653.059,-161C663.793,-161 675.326,-161 686.473,-161"/>
<path fill="none" stroke="black" d="M653.059,-163C663.793,-163 675.326,-163 686.473,-163"/>
<polygon fill="black" stroke="black" points="686.568,-165.5 696.567,-162 686.567,-158.5 686.568,-165.5"/>
</g>
<!-- EyExM -->
<g id="node18" class="node"><title>EyExM</title>
<text text-anchor="middle" x="605" y="-15.5" font-family="Consola" font-size="10.00">∃y∃x[Q(x) ∧ P(y)]</text>
</g>
<!-- ExMEy&#45;&gt;EyExM -->
<g id="edge15" class="edge"><title>ExMEy&#45;&gt;EyExM</title>
<path fill="none" stroke="black" d="M604,-61.9384C604,-56.7303 604,-51.5222 604,-46.3142"/>
<path fill="none" stroke="black" d="M606,-61.9384C606,-56.7303 606,-51.5222 606,-46.3142"/>
<polygon fill="black" stroke="black" points="601.5,-61.9538 605,-71.9539 608.5,-61.9539 601.5,-61.9538"/>
<polygon fill="black" stroke="black" points="608.5,-46.2812 605,-36.2813 601.5,-46.2813 608.5,-46.2812"/>
</g>
<!-- EyAxW -->
<g id="node19" class="node"><title>EyAxW</title>
<text text-anchor="middle" x="746" y="-357.5" font-family="Consola" font-size="10.00">∃y∀x[Q(x) ∨ P(y)]</text>
</g>
<!-- AxWEy -->
<g id="node20" class="node"><title>AxWEy</title>
<text text-anchor="middle" x="746" y="-285.5" font-family="Consola" font-size="10.00">∀x[Q(x)] ∨ ∃y[P(y)]</text>
</g>
<!-- EyAxW&#45;&gt;AxWEy -->
<g id="edge5" class="edge"><title>EyAxW&#45;&gt;AxWEy</title>
<path fill="none" stroke="black" d="M745,-331.938C745,-326.73 745,-321.522 745,-316.314"/>
<path fill="none" stroke="black" d="M747,-331.938C747,-326.73 747,-321.522 747,-316.314"/>
<polygon fill="black" stroke="black" points="742.5,-331.954 746,-341.954 749.5,-331.954 742.5,-331.954"/>
<polygon fill="black" stroke="black" points="749.5,-316.281 746,-306.281 742.5,-316.281 749.5,-316.281"/>
</g>
<!-- AxWEy&#45;&gt;AxEyW -->
<g id="edge11" class="edge"><title>AxWEy&#45;&gt;AxEyW</title>
<path fill="none" stroke="black" d="M745,-259.938C745,-254.73 745,-249.522 745,-244.314"/>
<path fill="none" stroke="black" d="M747,-259.938C747,-254.73 747,-249.522 747,-244.314"/>
<polygon fill="black" stroke="black" points="742.5,-259.954 746,-269.954 749.5,-259.954 742.5,-259.954"/>
<polygon fill="black" stroke="black" points="749.5,-244.281 746,-234.281 742.5,-244.281 749.5,-244.281"/>
</g>
<!-- AxEyW&#45;&gt;ExAyW -->
<!-- ExEyW -->
<g id="node26" class="node"><title>ExEyW</title>
<text text-anchor="middle" x="887" y="-186.5" font-family="Consola" font-size="10.00">∃x∃y[Q(x) ∨ P(y)]</text>
</g>
<!-- AxEyW&#45;&gt;ExEyW -->
<g id="edge26" class="edge"><title>AxEyW&#45;&gt;ExEyW</title>
<path fill="none" stroke="black" d="M795.035,-205.651C805.841,-203.552 817.406,-201.305 828.539,-199.143"/>
<path fill="none" stroke="black" d="M795.416,-207.614C806.222,-205.515 817.788,-203.269 828.921,-201.106"/>
<polygon fill="black" stroke="black" points="829.649,-203.511 838.799,-198.169 828.315,-196.64 829.649,-203.511"/>
</g>
<!-- ExWAy -->
<g id="node23" class="node"><title>ExWAy</title>
<text text-anchor="middle" x="746" y="-87.5" font-family="Consola" font-size="10.00">∃x[Q(x)] ∨ ∀y[P(y)]</text>
</g>
<!-- ExAyW&#45;&gt;ExWAy -->
<g id="edge18" class="edge"><title>ExAyW&#45;&gt;ExWAy</title>
<path fill="none" stroke="black" d="M745,-133.938C745,-128.73 745,-123.522 745,-118.314"/>
<path fill="none" stroke="black" d="M747,-133.938C747,-128.73 747,-123.522 747,-118.314"/>
<polygon fill="black" stroke="black" points="742.5,-133.954 746,-143.954 749.5,-133.954 742.5,-133.954"/>
<polygon fill="black" stroke="black" points="749.5,-118.281 746,-108.281 742.5,-118.281 749.5,-118.281"/>
</g>
<!-- ExAyW&#45;&gt;ExEyW -->
<g id="edge32" class="edge"><title>ExAyW&#45;&gt;ExEyW</title>
<path fill="none" stroke="black" d="M795.416,-170.386C806.222,-172.485 817.788,-174.731 828.921,-176.894"/>
<path fill="none" stroke="black" d="M795.035,-172.349C805.841,-174.448 817.406,-176.695 828.539,-178.857"/>
<polygon fill="black" stroke="black" points="828.315,-181.36 838.799,-179.831 829.649,-174.489 828.315,-181.36"/>
</g>
<!-- AyExW -->
<g id="node24" class="node"><title>AyExW</title>
<text text-anchor="middle" x="746" y="-15.5" font-family="Consola" font-size="10.00">∀y∃x[Q(x) ∨ P(y)]</text>
</g>
<!-- ExWAy&#45;&gt;AyExW -->
<g id="edge20" class="edge"><title>ExWAy&#45;&gt;AyExW</title>
<path fill="none" stroke="black" d="M745,-61.9384C745,-56.7303 745,-51.5222 745,-46.3142"/>
<path fill="none" stroke="black" d="M747,-61.9384C747,-56.7303 747,-51.5222 747,-46.3142"/>
<polygon fill="black" stroke="black" points="742.5,-61.9538 746,-71.9539 749.5,-61.9539 742.5,-61.9538"/>
<polygon fill="black" stroke="black" points="749.5,-46.2812 746,-36.2813 742.5,-46.2813 749.5,-46.2812"/>
</g>
<!-- ExWEy -->
<g id="node25" class="node"><title>ExWEy</title>
<text text-anchor="middle" x="887" y="-258.5" font-family="Consola" font-size="10.00">∃x[Q(x)] ∨ ∃y[P(y)]</text>
</g>
<!-- ExWEy&#45;&gt;ExEyW -->
<g id="edge6" class="edge"><title>ExWEy&#45;&gt;ExEyW</title>
<path fill="none" stroke="black" d="M886,-232.938C886,-227.73 886,-222.522 886,-217.314"/>
<path fill="none" stroke="black" d="M888,-232.938C888,-227.73 888,-222.522 888,-217.314"/>
<polygon fill="black" stroke="black" points="883.5,-232.954 887,-242.954 890.5,-232.954 883.5,-232.954"/>
<polygon fill="black" stroke="black" points="890.5,-217.281 887,-207.281 883.5,-217.281 890.5,-217.281"/>
</g>
<!-- EyExW -->
<g id="node27" class="node"><title>EyExW</title>
<text text-anchor="middle" x="887" y="-114.5" font-family="Consola" font-size="10.00">∃y∃x[Q(x) ∨ P(y)]</text>
</g>
<!-- ExEyW&#45;&gt;EyExW -->
<g id="edge12" class="edge"><title>ExEyW&#45;&gt;EyExW</title>
<path fill="none" stroke="black" d="M886,-160.938C886,-155.73 886,-150.522 886,-145.314"/>
<path fill="none" stroke="black" d="M888,-160.938C888,-155.73 888,-150.522 888,-145.314"/>
<polygon fill="black" stroke="black" points="883.5,-160.954 887,-170.954 890.5,-160.954 883.5,-160.954"/>
<polygon fill="black" stroke="black" points="890.5,-145.281 887,-135.281 883.5,-145.281 890.5,-145.281"/>
</g>
<!-- ExW -->
<g id="node28" class="node"><title>ExW</title>
<text text-anchor="middle" x="1017.5" y="-186.5" font-family="Consola" font-size="10.00">∃x[Q(x) ∨ P(x)]</text>
</g>
<!-- ExEyW&#45;&gt;ExW -->
<g id="edge27" class="edge"><title>ExEyW&#45;&gt;ExW</title>
<path fill="none" stroke="black" d="M945.364,-188C951.736,-188 958.2,-188 964.5,-188"/>
<path fill="none" stroke="black" d="M945.364,-190C951.736,-190 958.2,-190 964.5,-190"/>
<polygon fill="black" stroke="black" points="945.119,-185.5 935.119,-189 945.119,-192.5 945.119,-185.5"/>
<polygon fill="black" stroke="black" points="964.905,-192.5 974.905,-189 964.904,-185.5 964.905,-192.5"/>
</g>
</g>
</svg>
