<?xml version="1.0" encoding="UTF-8" standalone="no"?>
<!DOCTYPE svg PUBLIC "-//W3C//DTD SVG 1.1//EN"
 "http://www.w3.org/Graphics/SVG/1.1/DTD/svg11.dtd">
<!-- Generated by graphviz version 2.38.0 (20140413.2041)
 -->
<!-- Title: %113 Pages: 1 -->
<svg width="1101pt" height="389pt"
 viewBox="0.00 0.00 1101.00 388.50" xmlns="http://www.w3.org/2000/svg" xmlns:xlink="http://www.w3.org/1999/xlink">
<g id="graph0" class="graph" transform="scale(1 1) rotate(0) translate(4 384.5)">
<title>%113</title>
<polygon fill="white" stroke="none" points="-4,4 -4,-384.5 1097,-384.5 1097,4 -4,4"/>
<!-- Au -->
<g id="node1" class="node"><title>Au</title>
<text text-anchor="middle" x="60" y="-368.5" font-family="Consola" font-size="10.00">∀u∈{a}∪{e}; </text>
<text text-anchor="middle" x="60" y="-357.5" font-family="Consola" font-size="10.00"> ⇕ </text>
<text text-anchor="middle" x="60" y="-346.5" font-family="Consola" font-size="10.00"> ∃U,U={a}∪{e};∀u∈U;</text>
</g>
<!-- Eu -->
<g id="node2" class="node"><title>Eu</title>
<text text-anchor="middle" x="60" y="-309.5" font-family="Consola" font-size="10.00">∃u∈{a}∪{e}; </text>
<text text-anchor="middle" x="60" y="-298.5" font-family="Consola" font-size="10.00"> ⇕ </text>
<text text-anchor="middle" x="60" y="-287.5" font-family="Consola" font-size="10.00"> ∃U,U⊆{a}∪{e};∀u∈U;</text>
</g>
<!-- Au&#45;&gt;Eu -->
<!-- EyAxM -->
<g id="node7" class="node"><title>EyAxM</title>
<text text-anchor="middle" x="353" y="-357.5" font-family="Consola" font-size="10.00">∃y∀x[Q(x) ∧ P(y)]</text>
</g>
<!-- Au&#45;&gt;EyAxM -->
<!-- AxM -->
<g id="node3" class="node"><title>AxM</title>
<text text-anchor="middle" x="60" y="-186.5" font-family="Consola" font-size="10.00">∀x[Q(x) ∧ P(x)]</text>
</g>
<!-- AxAyM -->
<g id="node5" class="node"><title>AxAyM</title>
<text text-anchor="middle" x="210" y="-186.5" font-family="Consola" font-size="10.00">∀x∀y[Q(x) ∧ P(y)]</text>
</g>
<!-- AxM&#45;&gt;AxAyM -->
<g id="edge22" class="edge"><title>AxM&#45;&gt;AxAyM</title>
<path fill="none" stroke="black" d="M113.818,-188C125.258,-188 137.436,-188 149.125,-188"/>
<path fill="none" stroke="black" d="M113.818,-190C125.258,-190 137.436,-190 149.125,-190"/>
<polygon fill="black" stroke="black" points="113.808,-185.5 103.808,-189 113.808,-192.5 113.808,-185.5"/>
<polygon fill="black" stroke="black" points="149.24,-192.5 159.24,-189 149.24,-185.5 149.24,-192.5"/>
</g>
<!-- AxMAy -->
<g id="node4" class="node"><title>AxMAy</title>
<text text-anchor="middle" x="210" y="-258.5" font-family="Consola" font-size="10.00">∀x[Q(x)] ∧ ∀y[P(y)]</text>
</g>
<!-- AxMAy&#45;&gt;AxAyM -->
<g id="edge2" class="edge"><title>AxMAy&#45;&gt;AxAyM</title>
<path fill="none" stroke="black" d="M209,-232.938C209,-227.73 209,-222.522 209,-217.314"/>
<path fill="none" stroke="black" d="M211,-232.938C211,-227.73 211,-222.522 211,-217.314"/>
<polygon fill="black" stroke="black" points="206.5,-232.954 210,-242.954 213.5,-232.954 206.5,-232.954"/>
<polygon fill="black" stroke="black" points="213.5,-217.281 210,-207.281 206.5,-217.281 213.5,-217.281"/>
</g>
<!-- AyAxM -->
<g id="node6" class="node"><title>AyAxM</title>
<text text-anchor="middle" x="210" y="-114.5" font-family="Consola" font-size="10.00">∀y∀x[Q(x) ∧ P(y)]</text>
</g>
<!-- AxAyM&#45;&gt;AyAxM -->
<g id="edge8" class="edge"><title>AxAyM&#45;&gt;AyAxM</title>
<path fill="none" stroke="black" d="M209,-160.938C209,-155.73 209,-150.522 209,-145.314"/>
<path fill="none" stroke="black" d="M211,-160.938C211,-155.73 211,-150.522 211,-145.314"/>
<polygon fill="black" stroke="black" points="206.5,-160.954 210,-170.954 213.5,-160.954 206.5,-160.954"/>
<polygon fill="black" stroke="black" points="213.5,-145.281 210,-135.281 206.5,-145.281 213.5,-145.281"/>
</g>
<!-- AxEyM -->
<g id="node9" class="node"><title>AxEyM</title>
<text text-anchor="middle" x="353" y="-213.5" font-family="Consola" font-size="10.00">∀x∃y[Q(x) ∧ P(y)]</text>
</g>
<!-- AxAyM&#45;&gt;AxEyM -->
<g id="edge23" class="edge"><title>AxAyM&#45;&gt;AxEyM</title>
<path fill="none" stroke="black" d="M260.899,-197.537C271.583,-199.583 282.967,-201.763 293.941,-203.864"/>
<path fill="none" stroke="black" d="M260.523,-199.501C271.207,-201.547 282.591,-203.727 293.565,-205.829"/>
<polygon fill="black" stroke="black" points="293.206,-208.305 303.685,-206.748 294.522,-201.43 293.206,-208.305"/>
</g>
<!-- ExAyM -->
<g id="node10" class="node"><title>ExAyM</title>
<text text-anchor="middle" x="353" y="-159.5" font-family="Consola" font-size="10.00">∃x∀y[Q(x) ∧ P(y)]</text>
</g>
<!-- AxAyM&#45;&gt;ExAyM -->
<g id="edge29" class="edge"><title>AxAyM&#45;&gt;ExAyM</title>
<path fill="none" stroke="black" d="M260.523,-178.499C271.207,-176.453 282.591,-174.273 293.565,-172.171"/>
<path fill="none" stroke="black" d="M260.899,-180.463C271.583,-178.417 282.967,-176.237 293.941,-174.136"/>
<polygon fill="black" stroke="black" points="294.522,-176.57 303.685,-171.252 293.206,-169.695 294.522,-176.57"/>
</g>
<!-- AxMEy -->
<g id="node8" class="node"><title>AxMEy</title>
<text text-anchor="middle" x="353" y="-285.5" font-family="Consola" font-size="10.00">∀x[Q(x)] ∧ ∃y[P(y)]</text>
</g>
<!-- EyAxM&#45;&gt;AxMEy -->
<g id="edge3" class="edge"><title>EyAxM&#45;&gt;AxMEy</title>
<path fill="none" stroke="black" d="M352,-331.938C352,-326.73 352,-321.522 352,-316.314"/>
<path fill="none" stroke="black" d="M354,-331.938C354,-326.73 354,-321.522 354,-316.314"/>
<polygon fill="black" stroke="black" points="349.5,-331.954 353,-341.954 356.5,-331.954 349.5,-331.954"/>
<polygon fill="black" stroke="black" points="356.5,-316.281 353,-306.281 349.5,-316.281 356.5,-316.281"/>
</g>
<!-- AxMEy&#45;&gt;AxEyM -->
<g id="edge9" class="edge"><title>AxMEy&#45;&gt;AxEyM</title>
<path fill="none" stroke="black" d="M352,-259.938C352,-254.73 352,-249.522 352,-244.314"/>
<path fill="none" stroke="black" d="M354,-259.938C354,-254.73 354,-249.522 354,-244.314"/>
<polygon fill="black" stroke="black" points="349.5,-259.954 353,-269.954 356.5,-259.954 349.5,-259.954"/>
<polygon fill="black" stroke="black" points="356.5,-244.281 353,-234.281 349.5,-244.281 356.5,-244.281"/>
</g>
<!-- AxEyM&#45;&gt;ExAyM -->
<!-- AxAyW -->
<g id="node15" class="node"><title>AxAyW</title>
<text text-anchor="middle" x="496" y="-213.5" font-family="Consola" font-size="10.00">∀x∀y[Q(x) ∨ P(y)]</text>
</g>
<!-- AxEyM&#45;&gt;AxAyW -->
<g id="edge24" class="edge"><title>AxEyM&#45;&gt;AxAyW</title>
<path fill="none" stroke="black" d="M402.13,-215C412.649,-215 423.91,-215 434.833,-215"/>
<path fill="none" stroke="black" d="M402.13,-217C412.649,-217 423.91,-217 434.833,-217"/>
<polygon fill="black" stroke="black" points="435.166,-219.5 445.166,-216 435.166,-212.5 435.166,-219.5"/>
</g>
<!-- ExM -->
<g id="node16" class="node"><title>ExM</title>
<text text-anchor="middle" x="496" y="-159.5" font-family="Consola" font-size="10.00">∃x[Q(x) ∧ P(x)]</text>
</g>
<!-- AxEyM&#45;&gt;ExM -->
<g id="edge35" class="edge"><title>AxEyM&#45;&gt;ExM</title>
<path fill="none" stroke="black" d="M400.986,-196.935C414.636,-191.707 429.59,-185.98 443.462,-180.667"/>
<path fill="none" stroke="black" d="M401.701,-198.802C415.352,-193.575 430.305,-187.848 444.177,-182.535"/>
<polygon fill="black" stroke="black" points="445.135,-184.845 453.222,-178 442.631,-178.308 445.135,-184.845"/>
</g>
<!-- ExMAy -->
<g id="node11" class="node"><title>ExMAy</title>
<text text-anchor="middle" x="353" y="-87.5" font-family="Consola" font-size="10.00">∃x[Q(x)] ∧ ∀y[P(y)]</text>
</g>
<!-- ExAyM&#45;&gt;ExMAy -->
<g id="edge18" class="edge"><title>ExAyM&#45;&gt;ExMAy</title>
<path fill="none" stroke="black" d="M352,-133.938C352,-128.73 352,-123.522 352,-118.314"/>
<path fill="none" stroke="black" d="M354,-133.938C354,-128.73 354,-123.522 354,-118.314"/>
<polygon fill="black" stroke="black" points="349.5,-133.954 353,-143.954 356.5,-133.954 349.5,-133.954"/>
<polygon fill="black" stroke="black" points="356.5,-118.281 353,-108.281 349.5,-118.281 356.5,-118.281"/>
</g>
<!-- ExAyM&#45;&gt;AxAyW -->
<g id="edge37" class="edge"><title>ExAyM&#45;&gt;AxAyW</title>
<path fill="none" stroke="black" d="M401.701,-179.198C413.443,-183.694 426.149,-188.561 438.301,-193.215"/>
<path fill="none" stroke="black" d="M400.986,-181.065C412.727,-185.562 425.433,-190.428 437.586,-195.082"/>
<polygon fill="black" stroke="black" points="436.951,-197.516 447.542,-197.824 439.455,-190.979 436.951,-197.516"/>
</g>
<!-- ExAyM&#45;&gt;ExM -->
<g id="edge30" class="edge"><title>ExAyM&#45;&gt;ExM</title>
<path fill="none" stroke="black" d="M402.13,-161C415.353,-161 429.748,-161 443.17,-161"/>
<path fill="none" stroke="black" d="M402.13,-163C415.353,-163 429.748,-163 443.17,-163"/>
<polygon fill="black" stroke="black" points="443.208,-165.5 453.208,-162 443.208,-158.5 443.208,-165.5"/>
</g>
<!-- AyExM -->
<g id="node12" class="node"><title>AyExM</title>
<text text-anchor="middle" x="353" y="-15.5" font-family="Consola" font-size="10.00">∀y∃x[Q(x) ∧ P(y)]</text>
</g>
<!-- ExMAy&#45;&gt;AyExM -->
<g id="edge20" class="edge"><title>ExMAy&#45;&gt;AyExM</title>
<path fill="none" stroke="black" d="M352,-61.9384C352,-56.7303 352,-51.5222 352,-46.3142"/>
<path fill="none" stroke="black" d="M354,-61.9384C354,-56.7303 354,-51.5222 354,-46.3142"/>
<polygon fill="black" stroke="black" points="349.5,-61.9538 353,-71.9539 356.5,-61.9539 349.5,-61.9538"/>
<polygon fill="black" stroke="black" points="356.5,-46.2812 353,-36.2813 349.5,-46.2813 356.5,-46.2812"/>
</g>
<!-- AyAxW -->
<g id="node13" class="node"><title>AyAxW</title>
<text text-anchor="middle" x="496" y="-357.5" font-family="Consola" font-size="10.00">∀y∀x[Q(x) ∨ P(y)]</text>
</g>
<!-- AxWAy -->
<g id="node14" class="node"><title>AxWAy</title>
<text text-anchor="middle" x="496" y="-285.5" font-family="Consola" font-size="10.00">∀x[Q(x)] ∨ ∀y[P(y)]</text>
</g>
<!-- AyAxW&#45;&gt;AxWAy -->
<g id="edge4" class="edge"><title>AyAxW&#45;&gt;AxWAy</title>
<path fill="none" stroke="black" d="M495,-331.938C495,-326.73 495,-321.522 495,-316.314"/>
<path fill="none" stroke="black" d="M497,-331.938C497,-326.73 497,-321.522 497,-316.314"/>
<polygon fill="black" stroke="black" points="492.5,-331.954 496,-341.954 499.5,-331.954 492.5,-331.954"/>
<polygon fill="black" stroke="black" points="499.5,-316.281 496,-306.281 492.5,-316.281 499.5,-316.281"/>
</g>
<!-- AxWAy&#45;&gt;AxAyW -->
<g id="edge10" class="edge"><title>AxWAy&#45;&gt;AxAyW</title>
<path fill="none" stroke="black" d="M495,-259.938C495,-254.73 495,-249.522 495,-244.314"/>
<path fill="none" stroke="black" d="M497,-259.938C497,-254.73 497,-249.522 497,-244.314"/>
<polygon fill="black" stroke="black" points="492.5,-259.954 496,-269.954 499.5,-259.954 492.5,-259.954"/>
<polygon fill="black" stroke="black" points="499.5,-244.281 496,-234.281 492.5,-244.281 499.5,-244.281"/>
</g>
<!-- AxAyW&#45;&gt;ExM -->
<!-- AxW -->
<g id="node17" class="node"><title>AxW</title>
<text text-anchor="middle" x="638" y="-213.5" font-family="Consola" font-size="10.00">∀x[Q(x) ∨ P(x)]</text>
</g>
<!-- AxAyW&#45;&gt;AxW -->
<g id="edge25" class="edge"><title>AxAyW&#45;&gt;AxW</title>
<path fill="none" stroke="black" d="M546.753,-215C558.91,-215 571.959,-215 584.252,-215"/>
<path fill="none" stroke="black" d="M546.753,-217C558.91,-217 571.959,-217 584.252,-217"/>
<polygon fill="black" stroke="black" points="584.363,-219.5 594.363,-216 584.363,-212.5 584.363,-219.5"/>
</g>
<!-- ExEyM -->
<g id="node18" class="node"><title>ExEyM</title>
<text text-anchor="middle" x="638" y="-159.5" font-family="Consola" font-size="10.00">∃x∃y[Q(x) ∧ P(y)]</text>
</g>
<!-- ExM&#45;&gt;ExEyM -->
<g id="edge31" class="edge"><title>ExM&#45;&gt;ExEyM</title>
<path fill="none" stroke="black" d="M538.626,-161C551.471,-161 565.852,-161 579.567,-161"/>
<path fill="none" stroke="black" d="M538.626,-163C551.471,-163 565.852,-163 579.567,-163"/>
<polygon fill="black" stroke="black" points="579.889,-165.5 589.889,-162 579.889,-158.5 579.889,-165.5"/>
</g>
<!-- AxW&#45;&gt;ExEyM -->
<!-- AxEyW -->
<g id="node23" class="node"><title>AxEyW</title>
<text text-anchor="middle" x="779" y="-213.5" font-family="Consola" font-size="10.00">∀x∃y[Q(x) ∨ P(y)]</text>
</g>
<!-- AxW&#45;&gt;AxEyW -->
<g id="edge26" class="edge"><title>AxW&#45;&gt;AxEyW</title>
<path fill="none" stroke="black" d="M681.839,-215C693.798,-215 706.998,-215 719.688,-215"/>
<path fill="none" stroke="black" d="M681.839,-217C693.798,-217 706.998,-217 719.688,-217"/>
<polygon fill="black" stroke="black" points="719.721,-219.5 729.721,-216 719.721,-212.5 719.721,-219.5"/>
</g>
<!-- ExAyW -->
<g id="node24" class="node"><title>ExAyW</title>
<text text-anchor="middle" x="779" y="-159.5" font-family="Consola" font-size="10.00">∃x∀y[Q(x) ∨ P(y)]</text>
</g>
<!-- AxW&#45;&gt;ExAyW -->
<g id="edge36" class="edge"><title>AxW&#45;&gt;ExAyW</title>
<path fill="none" stroke="black" d="M681.477,-198.425C694.058,-193.538 708.013,-188.117 721.301,-182.954"/>
<path fill="none" stroke="black" d="M682.201,-200.29C694.782,-195.402 708.737,-189.981 722.025,-184.818"/>
<polygon fill="black" stroke="black" points="723.138,-187.068 731.192,-180.184 720.603,-180.543 723.138,-187.068"/>
</g>
<!-- ExMEy -->
<g id="node19" class="node"><title>ExMEy</title>
<text text-anchor="middle" x="638" y="-87.5" font-family="Consola" font-size="10.00">∃x[Q(x)] ∧ ∃y[P(y)]</text>
</g>
<!-- ExEyM&#45;&gt;ExMEy -->
<g id="edge11" class="edge"><title>ExEyM&#45;&gt;ExMEy</title>
<path fill="none" stroke="black" d="M637,-133.938C637,-128.73 637,-123.522 637,-118.314"/>
<path fill="none" stroke="black" d="M639,-133.938C639,-128.73 639,-123.522 639,-118.314"/>
<polygon fill="black" stroke="black" points="634.5,-133.954 638,-143.954 641.5,-133.954 634.5,-133.954"/>
<polygon fill="black" stroke="black" points="641.5,-118.281 638,-108.281 634.5,-118.281 641.5,-118.281"/>
</g>
<!-- ExEyM&#45;&gt;AxEyW -->
<g id="edge38" class="edge"><title>ExEyM&#45;&gt;AxEyW</title>
<path fill="none" stroke="black" d="M686.034,-179.199C697.609,-183.696 710.135,-188.562 722.115,-193.216"/>
<path fill="none" stroke="black" d="M685.31,-181.064C696.885,-185.56 709.41,-190.427 721.391,-195.081"/>
<polygon fill="black" stroke="black" points="720.626,-197.466 731.215,-197.824 723.161,-190.941 720.626,-197.466"/>
</g>
<!-- ExEyM&#45;&gt;ExAyW -->
<g id="edge32" class="edge"><title>ExEyM&#45;&gt;ExAyW</title>
<path fill="none" stroke="black" d="M686.059,-161C696.793,-161 708.326,-161 719.473,-161"/>
<path fill="none" stroke="black" d="M686.059,-163C696.793,-163 708.326,-163 719.473,-163"/>
<polygon fill="black" stroke="black" points="719.568,-165.5 729.567,-162 719.567,-158.5 719.568,-165.5"/>
</g>
<!-- EyExM -->
<g id="node20" class="node"><title>EyExM</title>
<text text-anchor="middle" x="638" y="-15.5" font-family="Consola" font-size="10.00">∃y∃x[Q(x) ∧ P(y)]</text>
</g>
<!-- ExMEy&#45;&gt;EyExM -->
<g id="edge16" class="edge"><title>ExMEy&#45;&gt;EyExM</title>
<path fill="none" stroke="black" d="M637,-61.9384C637,-56.7303 637,-51.5222 637,-46.3142"/>
<path fill="none" stroke="black" d="M639,-61.9384C639,-56.7303 639,-51.5222 639,-46.3142"/>
<polygon fill="black" stroke="black" points="634.5,-61.9538 638,-71.9539 641.5,-61.9539 634.5,-61.9538"/>
<polygon fill="black" stroke="black" points="641.5,-46.2812 638,-36.2813 634.5,-46.2813 641.5,-46.2812"/>
</g>
<!-- EyAxW -->
<g id="node21" class="node"><title>EyAxW</title>
<text text-anchor="middle" x="779" y="-357.5" font-family="Consola" font-size="10.00">∃y∀x[Q(x) ∨ P(y)]</text>
</g>
<!-- AxWEy -->
<g id="node22" class="node"><title>AxWEy</title>
<text text-anchor="middle" x="779" y="-285.5" font-family="Consola" font-size="10.00">∀x[Q(x)] ∨ ∃y[P(y)]</text>
</g>
<!-- EyAxW&#45;&gt;AxWEy -->
<g id="edge6" class="edge"><title>EyAxW&#45;&gt;AxWEy</title>
<path fill="none" stroke="black" d="M778,-331.938C778,-326.73 778,-321.522 778,-316.314"/>
<path fill="none" stroke="black" d="M780,-331.938C780,-326.73 780,-321.522 780,-316.314"/>
<polygon fill="black" stroke="black" points="775.5,-331.954 779,-341.954 782.5,-331.954 775.5,-331.954"/>
<polygon fill="black" stroke="black" points="782.5,-316.281 779,-306.281 775.5,-316.281 782.5,-316.281"/>
</g>
<!-- AxWEy&#45;&gt;AxEyW -->
<g id="edge12" class="edge"><title>AxWEy&#45;&gt;AxEyW</title>
<path fill="none" stroke="black" d="M778,-259.938C778,-254.73 778,-249.522 778,-244.314"/>
<path fill="none" stroke="black" d="M780,-259.938C780,-254.73 780,-249.522 780,-244.314"/>
<polygon fill="black" stroke="black" points="775.5,-259.954 779,-269.954 782.5,-259.954 775.5,-259.954"/>
<polygon fill="black" stroke="black" points="782.5,-244.281 779,-234.281 775.5,-244.281 782.5,-244.281"/>
</g>
<!-- AxEyW&#45;&gt;ExAyW -->
<!-- ExEyW -->
<g id="node28" class="node"><title>ExEyW</title>
<text text-anchor="middle" x="920" y="-186.5" font-family="Consola" font-size="10.00">∃x∃y[Q(x) ∨ P(y)]</text>
</g>
<!-- AxEyW&#45;&gt;ExEyW -->
<g id="edge27" class="edge"><title>AxEyW&#45;&gt;ExEyW</title>
<path fill="none" stroke="black" d="M828.035,-205.651C838.841,-203.552 850.406,-201.305 861.539,-199.143"/>
<path fill="none" stroke="black" d="M828.416,-207.614C839.222,-205.515 850.788,-203.269 861.921,-201.106"/>
<polygon fill="black" stroke="black" points="862.649,-203.511 871.799,-198.169 861.315,-196.64 862.649,-203.511"/>
</g>
<!-- ExWAy -->
<g id="node25" class="node"><title>ExWAy</title>
<text text-anchor="middle" x="779" y="-87.5" font-family="Consola" font-size="10.00">∃x[Q(x)] ∨ ∀y[P(y)]</text>
</g>
<!-- ExAyW&#45;&gt;ExWAy -->
<g id="edge19" class="edge"><title>ExAyW&#45;&gt;ExWAy</title>
<path fill="none" stroke="black" d="M778,-133.938C778,-128.73 778,-123.522 778,-118.314"/>
<path fill="none" stroke="black" d="M780,-133.938C780,-128.73 780,-123.522 780,-118.314"/>
<polygon fill="black" stroke="black" points="775.5,-133.954 779,-143.954 782.5,-133.954 775.5,-133.954"/>
<polygon fill="black" stroke="black" points="782.5,-118.281 779,-108.281 775.5,-118.281 782.5,-118.281"/>
</g>
<!-- ExAyW&#45;&gt;ExEyW -->
<g id="edge33" class="edge"><title>ExAyW&#45;&gt;ExEyW</title>
<path fill="none" stroke="black" d="M828.416,-170.386C839.222,-172.485 850.788,-174.731 861.921,-176.894"/>
<path fill="none" stroke="black" d="M828.035,-172.349C838.841,-174.448 850.406,-176.695 861.539,-178.857"/>
<polygon fill="black" stroke="black" points="861.315,-181.36 871.799,-179.831 862.649,-174.489 861.315,-181.36"/>
</g>
<!-- AyExW -->
<g id="node26" class="node"><title>AyExW</title>
<text text-anchor="middle" x="779" y="-15.5" font-family="Consola" font-size="10.00">∀y∃x[Q(x) ∨ P(y)]</text>
</g>
<!-- ExWAy&#45;&gt;AyExW -->
<g id="edge21" class="edge"><title>ExWAy&#45;&gt;AyExW</title>
<path fill="none" stroke="black" d="M778,-61.9384C778,-56.7303 778,-51.5222 778,-46.3142"/>
<path fill="none" stroke="black" d="M780,-61.9384C780,-56.7303 780,-51.5222 780,-46.3142"/>
<polygon fill="black" stroke="black" points="775.5,-61.9538 779,-71.9539 782.5,-61.9539 775.5,-61.9538"/>
<polygon fill="black" stroke="black" points="782.5,-46.2812 779,-36.2813 775.5,-46.2813 782.5,-46.2812"/>
</g>
<!-- ExWEy -->
<g id="node27" class="node"><title>ExWEy</title>
<text text-anchor="middle" x="920" y="-258.5" font-family="Consola" font-size="10.00">∃x[Q(x)] ∨ ∃y[P(y)]</text>
</g>
<!-- ExWEy&#45;&gt;ExEyW -->
<g id="edge7" class="edge"><title>ExWEy&#45;&gt;ExEyW</title>
<path fill="none" stroke="black" d="M919,-232.938C919,-227.73 919,-222.522 919,-217.314"/>
<path fill="none" stroke="black" d="M921,-232.938C921,-227.73 921,-222.522 921,-217.314"/>
<polygon fill="black" stroke="black" points="916.5,-232.954 920,-242.954 923.5,-232.954 916.5,-232.954"/>
<polygon fill="black" stroke="black" points="923.5,-217.281 920,-207.281 916.5,-217.281 923.5,-217.281"/>
</g>
<!-- EyExW -->
<g id="node29" class="node"><title>EyExW</title>
<text text-anchor="middle" x="920" y="-114.5" font-family="Consola" font-size="10.00">∃y∃x[Q(x) ∨ P(y)]</text>
</g>
<!-- ExEyW&#45;&gt;EyExW -->
<g id="edge13" class="edge"><title>ExEyW&#45;&gt;EyExW</title>
<path fill="none" stroke="black" d="M919,-160.938C919,-155.73 919,-150.522 919,-145.314"/>
<path fill="none" stroke="black" d="M921,-160.938C921,-155.73 921,-150.522 921,-145.314"/>
<polygon fill="black" stroke="black" points="916.5,-160.954 920,-170.954 923.5,-160.954 916.5,-160.954"/>
<polygon fill="black" stroke="black" points="923.5,-145.281 920,-135.281 916.5,-145.281 923.5,-145.281"/>
</g>
<!-- ExW -->
<g id="node30" class="node"><title>ExW</title>
<text text-anchor="middle" x="1050.5" y="-186.5" font-family="Consola" font-size="10.00">∃x[Q(x) ∨ P(x)]</text>
</g>
<!-- ExEyW&#45;&gt;ExW -->
<g id="edge28" class="edge"><title>ExEyW&#45;&gt;ExW</title>
<path fill="none" stroke="black" d="M978.364,-188C984.736,-188 991.2,-188 997.5,-188"/>
<path fill="none" stroke="black" d="M978.364,-190C984.736,-190 991.2,-190 997.5,-190"/>
<polygon fill="black" stroke="black" points="978.119,-185.5 968.119,-189 978.119,-192.5 978.119,-185.5"/>
<polygon fill="black" stroke="black" points="997.905,-192.5 1007.9,-189 997.904,-185.5 997.905,-192.5"/>
</g>
</g>
</svg>
