<?xml version="1.0" encoding="UTF-8" standalone="no"?>
<!DOCTYPE svg PUBLIC "-//W3C//DTD SVG 1.1//EN"
 "http://www.w3.org/Graphics/SVG/1.1/DTD/svg11.dtd">
<!-- Generated by graphviz version 2.38.0 (20140413.2041)
 -->
<!-- Title: %251 Pages: 1 -->
<svg width="675pt" height="206pt"
 viewBox="0.00 0.00 675.00 206.00" xmlns="http://www.w3.org/2000/svg" xmlns:xlink="http://www.w3.org/1999/xlink">
<g id="graph0" class="graph" transform="scale(1 1) rotate(0) translate(4 202)">
<title>%251</title>
<polygon fill="white" stroke="none" points="-4,4 -4,-202 671,-202 671,4 -4,4"/>
<!-- ExYAy -->
<g id="node1" class="node"><title>ExYAy</title>
<text text-anchor="middle" x="54" y="-123.5" font-family="Consola" font-size="10.00">∃x[Q(x)] → ∀y[P(y)]</text>
</g>
<!-- AxH -->
<g id="node2" class="node"><title>AxH</title>
<text text-anchor="middle" x="54" y="-69.5" font-family="Consola" font-size="10.00">∀x[Q(x) ↔ P(x)]</text>
</g>
<!-- ExYAy&#45;&gt;AxH -->
<!-- ExHAy -->
<g id="node3" class="node"><title>ExHAy</title>
<text text-anchor="middle" x="199" y="-177.5" font-family="Consola" font-size="10.00">∃x[Q(x)] ↔ ∀y[P(y)]</text>
</g>
<!-- ExYAy&#45;&gt;ExHAy -->
<g id="edge14" class="edge"><title>ExYAy&#45;&gt;ExHAy</title>
<path fill="none" stroke="black" d="M112.733,-146.732C125.164,-151.427 138.189,-156.345 150.222,-160.889"/>
<path fill="none" stroke="black" d="M112.026,-148.603C124.458,-153.298 137.483,-158.216 149.515,-162.76"/>
<polygon fill="black" stroke="black" points="113.606,-144.39 103.015,-144.131 111.133,-150.939 113.606,-144.39"/>
</g>
<!-- AxY -->
<g id="node4" class="node"><title>AxY</title>
<text text-anchor="middle" x="199" y="-123.5" font-family="Consola" font-size="10.00">∀x[Q(x) → P(x)]</text>
</g>
<!-- ExYAy&#45;&gt;AxY -->
<g id="edge8" class="edge"><title>ExYAy&#45;&gt;AxY</title>
<path fill="none" stroke="black" d="M108.248,-125C119.917,-125 132.282,-125 143.981,-125"/>
<path fill="none" stroke="black" d="M108.248,-127C119.917,-127 132.282,-127 143.981,-127"/>
<polygon fill="black" stroke="black" points="144.056,-129.5 154.056,-126 144.056,-122.5 144.056,-129.5"/>
</g>
<!-- AxH&#45;&gt;AxY -->
<g id="edge17" class="edge"><title>AxH&#45;&gt;AxY</title>
<path fill="none" stroke="black" d="M99.035,-87.5597C113.454,-93.0045 129.661,-99.1246 144.734,-104.817"/>
<path fill="none" stroke="black" d="M98.3285,-89.4307C112.747,-94.8756 128.954,-100.996 144.028,-106.688"/>
<polygon fill="black" stroke="black" points="143.501,-109.161 154.093,-109.42 145.974,-102.613 143.501,-109.161"/>
</g>
<!-- AxHAy -->
<g id="node5" class="node"><title>AxHAy</title>
<text text-anchor="middle" x="199" y="-69.5" font-family="Consola" font-size="10.00">∀x[Q(x)] ↔ ∀y[P(y)]</text>
</g>
<!-- AxH&#45;&gt;AxHAy -->
<g id="edge12" class="edge"><title>AxH&#45;&gt;AxHAy</title>
<path fill="none" stroke="black" d="M98.6817,-71C109.735,-71 121.84,-71 133.679,-71"/>
<path fill="none" stroke="black" d="M98.6817,-73C109.735,-73 121.84,-73 133.679,-73"/>
<polygon fill="black" stroke="black" points="133.982,-75.5001 143.982,-72 133.982,-68.5001 133.982,-75.5001"/>
</g>
<!-- ExHEy -->
<g id="node6" class="node"><title>ExHEy</title>
<text text-anchor="middle" x="199" y="-15.5" font-family="Consola" font-size="10.00">∃x[Q(x)] ↔ ∃y[P(y)]</text>
</g>
<!-- AxH&#45;&gt;ExHEy -->
<g id="edge20" class="edge"><title>AxH&#45;&gt;ExHEy</title>
<path fill="none" stroke="black" d="M98.3285,-54.5693C111.542,-49.5795 126.257,-44.0227 140.226,-38.7477"/>
<path fill="none" stroke="black" d="M99.035,-56.4403C112.249,-51.4506 126.964,-45.8937 140.933,-40.6187"/>
<polygon fill="black" stroke="black" points="141.985,-42.8939 150.103,-36.0868 139.512,-36.3453 141.985,-42.8939"/>
</g>
<!-- ExHAy&#45;&gt;AxY -->
<!-- ExH -->
<g id="node7" class="node"><title>ExH</title>
<text text-anchor="middle" x="345" y="-177.5" font-family="Consola" font-size="10.00">∃x[Q(x) ↔ P(x)]</text>
</g>
<!-- ExHAy&#45;&gt;ExH -->
<g id="edge6" class="edge"><title>ExHAy&#45;&gt;ExH</title>
<path fill="none" stroke="black" d="M253.211,-179C265.604,-179 278.796,-179 291.173,-179"/>
<path fill="none" stroke="black" d="M253.211,-181C265.604,-181 278.796,-181 291.173,-181"/>
<polygon fill="black" stroke="black" points="291.342,-183.5 301.342,-180 291.342,-176.5 291.342,-183.5"/>
</g>
<!-- AxY&#45;&gt;AxHAy -->
<!-- AxYAy -->
<g id="node8" class="node"><title>AxYAy</title>
<text text-anchor="middle" x="345" y="-123.5" font-family="Consola" font-size="10.00">∀x[Q(x)] → ∀y[P(y)]</text>
</g>
<!-- AxY&#45;&gt;AxYAy -->
<g id="edge9" class="edge"><title>AxY&#45;&gt;AxYAy</title>
<path fill="none" stroke="black" d="M243.596,-125C254.978,-125 267.488,-125 279.699,-125"/>
<path fill="none" stroke="black" d="M243.596,-127C254.978,-127 267.488,-127 279.699,-127"/>
<polygon fill="black" stroke="black" points="279.855,-129.5 289.855,-126 279.855,-122.5 279.855,-129.5"/>
</g>
<!-- ExYEy -->
<g id="node9" class="node"><title>ExYEy</title>
<text text-anchor="middle" x="345" y="-69.5" font-family="Consola" font-size="10.00">∃x[Q(x)] → ∃y[P(y)]</text>
</g>
<!-- AxY&#45;&gt;ExYEy -->
<g id="edge15" class="edge"><title>AxY&#45;&gt;ExYEy</title>
<path fill="none" stroke="black" d="M243.244,-108.715C256.629,-103.696 271.573,-98.0922 285.756,-92.7733"/>
<path fill="none" stroke="black" d="M243.947,-110.588C257.331,-105.569 272.275,-99.9649 286.459,-94.646"/>
<polygon fill="black" stroke="black" points="287.643,-96.872 295.777,-90.0836 285.185,-90.3177 287.643,-96.872"/>
</g>
<!-- AxHAy&#45;&gt;AxYAy -->
<g id="edge18" class="edge"><title>AxHAy&#45;&gt;AxYAy</title>
<path fill="none" stroke="black" d="M248.702,-89.1951C260.812,-93.7365 273.927,-98.6545 286.449,-103.35"/>
<path fill="none" stroke="black" d="M247.999,-91.0678C260.11,-95.6092 273.224,-100.527 285.747,-105.223"/>
<polygon fill="black" stroke="black" points="284.94,-107.59 295.532,-107.824 287.398,-101.036 284.94,-107.59"/>
</g>
<!-- AxHAy&#45;&gt;ExYEy -->
<!-- ExHEy&#45;&gt;ExYEy -->
<g id="edge21" class="edge"><title>ExHEy&#45;&gt;ExYEy</title>
<path fill="none" stroke="black" d="M248.702,-35.1951C260.812,-39.7365 273.927,-44.6545 286.449,-49.3504"/>
<path fill="none" stroke="black" d="M247.999,-37.0678C260.11,-41.6092 273.224,-46.5271 285.747,-51.223"/>
<polygon fill="black" stroke="black" points="284.94,-53.5904 295.532,-53.8245 287.398,-47.036 284.94,-53.5904"/>
</g>
<!-- ExH&#45;&gt;AxYAy -->
<!-- AxHEy -->
<g id="node10" class="node"><title>AxHEy</title>
<text text-anchor="middle" x="490" y="-177.5" font-family="Consola" font-size="10.00">∀x[Q(x)] ↔ ∃y[P(y)]</text>
</g>
<!-- ExH&#45;&gt;AxHEy -->
<g id="edge7" class="edge"><title>ExH&#45;&gt;AxHEy</title>
<path fill="none" stroke="black" d="M398.552,-179C410.762,-179 423.767,-179 435.996,-179"/>
<path fill="none" stroke="black" d="M398.552,-181C410.762,-181 423.767,-181 435.996,-181"/>
<polygon fill="black" stroke="black" points="398.518,-176.5 388.518,-180 398.518,-183.5 398.518,-176.5"/>
</g>
<!-- AxYEy -->
<g id="node11" class="node"><title>AxYEy</title>
<text text-anchor="middle" x="490" y="-123.5" font-family="Consola" font-size="10.00">∀x[Q(x)] → ∃y[P(y)]</text>
</g>
<!-- ExH&#45;&gt;AxYEy -->
<g id="edge16" class="edge"><title>ExH&#45;&gt;AxYEy</title>
<path fill="none" stroke="black" d="M388.164,-163.009C401.61,-157.932 416.701,-152.233 431.02,-146.826"/>
<path fill="none" stroke="black" d="M388.871,-164.88C402.316,-159.803 417.407,-154.104 431.727,-148.697"/>
<polygon fill="black" stroke="black" points="433.015,-150.882 441.134,-144.075 430.542,-144.334 433.015,-150.882"/>
</g>
<!-- AxYAy&#45;&gt;ExYEy -->
<!-- AxYAy&#45;&gt;AxYEy -->
<g id="edge10" class="edge"><title>AxYAy&#45;&gt;AxYEy</title>
<path fill="none" stroke="black" d="M400.062,-125C408.384,-125 417.042,-125 425.546,-125"/>
<path fill="none" stroke="black" d="M400.062,-127C408.384,-127 417.042,-127 425.546,-127"/>
<polygon fill="black" stroke="black" points="425.809,-129.5 435.809,-126 425.809,-122.5 425.809,-129.5"/>
</g>
<!-- ExYEy&#45;&gt;AxYEy -->
<g id="edge19" class="edge"><title>ExYEy&#45;&gt;AxYEy</title>
<path fill="none" stroke="black" d="M394.368,-89.1959C406.394,-93.7373 419.418,-98.6553 431.853,-103.351"/>
<path fill="none" stroke="black" d="M393.661,-91.067C405.688,-95.6084 418.711,-100.526 431.147,-105.222"/>
<polygon fill="black" stroke="black" points="430.277,-107.566 440.869,-107.824 432.75,-101.017 430.277,-107.566"/>
</g>
<!-- ExY -->
<g id="node12" class="node"><title>ExY</title>
<text text-anchor="middle" x="623.5" y="-123.5" font-family="Consola" font-size="10.00">∃x[Q(x) → P(x)]</text>
</g>
<!-- AxYEy&#45;&gt;ExY -->
<g id="edge11" class="edge"><title>AxYEy&#45;&gt;ExY</title>
<path fill="none" stroke="black" d="M554.19,-125C559.321,-125 564.474,-125 569.522,-125"/>
<path fill="none" stroke="black" d="M554.19,-127C559.321,-127 564.474,-127 569.522,-127"/>
<polygon fill="black" stroke="black" points="554.107,-122.5 544.107,-126 554.107,-129.5 554.107,-122.5"/>
<polygon fill="black" stroke="black" points="569.696,-129.5 579.696,-126 569.696,-122.5 569.696,-129.5"/>
</g>
</g>
</svg>
