<?xml version="1.0" encoding="UTF-8" standalone="no"?>
<!DOCTYPE svg PUBLIC "-//W3C//DTD SVG 1.1//EN"
 "http://www.w3.org/Graphics/SVG/1.1/DTD/svg11.dtd">
<!-- Generated by graphviz version 2.38.0 (20140413.2041)
 -->
<!-- Title: %223 Pages: 1 -->
<svg width="1101pt" height="386pt"
 viewBox="0.00 0.00 1101.00 386.00" xmlns="http://www.w3.org/2000/svg" xmlns:xlink="http://www.w3.org/1999/xlink">
<g id="graph0" class="graph" transform="scale(1 1) rotate(0) translate(4 382)">
<title>%223</title>
<polygon fill="white" stroke="none" points="-4,4 -4,-382 1097,-382 1097,4 -4,4"/>
<!-- Av -->
<g id="node1" class="node"><title>Av</title>
<text text-anchor="middle" x="46" y="-344" font-family="Consola" font-size="10.00">∀u;∀v;¬[u &lt; v] </text>
<text text-anchor="middle" x="46" y="-333" font-family="Consola" font-size="10.00">⇕</text>
<text text-anchor="middle" x="46" y="-322" font-family="Consola" font-size="10.00"> ∀u;∀v;[u ≥ v] </text>
<text text-anchor="middle" x="46" y="-287" font-family="Consola" font-size="10.00"> ∃u;∀v;¬[u &lt; v] </text>
<text text-anchor="middle" x="46" y="-276" font-family="Consola" font-size="10.00">⇕</text>
<text text-anchor="middle" x="46" y="-265" font-family="Consola" font-size="10.00"> ∃u;∀v;[u ≥ v]</text>
</g>
<!-- AxMAy -->
<g id="node4" class="node"><title>AxMAy</title>
<text text-anchor="middle" x="182" y="-258.5" font-family="Consola" font-size="10.00">∀x[Q(x)] ∧ ∀y[P(y)]</text>
</g>
<!-- Av&#45;&gt;AxMAy -->
<!-- AxM -->
<g id="node2" class="node"><title>AxM</title>
<text text-anchor="middle" x="46" y="-186.5" font-family="Consola" font-size="10.00">∀x[Q(x) ∧ P(x)]</text>
</g>
<!-- AxAyM -->
<g id="node5" class="node"><title>AxAyM</title>
<text text-anchor="middle" x="182" y="-186.5" font-family="Consola" font-size="10.00">∀x∀y[Q(x) ∧ P(y)]</text>
</g>
<!-- AxM&#45;&gt;AxAyM -->
<g id="edge23" class="edge"><title>AxM&#45;&gt;AxAyM</title>
<path fill="none" stroke="black" d="M99.8799,-188C106.805,-188 113.941,-188 120.973,-188"/>
<path fill="none" stroke="black" d="M99.8799,-190C106.805,-190 113.941,-190 120.973,-190"/>
<polygon fill="black" stroke="black" points="99.7669,-185.5 89.7669,-189 99.7668,-192.5 99.7669,-185.5"/>
<polygon fill="black" stroke="black" points="121.166,-192.5 131.166,-189 121.166,-185.5 121.166,-192.5"/>
</g>
<!-- Ev -->
<g id="node3" class="node"><title>Ev</title>
<text text-anchor="middle" x="46" y="-109" font-family="Consola" font-size="10.00">∀u;∃v;¬[u &lt; v] </text>
<text text-anchor="middle" x="46" y="-98" font-family="Consola" font-size="10.00">⇕</text>
<text text-anchor="middle" x="46" y="-87" font-family="Consola" font-size="10.00"> ∀u;∃v;[u ≥ v] </text>
<text text-anchor="middle" x="46" y="-52" font-family="Consola" font-size="10.00"> ∃u;∃v;¬[u &lt; v] </text>
<text text-anchor="middle" x="46" y="-41" font-family="Consola" font-size="10.00">⇕</text>
<text text-anchor="middle" x="46" y="-30" font-family="Consola" font-size="10.00"> ∃u;∃v;[u ≥ v]</text>
</g>
<!-- AyAxM -->
<g id="node6" class="node"><title>AyAxM</title>
<text text-anchor="middle" x="182" y="-114.5" font-family="Consola" font-size="10.00">∀y∀x[Q(x) ∧ P(y)]</text>
</g>
<!-- Ev&#45;&gt;AyAxM -->
<!-- AxMAy&#45;&gt;AxAyM -->
<g id="edge2" class="edge"><title>AxMAy&#45;&gt;AxAyM</title>
<path fill="none" stroke="black" d="M181,-232.938C181,-227.73 181,-222.522 181,-217.314"/>
<path fill="none" stroke="black" d="M183,-232.938C183,-227.73 183,-222.522 183,-217.314"/>
<polygon fill="black" stroke="black" points="178.5,-232.954 182,-242.954 185.5,-232.954 178.5,-232.954"/>
<polygon fill="black" stroke="black" points="185.5,-217.281 182,-207.281 178.5,-217.281 185.5,-217.281"/>
</g>
<!-- AxAyM&#45;&gt;AyAxM -->
<g id="edge9" class="edge"><title>AxAyM&#45;&gt;AyAxM</title>
<path fill="none" stroke="black" d="M181,-160.938C181,-155.73 181,-150.522 181,-145.314"/>
<path fill="none" stroke="black" d="M183,-160.938C183,-155.73 183,-150.522 183,-145.314"/>
<polygon fill="black" stroke="black" points="178.5,-160.954 182,-170.954 185.5,-160.954 178.5,-160.954"/>
<polygon fill="black" stroke="black" points="185.5,-145.281 182,-135.281 178.5,-145.281 185.5,-145.281"/>
</g>
<!-- AxEyM -->
<g id="node9" class="node"><title>AxEyM</title>
<text text-anchor="middle" x="325" y="-213.5" font-family="Consola" font-size="10.00">∀x∃y[Q(x) ∧ P(y)]</text>
</g>
<!-- AxAyM&#45;&gt;AxEyM -->
<g id="edge24" class="edge"><title>AxAyM&#45;&gt;AxEyM</title>
<path fill="none" stroke="black" d="M232.899,-197.537C243.583,-199.583 254.967,-201.763 265.941,-203.864"/>
<path fill="none" stroke="black" d="M232.523,-199.501C243.207,-201.547 254.591,-203.727 265.565,-205.829"/>
<polygon fill="black" stroke="black" points="265.206,-208.305 275.685,-206.748 266.522,-201.43 265.206,-208.305"/>
</g>
<!-- ExAyM -->
<g id="node10" class="node"><title>ExAyM</title>
<text text-anchor="middle" x="325" y="-159.5" font-family="Consola" font-size="10.00">∃x∀y[Q(x) ∧ P(y)]</text>
</g>
<!-- AxAyM&#45;&gt;ExAyM -->
<g id="edge30" class="edge"><title>AxAyM&#45;&gt;ExAyM</title>
<path fill="none" stroke="black" d="M232.523,-178.499C243.207,-176.453 254.591,-174.273 265.565,-172.171"/>
<path fill="none" stroke="black" d="M232.899,-180.463C243.583,-178.417 254.967,-176.237 265.941,-174.136"/>
<polygon fill="black" stroke="black" points="266.522,-176.57 275.685,-171.252 265.206,-169.695 266.522,-176.57"/>
</g>
<!-- EyAxM -->
<g id="node7" class="node"><title>EyAxM</title>
<text text-anchor="middle" x="325" y="-357.5" font-family="Consola" font-size="10.00">∃y∀x[Q(x) ∧ P(y)]</text>
</g>
<!-- AxMEy -->
<g id="node8" class="node"><title>AxMEy</title>
<text text-anchor="middle" x="325" y="-285.5" font-family="Consola" font-size="10.00">∀x[Q(x)] ∧ ∃y[P(y)]</text>
</g>
<!-- EyAxM&#45;&gt;AxMEy -->
<g id="edge3" class="edge"><title>EyAxM&#45;&gt;AxMEy</title>
<path fill="none" stroke="black" d="M324,-331.938C324,-326.73 324,-321.522 324,-316.314"/>
<path fill="none" stroke="black" d="M326,-331.938C326,-326.73 326,-321.522 326,-316.314"/>
<polygon fill="black" stroke="black" points="321.5,-331.954 325,-341.954 328.5,-331.954 321.5,-331.954"/>
<polygon fill="black" stroke="black" points="328.5,-316.281 325,-306.281 321.5,-316.281 328.5,-316.281"/>
</g>
<!-- AxMEy&#45;&gt;AxEyM -->
<g id="edge10" class="edge"><title>AxMEy&#45;&gt;AxEyM</title>
<path fill="none" stroke="black" d="M324,-259.938C324,-254.73 324,-249.522 324,-244.314"/>
<path fill="none" stroke="black" d="M326,-259.938C326,-254.73 326,-249.522 326,-244.314"/>
<polygon fill="black" stroke="black" points="321.5,-259.954 325,-269.954 328.5,-259.954 321.5,-259.954"/>
<polygon fill="black" stroke="black" points="328.5,-244.281 325,-234.281 321.5,-244.281 328.5,-244.281"/>
</g>
<!-- AxEyM&#45;&gt;ExAyM -->
<!-- AxAyW -->
<g id="node15" class="node"><title>AxAyW</title>
<text text-anchor="middle" x="468" y="-213.5" font-family="Consola" font-size="10.00">∀x∀y[Q(x) ∨ P(y)]</text>
</g>
<!-- AxEyM&#45;&gt;AxAyW -->
<g id="edge25" class="edge"><title>AxEyM&#45;&gt;AxAyW</title>
<path fill="none" stroke="black" d="M374.13,-215C384.649,-215 395.91,-215 406.833,-215"/>
<path fill="none" stroke="black" d="M374.13,-217C384.649,-217 395.91,-217 406.833,-217"/>
<polygon fill="black" stroke="black" points="407.166,-219.5 417.166,-216 407.166,-212.5 407.166,-219.5"/>
</g>
<!-- ExM -->
<g id="node16" class="node"><title>ExM</title>
<text text-anchor="middle" x="468" y="-159.5" font-family="Consola" font-size="10.00">∃x[Q(x) ∧ P(x)]</text>
</g>
<!-- AxEyM&#45;&gt;ExM -->
<g id="edge35" class="edge"><title>AxEyM&#45;&gt;ExM</title>
<path fill="none" stroke="black" d="M372.986,-196.935C386.636,-191.707 401.59,-185.98 415.462,-180.667"/>
<path fill="none" stroke="black" d="M373.701,-198.802C387.352,-193.575 402.305,-187.848 416.177,-182.535"/>
<polygon fill="black" stroke="black" points="417.135,-184.845 425.222,-178 414.631,-178.308 417.135,-184.845"/>
</g>
<!-- ExMAy -->
<g id="node11" class="node"><title>ExMAy</title>
<text text-anchor="middle" x="325" y="-87.5" font-family="Consola" font-size="10.00">∃x[Q(x)] ∧ ∀y[P(y)]</text>
</g>
<!-- ExAyM&#45;&gt;ExMAy -->
<g id="edge19" class="edge"><title>ExAyM&#45;&gt;ExMAy</title>
<path fill="none" stroke="black" d="M324,-133.938C324,-128.73 324,-123.522 324,-118.314"/>
<path fill="none" stroke="black" d="M326,-133.938C326,-128.73 326,-123.522 326,-118.314"/>
<polygon fill="black" stroke="black" points="321.5,-133.954 325,-143.954 328.5,-133.954 321.5,-133.954"/>
<polygon fill="black" stroke="black" points="328.5,-118.281 325,-108.281 321.5,-118.281 328.5,-118.281"/>
</g>
<!-- ExAyM&#45;&gt;AxAyW -->
<g id="edge38" class="edge"><title>ExAyM&#45;&gt;AxAyW</title>
<path fill="none" stroke="black" d="M373.701,-179.198C385.443,-183.694 398.149,-188.561 410.301,-193.215"/>
<path fill="none" stroke="black" d="M372.986,-181.065C384.727,-185.562 397.433,-190.428 409.586,-195.082"/>
<polygon fill="black" stroke="black" points="408.951,-197.516 419.542,-197.824 411.455,-190.979 408.951,-197.516"/>
</g>
<!-- ExAyM&#45;&gt;ExM -->
<g id="edge31" class="edge"><title>ExAyM&#45;&gt;ExM</title>
<path fill="none" stroke="black" d="M374.13,-161C387.353,-161 401.748,-161 415.17,-161"/>
<path fill="none" stroke="black" d="M374.13,-163C387.353,-163 401.748,-163 415.17,-163"/>
<polygon fill="black" stroke="black" points="415.208,-165.5 425.208,-162 415.208,-158.5 415.208,-165.5"/>
</g>
<!-- AyExM -->
<g id="node12" class="node"><title>AyExM</title>
<text text-anchor="middle" x="325" y="-15.5" font-family="Consola" font-size="10.00">∀y∃x[Q(x) ∧ P(y)]</text>
</g>
<!-- ExMAy&#45;&gt;AyExM -->
<g id="edge21" class="edge"><title>ExMAy&#45;&gt;AyExM</title>
<path fill="none" stroke="black" d="M324,-61.9384C324,-56.7303 324,-51.5222 324,-46.3142"/>
<path fill="none" stroke="black" d="M326,-61.9384C326,-56.7303 326,-51.5222 326,-46.3142"/>
<polygon fill="black" stroke="black" points="321.5,-61.9538 325,-71.9539 328.5,-61.9539 321.5,-61.9538"/>
<polygon fill="black" stroke="black" points="328.5,-46.2812 325,-36.2813 321.5,-46.2813 328.5,-46.2812"/>
</g>
<!-- AyAxW -->
<g id="node13" class="node"><title>AyAxW</title>
<text text-anchor="middle" x="468" y="-357.5" font-family="Consola" font-size="10.00">∀y∀x[Q(x) ∨ P(y)]</text>
</g>
<!-- AxWAy -->
<g id="node14" class="node"><title>AxWAy</title>
<text text-anchor="middle" x="468" y="-285.5" font-family="Consola" font-size="10.00">∀x[Q(x)] ∨ ∀y[P(y)]</text>
</g>
<!-- AyAxW&#45;&gt;AxWAy -->
<g id="edge4" class="edge"><title>AyAxW&#45;&gt;AxWAy</title>
<path fill="none" stroke="black" d="M467,-331.938C467,-326.73 467,-321.522 467,-316.314"/>
<path fill="none" stroke="black" d="M469,-331.938C469,-326.73 469,-321.522 469,-316.314"/>
<polygon fill="black" stroke="black" points="464.5,-331.954 468,-341.954 471.5,-331.954 464.5,-331.954"/>
<polygon fill="black" stroke="black" points="471.5,-316.281 468,-306.281 464.5,-316.281 471.5,-316.281"/>
</g>
<!-- AxWAy&#45;&gt;AxAyW -->
<g id="edge11" class="edge"><title>AxWAy&#45;&gt;AxAyW</title>
<path fill="none" stroke="black" d="M467,-259.938C467,-254.73 467,-249.522 467,-244.314"/>
<path fill="none" stroke="black" d="M469,-259.938C469,-254.73 469,-249.522 469,-244.314"/>
<polygon fill="black" stroke="black" points="464.5,-259.954 468,-269.954 471.5,-259.954 464.5,-259.954"/>
<polygon fill="black" stroke="black" points="471.5,-244.281 468,-234.281 464.5,-244.281 471.5,-244.281"/>
</g>
<!-- AxAyW&#45;&gt;ExM -->
<!-- AxW -->
<g id="node17" class="node"><title>AxW</title>
<text text-anchor="middle" x="610" y="-213.5" font-family="Consola" font-size="10.00">∀x[Q(x) ∨ P(x)]</text>
</g>
<!-- AxAyW&#45;&gt;AxW -->
<g id="edge26" class="edge"><title>AxAyW&#45;&gt;AxW</title>
<path fill="none" stroke="black" d="M518.753,-215C530.91,-215 543.959,-215 556.252,-215"/>
<path fill="none" stroke="black" d="M518.753,-217C530.91,-217 543.959,-217 556.252,-217"/>
<polygon fill="black" stroke="black" points="556.363,-219.5 566.363,-216 556.363,-212.5 556.363,-219.5"/>
</g>
<!-- ExEyM -->
<g id="node18" class="node"><title>ExEyM</title>
<text text-anchor="middle" x="610" y="-159.5" font-family="Consola" font-size="10.00">∃x∃y[Q(x) ∧ P(y)]</text>
</g>
<!-- ExM&#45;&gt;ExEyM -->
<g id="edge32" class="edge"><title>ExM&#45;&gt;ExEyM</title>
<path fill="none" stroke="black" d="M510.626,-161C523.471,-161 537.852,-161 551.567,-161"/>
<path fill="none" stroke="black" d="M510.626,-163C523.471,-163 537.852,-163 551.567,-163"/>
<polygon fill="black" stroke="black" points="551.889,-165.5 561.889,-162 551.889,-158.5 551.889,-165.5"/>
</g>
<!-- AxW&#45;&gt;ExEyM -->
<!-- AxEyW -->
<g id="node23" class="node"><title>AxEyW</title>
<text text-anchor="middle" x="751" y="-213.5" font-family="Consola" font-size="10.00">∀x∃y[Q(x) ∨ P(y)]</text>
</g>
<!-- AxW&#45;&gt;AxEyW -->
<g id="edge27" class="edge"><title>AxW&#45;&gt;AxEyW</title>
<path fill="none" stroke="black" d="M653.839,-215C665.798,-215 678.998,-215 691.688,-215"/>
<path fill="none" stroke="black" d="M653.839,-217C665.798,-217 678.998,-217 691.688,-217"/>
<polygon fill="black" stroke="black" points="691.721,-219.5 701.721,-216 691.721,-212.5 691.721,-219.5"/>
</g>
<!-- ExAyW -->
<g id="node24" class="node"><title>ExAyW</title>
<text text-anchor="middle" x="751" y="-159.5" font-family="Consola" font-size="10.00">∃x∀y[Q(x) ∨ P(y)]</text>
</g>
<!-- AxW&#45;&gt;ExAyW -->
<g id="edge36" class="edge"><title>AxW&#45;&gt;ExAyW</title>
<path fill="none" stroke="black" d="M653.477,-198.425C666.058,-193.538 680.013,-188.117 693.301,-182.954"/>
<path fill="none" stroke="black" d="M654.201,-200.29C666.782,-195.402 680.737,-189.981 694.025,-184.818"/>
<polygon fill="black" stroke="black" points="695.138,-187.068 703.192,-180.184 692.603,-180.543 695.138,-187.068"/>
</g>
<!-- ExMEy -->
<g id="node19" class="node"><title>ExMEy</title>
<text text-anchor="middle" x="610" y="-87.5" font-family="Consola" font-size="10.00">∃x[Q(x)] ∧ ∃y[P(y)]</text>
</g>
<!-- ExEyM&#45;&gt;ExMEy -->
<g id="edge12" class="edge"><title>ExEyM&#45;&gt;ExMEy</title>
<path fill="none" stroke="black" d="M609,-133.938C609,-128.73 609,-123.522 609,-118.314"/>
<path fill="none" stroke="black" d="M611,-133.938C611,-128.73 611,-123.522 611,-118.314"/>
<polygon fill="black" stroke="black" points="606.5,-133.954 610,-143.954 613.5,-133.954 606.5,-133.954"/>
<polygon fill="black" stroke="black" points="613.5,-118.281 610,-108.281 606.5,-118.281 613.5,-118.281"/>
</g>
<!-- ExEyM&#45;&gt;AxEyW -->
<g id="edge39" class="edge"><title>ExEyM&#45;&gt;AxEyW</title>
<path fill="none" stroke="black" d="M658.034,-179.199C669.609,-183.696 682.135,-188.562 694.115,-193.216"/>
<path fill="none" stroke="black" d="M657.31,-181.064C668.885,-185.56 681.41,-190.427 693.391,-195.081"/>
<polygon fill="black" stroke="black" points="692.626,-197.466 703.215,-197.824 695.161,-190.941 692.626,-197.466"/>
</g>
<!-- ExEyM&#45;&gt;ExAyW -->
<g id="edge33" class="edge"><title>ExEyM&#45;&gt;ExAyW</title>
<path fill="none" stroke="black" d="M658.059,-161C668.793,-161 680.326,-161 691.473,-161"/>
<path fill="none" stroke="black" d="M658.059,-163C668.793,-163 680.326,-163 691.473,-163"/>
<polygon fill="black" stroke="black" points="691.568,-165.5 701.567,-162 691.567,-158.5 691.568,-165.5"/>
</g>
<!-- EyExM -->
<g id="node20" class="node"><title>EyExM</title>
<text text-anchor="middle" x="610" y="-15.5" font-family="Consola" font-size="10.00">∃y∃x[Q(x) ∧ P(y)]</text>
</g>
<!-- ExMEy&#45;&gt;EyExM -->
<g id="edge17" class="edge"><title>ExMEy&#45;&gt;EyExM</title>
<path fill="none" stroke="black" d="M609,-61.9384C609,-56.7303 609,-51.5222 609,-46.3142"/>
<path fill="none" stroke="black" d="M611,-61.9384C611,-56.7303 611,-51.5222 611,-46.3142"/>
<polygon fill="black" stroke="black" points="606.5,-61.9538 610,-71.9539 613.5,-61.9539 606.5,-61.9538"/>
<polygon fill="black" stroke="black" points="613.5,-46.2812 610,-36.2813 606.5,-46.2813 613.5,-46.2812"/>
</g>
<!-- EyAxW -->
<g id="node21" class="node"><title>EyAxW</title>
<text text-anchor="middle" x="751" y="-357.5" font-family="Consola" font-size="10.00">∃y∀x[Q(x) ∨ P(y)]</text>
</g>
<!-- AxWEy -->
<g id="node22" class="node"><title>AxWEy</title>
<text text-anchor="middle" x="751" y="-285.5" font-family="Consola" font-size="10.00">∀x[Q(x)] ∨ ∃y[P(y)]</text>
</g>
<!-- EyAxW&#45;&gt;AxWEy -->
<g id="edge6" class="edge"><title>EyAxW&#45;&gt;AxWEy</title>
<path fill="none" stroke="black" d="M750,-331.938C750,-326.73 750,-321.522 750,-316.314"/>
<path fill="none" stroke="black" d="M752,-331.938C752,-326.73 752,-321.522 752,-316.314"/>
<polygon fill="black" stroke="black" points="747.5,-331.954 751,-341.954 754.5,-331.954 747.5,-331.954"/>
<polygon fill="black" stroke="black" points="754.5,-316.281 751,-306.281 747.5,-316.281 754.5,-316.281"/>
</g>
<!-- AxWEy&#45;&gt;AxEyW -->
<g id="edge13" class="edge"><title>AxWEy&#45;&gt;AxEyW</title>
<path fill="none" stroke="black" d="M750,-259.938C750,-254.73 750,-249.522 750,-244.314"/>
<path fill="none" stroke="black" d="M752,-259.938C752,-254.73 752,-249.522 752,-244.314"/>
<polygon fill="black" stroke="black" points="747.5,-259.954 751,-269.954 754.5,-259.954 747.5,-259.954"/>
<polygon fill="black" stroke="black" points="754.5,-244.281 751,-234.281 747.5,-244.281 754.5,-244.281"/>
</g>
<!-- AxEyW&#45;&gt;ExAyW -->
<!-- ExEyW -->
<g id="node28" class="node"><title>ExEyW</title>
<text text-anchor="middle" x="892" y="-186.5" font-family="Consola" font-size="10.00">∃x∃y[Q(x) ∨ P(y)]</text>
</g>
<!-- AxEyW&#45;&gt;ExEyW -->
<g id="edge28" class="edge"><title>AxEyW&#45;&gt;ExEyW</title>
<path fill="none" stroke="black" d="M800.035,-205.651C810.841,-203.552 822.406,-201.305 833.539,-199.143"/>
<path fill="none" stroke="black" d="M800.416,-207.614C811.222,-205.515 822.788,-203.269 833.921,-201.106"/>
<polygon fill="black" stroke="black" points="834.649,-203.511 843.799,-198.169 833.315,-196.64 834.649,-203.511"/>
</g>
<!-- ExWAy -->
<g id="node25" class="node"><title>ExWAy</title>
<text text-anchor="middle" x="751" y="-87.5" font-family="Consola" font-size="10.00">∃x[Q(x)] ∨ ∀y[P(y)]</text>
</g>
<!-- ExAyW&#45;&gt;ExWAy -->
<g id="edge20" class="edge"><title>ExAyW&#45;&gt;ExWAy</title>
<path fill="none" stroke="black" d="M750,-133.938C750,-128.73 750,-123.522 750,-118.314"/>
<path fill="none" stroke="black" d="M752,-133.938C752,-128.73 752,-123.522 752,-118.314"/>
<polygon fill="black" stroke="black" points="747.5,-133.954 751,-143.954 754.5,-133.954 747.5,-133.954"/>
<polygon fill="black" stroke="black" points="754.5,-118.281 751,-108.281 747.5,-118.281 754.5,-118.281"/>
</g>
<!-- ExAyW&#45;&gt;ExEyW -->
<g id="edge34" class="edge"><title>ExAyW&#45;&gt;ExEyW</title>
<path fill="none" stroke="black" d="M800.416,-170.386C811.222,-172.485 822.788,-174.731 833.921,-176.894"/>
<path fill="none" stroke="black" d="M800.035,-172.349C810.841,-174.448 822.406,-176.695 833.539,-178.857"/>
<polygon fill="black" stroke="black" points="833.315,-181.36 843.799,-179.831 834.649,-174.489 833.315,-181.36"/>
</g>
<!-- AyExW -->
<g id="node26" class="node"><title>AyExW</title>
<text text-anchor="middle" x="751" y="-15.5" font-family="Consola" font-size="10.00">∀y∃x[Q(x) ∨ P(y)]</text>
</g>
<!-- ExWAy&#45;&gt;AyExW -->
<g id="edge22" class="edge"><title>ExWAy&#45;&gt;AyExW</title>
<path fill="none" stroke="black" d="M750,-61.9384C750,-56.7303 750,-51.5222 750,-46.3142"/>
<path fill="none" stroke="black" d="M752,-61.9384C752,-56.7303 752,-51.5222 752,-46.3142"/>
<polygon fill="black" stroke="black" points="747.5,-61.9538 751,-71.9539 754.5,-61.9539 747.5,-61.9538"/>
<polygon fill="black" stroke="black" points="754.5,-46.2812 751,-36.2813 747.5,-46.2813 754.5,-46.2812"/>
</g>
<!-- ExWEy -->
<g id="node27" class="node"><title>ExWEy</title>
<text text-anchor="middle" x="892" y="-258.5" font-family="Consola" font-size="10.00">∃x[Q(x)] ∨ ∃y[P(y)]</text>
</g>
<!-- ExWEy&#45;&gt;ExEyW -->
<g id="edge7" class="edge"><title>ExWEy&#45;&gt;ExEyW</title>
<path fill="none" stroke="black" d="M891,-232.938C891,-227.73 891,-222.522 891,-217.314"/>
<path fill="none" stroke="black" d="M893,-232.938C893,-227.73 893,-222.522 893,-217.314"/>
<polygon fill="black" stroke="black" points="888.5,-232.954 892,-242.954 895.5,-232.954 888.5,-232.954"/>
<polygon fill="black" stroke="black" points="895.5,-217.281 892,-207.281 888.5,-217.281 895.5,-217.281"/>
</g>
<!-- EyExW -->
<g id="node29" class="node"><title>EyExW</title>
<text text-anchor="middle" x="892" y="-114.5" font-family="Consola" font-size="10.00">∃y∃x[Q(x) ∨ P(y)]</text>
</g>
<!-- ExEyW&#45;&gt;EyExW -->
<g id="edge14" class="edge"><title>ExEyW&#45;&gt;EyExW</title>
<path fill="none" stroke="black" d="M891,-160.938C891,-155.73 891,-150.522 891,-145.314"/>
<path fill="none" stroke="black" d="M893,-160.938C893,-155.73 893,-150.522 893,-145.314"/>
<polygon fill="black" stroke="black" points="888.5,-160.954 892,-170.954 895.5,-160.954 888.5,-160.954"/>
<polygon fill="black" stroke="black" points="895.5,-145.281 892,-135.281 888.5,-145.281 895.5,-145.281"/>
</g>
<!-- ExW -->
<g id="node31" class="node"><title>ExW</title>
<text text-anchor="middle" x="1036.5" y="-186.5" font-family="Consola" font-size="10.00">∃x[Q(x) ∨ P(x)]</text>
</g>
<!-- ExEyW&#45;&gt;ExW -->
<g id="edge29" class="edge"><title>ExEyW&#45;&gt;ExW</title>
<path fill="none" stroke="black" d="M950.432,-188C961.416,-188 972.856,-188 983.652,-188"/>
<path fill="none" stroke="black" d="M950.432,-190C961.416,-190 972.856,-190 983.652,-190"/>
<polygon fill="black" stroke="black" points="950.055,-185.5 940.055,-189 950.055,-192.5 950.055,-185.5"/>
<polygon fill="black" stroke="black" points="983.77,-192.5 993.77,-189 983.77,-185.5 983.77,-192.5"/>
</g>
<!-- AuEu -->
<g id="node30" class="node"><title>AuEu</title>
<text text-anchor="middle" x="1036.5" y="-347" font-family="Consola" font-size="10.00">∀u∈{a}∪{e}; </text>
<text text-anchor="middle" x="1036.5" y="-336" font-family="Consola" font-size="10.00">⇕</text>
<text text-anchor="middle" x="1036.5" y="-325" font-family="Consola" font-size="10.00"> ∃U={a}∪{e};∀u∈U; </text>
<text text-anchor="middle" x="1036.5" y="-290" font-family="Consola" font-size="10.00"> ∃u∈{a}∪{e}; </text>
<text text-anchor="middle" x="1036.5" y="-279" font-family="Consola" font-size="10.00">⇕</text>
<text text-anchor="middle" x="1036.5" y="-268" font-family="Consola" font-size="10.00"> ∃U⊆{a}∪{e};∀u∈U;</text>
</g>
<!-- AuEu&#45;&gt;ExWEy -->
</g>
</svg>
