
<svg id="pinterest" viewBox="0 0 1024 1024" xmlns="http://www.w3.org/2000/svg">
    <path fill="#FFFFFF" d="M962 512c0 248.74999981-201.2500002 450-450 450S62 760.74999981 62 512 263.25000019 62 512 62s450 201.2500002 450 450"/>
    <path fill="#BD081C" d="M511.3750001 95.75C281.375 95.75 95.1250001 281.9999999 95.1250001 512c0 176.24999971 109.37499961 326.8749999 264.375 387.5000001-3.75000029-33.1250001-6.87499981-83.12500019 1.2499998-119.37499981 7.49999971-32.5000002 48.75000029-206.8750002 48.7500003-206.87500019s-12.49999981-24.99999961-12.49999981-61.875c0-58.12499971 33.75-101.25 74.99999971-101.25 35.62499971 0 52.49999971 26.87500019 52.49999971 58.74999961 0 35.62499971-22.5 89.3750001-34.37499991 138.75000029-10.00000019 41.24999971 20.62500029 74.99999971 61.875 74.99999971 73.7499999 0 130.6249998-78.1250001 130.62499981-190.6250001 0-99.37500029-71.8750002-169.3749999-173.7500001-169.3749999-118.125 0-188.12499961 88.7500002-188.12499961 180.6249999 0 35.62499971 13.74999961 74.3749998 31.25000039 95.0000001 3.12500039 4.37500019 3.75000029 7.49999971 3.12499951 11.8749999-3.12500039 13.12499971-10.00000019 41.24999971-11.25 46.87500058-1.87499971 7.49999971-6.2499999 9.37500029-13.74999961 5.625-51.8749998-24.37499971-84.375-100.0000002-84.375-161.25000029 0-131.24999971 95.625-251.8750002 275.0000001-251.87500019 144.37500029 0 256.25000039 103.12499971 256.24999951 240.00000029 0 143.12499961-90.6249999 258.75-215.6249997 258.75-41.87499961 0-81.87500039-21.8750001-95.625-47.49999961 0 0-20.62500029 79.3749999-25.62500039 98.74999951-9.37500029 36.24999961-34.9999998 81.24999961-51.87499981 109.37500049 38.7500001 11.8749999 79.9999998 18.74999971 123.1250001 18.74999971 230.0000001 0 416.25-186.2499999 416.25-416.25 0-229.3750002-186.2499999-415.6250001-416.25-415.6250001z"/>
</svg>